<svg width="224" height="170" viewBox="0 0 224 170" fill="none" xmlns="http://www.w3.org/2000/svg">
<g clip-path="url(#clip0)">
<path d="M129.085 8.27394C131.006 12.3847 126.935 13.5491 122.271 15.7524C117.607 17.9558 114.117 20.3637 112.196 16.2529C110.274 12.1421 108.715 3.98295 115.313 0.865954C122.138 -2.35842 127.163 4.16315 129.085 8.27394Z" fill="#2F2E41"/>
<path d="M119.569 16.3581C123.037 16.3581 125.848 13.532 125.848 10.0459C125.848 6.55973 123.037 3.73364 119.569 3.73364C116.102 3.73364 113.291 6.55973 113.291 10.0459C113.291 13.532 116.102 16.3581 119.569 16.3581Z" fill="#FFB8B8"/>
<path d="M150.674 38.0394C150.457 37.7541 150.239 37.474 150.02 37.2016C149.736 36.8469 149.45 36.5034 149.163 36.171C145.909 32.3956 142.448 30.0184 138.637 29.7639H138.631L138.575 29.7588L130.98 37.2016L128.399 39.7305L128.455 39.8693L129.848 43.3568H154.258C153.158 41.5216 151.962 39.7466 150.674 38.0394Z" fill="#2F2E41"/>
<path d="M112.742 12.5872L114.989 11.5254L114.676 8.2658L116.179 10.9634L117.253 10.4559L117.071 8.5544L117.947 10.128L125.929 6.35707C125.18 4.75314 123.827 3.51431 122.169 2.91311C120.511 2.3119 118.683 2.39757 117.087 3.15127L115.931 3.69778C114.335 4.45148 113.103 5.81146 112.505 7.47856C111.907 9.14566 111.992 10.9833 112.742 12.5872Z" fill="#2F2E41"/>
<path d="M164.759 127.165H33.6632C32.5449 127.164 31.4728 126.716 30.6821 125.921C29.8914 125.126 29.4466 124.049 29.4453 122.924V43.7281C29.4462 42.9044 29.7721 42.1148 30.3514 41.5323C30.9306 40.9499 31.7161 40.6223 32.5353 40.6213H165.834C166.667 40.6223 167.466 40.9556 168.055 41.5481C168.645 42.1406 168.976 42.9439 168.977 43.7818V122.924C168.976 124.049 168.531 125.126 167.74 125.921C166.95 126.716 165.878 127.164 164.759 127.165Z" fill="#F2F2F2"/>
<path d="M37.7531 122.924H160.669C161.754 122.924 162.794 122.491 163.561 121.72C164.328 120.949 164.759 119.903 164.759 118.812V51.5937C164.759 50.5031 164.328 49.4572 163.561 48.6861C162.794 47.9149 161.754 47.4817 160.669 47.4817H37.7531C36.6684 47.4817 35.6281 47.9149 34.861 48.6861C34.094 49.4572 33.6631 50.5031 33.6631 51.5937V118.812C33.6631 119.903 34.094 120.949 34.861 121.72C35.6281 122.491 36.6684 122.924 37.7531 122.924Z" fill="white"/>
<path d="M168.918 43.4855H29.386V41.3266C29.3876 40.1986 29.8342 39.1173 30.6278 38.3199C31.4214 37.5225 32.4972 37.0742 33.6192 37.0732H164.685C165.807 37.0742 166.883 37.5225 167.676 38.3199C168.47 39.1173 168.917 40.1986 168.918 41.3266V43.4855Z" fill="#B48EAD"/>
<path d="M37.0793 41.3865C37.6841 41.3865 38.1743 40.8936 38.1743 40.2857C38.1743 39.6777 37.6841 39.1848 37.0793 39.1848C36.4746 39.1848 35.9844 39.6777 35.9844 40.2857C35.9844 40.8936 36.4746 41.3865 37.0793 41.3865Z" fill="white"/>
<path d="M41.2353 41.3865C41.8401 41.3865 42.3303 40.8936 42.3303 40.2857C42.3303 39.6777 41.8401 39.1848 41.2353 39.1848C40.6306 39.1848 40.1404 39.6777 40.1404 40.2857C40.1404 40.8936 40.6306 41.3865 41.2353 41.3865Z" fill="white"/>
<path d="M45.3916 41.3865C45.9963 41.3865 46.4866 40.8936 46.4866 40.2857C46.4866 39.6777 45.9963 39.1848 45.3916 39.1848C44.7869 39.1848 44.2966 39.6777 44.2966 40.2857C44.2966 40.8936 44.7869 41.3865 45.3916 41.3865Z" fill="white"/>
<path d="M103.046 108.347H92.0544C91.4106 108.346 90.7933 108.089 90.3381 107.631C89.8828 107.173 89.6267 106.553 89.626 105.905V94.8541C89.6267 94.2068 89.8828 93.5862 90.3381 93.1285C90.7933 92.6708 91.4106 92.4133 92.0544 92.4126H103.046C103.69 92.4133 104.308 92.6708 104.763 93.1285C105.218 93.5862 105.474 94.2068 105.475 94.8541V105.905C105.474 106.553 105.218 107.173 104.763 107.631C104.308 108.089 103.69 108.346 103.046 108.347ZM92.0544 92.9266C91.5461 92.9272 91.0588 93.1304 90.6994 93.4918C90.34 93.8531 90.1378 94.3431 90.1372 94.8541V105.905C90.1378 106.416 90.34 106.906 90.6994 107.268C91.0588 107.629 91.5461 107.832 92.0544 107.833H103.046C103.555 107.832 104.042 107.629 104.402 107.268C104.761 106.906 104.963 106.416 104.964 105.905V94.8541C104.963 94.3431 104.761 93.8531 104.402 93.4918C104.042 93.1304 103.555 92.9272 103.046 92.9266H92.0544Z" fill="#CCCCCC"/>
<path d="M100.874 105.263H94.2272C94.0239 105.262 93.829 105.181 93.6852 105.037C93.5414 104.892 93.4605 104.696 93.4603 104.492V96.2676C93.4605 96.0632 93.5414 95.8672 93.6852 95.7227C93.829 95.5781 94.0239 95.4968 94.2272 95.4966H99.0431C99.2178 95.4967 99.3872 95.5567 99.5235 95.6666L101.354 97.1454C101.443 97.2174 101.516 97.3089 101.565 97.4129C101.615 97.517 101.641 97.631 101.64 97.7463V104.492C101.64 104.696 101.559 104.892 101.416 105.037C101.272 105.181 101.077 105.262 100.874 105.263ZM94.2272 96.0106C94.1594 96.0107 94.0945 96.0378 94.0466 96.086C93.9986 96.1341 93.9717 96.1995 93.9716 96.2676V104.492C93.9717 104.56 93.9986 104.625 94.0466 104.673C94.0945 104.721 94.1594 104.749 94.2272 104.749H100.874C100.941 104.749 101.006 104.721 101.054 104.673C101.102 104.625 101.129 104.56 101.129 104.492V97.7463C101.129 97.7079 101.121 97.6699 101.104 97.6352C101.088 97.6006 101.064 97.5701 101.034 97.5461L99.2031 96.0672C99.1577 96.0306 99.1012 96.0106 99.0431 96.0106H94.2272Z" fill="#CCCCCC"/>
<path d="M99.5954 99.0946H95.5054C95.4376 99.0946 95.3726 99.0675 95.3246 99.0193C95.2767 98.9711 95.2498 98.9057 95.2498 98.8376C95.2498 98.7694 95.2767 98.704 95.3246 98.6558C95.3726 98.6076 95.4376 98.5806 95.5054 98.5806H99.5954C99.6632 98.5806 99.7283 98.6076 99.7762 98.6558C99.8241 98.704 99.8511 98.7694 99.8511 98.8376C99.8511 98.9057 99.8241 98.9711 99.7762 99.0193C99.7283 99.0675 99.6632 99.0946 99.5954 99.0946Z" fill="#CCCCCC"/>
<path d="M99.5954 100.637H95.5054C95.4376 100.637 95.3726 100.61 95.3246 100.562C95.2767 100.513 95.2498 100.448 95.2498 100.38C95.2498 100.312 95.2767 100.246 95.3246 100.198C95.3726 100.15 95.4376 100.123 95.5054 100.123H99.5954C99.6632 100.123 99.7283 100.15 99.7762 100.198C99.8241 100.246 99.8511 100.312 99.8511 100.38C99.8511 100.448 99.8241 100.513 99.7762 100.562C99.7283 100.61 99.6632 100.637 99.5954 100.637Z" fill="#CCCCCC"/>
<path d="M99.5954 102.179H95.5054C95.4376 102.179 95.3726 102.152 95.3246 102.104C95.2767 102.055 95.2498 101.99 95.2498 101.922C95.2498 101.854 95.2767 101.788 95.3246 101.74C95.3726 101.692 95.4376 101.665 95.5054 101.665H99.5954C99.6632 101.665 99.7283 101.692 99.7762 101.74C99.8241 101.788 99.8511 101.854 99.8511 101.922C99.8511 101.99 99.8241 102.055 99.7762 102.104C99.7283 102.152 99.6632 102.179 99.5954 102.179Z" fill="#CCCCCC"/>
<path d="M129.12 108.347H118.128C117.485 108.346 116.867 108.089 116.412 107.631C115.957 107.173 115.701 106.553 115.7 105.905V94.8541C115.701 94.2068 115.957 93.5862 116.412 93.1285C116.867 92.6708 117.485 92.4133 118.128 92.4126H129.12C129.764 92.4133 130.382 92.6708 130.837 93.1285C131.292 93.5862 131.548 94.2068 131.549 94.8541V105.905C131.548 106.553 131.292 107.173 130.837 107.631C130.382 108.089 129.764 108.346 129.12 108.347ZM118.128 92.9266C117.62 92.9272 117.133 93.1304 116.773 93.4918C116.414 93.8531 116.212 94.3431 116.211 94.8541V105.905C116.212 106.416 116.414 106.906 116.773 107.268C117.133 107.629 117.62 107.832 118.128 107.833H129.12C129.629 107.832 130.116 107.629 130.476 107.268C130.835 106.906 131.037 106.416 131.038 105.905V94.8541C131.037 94.3431 130.835 93.8531 130.476 93.4918C130.116 93.1304 129.629 92.9272 129.12 92.9266H118.128Z" fill="#CCCCCC"/>
<path d="M127.203 103.207H120.046C119.842 103.207 119.647 103.125 119.504 102.981C119.36 102.836 119.279 102.64 119.279 102.436V98.3237C119.279 98.1193 119.36 97.9233 119.504 97.7788C119.647 97.6343 119.842 97.553 120.046 97.5527H127.203C127.407 97.553 127.602 97.6343 127.745 97.7788C127.889 97.9233 127.97 98.1193 127.97 98.3237V102.436C127.97 102.64 127.889 102.836 127.745 102.981C127.602 103.125 127.407 103.207 127.203 103.207ZM120.046 98.0667C119.978 98.0668 119.913 98.0939 119.865 98.1421C119.817 98.1903 119.79 98.2556 119.79 98.3237V102.436C119.79 102.504 119.817 102.569 119.865 102.617C119.913 102.666 119.978 102.693 120.046 102.693H127.203C127.271 102.693 127.336 102.666 127.384 102.617C127.432 102.569 127.459 102.504 127.459 102.436V98.3237C127.459 98.2556 127.432 98.1903 127.384 98.1421C127.336 98.0939 127.271 98.0668 127.203 98.0667H120.046Z" fill="#CCCCCC"/>
<path d="M123.624 101.058C123.481 101.058 123.34 101.018 123.218 100.941L119.399 98.5417C119.341 98.5055 119.301 98.4479 119.286 98.3815C119.27 98.3151 119.282 98.2454 119.318 98.1877C119.354 98.13 119.411 98.0889 119.477 98.0735C119.543 98.0582 119.612 98.0697 119.67 98.1057L123.489 100.505C123.53 100.531 123.577 100.544 123.625 100.544C123.672 100.544 123.719 100.531 123.76 100.505L127.579 98.1057C127.636 98.0697 127.706 98.0582 127.772 98.0735C127.838 98.0889 127.895 98.13 127.931 98.1877C127.967 98.2454 127.978 98.3151 127.963 98.3815C127.948 98.4479 127.907 98.5055 127.85 98.5417L124.031 100.941C123.909 101.018 123.768 101.058 123.624 101.058Z" fill="#CCCCCC"/>
<path d="M76.9723 108.347H65.9802C65.3364 108.346 64.7191 108.089 64.2639 107.631C63.8086 107.173 63.5525 106.553 63.5518 105.905V94.8541C63.5525 94.2068 63.8086 93.5862 64.2639 93.1285C64.7191 92.6708 65.3364 92.4133 65.9802 92.4126H76.9723C77.6161 92.4133 78.2334 92.6708 78.6886 93.1285C79.1439 93.5862 79.4 94.2068 79.4007 94.8541V105.905C79.4 106.553 79.1439 107.173 78.6886 107.631C78.2334 108.089 77.6161 108.346 76.9723 108.347ZM65.9802 92.9266C65.4719 92.9272 64.9846 93.1304 64.6252 93.4918C64.2658 93.8531 64.0636 94.3431 64.063 94.8541V105.905C64.0636 106.416 64.2658 106.906 64.6252 107.268C64.9846 107.629 65.4719 107.832 65.9802 107.833H76.9723C77.4806 107.832 77.9679 107.629 78.3273 107.268C78.6867 106.906 78.8889 106.416 78.8895 105.905V94.8541C78.8889 94.3431 78.6867 93.8531 78.3273 93.4918C77.9679 93.1304 77.4806 92.9272 76.9723 92.9266H65.9802Z" fill="#CCCCCC"/>
<path d="M75.0551 103.207H67.8975C67.6942 103.207 67.4992 103.125 67.3555 102.981C67.2117 102.836 67.1308 102.64 67.1306 102.436V98.3237C67.1308 98.1193 67.2117 97.9233 67.3555 97.7788C67.4992 97.6343 67.6942 97.553 67.8975 97.5527H75.0551C75.2584 97.553 75.4534 97.6343 75.5971 97.7788C75.7409 97.9233 75.8218 98.1193 75.822 98.3237V102.436C75.8218 102.64 75.7409 102.836 75.5971 102.981C75.4534 103.125 75.2584 103.207 75.0551 103.207ZM67.8975 98.0667C67.8297 98.0668 67.7648 98.0939 67.7168 98.1421C67.6689 98.1903 67.6419 98.2556 67.6419 98.3237V102.436C67.6419 102.504 67.6689 102.569 67.7168 102.617C67.7648 102.666 67.8297 102.693 67.8975 102.693H75.0551C75.1229 102.693 75.1879 102.666 75.2358 102.617C75.2837 102.569 75.3107 102.504 75.3107 102.436V98.3237C75.3107 98.2556 75.2837 98.1903 75.2358 98.1421C75.1879 98.0939 75.1229 98.0668 75.0551 98.0667H67.8975Z" fill="#CCCCCC"/>
<path d="M73.9208 103.207H68.7766C68.6868 103.207 68.5986 103.183 68.5209 103.138C68.4432 103.093 68.3786 103.028 68.3337 102.95C68.2889 102.872 68.2652 102.783 68.2653 102.693C68.2653 102.603 68.2889 102.514 68.3338 102.436L69.8833 99.7372C69.9282 99.6591 69.9927 99.5942 70.0705 99.5491C70.1482 99.504 70.2364 99.4802 70.3261 99.4802C70.4159 99.4802 70.504 99.504 70.5818 99.5491C70.6595 99.5942 70.724 99.6591 70.7689 99.7372L71.7697 101.48L72.3495 100.47C72.3944 100.392 72.4589 100.327 72.5366 100.282C72.6144 100.237 72.7025 100.213 72.7923 100.213C72.882 100.213 72.9702 100.237 73.0479 100.282C73.1256 100.327 73.1902 100.392 73.2351 100.47L74.3637 102.436C74.4085 102.514 74.4322 102.603 74.4322 102.693C74.4322 102.783 74.4085 102.872 74.3636 102.95C74.3188 103.028 74.2542 103.093 74.1765 103.138C74.0987 103.183 74.0106 103.207 73.9208 103.207H73.9208ZM73.9208 102.693L72.7922 100.727L71.9911 102.123C71.9687 102.162 71.9364 102.194 71.8976 102.217C71.8587 102.239 71.8146 102.251 71.7697 102.251C71.7248 102.251 71.6807 102.239 71.6419 102.217C71.603 102.194 71.5707 102.162 71.5483 102.123L70.3262 99.9942L68.7766 102.693H73.9208Z" fill="#CCCCCC"/>
<path d="M74.2881 99.6086C74.5705 99.6086 74.7994 99.3784 74.7994 99.0946C74.7994 98.8107 74.5705 98.5806 74.2881 98.5806C74.0058 98.5806 73.7769 98.8107 73.7769 99.0946C73.7769 99.3784 74.0058 99.6086 74.2881 99.6086Z" fill="#CCCCCC"/>
<path d="M196.534 166.576L193.4 166.576L191.909 154.423L196.534 154.423L196.534 166.576Z" fill="#FFB8B8"/>
<path d="M197.333 169.63L187.228 169.63V169.501C187.228 168.982 187.329 168.468 187.527 167.988C187.725 167.508 188.015 167.072 188.38 166.705C188.745 166.338 189.179 166.047 189.656 165.848C190.133 165.649 190.644 165.547 191.161 165.547H191.161L197.333 165.547L197.333 169.63Z" fill="#2F2E41"/>
<path d="M209.315 166.576L206.181 166.576L204.69 154.423L209.316 154.423L209.315 166.576Z" fill="#FFB8B8"/>
<path d="M210.114 169.63L200.009 169.63V169.501C200.009 168.982 200.111 168.468 200.309 167.988C200.506 167.508 200.796 167.072 201.161 166.705C201.526 166.338 201.96 166.047 202.437 165.848C202.914 165.649 203.426 165.547 203.942 165.547H203.943L210.114 165.547L210.114 169.63Z" fill="#2F2E41"/>
<path d="M208.375 161.307L205.473 160.42C205.257 160.354 205.064 160.225 204.92 160.05C204.776 159.875 204.687 159.661 204.664 159.435L201.958 133.651C201.955 133.619 201.942 133.59 201.919 133.569C201.896 133.547 201.866 133.536 201.835 133.536C201.804 133.533 201.773 133.542 201.749 133.562C201.724 133.581 201.709 133.61 201.705 133.641L197.172 158.621C197.145 158.773 197.087 158.917 197.003 159.046C196.92 159.175 196.811 159.286 196.684 159.372C196.557 159.458 196.414 159.518 196.264 159.548C196.113 159.578 195.959 159.577 195.808 159.546L192.099 158.778C191.827 158.721 191.584 158.567 191.416 158.344C191.248 158.122 191.165 157.846 191.183 157.567L193.94 116.623L212.637 114.595L209.858 160.271C209.84 160.565 209.712 160.841 209.499 161.043C209.286 161.244 209.005 161.357 208.712 161.358C208.598 161.358 208.485 161.341 208.375 161.307Z" fill="#2F2E41"/>
<path d="M208.358 80.9682C211.825 80.9682 214.636 78.1421 214.636 74.656C214.636 71.1698 211.825 68.3438 208.358 68.3438C204.89 68.3438 202.079 71.1698 202.079 74.656C202.079 78.1421 204.89 80.9682 208.358 80.9682Z" fill="#FFB8B8"/>
<path d="M193.912 116.864L197.966 91.2022C198.181 89.8378 198.683 88.5351 199.438 87.381C200.194 86.2269 201.185 85.2477 202.346 84.5085C203.507 83.7694 204.811 83.2874 206.172 83.0944C207.532 82.9014 208.918 83.002 210.237 83.3894C212.543 84.06 214.518 85.5709 215.775 87.6269C217.033 89.6829 217.483 92.1363 217.037 94.5079L212.796 117.425L193.912 116.864Z" fill="#B48EAD"/>
<path d="M210.091 121.456C210.405 121.247 210.669 120.973 210.866 120.651C211.062 120.329 211.186 119.967 211.229 119.592C211.271 119.216 211.231 118.836 211.112 118.478C210.993 118.12 210.797 117.792 210.538 117.518L214.729 109.358L210.009 109.865L206.752 117.536C206.324 118.004 206.081 118.613 206.069 119.249C206.058 119.885 206.279 120.504 206.69 120.987C207.102 121.47 207.675 121.784 208.302 121.871C208.929 121.957 209.565 121.81 210.091 121.456V121.456Z" fill="#FFB8B8"/>
<path d="M210.989 116.079C210.757 116.046 210.54 115.943 210.368 115.783L208.765 114.293C208.591 114.132 208.472 113.92 208.422 113.688C208.372 113.456 208.394 113.214 208.486 112.995L211.691 105.357L211.236 90.2658C211.301 89.7807 211.461 89.3133 211.706 88.8903C211.951 88.4673 212.277 88.097 212.665 87.8007C213.052 87.5043 213.494 87.2876 213.965 87.163C214.436 87.0384 214.926 87.0083 215.409 87.0745C215.891 87.1406 216.356 87.3017 216.777 87.5486C217.197 87.7954 217.565 88.1232 217.86 88.5131C218.154 88.903 218.369 89.3474 218.493 89.821C218.616 90.2945 218.646 90.7879 218.579 91.2729L219.357 100.759C219.593 103.639 218.781 106.506 217.072 108.828L212.074 115.622C211.978 115.752 211.855 115.861 211.715 115.941C211.574 116.021 211.418 116.07 211.257 116.085C211.168 116.094 211.078 116.092 210.989 116.079Z" fill="#B48EAD"/>
<path d="M172.202 71.2166C172.27 71.5881 172.419 71.94 172.637 72.2475C172.855 72.555 173.138 72.8107 173.465 72.9965C173.793 73.1822 174.156 73.2936 174.531 73.3228C174.906 73.3519 175.282 73.2981 175.634 73.1651L181.474 80.2271L182.85 75.6597L177.094 69.6538C176.832 69.0745 176.369 68.6117 175.791 68.3531C175.213 68.0945 174.56 68.058 173.957 68.2507C173.354 68.4433 172.842 68.8516 172.519 69.3983C172.195 69.9449 172.082 70.5919 172.202 71.2166Z" fill="#FFB8B8"/>
<path d="M176.777 74.1437C176.897 73.9419 177.076 73.7818 177.289 73.6848L179.279 72.781C179.495 72.6836 179.735 72.6552 179.967 72.6996C180.2 72.744 180.413 72.859 180.578 73.029L186.324 78.974L200.324 84.437C200.743 84.6866 201.108 85.0168 201.4 85.4087C201.692 85.8006 201.905 86.2465 202.025 86.7209C202.146 87.1953 202.172 87.6889 202.102 88.1735C202.033 88.6581 201.869 89.1242 201.62 89.5452C201.372 89.9661 201.043 90.3336 200.653 90.6267C200.263 90.9198 199.819 91.1327 199.347 91.2532C198.875 91.3737 198.384 91.3995 197.902 91.3292C197.42 91.2588 196.956 91.0936 196.538 90.843L187.546 87.864C184.817 86.9602 182.507 85.0905 181.046 82.6027L176.772 75.3268C176.69 75.1869 176.638 75.0311 176.62 74.8697C176.602 74.7083 176.618 74.5448 176.666 74.3899C176.693 74.3037 176.73 74.2211 176.777 74.1437Z" fill="#B48EAD"/>
<path opacity="0.1" d="M213.45 96.5435L213.195 104.768L208.485 112.994L212.418 103.826L213.45 96.5435Z" fill="black"/>
<path d="M207.638 75.8421C207.244 75.8936 206.845 75.7995 206.514 75.5773C206.183 75.355 205.944 75.0197 205.841 74.6336C205.742 74.1893 205.524 73.7805 205.211 73.4512C204.898 73.1219 204.501 72.8844 204.064 72.7643C202.913 72.4997 201.505 73.0448 200.661 72.1675C200.48 71.9672 200.35 71.7266 200.28 71.4655C200.21 71.2045 200.202 70.9304 200.258 70.666C200.414 69.8134 201.02 69.1694 201.68 68.6543C203.07 67.5753 204.751 66.9437 206.503 66.8422C207.41 66.8158 208.318 66.8612 209.218 66.978C210.161 67.0378 211.093 67.2091 211.995 67.4883C213.023 67.8784 213.937 68.5228 214.652 69.3619C215.367 70.201 215.86 71.2078 216.086 72.2891C216.292 73.3739 216.26 74.4907 215.993 75.5619C215.725 76.633 215.229 77.6325 214.537 78.4907C213.71 79.5269 212.642 80.3438 211.429 80.8702C211.14 81.0074 210.808 81.0243 210.507 80.9172C209.751 80.615 209.874 79.6735 210.219 79.0456C210.588 78.3736 211.156 77.723 210.859 76.9051C210.71 76.5259 210.425 76.217 210.06 76.04C209.308 75.6547 208.467 75.7458 207.66 75.8397L207.638 75.8421Z" fill="#2F2E41"/>
<path d="M170.104 79.4067H92.3928C91.2745 79.4054 90.2024 78.9582 89.4117 78.1632C88.621 77.3683 88.1762 76.2904 88.1749 75.1661V58.461C88.1762 57.3367 88.621 56.2589 89.4117 55.4639C90.2024 54.6689 91.2745 54.2217 92.3928 54.2205H170.104C171.222 54.2218 172.294 54.6689 173.085 55.4639C173.876 56.2589 174.32 57.3367 174.322 58.461V75.1661C174.32 76.2904 173.876 77.3682 173.085 78.1632C172.294 78.9582 171.222 79.4054 170.104 79.4067Z" fill="white"/>
<path d="M170.104 79.5353H92.3926C91.2404 79.534 90.1358 79.0732 89.3211 78.2542C88.5064 77.4351 88.0482 76.3246 88.0469 75.1662V58.4611C88.0482 57.3027 88.5064 56.1922 89.3211 55.3731C90.1358 54.5541 91.2404 54.0933 92.3926 54.092H170.104C171.256 54.0933 172.36 54.5541 173.175 55.3731C173.99 56.1922 174.448 57.3027 174.449 58.4611V75.1662C174.448 76.3246 173.99 77.4351 173.175 78.2542C172.36 79.0732 171.256 79.534 170.104 79.5353ZM92.3926 54.606C91.376 54.6072 90.4013 55.0137 89.6825 55.7364C88.9636 56.4591 88.5593 57.439 88.5581 58.4611V75.1662C88.5593 76.1883 88.9636 77.1682 89.6825 77.8909C90.4013 78.6136 91.376 79.0201 92.3926 79.0213H170.104C171.12 79.0201 172.095 78.6136 172.814 77.8909C173.533 77.1682 173.937 76.1883 173.938 75.1662V58.4611C173.937 57.439 173.533 56.4591 172.814 55.7364C172.095 55.0137 171.12 54.6072 170.104 54.606H92.3926Z" fill="#3F3D56"/>
<path d="M160.645 75.2946H101.851C100.733 75.2933 99.6604 74.8461 98.8697 74.0512C98.079 73.2562 97.6342 72.1783 97.6329 71.0541V62.316C97.6342 61.1917 98.079 60.1138 98.8697 59.3189C99.6604 58.5239 100.733 58.0767 101.851 58.0754H160.645C161.764 58.0767 162.836 58.5239 163.626 59.3189C164.417 60.1138 164.862 61.1917 164.863 62.316V71.0541C164.862 72.1783 164.417 73.2562 163.626 74.0512C162.836 74.8461 161.764 75.2933 160.645 75.2946Z" fill="#F2F2F2"/>
<path d="M114.503 70.5849C117.289 70.5849 119.547 68.3144 119.547 65.5136C119.547 62.7129 117.289 60.4424 114.503 60.4424C111.717 60.4424 109.459 62.7129 109.459 65.5136C109.459 68.3144 111.717 70.5849 114.503 70.5849Z" fill="#FF6584"/>
<path d="M156.992 74.7829L149.872 68.7794L142.875 62.8796C142.69 62.7239 142.457 62.6388 142.216 62.6392C141.975 62.6397 141.742 62.7257 141.558 62.8821L134.583 68.809L132.88 70.2568L130.311 68.091L122.505 61.5089C122.32 61.3532 122.087 61.2681 121.846 61.2686C121.605 61.269 121.372 61.355 121.188 61.5114L113.407 68.1237L105.504 74.8401C105.464 74.8741 105.435 74.9196 105.422 74.9706C105.408 75.0216 105.411 75.0754 105.429 75.1249C105.447 75.1744 105.48 75.2171 105.523 75.2472C105.566 75.2774 105.617 75.2935 105.669 75.2933L121.873 75.262L127.002 75.252L126.951 75.2947L142.24 75.2651L156.828 75.2368C156.88 75.2367 156.931 75.2204 156.974 75.1901C157.017 75.1598 157.05 75.117 157.068 75.0675C157.086 75.0179 157.088 74.964 157.074 74.9131C157.061 74.8622 157.032 74.8168 156.992 74.7829Z" fill="#3F3D56"/>
<path d="M223.745 170H174.664C174.596 170 174.531 169.973 174.483 169.925C174.435 169.877 174.408 169.811 174.408 169.743C174.408 169.675 174.435 169.61 174.483 169.561C174.531 169.513 174.596 169.486 174.664 169.486H223.745C223.812 169.486 223.877 169.513 223.925 169.561C223.973 169.61 224 169.675 224 169.743C224 169.811 223.973 169.877 223.925 169.925C223.877 169.973 223.812 170 223.745 170Z" fill="#CCCCCC"/>
<path d="M154.414 33.9018C154.21 33.5683 153.94 33.28 153.622 33.0547C153.303 32.8293 152.942 32.6716 152.561 32.5911C152.421 32.5616 152.279 32.5435 152.136 32.5371L132.66 15.0301C132.278 14.6348 131.767 14.3897 131.221 14.3388C131.113 14.3264 131.005 14.3229 130.896 14.3285C130.447 14.3491 130.013 14.5008 129.648 14.7652C129.283 15.0295 129.003 15.3951 128.841 15.8171C128.68 16.2392 128.644 16.6994 128.738 17.1416C128.833 17.5838 129.053 17.9887 129.373 18.3069L136.829 24.8425L149.074 35.5723C149.084 35.7744 149.114 35.975 149.163 36.1712C149.31 36.7394 149.625 37.2494 150.066 37.6335C150.508 38.0177 151.055 38.2579 151.635 38.3223C152.165 38.3844 152.701 38.2954 153.182 38.0653C153.564 37.8858 153.902 37.6254 154.174 37.302C154.202 37.2686 154.227 37.2377 154.253 37.2017C154.61 36.7334 154.817 36.1667 154.846 35.5771C154.875 34.9875 154.724 34.4031 154.414 33.9018H154.414Z" fill="#FFB8B8"/>
<path d="M121.101 50.7739L120.919 43.3568L120.766 37.2016L120.661 32.8942L120.454 24.498C120.413 24.0484 120.243 23.6206 119.964 23.2667C119.685 22.9128 119.31 22.6482 118.884 22.5051C118.458 22.362 118 22.3467 117.566 22.461C117.131 22.5753 116.739 22.8142 116.438 23.1487C116.367 23.2251 116.303 23.3077 116.246 23.3954C115.931 23.8486 115.79 24.4006 115.847 24.9503L116.302 37.2016L116.53 43.3568L116.821 51.2082C116.737 51.3236 116.661 51.4447 116.594 51.5706C116.412 51.9172 116.302 52.2972 116.271 52.6878C116.24 53.0783 116.288 53.4712 116.412 53.8425C116.542 54.2319 116.753 54.5892 117.03 54.8908C117.307 55.1925 117.645 55.4317 118.02 55.5927C118.396 55.7537 118.802 55.8328 119.21 55.8248C119.619 55.8168 120.021 55.722 120.39 55.5464C120.819 55.3425 121.191 55.0355 121.474 54.6526C121.757 54.2697 121.942 53.8226 122.012 53.3508C122.082 52.8791 122.036 52.3972 121.877 51.9477C121.718 51.4983 121.451 51.0951 121.101 50.7739H121.101Z" fill="#FFB8B8"/>
<path d="M138.637 29.764L136.829 24.8424L133.905 16.8702C133.694 16.2901 133.356 15.7653 132.915 15.3346C132.475 14.904 131.944 14.5785 131.361 14.3824C131.316 14.367 131.267 14.3516 131.221 14.3387C130.657 14.1665 130.062 14.1192 129.478 14.1999C128.894 14.2806 128.334 14.4876 127.836 14.8064L117.987 21.0876C117.085 21.6615 116.44 22.5655 116.189 23.6085C115.937 24.6516 116.099 25.752 116.64 26.6774C117.872 28.8187 119.214 30.8938 120.661 32.8943C121.809 34.4646 123.946 34.6316 124.316 37.2016H131.579L138.931 30.5658L138.637 29.764Z" fill="#CCCCCC"/>
<path d="M25.8606 89.9133C29.132 89.9133 31.7839 87.2471 31.7839 83.9581C31.7839 80.6692 29.132 78.0029 25.8606 78.0029C22.5892 78.0029 19.9373 80.6692 19.9373 83.9581C19.9373 87.2471 22.5892 89.9133 25.8606 89.9133Z" fill="#A0616A"/>
<path d="M40.4025 79.8588C40.4609 79.9056 40.5174 79.9551 40.5722 80.0074C40.8443 80.2651 41.0592 80.5777 41.2028 80.9247C41.3463 81.2717 41.4153 81.6453 41.4053 82.021C41.3952 82.3968 41.3063 82.7661 41.1444 83.1048C40.9824 83.4436 40.7511 83.7441 40.4656 83.9867C40.399 84.0429 40.3296 84.0955 40.2576 84.1444L40.6584 97.7513C40.6699 98.1968 40.5381 98.634 40.2828 98.9983C40.0274 99.3625 39.6621 99.6342 39.241 99.7732L39.2166 99.7784L28.2274 100.955C27.9287 100.987 27.6266 100.959 27.3386 100.873C27.0506 100.787 26.7824 100.644 26.5496 100.453C26.3167 100.263 26.1237 100.027 25.9818 99.761C25.8399 99.4947 25.7519 99.2028 25.7228 98.9022C25.6938 98.6015 25.7242 98.2981 25.8124 98.0093C25.9007 97.7206 26.0449 97.4523 26.2368 97.2199C26.4288 96.9875 26.6646 96.7956 26.9307 96.6554C27.1968 96.5151 27.4879 96.4293 27.7872 96.4028L35.6207 95.7091L36.9755 83.9253C36.8869 83.8465 36.8039 83.7615 36.7271 83.6709C36.3024 83.1655 36.0796 82.5194 36.1021 81.8581C36.1245 81.1968 36.3906 80.5675 36.8487 80.0924C37.3068 79.6173 37.9241 79.3303 38.5808 79.2872C39.2376 79.244 39.8868 79.4478 40.4025 79.8588H40.4025Z" fill="#A0616A"/>
<path d="M35.6162 166.839H38.5731L39.9796 155.374H35.6157L35.6162 166.839Z" fill="#A0616A"/>
<path d="M34.8622 165.869L40.6849 165.868H40.6851C41.1724 165.868 41.6549 165.965 42.1052 166.152C42.5554 166.34 42.9644 166.615 43.309 166.961C43.6536 167.307 43.9269 167.719 44.1134 168.171C44.2999 168.624 44.3958 169.109 44.3958 169.599V169.72L34.8624 169.721L34.8622 165.869Z" fill="#2F2E41"/>
<path d="M6.22864 162.729L8.76907 164.25L15.8124 155.122L12.0628 152.877L6.22864 162.729Z" fill="#A0616A"/>
<path d="M6.07443 161.508L11.0775 164.502L11.0777 164.503C11.4964 164.753 11.8619 165.084 12.1533 165.477C12.4447 165.87 12.6564 166.316 12.7762 166.791C12.8959 167.266 12.9215 167.76 12.8514 168.245C12.7813 168.729 12.6169 169.196 12.3676 169.617L12.3059 169.721L4.11438 164.817L6.07443 161.508Z" fill="#2F2E41"/>
<path d="M39.2706 162.79H35.9597C35.6917 162.79 35.4329 162.691 35.2336 162.51C35.0343 162.33 34.9085 162.082 34.8806 161.814L31.5428 130.27C31.5344 130.191 31.5002 130.116 31.4456 130.058C31.3909 130 31.3188 129.962 31.2404 129.949C31.162 129.937 31.0816 129.95 31.0116 129.988C30.9417 130.026 30.8861 130.086 30.8534 130.159L24.8319 143.564L14.1713 161.041C14.0333 161.265 13.8197 161.431 13.5695 161.51C13.3194 161.588 13.0494 161.574 12.8091 161.469L8.55024 159.585C8.40943 159.522 8.2834 159.431 8.18051 159.316C8.07762 159.201 8.00023 159.065 7.95346 158.918C7.90669 158.77 7.89162 158.615 7.90924 158.461C7.92686 158.307 7.97677 158.159 8.05566 158.026L17.8557 141.529L20.8613 127.629C19.916 121.601 23.9685 112.639 24.0096 112.549L24.0296 112.505L35.1923 108.119L35.2483 108.188C39.6505 122.712 42.333 138.342 40.3523 161.79C40.3279 162.062 40.2036 162.315 40.0036 162.5C39.8035 162.685 39.5422 162.788 39.2706 162.79Z" fill="#2F2E41"/>
<path d="M23.58 113.974L23.528 113.864C23.5031 113.811 21.021 108.548 19.1077 102.923C18.7399 101.835 18.6009 100.682 18.6994 99.5378C18.7979 98.3931 19.1318 97.2816 19.6799 96.2734C20.2351 95.2548 20.9947 94.3633 21.9105 93.6553C22.8264 92.9473 23.8785 92.4382 25.0002 92.1603C26.9476 91.691 28.9978 91.9407 30.7774 92.8639C32.557 93.787 33.9475 95.3222 34.6956 97.1897C36.2133 101.005 35.7296 105.078 35.2744 108.281L35.2654 108.345L35.2073 108.373L23.58 113.974Z" fill="#3F3D56"/>
<path d="M33.0424 80.5941H23.6368V76.4722C25.7013 75.6477 27.7214 74.9464 28.9425 76.4722C30.0299 76.4722 31.0727 76.9065 31.8416 77.6795C32.6104 78.4525 33.0424 79.5009 33.0424 80.5941V80.5941Z" fill="#2F2E41"/>
<path d="M23.1162 75.7449C17.4934 75.7449 15.9196 82.8307 15.9196 86.8282C15.9196 89.0576 16.9224 89.8549 18.4982 90.1247L19.0547 87.1407L20.3582 90.2532C20.8008 90.2554 21.2659 90.2468 21.748 90.2378L22.1899 89.3229L23.1754 90.2214C27.1226 90.2273 30.3127 90.8057 30.3127 86.8282C30.3127 82.8307 28.9325 75.7449 23.1162 75.7449Z" fill="#2F2E41"/>
<path d="M49.3363 170H0.255628C0.187832 170 0.122811 169.973 0.0748717 169.925C0.026932 169.877 0 169.811 0 169.743C0 169.675 0.026932 169.61 0.0748717 169.561C0.122811 169.513 0.187832 169.486 0.255628 169.486H49.3363C49.4041 169.486 49.4691 169.513 49.5171 169.561C49.565 169.61 49.5919 169.675 49.5919 169.743C49.5919 169.811 49.565 169.877 49.5171 169.925C49.4691 169.973 49.4041 170 49.3363 170Z" fill="#CCCCCC"/>
<path d="M50.2591 85.4463H39.2671C38.6232 85.4456 38.006 85.1881 37.5507 84.7304C37.0955 84.2727 36.8394 83.6521 36.8386 83.0048V71.9537C36.8394 71.3064 37.0955 70.6858 37.5507 70.2281C38.006 69.7704 38.6232 69.5129 39.2671 69.5122H50.2591C50.903 69.5129 51.5202 69.7704 51.9755 70.2281C52.4308 70.6858 52.6869 71.3064 52.6876 71.9537V83.0048C52.6869 83.6521 52.4308 84.2727 51.9755 84.7304C51.5202 85.1881 50.903 85.4456 50.2591 85.4463Z" fill="white"/>
<path d="M50.2591 85.4463H39.2671C38.6232 85.4456 38.006 85.1881 37.5507 84.7304C37.0955 84.2727 36.8394 83.6521 36.8386 83.0048V71.9537C36.8394 71.3064 37.0955 70.6858 37.5507 70.2281C38.006 69.7704 38.6232 69.5129 39.2671 69.5122H50.2591C50.903 69.5129 51.5202 69.7704 51.9755 70.2281C52.4308 70.6858 52.6869 71.3064 52.6876 71.9537V83.0048C52.6869 83.6521 52.4308 84.2727 51.9755 84.7304C51.5202 85.1881 50.903 85.4456 50.2591 85.4463ZM39.2671 70.0262C38.7588 70.0268 38.2715 70.23 37.912 70.5914C37.5526 70.9528 37.3504 71.4427 37.3499 71.9537V83.0048C37.3504 83.5159 37.5526 84.0058 37.912 84.3672C38.2715 84.7285 38.7588 84.9318 39.2671 84.9323H50.2591C50.7674 84.9318 51.2547 84.7285 51.6142 84.3672C51.9736 84.0058 52.1758 83.5159 52.1763 83.0048V71.9537C52.1758 71.4427 51.9736 70.9528 51.6142 70.5914C51.2547 70.23 50.7674 70.0268 50.2591 70.0262H39.2671Z" fill="#3F3D56"/>
<path d="M48.3418 80.9488H41.1842C40.9809 80.9486 40.786 80.8673 40.6422 80.7228C40.4984 80.5782 40.4176 80.3822 40.4174 80.1778V74.7808C40.4176 74.5764 40.4984 74.3804 40.6422 74.2358C40.786 74.0913 40.9809 74.01 41.1842 74.0098H43.1992C43.3302 74.0093 43.4592 74.0428 43.5736 74.107C43.6881 74.1713 43.7841 74.2641 43.8524 74.3766L44.4143 75.2948H48.3418C48.5452 75.295 48.7401 75.3763 48.8839 75.5209C49.0276 75.6654 49.1085 75.8614 49.1087 76.0658V80.1778C49.1085 80.3822 49.0276 80.5782 48.8839 80.7228C48.7401 80.8673 48.5452 80.9486 48.3418 80.9488Z" fill="#B48EAD"/>
<path d="M48.1091 83.6752C48.1449 83.741 48.1779 83.8087 48.2082 83.8783C48.3595 84.222 48.4369 84.5939 48.4353 84.9698C48.4337 85.3456 48.3531 85.7169 48.1988 86.0592C48.0445 86.4016 47.82 86.7072 47.54 86.9563C47.26 87.2053 46.9308 87.392 46.574 87.5043C46.491 87.5301 46.4067 87.5515 46.3215 87.5684L41.4391 100.266C41.2777 100.681 40.9875 101.032 40.6116 101.268C40.2357 101.504 39.7941 101.612 39.3523 101.576L39.3278 101.571L28.7456 98.3685C28.4579 98.2814 28.1902 98.1379 27.958 97.9462C27.7258 97.7545 27.5336 97.5185 27.3926 97.2517C27.2517 96.9849 27.1646 96.6927 27.1366 96.392C27.1086 96.0912 27.1401 95.7878 27.2294 95.4994C27.3186 95.2109 27.4638 94.9431 27.6566 94.7114C27.8494 94.4797 28.0859 94.2887 28.3525 94.1494C28.6191 94.0101 28.9106 93.9253 29.21 93.8998C29.5094 93.8744 29.8108 93.9089 30.0969 94.0012L37.5844 96.418L43.3811 86.0861C43.3299 85.9788 43.2862 85.8681 43.2504 85.7547C43.054 85.1232 43.0981 84.4408 43.374 83.8402C43.65 83.2395 44.1381 82.7633 44.7436 82.5042C45.3492 82.245 46.0289 82.2213 46.6508 82.4377C47.2727 82.6541 47.7925 83.0952 48.1091 83.6752H48.1091Z" fill="#A0616A"/>
</g>
<defs>
<clipPath id="clip0">
<rect width="224" height="170" fill="white"/>
</clipPath>
</defs>
</svg>
