<?xml version="1.0" standalone="no"?>
  <!DOCTYPE svg PUBLIC "-//W3C//DTD SVG 1.1//EN" "http://www.w3.org/Graphics/SVG/1.1/DTD/svg11.dtd" >
  <svg>
  <metadata>
  Created by font-carrier
  </metadata>
  <defs>
  <font id="Nunito-Black" horiz-adv-x="1396" vert-adv-y="1396" >
    <font-face
      
      font-family="Nunito Black"
      
      font-weight="400"
      
      font-stretch="normal"
      
      units-per-em="1000"
      
      ascent="1011"
      
      descent="-353"
      
    />
      <missing-glyph />

      

      
      <glyph glyph-name="uni41" unicode="&#x41;" d="M97-9Q50-9 28 23Q6 55 28 103L277 639Q295 678 321 696Q347 714 382 714Q416 714 442 696Q468 678 486 639L735 103Q758 54 737 22.50Q716-9 671-9Q631-9 609.50 9Q588 27 571 67L539 143L224 143L192 67Q174 27 155 9Q136-9 97-9M380 513L284 284L478 284L382 513L380 513Z"  horiz-adv-x="763" vert-adv-y="1000"  />

      
      <glyph glyph-name="unic1" unicode="&#xc1;" d="M97-9Q50-9 28 23Q6 55 28 103L277 639Q295 678 321 696Q347 714 382 714Q416 714 442 696Q468 678 486 639L735 103Q758 54 737 22.50Q716-9 671-9Q631-9 609.50 9Q588 27 571 67L539 143L224 143L192 67Q174 27 155 9Q136-9 97-9M380 513L284 284L478 284L382 513L380 513M450 773Q432 756 412.50 756Q393 756 378 767.50Q363 779 358 796.50Q353 814 366 833L431 930Q445 951 465 955Q485 959 504 951.50Q523 944 536 928.50Q549 913 550 894Q551 875 533 857L450 773Z"  horiz-adv-x="763" vert-adv-y="1000"  />

      
      <glyph glyph-name="uni0102" unicode="&#x0102;" d="M97-9Q50-9 28 23Q6 55 28 103L277 639Q295 678 321 696Q347 714 382 714Q416 714 442 696Q468 678 486 639L735 103Q758 54 737 22.50Q716-9 671-9Q631-9 609.50 9Q588 27 571 67L539 143L224 143L192 67Q174 27 155 9Q136-9 97-9M380 513L284 284L478 284L382 513L380 513M381 760Q311 760 260 793Q209 826 193 880Q182 907 194.50 924Q207 941 229 944Q258 948 270.50 932.50Q283 917 293 905Q304 881 327.50 870Q351 859 381 859Q411 859 434 870Q457 881 469 905Q479 917 491.50 932Q504 947 533 944Q555 941 566.50 924.50Q578 908 569 880Q553 826 502 793Q451 760 381 760Z"  horiz-adv-x="763" vert-adv-y="1000"  />

      
      <glyph glyph-name="uni1EAE" unicode="&#x1EAE;" d="M97-9Q50-9 28 23Q6 55 28 103L277 639Q295 678 321 696Q347 714 382 714Q416 714 442 696Q468 678 486 639L735 103Q758 54 737 22.50Q716-9 671-9Q631-9 609.50 9Q588 27 571 67L539 143L224 143L192 67Q174 27 155 9Q136-9 97-9M380 513L284 284L478 284L382 513L380 513M429 904Q413 887 395 885Q377 883 362 891.50Q347 900 341.50 916Q336 932 344 951L376 1016Q386 1038 405 1044.50Q424 1051 443.50 1045.50Q463 1040 477 1026Q491 1012 493 993.50Q495 975 476 955L429 904M381 760Q315 760 268 790.50Q221 821 203 872Q194 896 203.50 911Q213 926 231 928Q250 930 262 922Q274 914 288 896Q300 877 323 864.50Q346 852 381 852Q416 852 439 864Q462 876 474 895Q488 913 500 921.50Q512 930 531 928Q549 926 558.50 912Q568 898 561 876Q544 823 496.50 791.50Q449 760 381 760Z"  horiz-adv-x="763" vert-adv-y="1000"  />

      
      <glyph glyph-name="uni1EB6" unicode="&#x1EB6;" d="M97-9Q50-9 28 23Q6 55 28 103L277 639Q295 678 321 696Q347 714 382 714Q416 714 442 696Q468 678 486 639L735 103Q758 54 737 22.50Q716-9 671-9Q631-9 609.50 9Q588 27 571 67L539 143L224 143L192 67Q174 27 155 9Q136-9 97-9M380 513L284 284L478 284L382 513L380 513M382-230Q341-230 319-209Q297-188 297-149Q297-69 382-69Q423-69 445-90Q467-111 467-149Q467-230 382-230M381 760Q311 760 260 793Q209 826 193 880Q182 907 194.50 924Q207 941 229 944Q258 948 270.50 932.50Q283 917 293 905Q304 881 327.50 870Q351 859 381 859Q411 859 434 870Q457 881 469 905Q479 917 491.50 932Q504 947 533 944Q555 941 566.50 924.50Q578 908 569 880Q553 826 502 793Q451 760 381 760Z"  horiz-adv-x="763" vert-adv-y="1000"  />

      
      <glyph glyph-name="uni1EB0" unicode="&#x1EB0;" d="M97-9Q50-9 28 23Q6 55 28 103L277 639Q295 678 321 696Q347 714 382 714Q416 714 442 696Q468 678 486 639L735 103Q758 54 737 22.50Q716-9 671-9Q631-9 609.50 9Q588 27 571 67L539 143L224 143L192 67Q174 27 155 9Q136-9 97-9M380 513L284 284L478 284L382 513L380 513M333 904L286 955Q267 975 269 993.50Q271 1012 285 1026Q299 1040 318.50 1045.50Q338 1051 357 1044.50Q376 1038 386 1016L418 951Q426 932 420.50 916Q415 900 400 891.50Q385 883 367 885Q349 887 333 904M381 760Q313 760 265.50 791.50Q218 823 201 876Q194 898 203.50 912Q213 926 231 928Q250 930 262 921.50Q274 913 288 895Q300 876 323 864Q346 852 381 852Q416 852 439 864.50Q462 877 474 896Q488 914 500 922Q512 930 531 928Q549 926 558.50 911Q568 896 559 872Q541 821 494 790.50Q447 760 381 760Z"  horiz-adv-x="763" vert-adv-y="1000"  />

      
      <glyph glyph-name="uni1EB2" unicode="&#x1EB2;" d="M97-9Q50-9 28 23Q6 55 28 103L277 639Q295 678 321 696Q347 714 382 714Q416 714 442 696Q468 678 486 639L735 103Q758 54 737 22.50Q716-9 671-9Q631-9 609.50 9Q588 27 571 67L539 143L224 143L192 67Q174 27 155 9Q136-9 97-9M380 513L284 284L478 284L382 513L380 513M422 897Q407 888 387 889.50Q367 891 356 900.50Q345 910 357 924Q375 941 375 957Q375 974 349 974Q338 974 324 971Q290 965 281 991Q270 1022 305 1032Q325 1037 345 1039.50Q365 1042 388 1042Q435 1042 461 1028Q487 1014 487 986Q487 959 467 936.50Q447 914 422 897M381 760Q315 760 268 790.50Q221 821 203 872Q194 896 203.50 911Q213 926 231 928Q250 930 262 922Q274 914 288 896Q300 877 323 864.50Q346 852 381 852Q416 852 439 864Q462 876 474 895Q488 913 500 921.50Q512 930 531 928Q549 926 558.50 912Q568 898 561 876Q544 823 496.50 791.50Q449 760 381 760Z"  horiz-adv-x="763" vert-adv-y="1000"  />

      
      <glyph glyph-name="uni1EB4" unicode="&#x1EB4;" d="M97-9Q50-9 28 23Q6 55 28 103L277 639Q295 678 321 696Q347 714 382 714Q416 714 442 696Q468 678 486 639L735 103Q758 54 737 22.50Q716-9 671-9Q631-9 609.50 9Q588 27 571 67L539 143L224 143L192 67Q174 27 155 9Q136-9 97-9M380 513L284 284L478 284L382 513L380 513M232 919Q213 920 203 932.50Q193 945 200 965Q212 1002 242 1022Q272 1042 313 1042Q340 1042 363 1033.50Q386 1025 406 1016.50Q426 1008 443 1008Q456 1008 466 1010.50Q476 1013 482 1020Q494 1031 504 1038.50Q514 1046 530 1045Q550 1044 559.50 1031.50Q569 1019 563 999Q551 962 521 942Q491 922 449 922Q422 922 399 930.50Q376 939 356 947.50Q336 956 319 956Q292 956 281 943Q269 933 259 926Q249 919 232 919M381 760Q323 760 279.50 780.50Q236 801 213 836Q198 856 204.50 873Q211 890 229 896Q249 902 262.50 896Q276 890 293 878Q307 866 329 859Q351 852 381 852Q411 852 433 859Q455 866 468 878Q485 890 499 896Q513 902 533 896Q551 889 557.50 874.50Q564 860 553 841Q531 804 486 782Q441 760 381 760Z"  horiz-adv-x="763" vert-adv-y="1000"  />

      
      <glyph glyph-name="uni01CD" unicode="&#x01CD;" d="M97-9Q50-9 28 23Q6 55 28 103L277 639Q295 678 321 696Q347 714 382 714Q416 714 442 696Q468 678 486 639L735 103Q758 54 737 22.50Q716-9 671-9Q631-9 609.50 9Q588 27 571 67L539 143L224 143L192 67Q174 27 155 9Q136-9 97-9M380 513L284 284L478 284L382 513L380 513M381 749Q319 749 281 803L227 878Q213 897 218 914Q223 931 239 941Q255 951 275 950Q295 949 311 931L381 854L451 931Q468 949 488 950Q508 951 523.50 941Q539 931 544 914Q549 897 535 878L481 803Q443 749 381 749Z"  horiz-adv-x="763" vert-adv-y="1000"  />

      
      <glyph glyph-name="unic2" unicode="&#xc2;" d="M97-9Q50-9 28 23Q6 55 28 103L277 639Q295 678 321 696Q347 714 382 714Q416 714 442 696Q468 678 486 639L735 103Q758 54 737 22.50Q716-9 671-9Q631-9 609.50 9Q588 27 571 67L539 143L224 143L192 67Q174 27 155 9Q136-9 97-9M380 513L284 284L478 284L382 513L380 513M311 774Q295 757 275 755.50Q255 754 239 764.50Q223 775 218 791.50Q213 808 227 827L281 903Q319 957 381 957Q443 957 481 903L535 827Q549 808 544 791.50Q539 775 523.50 764.50Q508 754 488 755.50Q468 757 451 774L381 851L311 774Z"  horiz-adv-x="763" vert-adv-y="1000"  />

      
      <glyph glyph-name="uni1EA4" unicode="&#x1EA4;" d="M97-9Q50-9 28 23Q6 55 28 103L277 639Q295 678 321 696Q347 714 382 714Q416 714 442 696Q468 678 486 639L735 103Q758 54 737 22.50Q716-9 671-9Q631-9 609.50 9Q588 27 571 67L539 143L224 143L192 67Q174 27 155 9Q136-9 97-9M380 513L284 284L478 284L382 513L380 513M594 867Q577 846 556 848.50Q535 851 524.50 868.50Q514 886 527 911L581 1011Q594 1035 615.50 1038Q637 1041 656 1029.50Q675 1018 680.50 997.50Q686 977 667 955L594 867M309 770Q291 753 272.50 751.50Q254 750 240.50 759.50Q227 769 223.50 785.50Q220 802 233 821L283 895Q303 924 326.50 936Q350 948 381 948Q412 948 436 936Q460 924 479 895L529 821Q542 802 538.50 785.50Q535 769 521.50 759.50Q508 750 489.50 751.50Q471 753 453 770L381 843L309 770Z"  horiz-adv-x="763" vert-adv-y="1000"  />

      
      <glyph glyph-name="uni1EAC" unicode="&#x1EAC;" d="M97-9Q50-9 28 23Q6 55 28 103L277 639Q295 678 321 696Q347 714 382 714Q416 714 442 696Q468 678 486 639L735 103Q758 54 737 22.50Q716-9 671-9Q631-9 609.50 9Q588 27 571 67L539 143L224 143L192 67Q174 27 155 9Q136-9 97-9M380 513L284 284L478 284L382 513L380 513M382-230Q341-230 319-209Q297-188 297-149Q297-69 382-69Q423-69 445-90Q467-111 467-149Q467-230 382-230M311 774Q295 757 275 755.50Q255 754 239 764.50Q223 775 218 791.50Q213 808 227 827L281 903Q319 957 381 957Q443 957 481 903L535 827Q549 808 544 791.50Q539 775 523.50 764.50Q508 754 488 755.50Q468 757 451 774L381 851L311 774Z"  horiz-adv-x="763" vert-adv-y="1000"  />

      
      <glyph glyph-name="uni1EA6" unicode="&#x1EA6;" d="M97-9Q50-9 28 23Q6 55 28 103L277 639Q295 678 321 696Q347 714 382 714Q416 714 442 696Q468 678 486 639L735 103Q758 54 737 22.50Q716-9 671-9Q631-9 609.50 9Q588 27 571 67L539 143L224 143L192 67Q174 27 155 9Q136-9 97-9M380 513L284 284L478 284L382 513L380 513M553 867L480 955Q462 977 467.50 997.50Q473 1018 491.50 1029.50Q510 1041 531.50 1038Q553 1035 566 1011L620 911Q634 886 623 868.50Q612 851 591 848.50Q570 846 553 867M309 770Q291 753 272.50 751.50Q254 750 240.50 759.50Q227 769 223.50 785.50Q220 802 233 821L283 895Q303 924 326.50 936Q350 948 381 948Q412 948 436 936Q460 924 479 895L529 821Q542 802 538.50 785.50Q535 769 521.50 759.50Q508 750 489.50 751.50Q471 753 453 770L381 843L309 770Z"  horiz-adv-x="763" vert-adv-y="1000"  />

      
      <glyph glyph-name="uni1EA8" unicode="&#x1EA8;" d="M97-9Q50-9 28 23Q6 55 28 103L277 639Q295 678 321 696Q347 714 382 714Q416 714 442 696Q468 678 486 639L735 103Q758 54 737 22.50Q716-9 671-9Q631-9 609.50 9Q588 27 571 67L539 143L224 143L192 67Q174 27 155 9Q136-9 97-9M380 513L284 284L478 284L382 513L380 513M577 869Q562 860 545 863Q528 866 519.50 877Q511 888 522 903Q531 913 537.50 923Q544 933 544 943Q544 961 516 961Q505 961 492 959Q457 952 448 978Q437 1010 473 1019Q492 1024 512.50 1026.50Q533 1029 556 1029Q651 1029 651 969Q651 940 627 912.50Q603 885 577 869M309 770Q291 753 272.50 751.50Q254 750 240.50 759.50Q227 769 223.50 785.50Q220 802 233 821L283 895Q303 924 326.50 936Q350 948 381 948Q412 948 436 936Q460 924 479 895L529 821Q542 802 538.50 785.50Q535 769 521.50 759.50Q508 750 489.50 751.50Q471 753 453 770L381 843L309 770Z"  horiz-adv-x="763" vert-adv-y="1000"  />

      
      <glyph glyph-name="uni1EAA" unicode="&#x1EAA;" d="M97-9Q50-9 28 23Q6 55 28 103L277 639Q295 678 321 696Q347 714 382 714Q416 714 442 696Q468 678 486 639L735 103Q758 54 737 22.50Q716-9 671-9Q631-9 609.50 9Q588 27 571 67L539 143L224 143L192 67Q174 27 155 9Q136-9 97-9M380 513L284 284L478 284L382 513L380 513M232 921Q213 921 203 933.50Q193 946 200 967Q212 1003 242 1023Q272 1043 313 1043Q340 1043 363 1034.50Q386 1026 406 1017.50Q426 1009 443 1009Q456 1009 466 1012Q476 1015 482 1022Q494 1032 504 1039.50Q514 1047 530 1046Q550 1045 559.50 1033Q569 1021 563 1000Q551 963 521 943Q491 923 449 923Q422 923 399 932Q376 941 356 949.50Q336 958 319 958Q292 958 281 945Q269 935 259 927.50Q249 920 232 921M294 761Q271 746 252 752.50Q233 759 226 776.50Q219 794 234 811L274 860Q295 886 322 896.50Q349 907 381 907Q413 907 440 896.50Q467 886 488 860L528 811Q543 794 536 776.50Q529 759 510 752Q491 745 468 761L381 822L294 761Z"  horiz-adv-x="763" vert-adv-y="1000"  />

      
      <glyph glyph-name="uni0200" unicode="&#x0200;" d="M97-9Q50-9 28 23Q6 55 28 103L277 639Q295 678 321 696Q347 714 382 714Q416 714 442 696Q468 678 486 639L735 103Q758 54 737 22.50Q716-9 671-9Q631-9 609.50 9Q588 27 571 67L539 143L224 143L192 67Q174 27 155 9Q136-9 97-9M380 513L284 284L478 284L382 513L380 513M241 772L160 867Q143 886 143.50 904.50Q144 923 156.50 936Q169 949 187 954.50Q205 960 223 954Q241 948 253 927L311 823Q322 805 317.50 789Q313 773 300 763.50Q287 754 271 755Q255 756 241 772M408 777L339 866Q323 886 325.50 904.50Q328 923 341.50 936.50Q355 950 373.50 954.50Q392 959 410 952.50Q428 946 438 925L490 819Q499 800 492.50 785Q486 770 471.50 762Q457 754 439.50 756.50Q422 759 408 777Z"  horiz-adv-x="763" vert-adv-y="1000"  />

      
      <glyph glyph-name="unic4" unicode="&#xc4;" d="M97-9Q50-9 28 23Q6 55 28 103L277 639Q295 678 321 696Q347 714 382 714Q416 714 442 696Q468 678 486 639L735 103Q758 54 737 22.50Q716-9 671-9Q631-9 609.50 9Q588 27 571 67L539 143L224 143L192 67Q174 27 155 9Q136-9 97-9M380 513L284 284L478 284L382 513L380 513M484 766Q404 766 404 846Q404 926 484 926Q564 926 564 846Q564 766 484 766M278 766Q240 766 219 786.50Q198 807 198 846Q198 884 219 905Q240 926 278 926Q358 926 358 846Q358 766 278 766Z"  horiz-adv-x="763" vert-adv-y="1000"  />

      
      <glyph glyph-name="uni0226" unicode="&#x0226;" d="M97-9Q50-9 28 23Q6 55 28 103L277 639Q295 678 321 696Q347 714 382 714Q416 714 442 696Q468 678 486 639L735 103Q758 54 737 22.50Q716-9 671-9Q631-9 609.50 9Q588 27 571 67L539 143L224 143L192 67Q174 27 155 9Q136-9 97-9M380 513L284 284L478 284L382 513L380 513M381 772Q340 772 318 793.50Q296 815 296 853Q296 933 381 933Q466 933 466 853Q466 772 381 772Z"  horiz-adv-x="763" vert-adv-y="1000"  />

      
      <glyph glyph-name="uni1EA0" unicode="&#x1EA0;" d="M97-9Q50-9 28 23Q6 55 28 103L277 639Q295 678 321 696Q347 714 382 714Q416 714 442 696Q468 678 486 639L735 103Q758 54 737 22.50Q716-9 671-9Q631-9 609.50 9Q588 27 571 67L539 143L224 143L192 67Q174 27 155 9Q136-9 97-9M380 513L284 284L478 284L382 513L380 513M382-230Q341-230 319-209Q297-188 297-149Q297-69 382-69Q423-69 445-90Q467-111 467-149Q467-230 382-230Z"  horiz-adv-x="763" vert-adv-y="1000"  />

      
      <glyph glyph-name="unic0" unicode="&#xc0;" d="M97-9Q50-9 28 23Q6 55 28 103L277 639Q295 678 321 696Q347 714 382 714Q416 714 442 696Q468 678 486 639L735 103Q758 54 737 22.50Q716-9 671-9Q631-9 609.50 9Q588 27 571 67L539 143L224 143L192 67Q174 27 155 9Q136-9 97-9M380 513L284 284L478 284L382 513L380 513M312 773L229 857Q212 875 212.50 894Q213 913 226 928.50Q239 944 258.50 951.50Q278 959 297.50 955Q317 951 332 930L397 833Q409 814 404 796.50Q399 779 384 767.50Q369 756 349.50 756Q330 756 312 773Z"  horiz-adv-x="763" vert-adv-y="1000"  />

      
      <glyph glyph-name="uni1EA2" unicode="&#x1EA2;" d="M97-9Q50-9 28 23Q6 55 28 103L277 639Q295 678 321 696Q347 714 382 714Q416 714 442 696Q468 678 486 639L735 103Q758 54 737 22.50Q716-9 671-9Q631-9 609.50 9Q588 27 571 67L539 143L224 143L192 67Q174 27 155 9Q136-9 97-9M380 513L284 284L478 284L382 513L380 513M381 756Q330 756 330 785Q330 805 342 816.50Q354 828 366.50 836.50Q379 845 379 856Q379 873 346 873Q333 873 318 870Q279 862 268 891Q262 906 267.50 919Q273 932 293 938Q312 944 338 947Q364 950 392 950Q446 950 476.50 932.50Q507 915 507 884Q507 861 496 847.50Q485 834 470 825Q455 816 443.50 805.50Q432 795 432 778Q432 756 381 756Z"  horiz-adv-x="763" vert-adv-y="1000"  />

      
      <glyph glyph-name="uni0202" unicode="&#x0202;" d="M97-9Q50-9 28 23Q6 55 28 103L277 639Q295 678 321 696Q347 714 382 714Q416 714 442 696Q468 678 486 639L735 103Q758 54 737 22.50Q716-9 671-9Q631-9 609.50 9Q588 27 571 67L539 143L224 143L192 67Q174 27 155 9Q136-9 97-9M380 513L284 284L478 284L382 513L380 513M228 761Q205 763 194.50 780.50Q184 798 192 824Q209 880 260.50 912Q312 944 380 944Q448 944 500 912Q552 880 569 824Q578 799 567 781Q556 763 533 761Q503 757 490.50 772Q478 787 469 800Q456 824 433 834.50Q410 845 380 845Q352 845 328.50 834.50Q305 824 292 800Q283 787 270.50 772Q258 757 228 761Z"  horiz-adv-x="763" vert-adv-y="1000"  />

      
      <glyph glyph-name="uni0100" unicode="&#x0100;" d="M97-9Q50-9 28 23Q6 55 28 103L277 639Q295 678 321 696Q347 714 382 714Q416 714 442 696Q468 678 486 639L735 103Q758 54 737 22.50Q716-9 671-9Q631-9 609.50 9Q588 27 571 67L539 143L224 143L192 67Q174 27 155 9Q136-9 97-9M380 513L284 284L478 284L382 513L380 513M240 796Q189 796 189 844Q189 893 240 893L523 893Q573 893 573 844Q573 796 523 796L240 796Z"  horiz-adv-x="763" vert-adv-y="1000"  />

      
      <glyph glyph-name="uni0104" unicode="&#x0104;" d="M694-198Q630-198 595.50-168Q561-138 561-87Q561-58 573.50-33Q586-8 607 11Q588 28 571 67L539 143L224 143L192 67Q174 27 155 9Q136-9 97-9Q50-9 27.50 23Q5 55 28 103L277 639Q295 678 321 696Q347 714 382 714Q416 714 442 696Q468 678 486 639L735 103Q752 68 744.50 40Q737 12 713 0Q689-12 677-29.50Q665-47 665-66Q665-87 680-99Q695-111 719-111Q730-111 745-108Q768-104 781-113.50Q794-123 796-138.50Q798-154 789-168.50Q780-183 760-190Q743-195 725.50-196.50Q708-198 694-198M380 513L284 284L478 284L382 513L380 513Z"  horiz-adv-x="763" vert-adv-y="1000"  />

      
      <glyph glyph-name="unic5" unicode="&#xc5;" d="M97-9Q50-9 28 23Q6 55 28 103L277 639Q295 678 321 696Q347 714 382 714Q416 714 442 696Q468 678 486 639L735 103Q758 54 737 22.50Q716-9 671-9Q631-9 609.50 9Q588 27 571 67L539 143L224 143L192 67Q174 27 155 9Q136-9 97-9M380 513L284 284L478 284L382 513L380 513M381 752Q343 752 312.50 769Q282 786 264 815.50Q246 845 246 882Q246 920 264 949Q282 978 312.50 995.50Q343 1013 381 1013Q419 1013 449.50 995.50Q480 978 498 949Q516 920 516 882Q516 845 498 815.50Q480 786 449.50 769Q419 752 381 752M381 825Q405 825 421.50 841Q438 857 438 882Q438 907 421.50 923Q405 939 381 939Q357 939 340.50 923Q324 907 324 882Q324 857 340.50 841Q357 825 381 825Z"  horiz-adv-x="763" vert-adv-y="1000"  />

      
      <glyph glyph-name="uni01FA" unicode="&#x01FA;" d="M97-9Q50-9 28 23Q6 55 28 103L277 639Q295 678 321 696Q347 714 382 714Q416 714 442 696Q468 678 486 639L735 103Q758 54 737 22.50Q716-9 671-9Q631-9 609.50 9Q588 27 571 67L539 143L224 143L192 67Q174 27 155 9Q136-9 97-9M380 513L284 284L478 284L382 513L380 513M381 752Q345 752 316.50 768Q288 784 271 812Q254 840 254 874Q254 909 271 936.50Q288 964 316.50 980Q345 996 381 996Q413 996 442 982L504 1039Q520 1054 536.50 1052.50Q553 1051 565 1039Q577 1027 578 1011.50Q579 996 563 982L497 924Q508 901 508 874Q508 840 491 812Q474 784 445.50 768Q417 752 381 752M381 817Q405 817 421.50 833Q438 849 438 874Q438 899 421.50 915Q405 931 381 931Q357 931 340.50 915Q324 899 324 874Q324 849 340.50 833Q357 817 381 817Z"  horiz-adv-x="763" vert-adv-y="1000"  />

      
      <glyph glyph-name="unic3" unicode="&#xc3;" d="M97-9Q50-9 28 23Q6 55 28 103L277 639Q295 678 321 696Q347 714 382 714Q416 714 442 696Q468 678 486 639L735 103Q758 54 737 22.50Q716-9 671-9Q631-9 609.50 9Q588 27 571 67L539 143L224 143L192 67Q174 27 155 9Q136-9 97-9M380 513L284 284L478 284L382 513L380 513M185 756Q164 757 152.50 769.50Q141 782 146 804Q159 865 198.50 897.50Q238 930 292 930Q330 930 361 916.50Q392 903 419.50 889.50Q447 876 473 876Q512 876 528 906Q538 922 548.50 930.50Q559 939 577 938Q598 937 609.50 924.50Q621 912 616 890Q603 829 563.50 797Q524 765 470 765Q433 765 401.50 778Q370 791 343 804.50Q316 818 289 818Q250 818 234 789Q224 773 213.50 764Q203 755 185 756Z"  horiz-adv-x="763" vert-adv-y="1000"  />

      
      <glyph glyph-name="unic6" unicode="&#xc6;" d="M68-9Q28-9 8.50 7.50Q-11 24-11.50 49.50Q-12 75 6 103L359 658Q388 705 446 705L891 705Q963 705 963 635Q963 563 891 563L585 563L614 429L869 429Q941 429 941 358Q941 287 869 287L645 287L678 142L891 142Q963 142 963 71Q963 0 891 0L612 0Q547 0 533 64L515 143L217 143L159 46Q143 19 123 5Q103-9 68-9M433 507L300 284L484 284L435 507L433 507Z"  horiz-adv-x="1006" vert-adv-y="1000"  />

      
      <glyph glyph-name="uni01FC" unicode="&#x01FC;" d="M68-9Q28-9 8.50 7.50Q-11 24-11.50 49.50Q-12 75 6 103L359 658Q388 705 446 705L891 705Q963 705 963 635Q963 563 891 563L585 563L614 429L869 429Q941 429 941 358Q941 287 869 287L645 287L678 142L891 142Q963 142 963 71Q963 0 891 0L612 0Q547 0 533 64L515 143L217 143L159 46Q143 19 123 5Q103-9 68-9M433 507L300 284L484 284L435 507L433 507M558 773Q540 756 520.50 756Q501 756 486 767.50Q471 779 466 796.50Q461 814 474 833L539 930Q553 951 573 955Q593 959 612 951.50Q631 944 644 928.50Q657 913 658 894Q659 875 641 857L558 773Z"  horiz-adv-x="1006" vert-adv-y="1000"  />

      
      <glyph glyph-name="uni42" unicode="&#x42;" d="M160 0Q64 0 64 95L64 610Q64 705 160 705L404 705Q518 705 580.50 655.50Q643 606 643 523Q643 468 615.50 427Q588 386 539 366Q598 348 630 305.50Q662 263 662 200Q662 107 595.50 53.50Q529 0 414 0L160 0M240 425L371 425Q421 425 444.50 443Q468 461 468 498Q468 535 444.50 552.50Q421 570 371 570L240 570L240 425M240 135L389 135Q440 135 463.50 154.50Q487 174 487 213Q487 252 463.50 271Q440 290 389 290L240 290L240 135Z"  horiz-adv-x="702" vert-adv-y="1000"  />

      
      <glyph glyph-name="uni0181" unicode="&#x0181;" d="M341 0Q246 0 246 95L246 580L227 580Q147 580 147 505L147 493Q147 476 129.50 455Q112 434 74 434Q36 434 18 456Q0 478 0 498L0 511Q0 603 59.50 654Q119 705 232 705L585 705Q699 705 761.50 655.50Q824 606 824 523Q824 468 796.50 427Q769 386 721 366Q780 348 811.50 305.50Q843 263 843 200Q843 107 776.50 53.50Q710 0 595 0L341 0M421 425L552 425Q603 425 626 443Q649 461 649 498Q649 535 626 552.50Q603 570 552 570L421 570L421 425M421 135L570 135Q621 135 644.50 154.50Q668 174 668 213Q668 252 644.50 271Q621 290 570 290L421 290L421 135Z"  horiz-adv-x="883" vert-adv-y="1000"  />

      
      <glyph glyph-name="uni43" unicode="&#x43;" d="M420-11Q303-11 219 34Q135 79 90.50 161Q46 243 46 353Q46 463 90.50 544.50Q135 626 219 671Q303 716 420 716Q466 716 515.50 705.50Q565 695 603 674Q631 659 642 636Q653 613 650 589Q647 565 632.50 546Q618 527 596 520.50Q574 514 548 527Q489 556 427 556Q334 556 287 503.50Q240 451 240 353Q240 254 287 201.50Q334 149 427 149Q453 149 483 155.50Q513 162 542 176Q572 189 595.50 183Q619 177 634 159Q649 141 652.50 117.50Q656 94 646 71Q636 48 609 34Q574 13 522.50 1Q471-11 420-11Z"  horiz-adv-x="688" vert-adv-y="1000"  />

      
      <glyph glyph-name="uni0106" unicode="&#x0106;" d="M420-11Q303-11 219 34Q135 79 90.50 161Q46 243 46 353Q46 463 90.50 544.50Q135 626 219 671Q303 716 420 716Q466 716 515.50 705.50Q565 695 603 674Q631 659 642 636Q653 613 650 589Q647 565 632.50 546Q618 527 596 520.50Q574 514 548 527Q489 556 427 556Q334 556 287 503.50Q240 451 240 353Q240 254 287 201.50Q334 149 427 149Q453 149 483 155.50Q513 162 542 176Q572 189 595.50 183Q619 177 634 159Q649 141 652.50 117.50Q656 94 646 71Q636 48 609 34Q574 13 522.50 1Q471-11 420-11M467 773Q449 756 429.50 756Q410 756 395 767.50Q380 779 375 796.50Q370 814 383 833L448 930Q462 951 482 955Q502 959 521 951.50Q540 944 553 928.50Q566 913 567 894Q568 875 550 857L467 773Z"  horiz-adv-x="688" vert-adv-y="1000"  />

      
      <glyph glyph-name="uni010C" unicode="&#x010C;" d="M420-11Q303-11 219 34Q135 79 90.50 161Q46 243 46 353Q46 463 90.50 544.50Q135 626 219 671Q303 716 420 716Q466 716 515.50 705.50Q565 695 603 674Q631 659 642 636Q653 613 650 589Q647 565 632.50 546Q618 527 596 520.50Q574 514 548 527Q489 556 427 556Q334 556 287 503.50Q240 451 240 353Q240 254 287 201.50Q334 149 427 149Q453 149 483 155.50Q513 162 542 176Q572 189 595.50 183Q619 177 634 159Q649 141 652.50 117.50Q656 94 646 71Q636 48 609 34Q574 13 522.50 1Q471-11 420-11M398 749Q336 749 298 803L244 878Q230 897 235 914Q240 931 256 941Q272 951 292 950Q312 949 328 931L398 854L468 931Q485 949 505 950Q525 951 540.50 941Q556 931 561 914Q566 897 552 878L498 803Q460 749 398 749Z"  horiz-adv-x="688" vert-adv-y="1000"  />

      
      <glyph glyph-name="unic7" unicode="&#xc7;" d="M420-11Q303-11 219 34Q135 79 90.50 161Q46 243 46 353Q46 463 90.50 544.50Q135 626 219 671Q303 716 420 716Q466 716 515.50 705.50Q565 695 603 674Q631 659 642 636Q653 613 650 589Q647 565 632.50 546Q618 527 596 520.50Q574 514 548 527Q489 556 427 556Q334 556 287 503.50Q240 451 240 353Q240 254 287 201.50Q334 149 427 149Q453 149 483 155.50Q513 162 542 176Q572 189 595.50 183Q619 177 634 159Q649 141 652.50 117.50Q656 94 646 71Q636 48 609 34Q574 13 522.50 1Q471-11 420-11M396-198Q375-198 353.50-195.50Q332-193 313-188Q293-182 285.50-168.50Q278-155 281-140Q284-125 296.50-117Q309-109 329-115Q354-122 377-122Q426-122 426-101Q426-83 390-83Q376-83 364-86Q350-88 342-80Q333-71 336-52L346 20L431 20L423-31L424-31Q471-31 497-51Q523-71 523-107Q523-149 487.50-173.50Q452-198 396-198Z"  horiz-adv-x="688" vert-adv-y="1000"  />

      
      <glyph glyph-name="uni1E08" unicode="&#x1E08;" d="M420-11Q303-11 219 34Q135 79 90.50 161Q46 243 46 353Q46 463 90.50 544.50Q135 626 219 671Q303 716 420 716Q466 716 515.50 705.50Q565 695 603 674Q631 659 642 636Q653 613 650 589Q647 565 632.50 546Q618 527 596 520.50Q574 514 548 527Q489 556 427 556Q334 556 287 503.50Q240 451 240 353Q240 254 287 201.50Q334 149 427 149Q453 149 483 155.50Q513 162 542 176Q572 189 595.50 183Q619 177 634 159Q649 141 652.50 117.50Q656 94 646 71Q636 48 609 34Q574 13 522.50 1Q471-11 420-11M396-198Q375-198 353.50-195.50Q332-193 313-188Q293-182 285.50-168.50Q278-155 281-140Q284-125 296.50-117Q309-109 329-115Q354-122 377-122Q426-122 426-101Q426-83 390-83Q376-83 364-86Q350-88 342-80Q333-71 336-52L346 20L431 20L423-31L424-31Q471-31 497-51Q523-71 523-107Q523-149 487.50-173.50Q452-198 396-198M467 773Q449 756 429.50 756Q410 756 395 767.50Q380 779 375 796.50Q370 814 383 833L448 930Q462 951 482 955Q502 959 521 951.50Q540 944 553 928.50Q566 913 567 894Q568 875 550 857L467 773Z"  horiz-adv-x="688" vert-adv-y="1000"  />

      
      <glyph glyph-name="uni0108" unicode="&#x0108;" d="M420-11Q303-11 219 34Q135 79 90.50 161Q46 243 46 353Q46 463 90.50 544.50Q135 626 219 671Q303 716 420 716Q466 716 515.50 705.50Q565 695 603 674Q631 659 642 636Q653 613 650 589Q647 565 632.50 546Q618 527 596 520.50Q574 514 548 527Q489 556 427 556Q334 556 287 503.50Q240 451 240 353Q240 254 287 201.50Q334 149 427 149Q453 149 483 155.50Q513 162 542 176Q572 189 595.50 183Q619 177 634 159Q649 141 652.50 117.50Q656 94 646 71Q636 48 609 34Q574 13 522.50 1Q471-11 420-11M328 774Q312 757 292 755.50Q272 754 256 764.50Q240 775 235 791.50Q230 808 244 827L298 903Q336 957 398 957Q460 957 498 903L552 827Q566 808 561 791.50Q556 775 540.50 764.50Q525 754 505 755.50Q485 757 468 774L398 851L328 774Z"  horiz-adv-x="688" vert-adv-y="1000"  />

      
      <glyph glyph-name="uni010A" unicode="&#x010A;" d="M420-11Q303-11 219 34Q135 79 90.50 161Q46 243 46 353Q46 463 90.50 544.50Q135 626 219 671Q303 716 420 716Q466 716 515.50 705.50Q565 695 603 674Q631 659 642 636Q653 613 650 589Q647 565 632.50 546Q618 527 596 520.50Q574 514 548 527Q489 556 427 556Q334 556 287 503.50Q240 451 240 353Q240 254 287 201.50Q334 149 427 149Q453 149 483 155.50Q513 162 542 176Q572 189 595.50 183Q619 177 634 159Q649 141 652.50 117.50Q656 94 646 71Q636 48 609 34Q574 13 522.50 1Q471-11 420-11M398 772Q357 772 335 793.50Q313 815 313 853Q313 933 398 933Q483 933 483 853Q483 772 398 772Z"  horiz-adv-x="688" vert-adv-y="1000"  />

      
      <glyph glyph-name="uni44" unicode="&#x44;" d="M160 0Q64 0 64 95L64 610Q64 705 160 705L356 705Q539 705 640 613Q741 521 741 353Q741 185 640 92.50Q539 0 356 0L160 0M248 149L344 149Q449 149 499.50 199.50Q550 250 550 353Q550 456 499 506Q448 556 344 556L248 556L248 149Z"  horiz-adv-x="786" vert-adv-y="1000"  />

      
      <glyph glyph-name="uni01C4" unicode="&#x01C4;" d="M160 0Q64 0 64 95L64 610Q64 705 160 705L356 705Q539 705 640 613Q741 521 741 353Q741 185 640 92.50Q539 0 356 0L160 0M248 149L344 149Q449 149 499.50 199.50Q550 250 550 353Q550 456 499 506Q448 556 344 556L248 556L248 149Z"  horiz-adv-x="1396" vert-adv-y="1000"  />

      
      <glyph glyph-name="unid0" unicode="&#xd0;" d="M160 0Q64 0 64 95L64 610Q64 705 160 705L356 705Q539 705 640 613Q741 521 741 353Q741 185 640 92.50Q539 0 356 0L160 0M248 149L344 149Q449 149 499.50 199.50Q550 250 550 353Q550 456 499 506Q448 556 344 556L248 556L248 149M39 291Q-28 291-28 356Q-28 421 39 421L372 421Q440 421 440 356Q440 291 372 291L39 291Z"  horiz-adv-x="786" vert-adv-y="1000"  />

      
      <glyph glyph-name="uni010E" unicode="&#x010E;" d="M160 0Q64 0 64 95L64 610Q64 705 160 705L356 705Q539 705 640 613Q741 521 741 353Q741 185 640 92.50Q539 0 356 0L160 0M248 149L344 149Q449 149 499.50 199.50Q550 250 550 353Q550 456 499 506Q448 556 344 556L248 556L248 149M389 749Q327 749 289 803L235 878Q221 897 226 914Q231 931 247 941Q263 951 283 950Q303 949 319 931L389 854L459 931Q476 949 496 950Q516 951 531.50 941Q547 931 552 914Q557 897 543 878L489 803Q451 749 389 749Z"  horiz-adv-x="786" vert-adv-y="1000"  />

      
      <glyph glyph-name="uni0110" unicode="&#x0110;" d="M160 0Q64 0 64 95L64 610Q64 705 160 705L356 705Q539 705 640 613Q741 521 741 353Q741 185 640 92.50Q539 0 356 0L160 0M248 149L344 149Q449 149 499.50 199.50Q550 250 550 353Q550 456 499 506Q448 556 344 556L248 556L248 149M39 291Q-28 291-28 356Q-28 421 39 421L372 421Q440 421 440 356Q440 291 372 291L39 291Z"  horiz-adv-x="786" vert-adv-y="1000"  />

      
      <glyph glyph-name="uni1E0C" unicode="&#x1E0C;" d="M160 0Q64 0 64 95L64 610Q64 705 160 705L356 705Q539 705 640 613Q741 521 741 353Q741 185 640 92.50Q539 0 356 0L160 0M248 149L344 149Q449 149 499.50 199.50Q550 250 550 353Q550 456 499 506Q448 556 344 556L248 556L248 149M389-230Q348-230 326-209Q304-188 304-149Q304-69 389-69Q430-69 452-90Q474-111 474-149Q474-230 389-230Z"  horiz-adv-x="786" vert-adv-y="1000"  />

      
      <glyph glyph-name="uni018A" unicode="&#x018A;" d="M341 0Q246 0 246 95L246 580L227 580Q147 580 147 505L147 493Q147 476 129.50 455Q112 434 74 434Q36 434 18 456Q0 478 0 498L0 511Q0 603 59 654Q118 705 230 705L537 705Q721 705 821.50 613Q922 521 922 353Q922 185 821.50 92.50Q721 0 537 0L341 0M429 149L526 149Q630 149 680.50 199.50Q731 250 731 353Q731 456 680 506Q629 556 526 556L429 556L429 149Z"  horiz-adv-x="968" vert-adv-y="1000"  />

      
      <glyph glyph-name="uni1E0E" unicode="&#x1E0E;" d="M160 0Q64 0 64 95L64 610Q64 705 160 705L356 705Q539 705 640 613Q741 521 741 353Q741 185 640 92.50Q539 0 356 0L160 0M248 149L344 149Q449 149 499.50 199.50Q550 250 550 353Q550 456 499 506Q448 556 344 556L248 556L248 149M263-175Q212-175 212-127Q212-78 263-78L516-78Q566-78 566-127Q566-175 516-175L263-175Z"  horiz-adv-x="786" vert-adv-y="1000"  />

      
      <glyph glyph-name="uni01C5" unicode="&#x01C5;" d="M160 0Q64 0 64 95L64 610Q64 705 160 705L356 705Q539 705 640 613Q741 521 741 353Q741 185 640 92.50Q539 0 356 0L160 0M248 149L344 149Q449 149 499.50 199.50Q550 250 550 353Q550 456 499 506Q448 556 344 556L248 556L248 149Z"  horiz-adv-x="1273" vert-adv-y="1000"  />

      
      <glyph glyph-name="uni45" unicode="&#x45;" d="M160 0Q64 0 64 95L64 610Q64 705 160 705L499 705Q571 705 571 635Q571 563 499 563L240 563L240 429L477 429Q549 429 549 358Q549 287 477 287L240 287L240 142L499 142Q571 142 571 71Q571 0 499 0L160 0Z"  horiz-adv-x="614" vert-adv-y="1000"  />

      
      <glyph glyph-name="unic9" unicode="&#xc9;" d="M160 0Q64 0 64 95L64 610Q64 705 160 705L499 705Q571 705 571 635Q571 563 499 563L240 563L240 429L477 429Q549 429 549 358Q549 287 477 287L240 287L240 142L499 142Q571 142 571 71Q571 0 499 0L160 0M402 773Q384 756 364.50 756Q345 756 330 767.50Q315 779 310 796.50Q305 814 318 833L383 930Q397 951 417 955Q437 959 456 951.50Q475 944 488 928.50Q501 913 502 894Q503 875 485 857L402 773Z"  horiz-adv-x="614" vert-adv-y="1000"  />

      
      <glyph glyph-name="uni0114" unicode="&#x0114;" d="M160 0Q64 0 64 95L64 610Q64 705 160 705L499 705Q571 705 571 635Q571 563 499 563L240 563L240 429L477 429Q549 429 549 358Q549 287 477 287L240 287L240 142L499 142Q571 142 571 71Q571 0 499 0L160 0M333 760Q263 760 212 793Q161 826 145 880Q134 907 146.50 924Q159 941 181 944Q210 948 222.50 932.50Q235 917 245 905Q256 881 279.50 870Q303 859 333 859Q363 859 386 870Q409 881 421 905Q431 917 443.50 932Q456 947 485 944Q507 941 518.50 924.50Q530 908 521 880Q505 826 454 793Q403 760 333 760Z"  horiz-adv-x="614" vert-adv-y="1000"  />

      
      <glyph glyph-name="uni011A" unicode="&#x011A;" d="M160 0Q64 0 64 95L64 610Q64 705 160 705L499 705Q571 705 571 635Q571 563 499 563L240 563L240 429L477 429Q549 429 549 358Q549 287 477 287L240 287L240 142L499 142Q571 142 571 71Q571 0 499 0L160 0M333 749Q271 749 233 803L179 878Q165 897 170 914Q175 931 191 941Q207 951 227 950Q247 949 263 931L333 854L403 931Q420 949 440 950Q460 951 475.50 941Q491 931 496 914Q501 897 487 878L433 803Q395 749 333 749Z"  horiz-adv-x="614" vert-adv-y="1000"  />

      
      <glyph glyph-name="uni0228" unicode="&#x0228;" d="M160 0Q64 0 64 95L64 610Q64 705 160 705L499 705Q571 705 571 635Q571 563 499 563L240 563L240 429L477 429Q549 429 549 358Q549 287 477 287L240 287L240 142L499 142Q571 142 571 71Q571 0 499 0L160 0M331-198Q310-198 288.50-195.50Q267-193 248-188Q228-182 220.50-168.50Q213-155 216-140Q219-125 231.50-117Q244-109 264-115Q289-122 312-122Q361-122 361-101Q361-83 325-83Q311-83 299-86Q285-88 277-80Q268-71 271-52L281 20L366 20L358-31L359-31Q406-31 432-51Q458-71 458-107Q458-149 422.50-173.50Q387-198 331-198Z"  horiz-adv-x="614" vert-adv-y="1000"  />

      
      <glyph glyph-name="uni1E1C" unicode="&#x1E1C;" d="M160 0Q64 0 64 95L64 610Q64 705 160 705L499 705Q571 705 571 635Q571 563 499 563L240 563L240 429L477 429Q549 429 549 358Q549 287 477 287L240 287L240 142L499 142Q571 142 571 71Q571 0 499 0L160 0M331-198Q310-198 288.50-195.50Q267-193 248-188Q228-182 220.50-168.50Q213-155 216-140Q219-125 231.50-117Q244-109 264-115Q289-122 312-122Q361-122 361-101Q361-83 325-83Q311-83 299-86Q285-88 277-80Q268-71 271-52L281 20L366 20L358-31L359-31Q406-31 432-51Q458-71 458-107Q458-149 422.50-173.50Q387-198 331-198M333 760Q263 760 212 793Q161 826 145 880Q134 907 146.50 924Q159 941 181 944Q210 948 222.50 932.50Q235 917 245 905Q256 881 279.50 870Q303 859 333 859Q363 859 386 870Q409 881 421 905Q431 917 443.50 932Q456 947 485 944Q507 941 518.50 924.50Q530 908 521 880Q505 826 454 793Q403 760 333 760Z"  horiz-adv-x="614" vert-adv-y="1000"  />

      
      <glyph glyph-name="unica" unicode="&#xca;" d="M160 0Q64 0 64 95L64 610Q64 705 160 705L499 705Q571 705 571 635Q571 563 499 563L240 563L240 429L477 429Q549 429 549 358Q549 287 477 287L240 287L240 142L499 142Q571 142 571 71Q571 0 499 0L160 0M263 774Q247 757 227 755.50Q207 754 191 764.50Q175 775 170 791.50Q165 808 179 827L233 903Q271 957 333 957Q395 957 433 903L487 827Q501 808 496 791.50Q491 775 475.50 764.50Q460 754 440 755.50Q420 757 403 774L333 851L263 774Z"  horiz-adv-x="614" vert-adv-y="1000"  />

      
      <glyph glyph-name="uni1EBE" unicode="&#x1EBE;" d="M160 0Q64 0 64 95L64 610Q64 705 160 705L499 705Q571 705 571 635Q571 563 499 563L240 563L240 429L477 429Q549 429 549 358Q549 287 477 287L240 287L240 142L499 142Q571 142 571 71Q571 0 499 0L160 0M546 867Q529 846 508 848.50Q487 851 476.50 868.50Q466 886 479 911L533 1011Q546 1035 567.50 1038Q589 1041 608 1029.50Q627 1018 632.50 997.50Q638 977 619 955L546 867M261 770Q243 753 224.50 751.50Q206 750 192.50 759.50Q179 769 175.50 785.50Q172 802 185 821L235 895Q255 924 278.50 936Q302 948 333 948Q364 948 388 936Q412 924 431 895L481 821Q494 802 490.50 785.50Q487 769 473.50 759.50Q460 750 441.50 751.50Q423 753 405 770L333 843L261 770Z"  horiz-adv-x="614" vert-adv-y="1000"  />

      
      <glyph glyph-name="uni1EC6" unicode="&#x1EC6;" d="M160 0Q64 0 64 95L64 610Q64 705 160 705L499 705Q571 705 571 635Q571 563 499 563L240 563L240 429L477 429Q549 429 549 358Q549 287 477 287L240 287L240 142L499 142Q571 142 571 71Q571 0 499 0L160 0M333-230Q292-230 270-209Q248-188 248-149Q248-69 333-69Q374-69 396-90Q418-111 418-149Q418-230 333-230M263 774Q247 757 227 755.50Q207 754 191 764.50Q175 775 170 791.50Q165 808 179 827L233 903Q271 957 333 957Q395 957 433 903L487 827Q501 808 496 791.50Q491 775 475.50 764.50Q460 754 440 755.50Q420 757 403 774L333 851L263 774Z"  horiz-adv-x="614" vert-adv-y="1000"  />

      
      <glyph glyph-name="uni1EC0" unicode="&#x1EC0;" d="M160 0Q64 0 64 95L64 610Q64 705 160 705L499 705Q571 705 571 635Q571 563 499 563L240 563L240 429L477 429Q549 429 549 358Q549 287 477 287L240 287L240 142L499 142Q571 142 571 71Q571 0 499 0L160 0M505 867L432 955Q414 977 419.50 997.50Q425 1018 443.50 1029.50Q462 1041 483.50 1038Q505 1035 518 1011L572 911Q586 886 575 868.50Q564 851 543 848.50Q522 846 505 867M261 770Q243 753 224.50 751.50Q206 750 192.50 759.50Q179 769 175.50 785.50Q172 802 185 821L235 895Q255 924 278.50 936Q302 948 333 948Q364 948 388 936Q412 924 431 895L481 821Q494 802 490.50 785.50Q487 769 473.50 759.50Q460 750 441.50 751.50Q423 753 405 770L333 843L261 770Z"  horiz-adv-x="614" vert-adv-y="1000"  />

      
      <glyph glyph-name="uni1EC2" unicode="&#x1EC2;" d="M160 0Q64 0 64 95L64 610Q64 705 160 705L499 705Q571 705 571 635Q571 563 499 563L240 563L240 429L477 429Q549 429 549 358Q549 287 477 287L240 287L240 142L499 142Q571 142 571 71Q571 0 499 0L160 0M529 869Q514 860 497 863Q480 866 471.50 877Q463 888 474 903Q483 913 489.50 923Q496 933 496 943Q496 961 468 961Q457 961 444 959Q409 952 400 978Q389 1010 425 1019Q444 1024 464.50 1026.50Q485 1029 508 1029Q603 1029 603 969Q603 940 579 912.50Q555 885 529 869M261 770Q243 753 224.50 751.50Q206 750 192.50 759.50Q179 769 175.50 785.50Q172 802 185 821L235 895Q255 924 278.50 936Q302 948 333 948Q364 948 388 936Q412 924 431 895L481 821Q494 802 490.50 785.50Q487 769 473.50 759.50Q460 750 441.50 751.50Q423 753 405 770L333 843L261 770Z"  horiz-adv-x="614" vert-adv-y="1000"  />

      
      <glyph glyph-name="uni1EC4" unicode="&#x1EC4;" d="M160 0Q64 0 64 95L64 610Q64 705 160 705L499 705Q571 705 571 635Q571 563 499 563L240 563L240 429L477 429Q549 429 549 358Q549 287 477 287L240 287L240 142L499 142Q571 142 571 71Q571 0 499 0L160 0M184 921Q165 921 155 933.50Q145 946 152 967Q164 1003 194 1023Q224 1043 265 1043Q292 1043 315 1034.50Q338 1026 358 1017.50Q378 1009 395 1009Q408 1009 418 1012Q428 1015 434 1022Q446 1032 456 1039.50Q466 1047 482 1046Q502 1045 511.50 1033Q521 1021 515 1000Q503 963 473 943Q443 923 401 923Q374 923 351 932Q328 941 308 949.50Q288 958 271 958Q244 958 233 945Q221 935 211 927.50Q201 920 184 921M246 761Q223 746 204 752.50Q185 759 178 776.50Q171 794 186 811L226 860Q247 886 274 896.50Q301 907 333 907Q365 907 392 896.50Q419 886 440 860L480 811Q495 794 488 776.50Q481 759 462 752Q443 745 420 761L333 822L246 761Z"  horiz-adv-x="614" vert-adv-y="1000"  />

      
      <glyph glyph-name="uni0204" unicode="&#x0204;" d="M160 0Q64 0 64 95L64 610Q64 705 160 705L499 705Q571 705 571 635Q571 563 499 563L240 563L240 429L477 429Q549 429 549 358Q549 287 477 287L240 287L240 142L499 142Q571 142 571 71Q571 0 499 0L160 0M193 772L112 867Q95 886 95.50 904.50Q96 923 108.50 936Q121 949 139 954.50Q157 960 175 954Q193 948 205 927L263 823Q274 805 269.50 789Q265 773 252 763.50Q239 754 223 755Q207 756 193 772M360 777L291 866Q275 886 277.50 904.50Q280 923 293.50 936.50Q307 950 325.50 954.50Q344 959 362 952.50Q380 946 390 925L442 819Q451 800 444.50 785Q438 770 423.50 762Q409 754 391.50 756.50Q374 759 360 777Z"  horiz-adv-x="614" vert-adv-y="1000"  />

      
      <glyph glyph-name="unicb" unicode="&#xcb;" d="M160 0Q64 0 64 95L64 610Q64 705 160 705L499 705Q571 705 571 635Q571 563 499 563L240 563L240 429L477 429Q549 429 549 358Q549 287 477 287L240 287L240 142L499 142Q571 142 571 71Q571 0 499 0L160 0M436 766Q356 766 356 846Q356 926 436 926Q516 926 516 846Q516 766 436 766M230 766Q192 766 171 786.50Q150 807 150 846Q150 884 171 905Q192 926 230 926Q310 926 310 846Q310 766 230 766Z"  horiz-adv-x="614" vert-adv-y="1000"  />

      
      <glyph glyph-name="uni0116" unicode="&#x0116;" d="M160 0Q64 0 64 95L64 610Q64 705 160 705L499 705Q571 705 571 635Q571 563 499 563L240 563L240 429L477 429Q549 429 549 358Q549 287 477 287L240 287L240 142L499 142Q571 142 571 71Q571 0 499 0L160 0M333 772Q292 772 270 793.50Q248 815 248 853Q248 933 333 933Q418 933 418 853Q418 772 333 772Z"  horiz-adv-x="614" vert-adv-y="1000"  />

      
      <glyph glyph-name="uni1EB8" unicode="&#x1EB8;" d="M160 0Q64 0 64 95L64 610Q64 705 160 705L499 705Q571 705 571 635Q571 563 499 563L240 563L240 429L477 429Q549 429 549 358Q549 287 477 287L240 287L240 142L499 142Q571 142 571 71Q571 0 499 0L160 0M333-230Q292-230 270-209Q248-188 248-149Q248-69 333-69Q374-69 396-90Q418-111 418-149Q418-230 333-230Z"  horiz-adv-x="614" vert-adv-y="1000"  />

      
      <glyph glyph-name="unic8" unicode="&#xc8;" d="M160 0Q64 0 64 95L64 610Q64 705 160 705L499 705Q571 705 571 635Q571 563 499 563L240 563L240 429L477 429Q549 429 549 358Q549 287 477 287L240 287L240 142L499 142Q571 142 571 71Q571 0 499 0L160 0M264 773L181 857Q164 875 164.50 894Q165 913 178 928.50Q191 944 210.50 951.50Q230 959 249.50 955Q269 951 284 930L349 833Q361 814 356 796.50Q351 779 336 767.50Q321 756 301.50 756Q282 756 264 773Z"  horiz-adv-x="614" vert-adv-y="1000"  />

      
      <glyph glyph-name="uni1EBA" unicode="&#x1EBA;" d="M160 0Q64 0 64 95L64 610Q64 705 160 705L499 705Q571 705 571 635Q571 563 499 563L240 563L240 429L477 429Q549 429 549 358Q549 287 477 287L240 287L240 142L499 142Q571 142 571 71Q571 0 499 0L160 0M333 756Q282 756 282 785Q282 805 294 816.50Q306 828 318.50 836.50Q331 845 331 856Q331 873 298 873Q285 873 270 870Q231 862 220 891Q214 906 219.50 919Q225 932 245 938Q264 944 290 947Q316 950 344 950Q398 950 428.50 932.50Q459 915 459 884Q459 861 448 847.50Q437 834 422 825Q407 816 395.50 805.50Q384 795 384 778Q384 756 333 756Z"  horiz-adv-x="614" vert-adv-y="1000"  />

      
      <glyph glyph-name="uni0206" unicode="&#x0206;" d="M160 0Q64 0 64 95L64 610Q64 705 160 705L499 705Q571 705 571 635Q571 563 499 563L240 563L240 429L477 429Q549 429 549 358Q549 287 477 287L240 287L240 142L499 142Q571 142 571 71Q571 0 499 0L160 0M180 761Q157 763 146.50 780.50Q136 798 144 824Q161 880 212.50 912Q264 944 332 944Q400 944 452 912Q504 880 521 824Q530 799 519 781Q508 763 485 761Q455 757 442.50 772Q430 787 421 800Q408 824 385 834.50Q362 845 332 845Q304 845 280.50 834.50Q257 824 244 800Q235 787 222.50 772Q210 757 180 761Z"  horiz-adv-x="614" vert-adv-y="1000"  />

      
      <glyph glyph-name="uni0112" unicode="&#x0112;" d="M160 0Q64 0 64 95L64 610Q64 705 160 705L499 705Q571 705 571 635Q571 563 499 563L240 563L240 429L477 429Q549 429 549 358Q549 287 477 287L240 287L240 142L499 142Q571 142 571 71Q571 0 499 0L160 0M192 796Q141 796 141 844Q141 893 192 893L475 893Q525 893 525 844Q525 796 475 796L192 796Z"  horiz-adv-x="614" vert-adv-y="1000"  />

      
      <glyph glyph-name="uni1E16" unicode="&#x1E16;" d="M160 0Q64 0 64 95L64 610Q64 705 160 705L499 705Q571 705 571 635Q571 563 499 563L240 563L240 429L477 429Q549 429 549 358Q549 287 477 287L240 287L240 142L499 142Q571 142 571 71Q571 0 499 0L160 0M387 909Q371 892 353 890Q335 888 320.50 897Q306 906 300 922Q294 938 303 957L334 1021Q344 1044 363 1050.50Q382 1057 402 1051.50Q422 1046 436 1032.50Q450 1019 451.50 1000.50Q453 982 435 962L387 909M214 774Q159 774 159 823Q159 871 214 871L452 871Q507 871 507 823Q507 774 452 774L214 774Z"  horiz-adv-x="614" vert-adv-y="1000"  />

      
      <glyph glyph-name="uni1E14" unicode="&#x1E14;" d="M160 0Q64 0 64 95L64 610Q64 705 160 705L499 705Q571 705 571 635Q571 563 499 563L240 563L240 429L477 429Q549 429 549 358Q549 287 477 287L240 287L240 142L499 142Q571 142 571 71Q571 0 499 0L160 0M279 909L231 962Q213 982 214.50 1000.50Q216 1019 230 1032.50Q244 1046 264 1051.50Q284 1057 303 1050.50Q322 1044 332 1021L363 957Q372 938 366 922Q360 906 345.50 897Q331 888 313 890Q295 892 279 909M214 774Q159 774 159 823Q159 871 214 871L452 871Q507 871 507 823Q507 774 452 774L214 774Z"  horiz-adv-x="614" vert-adv-y="1000"  />

      
      <glyph glyph-name="uni0118" unicode="&#x0118;" d="M160 0Q64 0 64 95L64 610Q64 705 160 705L499 705Q571 705 571 635Q571 563 499 563L240 563L240 429L477 429Q549 429 549 358Q549 287 477 287L240 287L240 142L499 142Q571 142 571 71Q571 0 499 0L160 0M479-198Q415-198 380-168Q345-138 345-87Q345-42 375.50-5.50Q406 31 455 48L503 0Q476-10 463-28.50Q450-47 450-66Q450-87 465-99Q480-111 503-111Q515-111 530-108Q553-104 566-113.50Q579-123 581-138.50Q583-154 574-168.50Q565-183 545-190Q528-195 510.50-196.50Q493-198 479-198Z"  horiz-adv-x="614" vert-adv-y="1000"  />

      
      <glyph glyph-name="uni1EBC" unicode="&#x1EBC;" d="M160 0Q64 0 64 95L64 610Q64 705 160 705L499 705Q571 705 571 635Q571 563 499 563L240 563L240 429L477 429Q549 429 549 358Q549 287 477 287L240 287L240 142L499 142Q571 142 571 71Q571 0 499 0L160 0M137 756Q116 757 104.50 769.50Q93 782 98 804Q111 865 150.50 897.50Q190 930 244 930Q282 930 313 916.50Q344 903 371.50 889.50Q399 876 425 876Q464 876 480 906Q490 922 500.50 930.50Q511 939 529 938Q550 937 561.50 924.50Q573 912 568 890Q555 829 515.50 797Q476 765 422 765Q385 765 353.50 778Q322 791 295 804.50Q268 818 241 818Q202 818 186 789Q176 773 165.50 764Q155 755 137 756Z"  horiz-adv-x="614" vert-adv-y="1000"  />

      
      <glyph glyph-name="uni46" unicode="&#x46;" d="M157-9Q113-9 88.50 15.50Q64 40 64 86L64 610Q64 705 160 705L493 705Q565 705 565 635Q565 563 493 563L248 563L248 421L471 421Q543 421 543 351Q543 280 471 280L248 280L248 86Q248-9 157-9Z"  horiz-adv-x="579" vert-adv-y="1000"  />

      
      <glyph glyph-name="uni47" unicode="&#x47;" d="M424-11Q303-11 218.50 34Q134 79 90 160Q46 241 46 349Q46 461 92.50 543.50Q139 626 226 671Q313 716 436 716Q486 716 538 706.50Q590 697 640 671Q666 659 675.50 637.50Q685 616 681.50 592Q678 568 664 549.50Q650 531 627.50 524Q605 517 576 530Q514 559 437 559Q336 559 286.50 505Q237 451 237 349Q237 247 287 195Q337 143 435 143Q481 143 538 157L538 268L468 268Q397 268 397 333Q397 397 468 397L616 397Q688 397 688 325L688 104Q688 74 675.50 53Q663 32 636 23Q588 7 533.50-2Q479-11 424-11Z"  horiz-adv-x="747" vert-adv-y="1000"  />

      
      <glyph glyph-name="uni011E" unicode="&#x011E;" d="M424-11Q303-11 218.50 34Q134 79 90 160Q46 241 46 349Q46 461 92.50 543.50Q139 626 226 671Q313 716 436 716Q486 716 538 706.50Q590 697 640 671Q666 659 675.50 637.50Q685 616 681.50 592Q678 568 664 549.50Q650 531 627.50 524Q605 517 576 530Q514 559 437 559Q336 559 286.50 505Q237 451 237 349Q237 247 287 195Q337 143 435 143Q481 143 538 157L538 268L468 268Q397 268 397 333Q397 397 468 397L616 397Q688 397 688 325L688 104Q688 74 675.50 53Q663 32 636 23Q588 7 533.50-2Q479-11 424-11M412 760Q342 760 291 793Q240 826 224 880Q213 907 225.50 924Q238 941 260 944Q289 948 301.50 932.50Q314 917 324 905Q335 881 358.50 870Q382 859 412 859Q442 859 465 870Q488 881 500 905Q510 917 522.50 932Q535 947 564 944Q586 941 597.50 924.50Q609 908 600 880Q584 826 533 793Q482 760 412 760Z"  horiz-adv-x="747" vert-adv-y="1000"  />

      
      <glyph glyph-name="uni01E6" unicode="&#x01E6;" d="M424-11Q303-11 218.50 34Q134 79 90 160Q46 241 46 349Q46 461 92.50 543.50Q139 626 226 671Q313 716 436 716Q486 716 538 706.50Q590 697 640 671Q666 659 675.50 637.50Q685 616 681.50 592Q678 568 664 549.50Q650 531 627.50 524Q605 517 576 530Q514 559 437 559Q336 559 286.50 505Q237 451 237 349Q237 247 287 195Q337 143 435 143Q481 143 538 157L538 268L468 268Q397 268 397 333Q397 397 468 397L616 397Q688 397 688 325L688 104Q688 74 675.50 53Q663 32 636 23Q588 7 533.50-2Q479-11 424-11M412 749Q350 749 312 803L258 878Q244 897 249 914Q254 931 270 941Q286 951 306 950Q326 949 342 931L412 854L482 931Q499 949 519 950Q539 951 554.50 941Q570 931 575 914Q580 897 566 878L512 803Q474 749 412 749Z"  horiz-adv-x="747" vert-adv-y="1000"  />

      
      <glyph glyph-name="uni011C" unicode="&#x011C;" d="M424-11Q303-11 218.50 34Q134 79 90 160Q46 241 46 349Q46 461 92.50 543.50Q139 626 226 671Q313 716 436 716Q486 716 538 706.50Q590 697 640 671Q666 659 675.50 637.50Q685 616 681.50 592Q678 568 664 549.50Q650 531 627.50 524Q605 517 576 530Q514 559 437 559Q336 559 286.50 505Q237 451 237 349Q237 247 287 195Q337 143 435 143Q481 143 538 157L538 268L468 268Q397 268 397 333Q397 397 468 397L616 397Q688 397 688 325L688 104Q688 74 675.50 53Q663 32 636 23Q588 7 533.50-2Q479-11 424-11M342 774Q326 757 306 755.50Q286 754 270 764.50Q254 775 249 791.50Q244 808 258 827L312 903Q350 957 412 957Q474 957 512 903L566 827Q580 808 575 791.50Q570 775 554.50 764.50Q539 754 519 755.50Q499 757 482 774L412 851L342 774Z"  horiz-adv-x="747" vert-adv-y="1000"  />

      
      <glyph glyph-name="uni0122" unicode="&#x0122;" d="M424-11Q303-11 218.50 34Q134 79 90 160Q46 241 46 349Q46 461 92.50 543.50Q139 626 226 671Q313 716 436 716Q486 716 538 706.50Q590 697 640 671Q666 659 675.50 637.50Q685 616 681.50 592Q678 568 664 549.50Q650 531 627.50 524Q605 517 576 530Q514 559 437 559Q336 559 286.50 505Q237 451 237 349Q237 247 287 195Q337 143 435 143Q481 143 538 157L538 268L468 268Q397 268 397 333Q397 397 468 397L616 397Q688 397 688 325L688 104Q688 74 675.50 53Q663 32 636 23Q588 7 533.50-2Q479-11 424-11M460-271Q447-286 431.50-288Q416-290 404-282.50Q392-275 389-261Q386-247 399-228Q407-216 412-200Q331-197 331-128Q331-56 418-56Q505-56 505-139Q505-174 494-209Q483-244 460-271Z"  horiz-adv-x="747" vert-adv-y="1000"  />

      
      <glyph glyph-name="uni0120" unicode="&#x0120;" d="M424-11Q303-11 218.50 34Q134 79 90 160Q46 241 46 349Q46 461 92.50 543.50Q139 626 226 671Q313 716 436 716Q486 716 538 706.50Q590 697 640 671Q666 659 675.50 637.50Q685 616 681.50 592Q678 568 664 549.50Q650 531 627.50 524Q605 517 576 530Q514 559 437 559Q336 559 286.50 505Q237 451 237 349Q237 247 287 195Q337 143 435 143Q481 143 538 157L538 268L468 268Q397 268 397 333Q397 397 468 397L616 397Q688 397 688 325L688 104Q688 74 675.50 53Q663 32 636 23Q588 7 533.50-2Q479-11 424-11M412 772Q371 772 349 793.50Q327 815 327 853Q327 933 412 933Q497 933 497 853Q497 772 412 772Z"  horiz-adv-x="747" vert-adv-y="1000"  />

      
      <glyph glyph-name="uni1E20" unicode="&#x1E20;" d="M424-11Q303-11 218.50 34Q134 79 90 160Q46 241 46 349Q46 461 92.50 543.50Q139 626 226 671Q313 716 436 716Q486 716 538 706.50Q590 697 640 671Q666 659 675.50 637.50Q685 616 681.50 592Q678 568 664 549.50Q650 531 627.50 524Q605 517 576 530Q514 559 437 559Q336 559 286.50 505Q237 451 237 349Q237 247 287 195Q337 143 435 143Q481 143 538 157L538 268L468 268Q397 268 397 333Q397 397 468 397L616 397Q688 397 688 325L688 104Q688 74 675.50 53Q663 32 636 23Q588 7 533.50-2Q479-11 424-11M271 796Q220 796 220 844Q220 893 271 893L554 893Q604 893 604 844Q604 796 554 796L271 796Z"  horiz-adv-x="747" vert-adv-y="1000"  />

      
      <glyph glyph-name="uni48" unicode="&#x48;" d="M156-9Q112-9 88 15Q64 39 64 85L64 620Q64 666 88 690Q112 714 156 714Q200 714 224 690Q248 666 248 620L248 433L539 433L539 620Q539 666 563 690Q587 714 631 714Q675 714 698.50 690Q722 666 722 620L722 85Q722 39 698.50 15Q675-9 631-9Q586-9 562.50 15Q539 39 539 85L539 282L248 282L248 85Q248 39 224.50 15Q201-9 156-9Z"  horiz-adv-x="786" vert-adv-y="1000"  />

      
      <glyph glyph-name="uni0126" unicode="&#x0126;" d="M184-9Q140-9 115.50 15Q91 39 91 85L91 501L70 501Q4 501 4 566Q4 631 70 631L92 631Q95 671 118.50 692.50Q142 714 184 714Q269 714 275 631L566 631Q569 671 593 692.50Q617 714 658 714Q744 714 749 631L771 631Q837 631 837 566Q837 501 771 501L750 501L750 85Q750 39 726 15Q702-9 658-9Q613-9 589.50 15Q566 39 566 85L566 265L275 265L275 85Q275 39 252 15Q229-9 184-9M275 416L566 416L566 501L275 501L275 416Z"  horiz-adv-x="841" vert-adv-y="1000"  />

      
      <glyph glyph-name="uni1E2A" unicode="&#x1E2A;" d="M156-9Q112-9 88 15Q64 39 64 85L64 620Q64 666 88 690Q112 714 156 714Q200 714 224 690Q248 666 248 620L248 433L539 433L539 620Q539 666 563 690Q587 714 631 714Q675 714 698.50 690Q722 666 722 620L722 85Q722 39 698.50 15Q675-9 631-9Q586-9 562.50 15Q539 39 539 85L539 282L248 282L248 85Q248 39 224.50 15Q201-9 156-9M393-215Q329-215 283.50-187Q238-159 221-108Q212-80 224-63.50Q236-47 258-45Q280-43 293-52Q306-61 321-81Q341-116 393-116Q445-116 465-81Q480-61 493-52Q506-43 528-45Q550-47 562-63.50Q574-80 565-108Q548-159 502.50-187Q457-215 393-215Z"  horiz-adv-x="786" vert-adv-y="1000"  />

      
      <glyph glyph-name="uni0124" unicode="&#x0124;" d="M156-9Q112-9 88 15Q64 39 64 85L64 620Q64 666 88 690Q112 714 156 714Q200 714 224 690Q248 666 248 620L248 433L539 433L539 620Q539 666 563 690Q587 714 631 714Q675 714 698.50 690Q722 666 722 620L722 85Q722 39 698.50 15Q675-9 631-9Q586-9 562.50 15Q539 39 539 85L539 282L248 282L248 85Q248 39 224.50 15Q201-9 156-9M323 774Q307 757 287 755.50Q267 754 251 764.50Q235 775 230 791.50Q225 808 239 827L293 903Q331 957 393 957Q455 957 493 903L547 827Q561 808 556 791.50Q551 775 535.50 764.50Q520 754 500 755.50Q480 757 463 774L393 851L323 774Z"  horiz-adv-x="786" vert-adv-y="1000"  />

      
      <glyph glyph-name="uni1E24" unicode="&#x1E24;" d="M156-9Q112-9 88 15Q64 39 64 85L64 620Q64 666 88 690Q112 714 156 714Q200 714 224 690Q248 666 248 620L248 433L539 433L539 620Q539 666 563 690Q587 714 631 714Q675 714 698.50 690Q722 666 722 620L722 85Q722 39 698.50 15Q675-9 631-9Q586-9 562.50 15Q539 39 539 85L539 282L248 282L248 85Q248 39 224.50 15Q201-9 156-9M393-230Q352-230 330-209Q308-188 308-149Q308-69 393-69Q434-69 456-90Q478-111 478-149Q478-230 393-230Z"  horiz-adv-x="786" vert-adv-y="1000"  />

      
      <glyph glyph-name="uni49" unicode="&#x49;" d="M156-9Q112-9 88 15Q64 39 64 85L64 620Q64 666 88 690Q112 714 156 714Q200 714 224 690Q248 666 248 620L248 85Q248 39 224.50 15Q201-9 156-9Z"  horiz-adv-x="312" vert-adv-y="1000"  />

      
      <glyph glyph-name="uni0132" unicode="&#x0132;" d="M156-9Q112-9 88 15Q64 39 64 85L64 620Q64 666 88 690Q112 714 156 714Q200 714 224 690Q248 666 248 620L248 85Q248 39 224.50 15Q201-9 156-9M380-8Q340-10 318.50 12.50Q297 35 297 70Q297 97 312 117Q327 137 357 139L385 141Q422 143 438.50 158.50Q455 174 455 210L455 621Q455 666 479 690Q503 714 547 714Q591 714 615 690Q639 666 639 621L639 213Q639 7 416-6L380-8Z"  horiz-adv-x="702" vert-adv-y="1000"  />

      
      <glyph glyph-name="unicd" unicode="&#xcd;" d="M156-9Q112-9 88 15Q64 39 64 85L64 620Q64 666 88 690Q112 714 156 714Q200 714 224 690Q248 666 248 620L248 85Q248 39 224.50 15Q201-9 156-9M225 773Q207 756 187.50 756Q168 756 153 767.50Q138 779 133 796.50Q128 814 141 833L206 930Q220 951 240 955Q260 959 279 951.50Q298 944 311 928.50Q324 913 325 894Q326 875 308 857L225 773Z"  horiz-adv-x="312" vert-adv-y="1000"  />

      
      <glyph glyph-name="uni012C" unicode="&#x012C;" d="M156-9Q112-9 88 15Q64 39 64 85L64 620Q64 666 88 690Q112 714 156 714Q200 714 224 690Q248 666 248 620L248 85Q248 39 224.50 15Q201-9 156-9M156 760Q86 760 35 793Q-16 826-32 880Q-43 907-30.50 924Q-18 941 4 944Q33 948 45.50 932.50Q58 917 68 905Q79 881 102.50 870Q126 859 156 859Q186 859 209 870Q232 881 244 905Q254 917 266.50 932Q279 947 308 944Q330 941 341.50 924.50Q353 908 344 880Q328 826 277 793Q226 760 156 760Z"  horiz-adv-x="312" vert-adv-y="1000"  />

      
      <glyph glyph-name="unice" unicode="&#xce;" d="M156-9Q112-9 88 15Q64 39 64 85L64 620Q64 666 88 690Q112 714 156 714Q200 714 224 690Q248 666 248 620L248 85Q248 39 224.50 15Q201-9 156-9M86 774Q70 757 50 755.50Q30 754 14 764.50Q-2 775-7 791.50Q-12 808 2 827L56 903Q94 957 156 957Q218 957 256 903L310 827Q324 808 319 791.50Q314 775 298.50 764.50Q283 754 263 755.50Q243 757 226 774L156 851L86 774Z"  horiz-adv-x="312" vert-adv-y="1000"  />

      
      <glyph glyph-name="uni0208" unicode="&#x0208;" d="M156-9Q112-9 88 15Q64 39 64 85L64 620Q64 666 88 690Q112 714 156 714Q200 714 224 690Q248 666 248 620L248 85Q248 39 224.50 15Q201-9 156-9M16 772L-65 867Q-82 886-81.50 904.50Q-81 923-68.50 936Q-56 949-38 954.50Q-20 960-2 954Q16 948 28 927L86 823Q97 805 92.50 789Q88 773 75 763.50Q62 754 46 755Q30 756 16 772M183 777L114 866Q98 886 100.50 904.50Q103 923 116.50 936.50Q130 950 148.50 954.50Q167 959 185 952.50Q203 946 213 925L265 819Q274 800 267.50 785Q261 770 246.50 762Q232 754 214.50 756.50Q197 759 183 777Z"  horiz-adv-x="312" vert-adv-y="1000"  />

      
      <glyph glyph-name="unicf" unicode="&#xcf;" d="M156-9Q112-9 88 15Q64 39 64 85L64 620Q64 666 88 690Q112 714 156 714Q200 714 224 690Q248 666 248 620L248 85Q248 39 224.50 15Q201-9 156-9M259 766Q179 766 179 846Q179 926 259 926Q339 926 339 846Q339 766 259 766M53 766Q15 766-6 786.50Q-27 807-27 846Q-27 884-6 905Q15 926 53 926Q133 926 133 846Q133 766 53 766Z"  horiz-adv-x="312" vert-adv-y="1000"  />

      
      <glyph glyph-name="uni1E2E" unicode="&#x1E2E;" d="M156-9Q112-9 88 15Q64 39 64 85L64 620Q64 666 88 690Q112 714 156 714Q200 714 224 690Q248 666 248 620L248 85Q248 39 224.50 15Q201-9 156-9M209 909Q194 892 176 890Q158 888 143.50 897Q129 906 123 922Q117 938 126 957L157 1021Q167 1044 186 1050.50Q205 1057 225 1051.50Q245 1046 259 1032Q273 1018 274.50 999.50Q276 981 258 962L209 909M53 764Q15 764-6 779Q-27 794-27 822Q-27 850-6 865Q15 880 53 880Q133 880 133 822Q133 764 53 764M259 764Q179 764 179 822Q179 880 259 880Q339 880 339 822Q339 764 259 764Z"  horiz-adv-x="312" vert-adv-y="1000"  />

      
      <glyph glyph-name="uni0130" unicode="&#x0130;" d="M156-9Q112-9 88 15Q64 39 64 85L64 620Q64 666 88 690Q112 714 156 714Q200 714 224 690Q248 666 248 620L248 85Q248 39 224.50 15Q201-9 156-9M156 772Q115 772 93 793.50Q71 815 71 853Q71 933 156 933Q241 933 241 853Q241 772 156 772Z"  horiz-adv-x="312" vert-adv-y="1000"  />

      
      <glyph glyph-name="uni1ECA" unicode="&#x1ECA;" d="M156-9Q112-9 88 15Q64 39 64 85L64 620Q64 666 88 690Q112 714 156 714Q200 714 224 690Q248 666 248 620L248 85Q248 39 224.50 15Q201-9 156-9M156-230Q115-230 93-209Q71-188 71-149Q71-69 156-69Q197-69 219-90Q241-111 241-149Q241-230 156-230Z"  horiz-adv-x="312" vert-adv-y="1000"  />

      
      <glyph glyph-name="unicc" unicode="&#xcc;" d="M156-9Q112-9 88 15Q64 39 64 85L64 620Q64 666 88 690Q112 714 156 714Q200 714 224 690Q248 666 248 620L248 85Q248 39 224.50 15Q201-9 156-9M87 773L4 857Q-13 875-12.50 894Q-12 913 1 928.50Q14 944 33.50 951.50Q53 959 72.50 955Q92 951 107 930L172 833Q184 814 179 796.50Q174 779 159 767.50Q144 756 124.50 756Q105 756 87 773Z"  horiz-adv-x="312" vert-adv-y="1000"  />

      
      <glyph glyph-name="uni1EC8" unicode="&#x1EC8;" d="M156-9Q112-9 88 15Q64 39 64 85L64 620Q64 666 88 690Q112 714 156 714Q200 714 224 690Q248 666 248 620L248 85Q248 39 224.50 15Q201-9 156-9M156 756Q105 756 105 785Q105 805 117 816.50Q129 828 141.50 836.50Q154 845 154 856Q154 873 121 873Q108 873 93 870Q54 862 43 891Q37 906 42.50 919Q48 932 68 938Q87 944 113 947Q139 950 167 950Q221 950 251.50 932.50Q282 915 282 884Q282 861 271 847.50Q260 834 245 825Q230 816 218.50 805.50Q207 795 207 778Q207 756 156 756Z"  horiz-adv-x="312" vert-adv-y="1000"  />

      
      <glyph glyph-name="uni020A" unicode="&#x020A;" d="M156-9Q112-9 88 15Q64 39 64 85L64 620Q64 666 88 690Q112 714 156 714Q200 714 224 690Q248 666 248 620L248 85Q248 39 224.50 15Q201-9 156-9M3 761Q-20 763-30.50 780.50Q-41 798-33 824Q-16 880 35.50 912Q87 944 155 944Q223 944 275 912Q327 880 344 824Q353 799 342 781Q331 763 308 761Q278 757 265.50 772Q253 787 244 800Q231 824 208 834.50Q185 845 155 845Q127 845 103.50 834.50Q80 824 67 800Q58 787 45.50 772Q33 757 3 761Z"  horiz-adv-x="312" vert-adv-y="1000"  />

      
      <glyph glyph-name="uni012A" unicode="&#x012A;" d="M156-9Q112-9 88 15Q64 39 64 85L64 620Q64 666 88 690Q112 714 156 714Q200 714 224 690Q248 666 248 620L248 85Q248 39 224.50 15Q201-9 156-9M15 796Q-36 796-36 844Q-36 893 15 893L298 893Q348 893 348 844Q348 796 298 796L15 796Z"  horiz-adv-x="312" vert-adv-y="1000"  />

      
      <glyph glyph-name="uni012E" unicode="&#x012E;" d="M179-198Q115-198 80-168Q45-138 45-87Q45-29 93 12Q64 36 64 85L64 620Q64 666 88 690Q112 714 156 714Q200 714 224 690Q248 666 248 620L248 85Q248 18 199-2Q173-13 161.50-30.50Q150-48 150-66Q150-87 165-99Q180-111 203-111Q215-111 230-108Q253-104 266-113.50Q279-123 281-138.50Q283-154 274-168.50Q265-183 245-190Q228-195 210.50-196.50Q193-198 179-198Z"  horiz-adv-x="312" vert-adv-y="1000"  />

      
      <glyph glyph-name="uni0128" unicode="&#x0128;" d="M156-9Q112-9 88 15Q64 39 64 85L64 620Q64 666 88 690Q112 714 156 714Q200 714 224 690Q248 666 248 620L248 85Q248 39 224.50 15Q201-9 156-9M-40 756Q-61 757-72.50 769.50Q-84 782-79 804Q-66 865-26.50 897.50Q13 930 67 930Q105 930 136 916.50Q167 903 194.50 889.50Q222 876 248 876Q287 876 303 906Q313 922 323.50 930.50Q334 939 352 938Q373 937 384.50 924.50Q396 912 391 890Q378 829 338.50 797Q299 765 245 765Q208 765 176.50 778Q145 791 118 804.50Q91 818 64 818Q25 818 9 789Q-1 773-11.50 764Q-22 755-40 756Z"  horiz-adv-x="312" vert-adv-y="1000"  />

      
      <glyph glyph-name="uni4a" unicode="&#x4a;" d="M68-8Q28-10 6.50 12.50Q-15 35-15 70Q-15 97 0 117Q15 137 45 139L73 141Q110 143 126.50 158.50Q143 174 143 210L143 621Q143 666 167 690Q191 714 235 714Q279 714 303 690Q327 666 327 621L327 213Q327 7 104-6L68-8Z"  horiz-adv-x="390" vert-adv-y="1000"  />

      
      <glyph glyph-name="uni0134" unicode="&#x0134;" d="M68-8Q28-10 6.50 12.50Q-15 35-15 70Q-15 97 0 117Q15 137 45 139L73 141Q110 143 126.50 158.50Q143 174 143 210L143 621Q143 666 167 690Q191 714 235 714Q279 714 303 690Q327 666 327 621L327 213Q327 7 104-6L68-8M164 774Q148 757 128 755.50Q108 754 92 764.50Q76 775 71 791.50Q66 808 80 827L134 903Q172 957 234 957Q296 957 334 903L388 827Q402 808 397 791.50Q392 775 376.50 764.50Q361 754 341 755.50Q321 757 304 774L234 851L164 774Z"  horiz-adv-x="390" vert-adv-y="1000"  />

      
      <glyph glyph-name="uni4b" unicode="&#x4b;" d="M156-9Q112-9 88 15Q64 39 64 84L64 621Q64 666 88 690Q112 714 156 714Q200 714 224 690Q248 666 248 621L248 403L250 403L493 671Q512 691 533.50 702.50Q555 714 582 714Q623 714 642 692.50Q661 671 659 642Q657 613 636 590L428 370L648 121Q674 92 674 62Q674 32 653 11.50Q632-9 593-9Q559-9 538 4.50Q517 18 494 45L250 318L248 318L248 84Q248 39 224.50 15Q201-9 156-9Z"  horiz-adv-x="712" vert-adv-y="1000"  />

      
      <glyph glyph-name="uni0136" unicode="&#x0136;" d="M156-9Q112-9 88 15Q64 39 64 84L64 621Q64 666 88 690Q112 714 156 714Q200 714 224 690Q248 666 248 621L248 403L250 403L493 671Q512 691 533.50 702.50Q555 714 582 714Q623 714 642 692.50Q661 671 659 642Q657 613 636 590L428 370L648 121Q674 92 674 62Q674 32 653 11.50Q632-9 593-9Q559-9 538 4.50Q517 18 494 45L250 318L248 318L248 84Q248 39 224.50 15Q201-9 156-9M392-271Q379-286 363.50-288Q348-290 336-282.50Q324-275 321-261Q318-247 331-228Q339-216 344-200Q263-197 263-128Q263-56 350-56Q437-56 437-139Q437-174 426-209Q415-244 392-271Z"  horiz-adv-x="712" vert-adv-y="1000"  />

      
      <glyph glyph-name="uni4c" unicode="&#x4c;" d="M157 0Q112 0 88 24.50Q64 49 64 93L64 613Q64 658 88 682Q112 706 156 706Q200 706 224 682Q248 658 248 613L248 153L492 153Q530 153 550.50 133Q571 113 571 77Q571 40 550.50 20Q530 0 492 0L157 0Z"  horiz-adv-x="585" vert-adv-y="1000"  />

      
      <glyph glyph-name="uni01C7" unicode="&#x01C7;" d="M157 0Q112 0 88 24.50Q64 49 64 93L64 613Q64 658 88 682Q112 706 156 706Q200 706 224 682Q248 658 248 613L248 153L492 153Q530 153 550.50 133Q571 113 571 77Q571 40 550.50 20Q530 0 492 0L157 0M693-8Q653-10 631.50 12.50Q610 35 610 70Q610 97 625 117Q640 137 670 139L698 141Q735 143 751.50 158.50Q768 174 768 210L768 621Q768 666 792 690Q816 714 860 714Q904 714 928 690Q952 666 952 621L952 213Q952 7 729-6L693-8Z"  horiz-adv-x="1015" vert-adv-y="1000"  />

      
      <glyph glyph-name="uni0139" unicode="&#x0139;" d="M157 0Q112 0 88 24.50Q64 49 64 93L64 613Q64 658 88 682Q112 706 156 706Q200 706 224 682Q248 658 248 613L248 153L492 153Q530 153 550.50 133Q571 113 571 77Q571 40 550.50 20Q530 0 492 0L157 0M225 773Q207 756 187.50 756Q168 756 153 767.50Q138 779 133 796.50Q128 814 141 833L206 930Q220 951 240 955Q260 959 279 951.50Q298 944 311 928.50Q324 913 325 894Q326 875 308 857L225 773Z"  horiz-adv-x="585" vert-adv-y="1000"  />

      
      <glyph glyph-name="uni013D" unicode="&#x013D;" d="M157 0Q112 0 88 24.50Q64 49 64 93L64 613Q64 658 88 682Q112 706 156 706Q200 706 224 682Q248 658 248 613L248 153L492 153Q530 153 550.50 133Q571 113 571 77Q571 40 550.50 20Q530 0 492 0L157 0M395 447Q344 447 344 500L344 650Q344 714 409 714Q472 714 466 647L450 498Q445 447 395 447Z"  horiz-adv-x="585" vert-adv-y="1000"  />

      
      <glyph glyph-name="uni013B" unicode="&#x013B;" d="M157 0Q112 0 88 24.50Q64 49 64 93L64 613Q64 658 88 682Q112 706 156 706Q200 706 224 682Q248 658 248 613L248 153L492 153Q530 153 550.50 133Q571 113 571 77Q571 40 550.50 20Q530 0 492 0L157 0M354-271Q341-286 325.50-288Q310-290 298-282.50Q286-275 283-261Q280-247 293-228Q301-216 306-200Q225-197 225-128Q225-56 312-56Q399-56 399-139Q399-174 388-209Q377-244 354-271Z"  horiz-adv-x="585" vert-adv-y="1000"  />

      
      <glyph glyph-name="uni013F" unicode="&#x013F;" d="M157 0Q112 0 88 24.50Q64 49 64 93L64 613Q64 658 88 682Q112 706 156 706Q200 706 224 682Q248 658 248 613L248 153L492 153Q530 153 550.50 133Q571 113 571 77Q571 40 550.50 20Q530 0 492 0L157 0M450 302Q404 302 378 329.50Q352 357 352 399Q352 442 378 469Q404 496 450 496Q496 496 522 469Q548 442 548 399Q548 357 522 329.50Q496 302 450 302Z"  horiz-adv-x="585" vert-adv-y="1000"  />

      
      <glyph glyph-name="uni1E36" unicode="&#x1E36;" d="M157 0Q112 0 88 24.50Q64 49 64 93L64 613Q64 658 88 682Q112 706 156 706Q200 706 224 682Q248 658 248 613L248 153L492 153Q530 153 550.50 133Q571 113 571 77Q571 40 550.50 20Q530 0 492 0L157 0M313-230Q272-230 250-209Q228-188 228-149Q228-69 313-69Q354-69 376-90Q398-111 398-149Q398-230 313-230Z"  horiz-adv-x="585" vert-adv-y="1000"  />

      
      <glyph glyph-name="uni01C8" unicode="&#x01C8;" d="M157 0Q112 0 88 24.50Q64 49 64 93L64 613Q64 658 88 682Q112 706 156 706Q200 706 224 682Q248 658 248 613L248 153L492 153Q530 153 550.50 133Q571 113 571 77Q571 40 550.50 20Q530 0 492 0L157 0M730 572Q682 572 656.50 594Q631 616 631 658Q631 699 656.50 721Q682 743 730 743Q829 743 829 658Q829 616 803.50 594Q778 572 730 572M608-187Q569-188 550-170Q531-152 529-128Q527-104 540-84.50Q553-65 579-62Q612-59 627-44Q642-29 642 3L642 412Q642 455 665 478Q688 501 731 501Q820 501 820 412L820 20Q820-82 768.50-133Q717-184 608-187Z"  horiz-adv-x="872" vert-adv-y="1000"  />

      
      <glyph glyph-name="uni1E3A" unicode="&#x1E3A;" d="M157 0Q112 0 88 24.50Q64 49 64 93L64 613Q64 658 88 682Q112 706 156 706Q200 706 224 682Q248 658 248 613L248 153L492 153Q530 153 550.50 133Q571 113 571 77Q571 40 550.50 20Q530 0 492 0L157 0M187-175Q136-175 136-127Q136-78 187-78L440-78Q490-78 490-127Q490-175 440-175L187-175Z"  horiz-adv-x="585" vert-adv-y="1000"  />

      
      <glyph glyph-name="uni0141" unicode="&#x0141;" d="M157 0Q112 0 88 24.50Q64 49 64 93L64 613Q64 658 88 682Q112 706 156 706Q200 706 224 682Q248 658 248 613L248 153L492 153Q530 153 550.50 133Q571 113 571 77Q571 40 550.50 20Q530 0 492 0L157 0M58 224Q26 206 0 214Q-26 222-39.50 245Q-53 268-47 295Q-41 322-8 341L348 548Q374 563 396 560Q418 557 433.50 542.50Q449 528 453.50 507.50Q458 487 449.50 466Q441 445 415 430L58 224Z"  horiz-adv-x="585" vert-adv-y="1000"  />

      
      <glyph glyph-name="uni4d" unicode="&#x4d;" d="M149-9Q109-9 87.50 13Q66 35 66 75L66 630Q66 671 89 692.50Q112 714 154 714Q188 714 209 700.50Q230 687 247 656L444 301L641 656Q659 687 679.50 700.50Q700 714 735 714Q774 714 796 692.50Q818 671 818 630L818 75Q818 35 797 13Q776-9 735-9Q695-9 673.50 13Q652 35 652 75L652 383L512 139Q498 117 482.50 106Q467 95 441 95Q416 95 400 106Q384 117 371 139L232 379L232 75Q232 35 211 13Q190-9 149-9Z"  horiz-adv-x="884" vert-adv-y="1000"  />

      
      <glyph glyph-name="uni1E42" unicode="&#x1E42;" d="M149-9Q109-9 87.50 13Q66 35 66 75L66 630Q66 671 89 692.50Q112 714 154 714Q188 714 209 700.50Q230 687 247 656L444 301L641 656Q659 687 679.50 700.50Q700 714 735 714Q774 714 796 692.50Q818 671 818 630L818 75Q818 35 797 13Q776-9 735-9Q695-9 673.50 13Q652 35 652 75L652 383L512 139Q498 117 482.50 106Q467 95 441 95Q416 95 400 106Q384 117 371 139L232 379L232 75Q232 35 211 13Q190-9 149-9M443-230Q402-230 380-209Q358-188 358-149Q358-69 443-69Q484-69 506-90Q528-111 528-149Q528-230 443-230Z"  horiz-adv-x="884" vert-adv-y="1000"  />

      
      <glyph glyph-name="uni4e" unicode="&#x4e;" d="M150-9Q64-9 64 78L64 623Q64 667 86 690.50Q108 714 144 714Q176 714 193.50 702Q211 690 234 662L523 301L523 628Q523 714 608 714Q650 714 671.50 691.50Q693 669 693 628L693 74Q693 36 673 13.50Q653-9 619-9Q585-9 565.50 3Q546 15 524 43L235 404L235 78Q235-9 150-9Z"  horiz-adv-x="758" vert-adv-y="1000"  />

      
      <glyph glyph-name="uni01CA" unicode="&#x01CA;" d="M150-9Q64-9 64 78L64 623Q64 667 86 690.50Q108 714 144 714Q176 714 193.50 702Q211 690 234 662L523 301L523 628Q523 714 608 714Q650 714 671.50 691.50Q693 669 693 628L693 74Q693 36 673 13.50Q653-9 619-9Q585-9 565.50 3Q546 15 524 43L235 404L235 78Q235-9 150-9M826-8Q786-10 764.50 12.50Q743 35 743 70Q743 97 758 117Q773 137 803 139L831 141Q868 143 884.50 158.50Q901 174 901 210L901 621Q901 666 925 690Q949 714 993 714Q1037 714 1061 690Q1085 666 1085 621L1085 213Q1085 7 862-6L826-8Z"  horiz-adv-x="1148" vert-adv-y="1000"  />

      
      <glyph glyph-name="uni0143" unicode="&#x0143;" d="M150-9Q64-9 64 78L64 623Q64 667 86 690.50Q108 714 144 714Q176 714 193.50 702Q211 690 234 662L523 301L523 628Q523 714 608 714Q650 714 671.50 691.50Q693 669 693 628L693 74Q693 36 673 13.50Q653-9 619-9Q585-9 565.50 3Q546 15 524 43L235 404L235 78Q235-9 150-9M447 773Q429 756 409.50 756Q390 756 375 767.50Q360 779 355 796.50Q350 814 363 833L428 930Q442 951 462 955Q482 959 501 951.50Q520 944 533 928.50Q546 913 547 894Q548 875 530 857L447 773Z"  horiz-adv-x="758" vert-adv-y="1000"  />

      
      <glyph glyph-name="uni0147" unicode="&#x0147;" d="M150-9Q64-9 64 78L64 623Q64 667 86 690.50Q108 714 144 714Q176 714 193.50 702Q211 690 234 662L523 301L523 628Q523 714 608 714Q650 714 671.50 691.50Q693 669 693 628L693 74Q693 36 673 13.50Q653-9 619-9Q585-9 565.50 3Q546 15 524 43L235 404L235 78Q235-9 150-9M378 749Q316 749 278 803L224 878Q210 897 215 914Q220 931 236 941Q252 951 272 950Q292 949 308 931L378 854L448 931Q465 949 485 950Q505 951 520.50 941Q536 931 541 914Q546 897 532 878L478 803Q440 749 378 749Z"  horiz-adv-x="758" vert-adv-y="1000"  />

      
      <glyph glyph-name="uni0145" unicode="&#x0145;" d="M150-9Q64-9 64 78L64 623Q64 667 86 690.50Q108 714 144 714Q176 714 193.50 702Q211 690 234 662L523 301L523 628Q523 714 608 714Q650 714 671.50 691.50Q693 669 693 628L693 74Q693 36 673 13.50Q653-9 619-9Q585-9 565.50 3Q546 15 524 43L235 404L235 78Q235-9 150-9M420-271Q407-286 391.50-288Q376-290 364-282.50Q352-275 349-261Q346-247 359-228Q367-216 372-200Q291-197 291-128Q291-56 378-56Q465-56 465-139Q465-174 454-209Q443-244 420-271Z"  horiz-adv-x="758" vert-adv-y="1000"  />

      
      <glyph glyph-name="uni1E44" unicode="&#x1E44;" d="M150-9Q64-9 64 78L64 623Q64 667 86 690.50Q108 714 144 714Q176 714 193.50 702Q211 690 234 662L523 301L523 628Q523 714 608 714Q650 714 671.50 691.50Q693 669 693 628L693 74Q693 36 673 13.50Q653-9 619-9Q585-9 565.50 3Q546 15 524 43L235 404L235 78Q235-9 150-9M378 772Q337 772 315 793.50Q293 815 293 853Q293 933 378 933Q463 933 463 853Q463 772 378 772Z"  horiz-adv-x="758" vert-adv-y="1000"  />

      
      <glyph glyph-name="uni1E46" unicode="&#x1E46;" d="M150-9Q64-9 64 78L64 623Q64 667 86 690.50Q108 714 144 714Q176 714 193.50 702Q211 690 234 662L523 301L523 628Q523 714 608 714Q650 714 671.50 691.50Q693 669 693 628L693 74Q693 36 673 13.50Q653-9 619-9Q585-9 565.50 3Q546 15 524 43L235 404L235 78Q235-9 150-9M379-230Q338-230 316-209Q294-188 294-149Q294-69 379-69Q420-69 442-90Q464-111 464-149Q464-230 379-230Z"  horiz-adv-x="758" vert-adv-y="1000"  />

      
      <glyph glyph-name="uni014A" unicode="&#x014A;" d="M481-187Q442-188 423-170Q404-152 402-127.50Q400-103 413.50-84Q427-65 453-62Q486-59 504.50-44.50Q523-30 523 3L523 44L235 404L235 78Q235-9 150-9Q64-9 64 78L64 623Q64 667 86 690.50Q108 714 144 714Q176 714 193.50 702Q211 690 234 662L523 301L523 628Q523 714 608 714Q650 714 671.50 691.50Q693 669 693 628L693 28Q693-85 641.50-135Q590-185 481-187Z"  horiz-adv-x="758" vert-adv-y="1000"  />

      
      <glyph glyph-name="uni01CB" unicode="&#x01CB;" d="M150-9Q64-9 64 78L64 623Q64 667 86 690.50Q108 714 144 714Q176 714 193.50 702Q211 690 234 662L523 301L523 628Q523 714 608 714Q650 714 671.50 691.50Q693 669 693 628L693 74Q693 36 673 13.50Q653-9 619-9Q585-9 565.50 3Q546 15 524 43L235 404L235 78Q235-9 150-9M903 572Q855 572 829.50 594Q804 616 804 658Q804 699 829.50 721Q855 743 903 743Q1002 743 1002 658Q1002 616 976.50 594Q951 572 903 572M781-187Q742-188 723-170Q704-152 702-128Q700-104 713-84.50Q726-65 752-62Q785-59 800-44Q815-29 815 3L815 412Q815 455 838 478Q861 501 904 501Q993 501 993 412L993 20Q993-82 941.50-133Q890-184 781-187Z"  horiz-adv-x="1045" vert-adv-y="1000"  />

      
      <glyph glyph-name="uni1E48" unicode="&#x1E48;" d="M150-9Q64-9 64 78L64 623Q64 667 86 690.50Q108 714 144 714Q176 714 193.50 702Q211 690 234 662L523 301L523 628Q523 714 608 714Q650 714 671.50 691.50Q693 669 693 628L693 74Q693 36 673 13.50Q653-9 619-9Q585-9 565.50 3Q546 15 524 43L235 404L235 78Q235-9 150-9M253-175Q202-175 202-127Q202-78 253-78L506-78Q556-78 556-127Q556-175 506-175L253-175Z"  horiz-adv-x="758" vert-adv-y="1000"  />

      
      <glyph glyph-name="unid1" unicode="&#xd1;" d="M150-9Q64-9 64 78L64 623Q64 667 86 690.50Q108 714 144 714Q176 714 193.50 702Q211 690 234 662L523 301L523 628Q523 714 608 714Q650 714 671.50 691.50Q693 669 693 628L693 74Q693 36 673 13.50Q653-9 619-9Q585-9 565.50 3Q546 15 524 43L235 404L235 78Q235-9 150-9M182 756Q161 757 149.50 769.50Q138 782 143 804Q156 865 195.50 897.50Q235 930 289 930Q327 930 358 916.50Q389 903 416.50 889.50Q444 876 470 876Q509 876 525 906Q535 922 545.50 930.50Q556 939 574 938Q595 937 606.50 924.50Q618 912 613 890Q600 829 560.50 797Q521 765 467 765Q430 765 398.50 778Q367 791 340 804.50Q313 818 286 818Q247 818 231 789Q221 773 210.50 764Q200 755 182 756Z"  horiz-adv-x="758" vert-adv-y="1000"  />

      
      <glyph glyph-name="uni4f" unicode="&#x4f;" d="M404-11Q297-11 216.50 34.50Q136 80 91 162Q46 244 46 353Q46 463 90.50 544.50Q135 626 216 671Q297 716 404 716Q511 716 591.50 671Q672 626 717 544.50Q762 463 762 353Q762 244 717 162Q672 80 591.50 34.50Q511-11 404-11M404 143Q482 143 526.50 198.50Q571 254 571 353Q571 452 527 507Q483 562 404 562Q325 562 281 507Q237 452 237 353Q237 254 281 198.50Q325 143 404 143Z"  horiz-adv-x="807" vert-adv-y="1000"  />

      
      <glyph glyph-name="unid3" unicode="&#xd3;" d="M404-11Q297-11 216.50 34.50Q136 80 91 162Q46 244 46 353Q46 463 90.50 544.50Q135 626 216 671Q297 716 404 716Q511 716 591.50 671Q672 626 717 544.50Q762 463 762 353Q762 244 717 162Q672 80 591.50 34.50Q511-11 404-11M404 143Q482 143 526.50 198.50Q571 254 571 353Q571 452 527 507Q483 562 404 562Q325 562 281 507Q237 452 237 353Q237 254 281 198.50Q325 143 404 143M471 773Q453 756 433.50 756Q414 756 399 767.50Q384 779 379 796.50Q374 814 387 833L452 930Q466 951 486 955Q506 959 525 951.50Q544 944 557 928.50Q570 913 571 894Q572 875 554 857L471 773Z"  horiz-adv-x="807" vert-adv-y="1000"  />

      
      <glyph glyph-name="uni014E" unicode="&#x014E;" d="M404-11Q297-11 216.50 34.50Q136 80 91 162Q46 244 46 353Q46 463 90.50 544.50Q135 626 216 671Q297 716 404 716Q511 716 591.50 671Q672 626 717 544.50Q762 463 762 353Q762 244 717 162Q672 80 591.50 34.50Q511-11 404-11M404 143Q482 143 526.50 198.50Q571 254 571 353Q571 452 527 507Q483 562 404 562Q325 562 281 507Q237 452 237 353Q237 254 281 198.50Q325 143 404 143M402 760Q332 760 281 793Q230 826 214 880Q203 907 215.50 924Q228 941 250 944Q279 948 291.50 932.50Q304 917 314 905Q325 881 348.50 870Q372 859 402 859Q432 859 455 870Q478 881 490 905Q500 917 512.50 932Q525 947 554 944Q576 941 587.50 924.50Q599 908 590 880Q574 826 523 793Q472 760 402 760Z"  horiz-adv-x="807" vert-adv-y="1000"  />

      
      <glyph glyph-name="unid4" unicode="&#xd4;" d="M404-11Q297-11 216.50 34.50Q136 80 91 162Q46 244 46 353Q46 463 90.50 544.50Q135 626 216 671Q297 716 404 716Q511 716 591.50 671Q672 626 717 544.50Q762 463 762 353Q762 244 717 162Q672 80 591.50 34.50Q511-11 404-11M404 143Q482 143 526.50 198.50Q571 254 571 353Q571 452 527 507Q483 562 404 562Q325 562 281 507Q237 452 237 353Q237 254 281 198.50Q325 143 404 143M332 774Q316 757 296 755.50Q276 754 260 764.50Q244 775 239 791.50Q234 808 248 827L302 903Q340 957 402 957Q464 957 502 903L556 827Q570 808 565 791.50Q560 775 544.50 764.50Q529 754 509 755.50Q489 757 472 774L402 851L332 774Z"  horiz-adv-x="807" vert-adv-y="1000"  />

      
      <glyph glyph-name="uni1ED0" unicode="&#x1ED0;" d="M404-11Q297-11 216.50 34.50Q136 80 91 162Q46 244 46 353Q46 463 90.50 544.50Q135 626 216 671Q297 716 404 716Q511 716 591.50 671Q672 626 717 544.50Q762 463 762 353Q762 244 717 162Q672 80 591.50 34.50Q511-11 404-11M404 143Q482 143 526.50 198.50Q571 254 571 353Q571 452 527 507Q483 562 404 562Q325 562 281 507Q237 452 237 353Q237 254 281 198.50Q325 143 404 143M615 867Q598 846 577 848.50Q556 851 545.50 868.50Q535 886 548 911L602 1011Q615 1035 636.50 1038Q658 1041 677 1029.50Q696 1018 701.50 997.50Q707 977 688 955L615 867M330 770Q312 753 293.50 751.50Q275 750 261.50 759.50Q248 769 244.50 785.50Q241 802 254 821L304 895Q324 924 347.50 936Q371 948 402 948Q433 948 457 936Q481 924 500 895L550 821Q563 802 559.50 785.50Q556 769 542.50 759.50Q529 750 510.50 751.50Q492 753 474 770L402 843L330 770Z"  horiz-adv-x="807" vert-adv-y="1000"  />

      
      <glyph glyph-name="uni1ED8" unicode="&#x1ED8;" d="M404-11Q297-11 216.50 34.50Q136 80 91 162Q46 244 46 353Q46 463 90.50 544.50Q135 626 216 671Q297 716 404 716Q511 716 591.50 671Q672 626 717 544.50Q762 463 762 353Q762 244 717 162Q672 80 591.50 34.50Q511-11 404-11M404 143Q482 143 526.50 198.50Q571 254 571 353Q571 452 527 507Q483 562 404 562Q325 562 281 507Q237 452 237 353Q237 254 281 198.50Q325 143 404 143M403-230Q362-230 340-209Q318-188 318-149Q318-69 403-69Q444-69 466-90Q488-111 488-149Q488-230 403-230M332 774Q316 757 296 755.50Q276 754 260 764.50Q244 775 239 791.50Q234 808 248 827L302 903Q340 957 402 957Q464 957 502 903L556 827Q570 808 565 791.50Q560 775 544.50 764.50Q529 754 509 755.50Q489 757 472 774L402 851L332 774Z"  horiz-adv-x="807" vert-adv-y="1000"  />

      
      <glyph glyph-name="uni1ED2" unicode="&#x1ED2;" d="M404-11Q297-11 216.50 34.50Q136 80 91 162Q46 244 46 353Q46 463 90.50 544.50Q135 626 216 671Q297 716 404 716Q511 716 591.50 671Q672 626 717 544.50Q762 463 762 353Q762 244 717 162Q672 80 591.50 34.50Q511-11 404-11M404 143Q482 143 526.50 198.50Q571 254 571 353Q571 452 527 507Q483 562 404 562Q325 562 281 507Q237 452 237 353Q237 254 281 198.50Q325 143 404 143M574 867L501 955Q483 977 488.50 997.50Q494 1018 512.50 1029.50Q531 1041 552.50 1038Q574 1035 587 1011L641 911Q655 886 644 868.50Q633 851 612 848.50Q591 846 574 867M330 770Q312 753 293.50 751.50Q275 750 261.50 759.50Q248 769 244.50 785.50Q241 802 254 821L304 895Q324 924 347.50 936Q371 948 402 948Q433 948 457 936Q481 924 500 895L550 821Q563 802 559.50 785.50Q556 769 542.50 759.50Q529 750 510.50 751.50Q492 753 474 770L402 843L330 770Z"  horiz-adv-x="807" vert-adv-y="1000"  />

      
      <glyph glyph-name="uni1ED4" unicode="&#x1ED4;" d="M404-11Q297-11 216.50 34.50Q136 80 91 162Q46 244 46 353Q46 463 90.50 544.50Q135 626 216 671Q297 716 404 716Q511 716 591.50 671Q672 626 717 544.50Q762 463 762 353Q762 244 717 162Q672 80 591.50 34.50Q511-11 404-11M404 143Q482 143 526.50 198.50Q571 254 571 353Q571 452 527 507Q483 562 404 562Q325 562 281 507Q237 452 237 353Q237 254 281 198.50Q325 143 404 143M598 869Q583 860 566 863Q549 866 540.50 877Q532 888 543 903Q552 913 558.50 923Q565 933 565 943Q565 961 537 961Q526 961 513 959Q478 952 469 978Q458 1010 494 1019Q513 1024 533.50 1026.50Q554 1029 577 1029Q672 1029 672 969Q672 940 648 912.50Q624 885 598 869M330 770Q312 753 293.50 751.50Q275 750 261.50 759.50Q248 769 244.50 785.50Q241 802 254 821L304 895Q324 924 347.50 936Q371 948 402 948Q433 948 457 936Q481 924 500 895L550 821Q563 802 559.50 785.50Q556 769 542.50 759.50Q529 750 510.50 751.50Q492 753 474 770L402 843L330 770Z"  horiz-adv-x="807" vert-adv-y="1000"  />

      
      <glyph glyph-name="uni1ED6" unicode="&#x1ED6;" d="M404-11Q297-11 216.50 34.50Q136 80 91 162Q46 244 46 353Q46 463 90.50 544.50Q135 626 216 671Q297 716 404 716Q511 716 591.50 671Q672 626 717 544.50Q762 463 762 353Q762 244 717 162Q672 80 591.50 34.50Q511-11 404-11M404 143Q482 143 526.50 198.50Q571 254 571 353Q571 452 527 507Q483 562 404 562Q325 562 281 507Q237 452 237 353Q237 254 281 198.50Q325 143 404 143M253 921Q234 921 224 933.50Q214 946 221 967Q233 1003 263 1023Q293 1043 334 1043Q361 1043 384 1034.50Q407 1026 427 1017.50Q447 1009 464 1009Q477 1009 487 1012Q497 1015 503 1022Q515 1032 525 1039.50Q535 1047 551 1046Q571 1045 580.50 1033Q590 1021 584 1000Q572 963 542 943Q512 923 470 923Q443 923 420 932Q397 941 377 949.50Q357 958 340 958Q313 958 302 945Q290 935 280 927.50Q270 920 253 921M315 761Q292 746 273 752.50Q254 759 247 776.50Q240 794 255 811L295 860Q316 886 343 896.50Q370 907 402 907Q434 907 461 896.50Q488 886 509 860L549 811Q564 794 557 776.50Q550 759 531 752Q512 745 489 761L402 822L315 761Z"  horiz-adv-x="807" vert-adv-y="1000"  />

      
      <glyph glyph-name="uni020C" unicode="&#x020C;" d="M404-11Q297-11 216.50 34.50Q136 80 91 162Q46 244 46 353Q46 463 90.50 544.50Q135 626 216 671Q297 716 404 716Q511 716 591.50 671Q672 626 717 544.50Q762 463 762 353Q762 244 717 162Q672 80 591.50 34.50Q511-11 404-11M404 143Q482 143 526.50 198.50Q571 254 571 353Q571 452 527 507Q483 562 404 562Q325 562 281 507Q237 452 237 353Q237 254 281 198.50Q325 143 404 143M262 772L181 867Q164 886 164.50 904.50Q165 923 177.50 936Q190 949 208 954.50Q226 960 244 954Q262 948 274 927L332 823Q343 805 338.50 789Q334 773 321 763.50Q308 754 292 755Q276 756 262 772M429 777L360 866Q344 886 346.50 904.50Q349 923 362.50 936.50Q376 950 394.50 954.50Q413 959 431 952.50Q449 946 459 925L511 819Q520 800 513.50 785Q507 770 492.50 762Q478 754 460.50 756.50Q443 759 429 777Z"  horiz-adv-x="807" vert-adv-y="1000"  />

      
      <glyph glyph-name="unid6" unicode="&#xd6;" d="M404-11Q297-11 216.50 34.50Q136 80 91 162Q46 244 46 353Q46 463 90.50 544.50Q135 626 216 671Q297 716 404 716Q511 716 591.50 671Q672 626 717 544.50Q762 463 762 353Q762 244 717 162Q672 80 591.50 34.50Q511-11 404-11M404 143Q482 143 526.50 198.50Q571 254 571 353Q571 452 527 507Q483 562 404 562Q325 562 281 507Q237 452 237 353Q237 254 281 198.50Q325 143 404 143M505 766Q425 766 425 846Q425 926 505 926Q585 926 585 846Q585 766 505 766M299 766Q261 766 240 786.50Q219 807 219 846Q219 884 240 905Q261 926 299 926Q379 926 379 846Q379 766 299 766Z"  horiz-adv-x="807" vert-adv-y="1000"  />

      
      <glyph glyph-name="uni022A" unicode="&#x022A;" d="M404-11Q297-11 216.50 34.50Q136 80 91 162Q46 244 46 353Q46 463 90.50 544.50Q135 626 216 671Q297 716 404 716Q511 716 591.50 671Q672 626 717 544.50Q762 463 762 353Q762 244 717 162Q672 80 591.50 34.50Q511-11 404-11M404 143Q482 143 526.50 198.50Q571 254 571 353Q571 452 527 507Q483 562 404 562Q325 562 281 507Q237 452 237 353Q237 254 281 198.50Q325 143 404 143M283 922Q228 922 228 971Q228 1019 283 1019L521 1019Q576 1019 576 971Q576 922 521 922L283 922M299 770Q261 770 240 785.50Q219 801 219 829Q219 857 240 871.50Q261 886 299 886Q379 886 379 829Q379 770 299 770M505 770Q425 770 425 829Q425 886 505 886Q585 886 585 829Q585 770 505 770Z"  horiz-adv-x="807" vert-adv-y="1000"  />

      
      <glyph glyph-name="uni0230" unicode="&#x0230;" d="M404-11Q297-11 216.50 34.50Q136 80 91 162Q46 244 46 353Q46 463 90.50 544.50Q135 626 216 671Q297 716 404 716Q511 716 591.50 671Q672 626 717 544.50Q762 463 762 353Q762 244 717 162Q672 80 591.50 34.50Q511-11 404-11M404 143Q482 143 526.50 198.50Q571 254 571 353Q571 452 527 507Q483 562 404 562Q325 562 281 507Q237 452 237 353Q237 254 281 198.50Q325 143 404 143M283 922Q228 922 228 971Q228 1019 283 1019L521 1019Q576 1019 576 971Q576 922 521 922L283 922M403 770Q365 770 343.50 785.50Q322 801 322 829Q322 857 343.50 871.50Q365 886 403 886Q483 886 483 829Q483 770 403 770Z"  horiz-adv-x="807" vert-adv-y="1000"  />

      
      <glyph glyph-name="uni1ECC" unicode="&#x1ECC;" d="M404-11Q297-11 216.50 34.50Q136 80 91 162Q46 244 46 353Q46 463 90.50 544.50Q135 626 216 671Q297 716 404 716Q511 716 591.50 671Q672 626 717 544.50Q762 463 762 353Q762 244 717 162Q672 80 591.50 34.50Q511-11 404-11M404 143Q482 143 526.50 198.50Q571 254 571 353Q571 452 527 507Q483 562 404 562Q325 562 281 507Q237 452 237 353Q237 254 281 198.50Q325 143 404 143M403-230Q362-230 340-209Q318-188 318-149Q318-69 403-69Q444-69 466-90Q488-111 488-149Q488-230 403-230Z"  horiz-adv-x="807" vert-adv-y="1000"  />

      
      <glyph glyph-name="unid2" unicode="&#xd2;" d="M404-11Q297-11 216.50 34.50Q136 80 91 162Q46 244 46 353Q46 463 90.50 544.50Q135 626 216 671Q297 716 404 716Q511 716 591.50 671Q672 626 717 544.50Q762 463 762 353Q762 244 717 162Q672 80 591.50 34.50Q511-11 404-11M404 143Q482 143 526.50 198.50Q571 254 571 353Q571 452 527 507Q483 562 404 562Q325 562 281 507Q237 452 237 353Q237 254 281 198.50Q325 143 404 143M333 773L250 857Q233 875 233.50 894Q234 913 247 928.50Q260 944 279.50 951.50Q299 959 318.50 955Q338 951 353 930L418 833Q430 814 425 796.50Q420 779 405 767.50Q390 756 370.50 756Q351 756 333 773Z"  horiz-adv-x="807" vert-adv-y="1000"  />

      
      <glyph glyph-name="uni1ECE" unicode="&#x1ECE;" d="M404-11Q297-11 216.50 34.50Q136 80 91 162Q46 244 46 353Q46 463 90.50 544.50Q135 626 216 671Q297 716 404 716Q511 716 591.50 671Q672 626 717 544.50Q762 463 762 353Q762 244 717 162Q672 80 591.50 34.50Q511-11 404-11M404 143Q482 143 526.50 198.50Q571 254 571 353Q571 452 527 507Q483 562 404 562Q325 562 281 507Q237 452 237 353Q237 254 281 198.50Q325 143 404 143M402 756Q351 756 351 785Q351 805 363 816.50Q375 828 387.50 836.50Q400 845 400 856Q400 873 367 873Q354 873 339 870Q300 862 289 891Q283 906 288.50 919Q294 932 314 938Q333 944 359 947Q385 950 413 950Q467 950 497.50 932.50Q528 915 528 884Q528 861 517 847.50Q506 834 491 825Q476 816 464.50 805.50Q453 795 453 778Q453 756 402 756Z"  horiz-adv-x="807" vert-adv-y="1000"  />

      
      <glyph glyph-name="uni01A0" unicode="&#x01A0;" d="M404-11Q297-11 216.50 34.50Q136 80 91 162Q46 244 46 353Q46 463 90.50 544.50Q135 626 216 671Q297 716 404 716Q511 716 591.50 671Q672 626 717 544.50Q762 463 762 353Q762 244 717 162Q672 80 591.50 34.50Q511-11 404-11M404 143Q482 143 526.50 198.50Q571 254 571 353Q571 452 527 507Q483 562 404 562Q325 562 281 507Q237 452 237 353Q237 254 281 198.50Q325 143 404 143M500 624L463 709Q481 708 495 706.50Q509 705 522 705Q603 705 603 778Q603 838 680 838Q756 838 756 771Q756 732 738.50 699Q721 666 689.50 645Q658 624 619 624L500 624Z"  horiz-adv-x="807" vert-adv-y="1000"  />

      
      <glyph glyph-name="uni1EDA" unicode="&#x1EDA;" d="M404-11Q297-11 216.50 34.50Q136 80 91 162Q46 244 46 353Q46 463 90.50 544.50Q135 626 216 671Q297 716 404 716Q511 716 591.50 671Q672 626 717 544.50Q762 463 762 353Q762 244 717 162Q672 80 591.50 34.50Q511-11 404-11M404 143Q482 143 526.50 198.50Q571 254 571 353Q571 452 527 507Q483 562 404 562Q325 562 281 507Q237 452 237 353Q237 254 281 198.50Q325 143 404 143M500 624L463 709Q481 708 495 706.50Q509 705 522 705Q603 705 603 778Q603 838 680 838Q756 838 756 771Q756 732 738.50 699Q721 666 689.50 645Q658 624 619 624L500 624M467 773Q449 756 429.50 756Q410 756 395 767.50Q380 779 375 796.50Q370 814 383 833L448 930Q462 951 482 955Q502 959 521 951.50Q540 944 553 928.50Q566 913 567 894Q568 875 550 857L467 773Z"  horiz-adv-x="807" vert-adv-y="1000"  />

      
      <glyph glyph-name="uni1EE2" unicode="&#x1EE2;" d="M404-11Q297-11 216.50 34.50Q136 80 91 162Q46 244 46 353Q46 463 90.50 544.50Q135 626 216 671Q297 716 404 716Q511 716 591.50 671Q672 626 717 544.50Q762 463 762 353Q762 244 717 162Q672 80 591.50 34.50Q511-11 404-11M404 143Q482 143 526.50 198.50Q571 254 571 353Q571 452 527 507Q483 562 404 562Q325 562 281 507Q237 452 237 353Q237 254 281 198.50Q325 143 404 143M500 624L463 709Q481 708 495 706.50Q509 705 522 705Q603 705 603 778Q603 838 680 838Q756 838 756 771Q756 732 738.50 699Q721 666 689.50 645Q658 624 619 624L500 624M399-230Q358-230 336-209Q314-188 314-149Q314-69 399-69Q440-69 462-90Q484-111 484-149Q484-230 399-230Z"  horiz-adv-x="807" vert-adv-y="1000"  />

      
      <glyph glyph-name="uni1EDC" unicode="&#x1EDC;" d="M404-11Q297-11 216.50 34.50Q136 80 91 162Q46 244 46 353Q46 463 90.50 544.50Q135 626 216 671Q297 716 404 716Q511 716 591.50 671Q672 626 717 544.50Q762 463 762 353Q762 244 717 162Q672 80 591.50 34.50Q511-11 404-11M404 143Q482 143 526.50 198.50Q571 254 571 353Q571 452 527 507Q483 562 404 562Q325 562 281 507Q237 452 237 353Q237 254 281 198.50Q325 143 404 143M500 624L463 709Q481 708 495 706.50Q509 705 522 705Q603 705 603 778Q603 838 680 838Q756 838 756 771Q756 732 738.50 699Q721 666 689.50 645Q658 624 619 624L500 624M329 773L246 857Q229 875 229.50 894Q230 913 243 928.50Q256 944 275.50 951.50Q295 959 314.50 955Q334 951 349 930L414 833Q426 814 421 796.50Q416 779 401 767.50Q386 756 366.50 756Q347 756 329 773Z"  horiz-adv-x="807" vert-adv-y="1000"  />

      
      <glyph glyph-name="uni1EDE" unicode="&#x1EDE;" d="M404-11Q297-11 216.50 34.50Q136 80 91 162Q46 244 46 353Q46 463 90.50 544.50Q135 626 216 671Q297 716 404 716Q511 716 591.50 671Q672 626 717 544.50Q762 463 762 353Q762 244 717 162Q672 80 591.50 34.50Q511-11 404-11M404 143Q482 143 526.50 198.50Q571 254 571 353Q571 452 527 507Q483 562 404 562Q325 562 281 507Q237 452 237 353Q237 254 281 198.50Q325 143 404 143M500 624L463 709Q481 708 495 706.50Q509 705 522 705Q603 705 603 778Q603 838 680 838Q756 838 756 771Q756 732 738.50 699Q721 666 689.50 645Q658 624 619 624L500 624M398 756Q347 756 347 785Q347 805 359 816.50Q371 828 383.50 836.50Q396 845 396 856Q396 873 363 873Q350 873 335 870Q296 862 285 891Q279 906 284.50 919Q290 932 310 938Q329 944 355 947Q381 950 409 950Q463 950 493.50 932.50Q524 915 524 884Q524 861 513 847.50Q502 834 487 825Q472 816 460.50 805.50Q449 795 449 778Q449 756 398 756Z"  horiz-adv-x="807" vert-adv-y="1000"  />

      
      <glyph glyph-name="uni1EE0" unicode="&#x1EE0;" d="M404-11Q297-11 216.50 34.50Q136 80 91 162Q46 244 46 353Q46 463 90.50 544.50Q135 626 216 671Q297 716 404 716Q511 716 591.50 671Q672 626 717 544.50Q762 463 762 353Q762 244 717 162Q672 80 591.50 34.50Q511-11 404-11M404 143Q482 143 526.50 198.50Q571 254 571 353Q571 452 527 507Q483 562 404 562Q325 562 281 507Q237 452 237 353Q237 254 281 198.50Q325 143 404 143M500 624L463 709Q481 708 495 706.50Q509 705 522 705Q603 705 603 778Q603 838 680 838Q756 838 756 771Q756 732 738.50 699Q721 666 689.50 645Q658 624 619 624L500 624M209 756Q189 757 178.50 771Q168 785 172 807Q183 865 218.50 897.50Q254 930 305 930Q340 930 363.50 916.50Q387 903 408.50 889.50Q430 876 456 876Q472 876 484 883.50Q496 891 503 903Q515 920 525.50 929.50Q536 939 556 938Q576 937 586 923.50Q596 910 591 887Q580 830 544.50 797.50Q509 765 458 765Q424 765 400 778Q376 791 354.50 804.50Q333 818 308 818Q292 818 280 810.50Q268 803 261 791Q249 774 239 764.50Q229 755 209 756Z"  horiz-adv-x="807" vert-adv-y="1000"  />

      
      <glyph glyph-name="uni0150" unicode="&#x0150;" d="M404-11Q297-11 216.50 34.50Q136 80 91 162Q46 244 46 353Q46 463 90.50 544.50Q135 626 216 671Q297 716 404 716Q511 716 591.50 671Q672 626 717 544.50Q762 463 762 353Q762 244 717 162Q672 80 591.50 34.50Q511-11 404-11M404 143Q482 143 526.50 198.50Q571 254 571 353Q571 452 527 507Q483 562 404 562Q325 562 281 507Q237 452 237 353Q237 254 281 198.50Q325 143 404 143M542 772Q529 756 512.50 755Q496 754 483 763.50Q470 773 465.50 789Q461 805 472 823L531 927Q542 948 560.50 954Q579 960 597 954.50Q615 949 627 935.50Q639 922 640 904Q641 886 624 867L542 772M375 777Q361 759 343.50 756.50Q326 754 311.50 762Q297 770 291 785Q285 800 293 819L345 925Q355 946 373 952.50Q391 959 409.50 954.50Q428 950 441.50 936.50Q455 923 457.50 904.50Q460 886 444 866L375 777Z"  horiz-adv-x="807" vert-adv-y="1000"  />

      
      <glyph glyph-name="uni020E" unicode="&#x020E;" d="M404-11Q297-11 216.50 34.50Q136 80 91 162Q46 244 46 353Q46 463 90.50 544.50Q135 626 216 671Q297 716 404 716Q511 716 591.50 671Q672 626 717 544.50Q762 463 762 353Q762 244 717 162Q672 80 591.50 34.50Q511-11 404-11M404 143Q482 143 526.50 198.50Q571 254 571 353Q571 452 527 507Q483 562 404 562Q325 562 281 507Q237 452 237 353Q237 254 281 198.50Q325 143 404 143M249 761Q226 763 215.50 780.50Q205 798 213 824Q230 880 281.50 912Q333 944 401 944Q469 944 521 912Q573 880 590 824Q599 799 588 781Q577 763 554 761Q524 757 511.50 772Q499 787 490 800Q477 824 454 834.50Q431 845 401 845Q373 845 349.50 834.50Q326 824 313 800Q304 787 291.50 772Q279 757 249 761Z"  horiz-adv-x="807" vert-adv-y="1000"  />

      
      <glyph glyph-name="uni014C" unicode="&#x014C;" d="M404-11Q297-11 216.50 34.50Q136 80 91 162Q46 244 46 353Q46 463 90.50 544.50Q135 626 216 671Q297 716 404 716Q511 716 591.50 671Q672 626 717 544.50Q762 463 762 353Q762 244 717 162Q672 80 591.50 34.50Q511-11 404-11M404 143Q482 143 526.50 198.50Q571 254 571 353Q571 452 527 507Q483 562 404 562Q325 562 281 507Q237 452 237 353Q237 254 281 198.50Q325 143 404 143M261 796Q210 796 210 844Q210 893 261 893L544 893Q594 893 594 844Q594 796 544 796L261 796Z"  horiz-adv-x="807" vert-adv-y="1000"  />

      
      <glyph glyph-name="uni1E52" unicode="&#x1E52;" d="M404-11Q297-11 216.50 34.50Q136 80 91 162Q46 244 46 353Q46 463 90.50 544.50Q135 626 216 671Q297 716 404 716Q511 716 591.50 671Q672 626 717 544.50Q762 463 762 353Q762 244 717 162Q672 80 591.50 34.50Q511-11 404-11M404 143Q482 143 526.50 198.50Q571 254 571 353Q571 452 527 507Q483 562 404 562Q325 562 281 507Q237 452 237 353Q237 254 281 198.50Q325 143 404 143M456 909Q440 892 422 890Q404 888 389.50 897Q375 906 369 922Q363 938 372 957L403 1021Q413 1044 432 1050.50Q451 1057 471 1051.50Q491 1046 505 1032.50Q519 1019 520.50 1000.50Q522 982 504 962L456 909M283 774Q228 774 228 823Q228 871 283 871L521 871Q576 871 576 823Q576 774 521 774L283 774Z"  horiz-adv-x="807" vert-adv-y="1000"  />

      
      <glyph glyph-name="uni1E50" unicode="&#x1E50;" d="M404-11Q297-11 216.50 34.50Q136 80 91 162Q46 244 46 353Q46 463 90.50 544.50Q135 626 216 671Q297 716 404 716Q511 716 591.50 671Q672 626 717 544.50Q762 463 762 353Q762 244 717 162Q672 80 591.50 34.50Q511-11 404-11M404 143Q482 143 526.50 198.50Q571 254 571 353Q571 452 527 507Q483 562 404 562Q325 562 281 507Q237 452 237 353Q237 254 281 198.50Q325 143 404 143M348 909L300 962Q282 982 283.50 1000.50Q285 1019 299 1032.50Q313 1046 333 1051.50Q353 1057 372 1050.50Q391 1044 401 1021L432 957Q441 938 435 922Q429 906 414.50 897Q400 888 382 890Q364 892 348 909M283 774Q228 774 228 823Q228 871 283 871L521 871Q576 871 576 823Q576 774 521 774L283 774Z"  horiz-adv-x="807" vert-adv-y="1000"  />

      
      <glyph glyph-name="uni01EA" unicode="&#x01EA;" d="M404-11Q297-11 216.50 34.50Q136 80 91 162Q46 244 46 353Q46 463 90.50 544.50Q135 626 216 671Q297 716 404 716Q511 716 591.50 671Q672 626 717 544.50Q762 463 762 353Q762 244 717 162Q672 80 591.50 34.50Q511-11 404-11M404 143Q482 143 526.50 198.50Q571 254 571 353Q571 452 527 507Q483 562 404 562Q325 562 281 507Q237 452 237 353Q237 254 281 198.50Q325 143 404 143M441-198Q377-198 342-168Q307-138 307-87Q307-42 337.50-5.50Q368 31 417 48L465 0Q438-10 425-28.50Q412-47 412-66Q412-87 427-99Q442-111 465-111Q477-111 492-108Q515-104 528-113.50Q541-123 543-138.50Q545-154 536-168.50Q527-183 507-190Q490-195 472.50-196.50Q455-198 441-198Z"  horiz-adv-x="807" vert-adv-y="1000"  />

      
      <glyph glyph-name="unid8" unicode="&#xd8;" d="M404-11Q297-11 216.50 34.50Q136 80 91 162Q46 244 46 353Q46 463 90.50 544.50Q135 626 216 671Q297 716 404 716Q511 716 591.50 671Q672 626 717 544.50Q762 463 762 353Q762 244 717 162Q672 80 591.50 34.50Q511-11 404-11M404 143Q482 143 526.50 198.50Q571 254 571 353Q571 452 527 507Q483 562 404 562Q325 562 281 507Q237 452 237 353Q237 254 281 198.50Q325 143 404 143M257-32Q240-61 213.50-65.50Q187-70 164-56.50Q141-43 132.50-17.50Q124 8 142 39L191 121L248 197L472 582L500 653L549 737Q566 766 592.50 770.50Q619 775 642 761.50Q665 748 673.50 723Q682 698 664 666L615 584L558 508L334 124L306 52L257-32Z"  horiz-adv-x="807" vert-adv-y="1000"  />

      
      <glyph glyph-name="uni01FE" unicode="&#x01FE;" d="M404-11Q297-11 216.50 34.50Q136 80 91 162Q46 244 46 353Q46 463 90.50 544.50Q135 626 216 671Q297 716 404 716Q511 716 591.50 671Q672 626 717 544.50Q762 463 762 353Q762 244 717 162Q672 80 591.50 34.50Q511-11 404-11M404 143Q482 143 526.50 198.50Q571 254 571 353Q571 452 527 507Q483 562 404 562Q325 562 281 507Q237 452 237 353Q237 254 281 198.50Q325 143 404 143M257-32Q240-61 213.50-65.50Q187-70 164-56.50Q141-43 132.50-17.50Q124 8 142 39L191 121L248 197L472 582L500 653L549 737Q566 766 592.50 770.50Q619 775 642 761.50Q665 748 673.50 723Q682 698 664 666L615 584L558 508L334 124L306 52L257-32M471 773Q453 756 433.50 756Q414 756 399 767.50Q384 779 379 796.50Q374 814 387 833L452 930Q466 951 486 955Q506 959 525 951.50Q544 944 557 928.50Q570 913 571 894Q572 875 554 857L471 773Z"  horiz-adv-x="807" vert-adv-y="1000"  />

      
      <glyph glyph-name="unid5" unicode="&#xd5;" d="M404-11Q297-11 216.50 34.50Q136 80 91 162Q46 244 46 353Q46 463 90.50 544.50Q135 626 216 671Q297 716 404 716Q511 716 591.50 671Q672 626 717 544.50Q762 463 762 353Q762 244 717 162Q672 80 591.50 34.50Q511-11 404-11M404 143Q482 143 526.50 198.50Q571 254 571 353Q571 452 527 507Q483 562 404 562Q325 562 281 507Q237 452 237 353Q237 254 281 198.50Q325 143 404 143M206 756Q185 757 173.50 769.50Q162 782 167 804Q180 865 219.50 897.50Q259 930 313 930Q351 930 382 916.50Q413 903 440.50 889.50Q468 876 494 876Q533 876 549 906Q559 922 569.50 930.50Q580 939 598 938Q619 937 630.50 924.50Q642 912 637 890Q624 829 584.50 797Q545 765 491 765Q454 765 422.50 778Q391 791 364 804.50Q337 818 310 818Q271 818 255 789Q245 773 234.50 764Q224 755 206 756Z"  horiz-adv-x="807" vert-adv-y="1000"  />

      
      <glyph glyph-name="uni1E4C" unicode="&#x1E4C;" d="M404-11Q297-11 216.50 34.50Q136 80 91 162Q46 244 46 353Q46 463 90.50 544.50Q135 626 216 671Q297 716 404 716Q511 716 591.50 671Q672 626 717 544.50Q762 463 762 353Q762 244 717 162Q672 80 591.50 34.50Q511-11 404-11M404 143Q482 143 526.50 198.50Q571 254 571 353Q571 452 527 507Q483 562 404 562Q325 562 281 507Q237 452 237 353Q237 254 281 198.50Q325 143 404 143M456 909Q440 893 422 891Q404 889 389.50 897.50Q375 906 369 922Q363 938 372 957L403 1021Q413 1044 432 1050.50Q451 1057 470.50 1051.50Q490 1046 504 1032Q518 1018 520 999.50Q522 981 503 961L456 909M253 763Q234 764 224 776.50Q214 789 221 809Q233 845 263 865Q293 885 334 885Q361 885 384 876.50Q407 868 427 860Q447 852 464 852Q477 852 487 854.50Q497 857 503 864Q515 875 525 882.50Q535 890 551 889Q571 887 580.50 875Q590 863 584 843Q572 805 542 785.50Q512 766 470 766Q443 766 420 774.50Q397 783 377 791.50Q357 800 340 800Q313 800 302 787Q290 777 280 769.50Q270 762 253 763Z"  horiz-adv-x="807" vert-adv-y="1000"  />

      
      <glyph glyph-name="uni1E4E" unicode="&#x1E4E;" d="M404-11Q297-11 216.50 34.50Q136 80 91 162Q46 244 46 353Q46 463 90.50 544.50Q135 626 216 671Q297 716 404 716Q511 716 591.50 671Q672 626 717 544.50Q762 463 762 353Q762 244 717 162Q672 80 591.50 34.50Q511-11 404-11M404 143Q482 143 526.50 198.50Q571 254 571 353Q571 452 527 507Q483 562 404 562Q325 562 281 507Q237 452 237 353Q237 254 281 198.50Q325 143 404 143M299 910Q261 910 240 924.50Q219 939 219 967Q219 995 240 1010Q261 1025 299 1025Q379 1025 379 967Q379 910 299 910M505 910Q425 910 425 967Q425 1025 505 1025Q585 1025 585 967Q585 910 505 910M253 763Q234 764 224 776.50Q214 789 221 809Q233 845 263 865Q293 885 334 885Q361 885 384 876.50Q407 868 427 860Q447 852 464 852Q477 852 487 854.50Q497 857 503 864Q515 875 525 882.50Q535 890 551 889Q571 887 580.50 875Q590 863 584 843Q572 805 542 785.50Q512 766 470 766Q443 766 420 774.50Q397 783 377 791.50Q357 800 340 800Q313 800 302 787Q290 777 280 769.50Q270 762 253 763Z"  horiz-adv-x="807" vert-adv-y="1000"  />

      
      <glyph glyph-name="uni022C" unicode="&#x022C;" d="M404-11Q297-11 216.50 34.50Q136 80 91 162Q46 244 46 353Q46 463 90.50 544.50Q135 626 216 671Q297 716 404 716Q511 716 591.50 671Q672 626 717 544.50Q762 463 762 353Q762 244 717 162Q672 80 591.50 34.50Q511-11 404-11M404 143Q482 143 526.50 198.50Q571 254 571 353Q571 452 527 507Q483 562 404 562Q325 562 281 507Q237 452 237 353Q237 254 281 198.50Q325 143 404 143M283 922Q228 922 228 971Q228 1019 283 1019L521 1019Q576 1019 576 971Q576 922 521 922L283 922M253 763Q234 764 224 776.50Q214 789 221 809Q233 845 263 865Q293 885 334 885Q361 885 384 876.50Q407 868 427 860Q447 852 464 852Q477 852 487 854.50Q497 857 503 864Q515 875 525 882.50Q535 890 551 889Q571 887 580.50 875Q590 863 584 843Q572 805 542 785.50Q512 766 470 766Q443 766 420 774.50Q397 783 377 791.50Q357 800 340 800Q313 800 302 787Q290 777 280 769.50Q270 762 253 763Z"  horiz-adv-x="807" vert-adv-y="1000"  />

      
      </font>
</defs>
</svg>
