<?xml version="1.0" standalone="no"?>
  <!DOCTYPE svg PUBLIC "-//W3C//DTD SVG 1.1//EN" "http://www.w3.org/Graphics/SVG/1.1/DTD/svg11.dtd" >
  <svg>
  <metadata>
  Created by font-carrier
  </metadata>
  <defs>
  <font id="Nunito-Regular" horiz-adv-x="1327" vert-adv-y="1327" >
    <font-face
      
      font-family="Nunito"
      
      font-weight="400"
      
      font-stretch="normal"
      
      units-per-em="1000"
      
      ascent="1011"
      
      descent="-353"
      
    />
      <missing-glyph />

      

      
      <glyph glyph-name="uni41" unicode="&#x41;" d="M72-7Q48-7 39 9Q30 25 41 49L316 675Q332 712 365 712Q380 712 392.50 703.50Q405 695 413 675L689 49Q700 25 692 9Q684-7 660-7Q642-7 631 2.50Q620 12 613 30L548 180L181 180L117 30Q101-7 72-7M364 609L211 249L519 249L366 609L364 609Z"  horiz-adv-x="729" vert-adv-y="1000"  />

      
      <glyph glyph-name="unic1" unicode="&#xc1;" d="M72-7Q48-7 39 9Q30 25 41 49L316 675Q332 712 365 712Q380 712 392.50 703.50Q405 695 413 675L689 49Q700 25 692 9Q684-7 660-7Q642-7 631 2.50Q620 12 613 30L548 180L181 180L117 30Q101-7 72-7M364 609L211 249L519 249L366 609L364 609M401 769Q390 757 376.50 759.50Q363 762 356 773.50Q349 785 358 799L447 928Q458 944 472.50 945.50Q487 947 498.50 939Q510 931 513.50 918Q517 905 505 892L401 769Z"  horiz-adv-x="729" vert-adv-y="1000"  />

      
      <glyph glyph-name="uni0102" unicode="&#x0102;" d="M72-7Q48-7 39 9Q30 25 41 49L316 675Q332 712 365 712Q380 712 392.50 703.50Q405 695 413 675L689 49Q700 25 692 9Q684-7 660-7Q642-7 631 2.50Q620 12 613 30L548 180L181 180L117 30Q101-7 72-7M364 609L211 249L519 249L366 609L364 609M366 760Q307 760 261 795Q215 830 200 904Q197 918 204 927Q211 936 222 936Q234 937 241.50 930.50Q249 924 251 914Q262 859 295 836.50Q328 814 366 814Q404 814 437 836.50Q470 859 481 914Q483 924 490.50 930.50Q498 937 510 936Q521 936 528 927Q535 918 532 904Q517 830 471 795Q425 760 366 760Z"  horiz-adv-x="729" vert-adv-y="1000"  />

      
      <glyph glyph-name="uni1EAE" unicode="&#x1EAE;" d="M72-7Q48-7 39 9Q30 25 41 49L316 675Q332 712 365 712Q380 712 392.50 703.50Q405 695 413 675L689 49Q700 25 692 9Q684-7 660-7Q642-7 631 2.50Q620 12 613 30L548 180L181 180L117 30Q101-7 72-7M364 609L211 249L519 249L366 609L364 609M387 873Q377 861 364.50 863Q352 865 345 875Q338 885 347 900L415 1010Q424 1027 438 1029Q452 1031 464 1023.50Q476 1016 479 1003.50Q482 991 471 977L387 873M366 760Q305 760 264.50 794Q224 828 213 886Q210 901 215.50 909.50Q221 918 232 919Q253 921 259 896Q268 857 295 834.50Q322 812 366 812Q410 812 437 834.50Q464 857 473 896Q479 921 501 919Q525 916 519 885Q508 827 467.50 793.50Q427 760 366 760Z"  horiz-adv-x="729" vert-adv-y="1000"  />

      
      <glyph glyph-name="uni1EB6" unicode="&#x1EB6;" d="M72-7Q48-7 39 9Q30 25 41 49L316 675Q332 712 365 712Q380 712 392.50 703.50Q405 695 413 675L689 49Q700 25 692 9Q684-7 660-7Q642-7 631 2.50Q620 12 613 30L548 180L181 180L117 30Q101-7 72-7M364 609L211 249L519 249L366 609L364 609M366-191Q317-191 317-143Q317-96 366-96Q416-96 416-143Q416-191 366-191M366 760Q307 760 261 795Q215 830 200 904Q197 918 204 927Q211 936 222 936Q234 937 241.50 930.50Q249 924 251 914Q262 859 295 836.50Q328 814 366 814Q404 814 437 836.50Q470 859 481 914Q483 924 490.50 930.50Q498 937 510 936Q521 936 528 927Q535 918 532 904Q517 830 471 795Q425 760 366 760Z"  horiz-adv-x="729" vert-adv-y="1000"  />

      
      <glyph glyph-name="uni1EB0" unicode="&#x1EB0;" d="M72-7Q48-7 39 9Q30 25 41 49L316 675Q332 712 365 712Q380 712 392.50 703.50Q405 695 413 675L689 49Q700 25 692 9Q684-7 660-7Q642-7 631 2.50Q620 12 613 30L548 180L181 180L117 30Q101-7 72-7M364 609L211 249L519 249L366 609L364 609M345 873L261 977Q250 991 253 1003.50Q256 1016 268 1023.50Q280 1031 294 1029Q308 1027 317 1010L385 900Q394 885 387 875Q380 865 367.50 863Q355 861 345 873M366 760Q305 760 264.50 793.50Q224 827 213 885Q207 916 231 919Q253 921 259 896Q268 857 295 834.50Q322 812 366 812Q410 812 437 834.50Q464 857 473 896Q479 921 500 919Q511 918 516.50 909.50Q522 901 519 886Q508 828 467.50 794Q427 760 366 760Z"  horiz-adv-x="729" vert-adv-y="1000"  />

      
      <glyph glyph-name="uni1EB2" unicode="&#x1EB2;" d="M72-7Q48-7 39 9Q30 25 41 49L316 675Q332 712 365 712Q380 712 392.50 703.50Q405 695 413 675L689 49Q700 25 692 9Q684-7 660-7Q642-7 631 2.50Q620 12 613 30L548 180L181 180L117 30Q101-7 72-7M364 609L211 249L519 249L366 609L364 609M383 870Q370 864 359.50 867.50Q349 871 346.50 879.50Q344 888 356 896Q378 911 389 924Q400 937 400 953Q400 981 356 981Q337 981 316 976Q292 970 286 987Q280 1006 303 1015Q319 1020 336 1022Q353 1024 370 1024Q413 1024 436.50 1009.50Q460 995 460 966Q460 935 436 911Q412 887 383 870M366 760Q305 760 264.50 793.50Q224 827 213 885Q207 916 231 919Q253 921 259 896Q268 857 295 834.50Q322 812 366 812Q410 812 437 834.50Q464 857 473 896Q479 921 500 919Q511 918 516.50 909.50Q522 901 519 886Q508 828 467.50 794Q427 760 366 760Z"  horiz-adv-x="729" vert-adv-y="1000"  />

      
      <glyph glyph-name="uni1EB4" unicode="&#x1EB4;" d="M72-7Q48-7 39 9Q30 25 41 49L316 675Q332 712 365 712Q380 712 392.50 703.50Q405 695 413 675L689 49Q700 25 692 9Q684-7 660-7Q642-7 631 2.50Q620 12 613 30L548 180L181 180L117 30Q101-7 72-7M364 609L211 249L519 249L366 609L364 609M231 919Q221 920 215 928Q209 936 213 950Q221 986 244.50 1005Q268 1024 302 1024Q329 1024 350 1010.50Q371 997 390 984Q409 971 429 971Q465 971 474 1004Q481 1026 502 1025Q512 1024 517.50 1016.50Q523 1009 520 995Q511 958 487.50 939.50Q464 921 431 921Q404 921 382.50 934Q361 947 342 960Q323 973 303 973Q268 973 258 940Q252 918 231 919M366 760Q312 760 274 784Q236 808 219 845Q212 859 216.50 867.50Q221 876 231 879Q252 883 263 864Q276 840 302.50 826Q329 812 366 812Q404 812 430 826Q456 840 469 864Q480 883 501 879Q511 876 515.50 867.50Q520 859 513 845Q496 808 458 784Q420 760 366 760Z"  horiz-adv-x="729" vert-adv-y="1000"  />

      
      <glyph glyph-name="uni01CD" unicode="&#x01CD;" d="M72-7Q48-7 39 9Q30 25 41 49L316 675Q332 712 365 712Q380 712 392.50 703.50Q405 695 413 675L689 49Q700 25 692 9Q684-7 660-7Q642-7 631 2.50Q620 12 613 30L548 180L181 180L117 30Q101-7 72-7M364 609L211 249L519 249L366 609L364 609M366 756Q334 756 315 783L227 907Q217 921 223.50 932Q230 943 244 944.50Q258 946 270 933L366 818L463 933Q474 946 488 944.50Q502 943 508.50 932Q515 921 505 907L418 783Q399 756 366 756Z"  horiz-adv-x="729" vert-adv-y="1000"  />

      
      <glyph glyph-name="unic2" unicode="&#xc2;" d="M72-7Q48-7 39 9Q30 25 41 49L316 675Q332 712 365 712Q380 712 392.50 703.50Q405 695 413 675L689 49Q700 25 692 9Q684-7 660-7Q642-7 631 2.50Q620 12 613 30L548 180L181 180L117 30Q101-7 72-7M364 609L211 249L519 249L366 609L364 609M270 768Q258 755 244 757Q230 759 223.50 770Q217 781 227 795L315 918Q334 946 366 946Q398 946 418 918L505 795Q515 781 508.50 770Q502 759 488 757Q474 755 463 768L366 884L270 768Z"  horiz-adv-x="729" vert-adv-y="1000"  />

      
      <glyph glyph-name="uni1EA4" unicode="&#x1EA4;" d="M72-7Q48-7 39 9Q30 25 41 49L316 675Q332 712 365 712Q380 712 392.50 703.50Q405 695 413 675L689 49Q700 25 692 9Q684-7 660-7Q642-7 631 2.50Q620 12 613 30L548 180L181 180L117 30Q101-7 72-7M364 609L211 249L519 249L366 609L364 609M509 864Q500 853 488.50 854.50Q477 856 471 866Q465 876 473 891L542 1010Q551 1026 564 1028.50Q577 1031 587.50 1024Q598 1017 601.50 1005Q605 993 594 980L509 864M277 768Q266 755 253 756.50Q240 758 234 769Q228 780 238 794L316 909Q326 925 338.50 931Q351 937 366 937Q381 937 393.50 931Q406 925 416 909L494 794Q504 780 498 769Q492 758 479.50 756.50Q467 755 455 768L366 875L277 768Z"  horiz-adv-x="729" vert-adv-y="1000"  />

      
      <glyph glyph-name="uni1EAC" unicode="&#x1EAC;" d="M72-7Q48-7 39 9Q30 25 41 49L316 675Q332 712 365 712Q380 712 392.50 703.50Q405 695 413 675L689 49Q700 25 692 9Q684-7 660-7Q642-7 631 2.50Q620 12 613 30L548 180L181 180L117 30Q101-7 72-7M364 609L211 249L519 249L366 609L364 609M366-191Q317-191 317-143Q317-96 366-96Q416-96 416-143Q416-191 366-191M270 768Q258 755 244 757Q230 759 223.50 770Q217 781 227 795L315 918Q334 946 366 946Q398 946 418 918L505 795Q515 781 508.50 770Q502 759 488 757Q474 755 463 768L366 884L270 768Z"  horiz-adv-x="729" vert-adv-y="1000"  />

      
      <glyph glyph-name="uni1EA6" unicode="&#x1EA6;" d="M72-7Q48-7 39 9Q30 25 41 49L316 675Q332 712 365 712Q380 712 392.50 703.50Q405 695 413 675L689 49Q700 25 692 9Q684-7 660-7Q642-7 631 2.50Q620 12 613 30L548 180L181 180L117 30Q101-7 72-7M364 609L211 249L519 249L366 609L364 609M504 864L418 980Q408 993 411.50 1005Q415 1017 425.50 1024Q436 1031 449 1028.50Q462 1026 471 1010L540 891Q548 876 542 866Q536 856 524 854.50Q512 853 504 864M277 768Q266 755 253 756.50Q240 758 234 769Q228 780 238 794L316 909Q326 925 338.50 931Q351 937 366 937Q381 937 393.50 931Q406 925 416 909L494 794Q504 780 498 769Q492 758 479.50 756.50Q467 755 455 768L366 875L277 768Z"  horiz-adv-x="729" vert-adv-y="1000"  />

      
      <glyph glyph-name="uni1EA8" unicode="&#x1EA8;" d="M72-7Q48-7 39 9Q30 25 41 49L316 675Q332 712 365 712Q380 712 392.50 703.50Q405 695 413 675L689 49Q700 25 692 9Q684-7 660-7Q642-7 631 2.50Q620 12 613 30L548 180L181 180L117 30Q101-7 72-7M364 609L211 249L519 249L366 609L364 609M505 865Q493 859 483 863Q473 867 471 875.50Q469 884 481 893Q503 907 515 921Q527 935 527 951Q527 979 482 979Q464 979 443 974Q418 968 412 986Q406 1006 430 1013Q445 1018 462 1020Q479 1022 497 1022Q539 1022 562.50 1008Q586 994 586 963Q586 931 560 906Q534 881 505 865M277 768Q266 755 253 756.50Q240 758 234 769Q228 780 238 794L316 909Q326 925 338.50 931Q351 937 366 937Q381 937 393.50 931Q406 925 416 909L494 794Q504 780 498 769Q492 758 479.50 756.50Q467 755 455 768L366 875L277 768Z"  horiz-adv-x="729" vert-adv-y="1000"  />

      
      <glyph glyph-name="uni1EAA" unicode="&#x1EAA;" d="M72-7Q48-7 39 9Q30 25 41 49L316 675Q332 712 365 712Q380 712 392.50 703.50Q405 695 413 675L689 49Q700 25 692 9Q684-7 660-7Q642-7 631 2.50Q620 12 613 30L548 180L181 180L117 30Q101-7 72-7M364 609L211 249L519 249L366 609L364 609M231 920Q221 921 215 929Q209 937 213 951Q221 987 244.50 1005.50Q268 1024 302 1024Q329 1024 350 1011Q371 998 390 985Q409 972 429 972Q465 972 474 1005Q481 1027 502 1026Q512 1025 517.50 1017.50Q523 1010 520 996Q511 959 487.50 940.50Q464 922 431 922Q404 922 382.50 935Q361 948 342 961Q323 974 303 974Q268 974 258 941Q252 919 231 920M272 765Q260 755 249 757.50Q238 760 234 770Q230 780 240 791L313 879Q325 893 338 898.50Q351 904 366 904Q381 904 394 898.50Q407 893 419 879L492 791Q502 780 498 770Q494 760 483 757Q472 754 460 765L366 850L272 765Z"  horiz-adv-x="729" vert-adv-y="1000"  />

      
      <glyph glyph-name="uni0200" unicode="&#x0200;" d="M72-7Q48-7 39 9Q30 25 41 49L316 675Q332 712 365 712Q380 712 392.50 703.50Q405 695 413 675L689 49Q700 25 692 9Q684-7 660-7Q642-7 631 2.50Q620 12 613 30L548 180L181 180L117 30Q101-7 72-7M364 609L211 249L519 249L366 609L364 609M277 768L188 895Q177 910 181 922.50Q185 935 196.50 941.50Q208 948 221.50 945Q235 942 243 925L313 790Q320 777 314 767.50Q308 758 297 757Q286 756 277 768M402 769L317 895Q306 910 310 922.50Q314 935 326 941.50Q338 948 351.50 944.50Q365 941 373 925L442 789Q448 776 441.50 767Q435 758 423 757.50Q411 757 402 769Z"  horiz-adv-x="729" vert-adv-y="1000"  />

      
      <glyph glyph-name="unic4" unicode="&#xc4;" d="M72-7Q48-7 39 9Q30 25 41 49L316 675Q332 712 365 712Q380 712 392.50 703.50Q405 695 413 675L689 49Q700 25 692 9Q684-7 660-7Q642-7 631 2.50Q620 12 613 30L548 180L181 180L117 30Q101-7 72-7M364 609L211 249L519 249L366 609L364 609M454 802Q406 802 406 849Q406 895 454 895Q500 895 500 849Q500 802 454 802M279 802Q232 802 232 849Q232 895 279 895Q326 895 326 849Q326 802 279 802Z"  horiz-adv-x="729" vert-adv-y="1000"  />

      
      <glyph glyph-name="uni0226" unicode="&#x0226;" d="M72-7Q48-7 39 9Q30 25 41 49L316 675Q332 712 365 712Q380 712 392.50 703.50Q405 695 413 675L689 49Q700 25 692 9Q684-7 660-7Q642-7 631 2.50Q620 12 613 30L548 180L181 180L117 30Q101-7 72-7M364 609L211 249L519 249L366 609L364 609M366 803Q317 803 317 851Q317 898 366 898Q415 898 415 851Q415 803 366 803Z"  horiz-adv-x="729" vert-adv-y="1000"  />

      
      <glyph glyph-name="uni1EA0" unicode="&#x1EA0;" d="M72-7Q48-7 39 9Q30 25 41 49L316 675Q332 712 365 712Q380 712 392.50 703.50Q405 695 413 675L689 49Q700 25 692 9Q684-7 660-7Q642-7 631 2.50Q620 12 613 30L548 180L181 180L117 30Q101-7 72-7M364 609L211 249L519 249L366 609L364 609M366-191Q317-191 317-143Q317-96 366-96Q416-96 416-143Q416-191 366-191Z"  horiz-adv-x="729" vert-adv-y="1000"  />

      
      <glyph glyph-name="unic0" unicode="&#xc0;" d="M72-7Q48-7 39 9Q30 25 41 49L316 675Q332 712 365 712Q380 712 392.50 703.50Q405 695 413 675L689 49Q700 25 692 9Q684-7 660-7Q642-7 631 2.50Q620 12 613 30L548 180L181 180L117 30Q101-7 72-7M364 609L211 249L519 249L366 609L364 609M331 769L227 892Q216 905 219 918Q222 931 233.50 939Q245 947 259.50 945.50Q274 944 285 928L374 799Q384 785 377 773.50Q370 762 356.50 759.50Q343 757 331 769Z"  horiz-adv-x="729" vert-adv-y="1000"  />

      
      <glyph glyph-name="uni1EA2" unicode="&#x1EA2;" d="M72-7Q48-7 39 9Q30 25 41 49L316 675Q332 712 365 712Q380 712 392.50 703.50Q405 695 413 675L689 49Q700 25 692 9Q684-7 660-7Q642-7 631 2.50Q620 12 613 30L548 180L181 180L117 30Q101-7 72-7M364 609L211 249L519 249L366 609L364 609M366 758Q338 758 338 781Q338 801 347.50 813.50Q357 826 369.50 835Q382 844 391.50 852Q401 860 401 872Q401 895 355 895Q346 895 335 893.50Q324 892 314 889Q285 881 279 900Q271 922 296 931Q328 943 371 943Q416 943 441.50 926Q467 909 467 881Q467 860 456 847.50Q445 835 430.50 826Q416 817 405 806Q394 795 394 776Q394 758 366 758Z"  horiz-adv-x="729" vert-adv-y="1000"  />

      
      <glyph glyph-name="uni0202" unicode="&#x0202;" d="M72-7Q48-7 39 9Q30 25 41 49L316 675Q332 712 365 712Q380 712 392.50 703.50Q405 695 413 675L689 49Q700 25 692 9Q684-7 660-7Q642-7 631 2.50Q620 12 613 30L548 180L181 180L117 30Q101-7 72-7M364 609L211 249L519 249L366 609L364 609M222 759Q211 760 204 768.50Q197 777 200 792Q215 865 261 900Q307 935 366 935Q425 935 471 900Q517 865 532 792Q535 777 528 768.50Q521 760 510 759Q498 758 490.50 765Q483 772 481 782Q469 836 436.50 858.50Q404 881 366 881Q328 881 295.50 858.50Q263 836 251 782Q249 772 241.50 765Q234 758 222 759Z"  horiz-adv-x="729" vert-adv-y="1000"  />

      
      <glyph glyph-name="uni0100" unicode="&#x0100;" d="M72-7Q48-7 39 9Q30 25 41 49L316 675Q332 712 365 712Q380 712 392.50 703.50Q405 695 413 675L689 49Q700 25 692 9Q684-7 660-7Q642-7 631 2.50Q620 12 613 30L548 180L181 180L117 30Q101-7 72-7M364 609L211 249L519 249L366 609L364 609M230 814Q201 814 201 842Q201 869 230 869L502 869Q532 869 532 842Q532 814 502 814L230 814Z"  horiz-adv-x="729" vert-adv-y="1000"  />

      
      <glyph glyph-name="uni0104" unicode="&#x0104;" d="M673-192Q626-192 597-166Q568-140 568-95Q568-65 582.50-37Q597-9 623 12Q618 18 613 30L548 180L181 180L117 30Q101-7 72-7Q48-7 39 9Q30 25 40 49L316 675Q332 712 365 712Q380 712 392.50 703.50Q405 695 413 675L689 49Q706 11 681-2Q665-11 645.50-33Q626-55 626-86Q626-115 643-128.50Q660-142 684-142Q701-142 719-136Q737-131 745-141Q753-151 749.50-164.50Q746-178 732-183Q717-189 702.50-190.50Q688-192 673-192M364 609L211 249L519 249L366 609L364 609Z"  horiz-adv-x="729" vert-adv-y="1000"  />

      
      <glyph glyph-name="unic5" unicode="&#xc5;" d="M72-7Q48-7 39 9Q30 25 41 49L316 675Q332 712 365 712Q380 712 392.50 703.50Q405 695 413 675L689 49Q700 25 692 9Q684-7 660-7Q642-7 631 2.50Q620 12 613 30L548 180L181 180L117 30Q101-7 72-7M364 609L211 249L519 249L366 609L364 609M366 758Q316 758 281.50 791.50Q247 825 247 874Q247 922 281.50 955.50Q316 989 366 989Q416 989 450.50 955.50Q485 922 485 874Q485 825 450.50 791.50Q416 758 366 758M366 801Q398 801 418 822Q438 843 438 874Q438 904 418 925Q398 946 366 946Q335 946 314.50 925Q294 904 294 874Q294 843 314.50 822Q335 801 366 801Z"  horiz-adv-x="729" vert-adv-y="1000"  />

      
      <glyph glyph-name="uni01FA" unicode="&#x01FA;" d="M72-7Q48-7 39 9Q30 25 41 49L316 675Q332 712 365 712Q380 712 392.50 703.50Q405 695 413 675L689 49Q700 25 692 9Q684-7 660-7Q642-7 631 2.50Q620 12 613 30L548 180L181 180L117 30Q101-7 72-7M364 609L211 249L519 249L366 609L364 609M366 758Q317 758 283.50 791Q250 824 250 871Q250 919 283.50 952Q317 985 366 985Q402 985 432 965L505 1033Q519 1046 533 1041Q547 1036 551.50 1022.50Q556 1009 542 997L465 931Q482 905 482 871Q482 824 448.50 791Q415 758 366 758M366 799Q398 799 418 820Q438 841 438 871Q438 902 418 922.50Q398 943 366 943Q335 943 314.50 922.50Q294 902 294 871Q294 841 314.50 820Q335 799 366 799Z"  horiz-adv-x="729" vert-adv-y="1000"  />

      
      <glyph glyph-name="unic3" unicode="&#xc3;" d="M72-7Q48-7 39 9Q30 25 41 49L316 675Q332 712 365 712Q380 712 392.50 703.50Q405 695 413 675L689 49Q700 25 692 9Q684-7 660-7Q642-7 631 2.50Q620 12 613 30L548 180L181 180L117 30Q101-7 72-7M364 609L211 249L519 249L366 609L364 609M182 780Q171 780 164.50 787.50Q158 795 160 808Q170 861 201 890Q232 919 277 919Q304 919 328.50 907.50Q353 896 375 881Q397 866 417.50 854.50Q438 843 458 843Q484 843 501.50 860Q519 877 524 905Q529 926 550 925Q561 925 567.50 917.50Q574 910 572 897Q562 844 531 815Q500 786 456 786Q429 786 404.50 797.50Q380 809 357.50 824Q335 839 314.50 850.50Q294 862 274 862Q248 862 230.50 845Q213 828 208 800Q203 779 182 780Z"  horiz-adv-x="729" vert-adv-y="1000"  />

      
      <glyph glyph-name="unic6" unicode="&#xc6;" d="M42-7Q14-7 7 9Q0 25 12 45L397 680Q412 705 442 705L900 705Q937 705 937 671Q937 636 900 636L504 636L556 392L880 392Q917 392 917 358Q917 323 880 323L570 323L625 69L900 69Q937 69 937 35Q937 0 900 0L598 0Q565 0 557 33L526 180L180 180L85 20Q77 7 67 0Q57-7 42-7M433 608L220 249L511 249L435 608L433 608Z"  horiz-adv-x="981" vert-adv-y="1000"  />

      
      <glyph glyph-name="uni01FC" unicode="&#x01FC;" d="M42-7Q14-7 7 9Q0 25 12 45L397 680Q412 705 442 705L900 705Q937 705 937 671Q937 636 900 636L504 636L556 392L880 392Q917 392 917 358Q917 323 880 323L570 323L625 69L900 69Q937 69 937 35Q937 0 900 0L598 0Q565 0 557 33L526 180L180 180L85 20Q77 7 67 0Q57-7 42-7M433 608L220 249L511 249L435 608L433 608M522 769Q511 757 497.50 759.50Q484 762 477 773.50Q470 785 479 799L568 928Q579 944 593.50 945.50Q608 947 619.50 939Q631 931 634.50 918Q638 905 626 892L522 769Z"  horiz-adv-x="981" vert-adv-y="1000"  />

      
      <glyph glyph-name="uni42" unicode="&#x42;" d="M132 0Q87 0 87 45L87 660Q87 705 132 705L369 705Q478 705 537.50 656.50Q597 608 597 521Q597 463 567 422Q537 381 484 362Q545 346 579.50 303Q614 260 614 194Q614 100 553 50Q492 0 381 0L132 0M167 390L357 390Q516 390 516 514Q516 639 357 639L167 639L167 390M167 66L373 66Q533 66 533 195Q533 324 373 324L167 324L167 66Z"  horiz-adv-x="676" vert-adv-y="1000"  />

      
      <glyph glyph-name="uni0181" unicode="&#x0181;" d="M256 0Q211 0 211 45L211 642L179 642Q70 642 70 536L70 516Q70 502 61.50 491.50Q53 481 36 481Q18 481 9 492Q0 503 0 517L0 540Q0 705 188 705L493 705Q602 705 661.50 656.50Q721 608 721 521Q721 463 691 422Q661 381 608 362Q669 346 703.50 303Q738 260 738 194Q738 100 677 50Q616 0 505 0L256 0M291 390L481 390Q640 390 640 514Q640 639 481 639L291 639L291 390M291 66L497 66Q657 66 657 195Q657 324 497 324L291 324L291 66Z"  horiz-adv-x="800" vert-adv-y="1000"  />

      
      <glyph glyph-name="uni43" unicode="&#x43;" d="M392-9Q288-9 214 35Q140 79 100.50 160Q61 241 61 353Q61 464 100.50 545Q140 626 214 670Q288 714 392 714Q454 714 510 696Q566 678 607 645Q624 633 626.50 617Q629 601 621 588.50Q613 576 598.50 572.50Q584 569 566 582Q495 639 394 639Q275 639 212 564Q149 489 149 353Q149 216 212 141Q275 66 394 66Q495 66 568 124Q586 136 600.50 133Q615 130 622.50 118Q630 106 628 91Q626 76 611 64Q568 28 512 9.50Q456-9 392-9Z"  horiz-adv-x="673" vert-adv-y="1000"  />

      
      <glyph glyph-name="uni0106" unicode="&#x0106;" d="M392-9Q288-9 214 35Q140 79 100.50 160Q61 241 61 353Q61 464 100.50 545Q140 626 214 670Q288 714 392 714Q454 714 510 696Q566 678 607 645Q624 633 626.50 617Q629 601 621 588.50Q613 576 598.50 572.50Q584 569 566 582Q495 639 394 639Q275 639 212 564Q149 489 149 353Q149 216 212 141Q275 66 394 66Q495 66 568 124Q586 136 600.50 133Q615 130 622.50 118Q630 106 628 91Q626 76 611 64Q568 28 512 9.50Q456-9 392-9M422 769Q411 757 397.50 759.50Q384 762 377 773.50Q370 785 379 799L468 928Q479 944 493.50 945.50Q508 947 519.50 939Q531 931 534.50 918Q538 905 526 892L422 769Z"  horiz-adv-x="673" vert-adv-y="1000"  />

      
      <glyph glyph-name="uni010C" unicode="&#x010C;" d="M392-9Q288-9 214 35Q140 79 100.50 160Q61 241 61 353Q61 464 100.50 545Q140 626 214 670Q288 714 392 714Q454 714 510 696Q566 678 607 645Q624 633 626.50 617Q629 601 621 588.50Q613 576 598.50 572.50Q584 569 566 582Q495 639 394 639Q275 639 212 564Q149 489 149 353Q149 216 212 141Q275 66 394 66Q495 66 568 124Q586 136 600.50 133Q615 130 622.50 118Q630 106 628 91Q626 76 611 64Q568 28 512 9.50Q456-9 392-9M387 756Q355 756 336 783L248 907Q238 921 244.50 932Q251 943 265 944.50Q279 946 291 933L387 818L484 933Q495 946 509 944.50Q523 943 529.50 932Q536 921 526 907L439 783Q420 756 387 756Z"  horiz-adv-x="673" vert-adv-y="1000"  />

      
      <glyph glyph-name="unic7" unicode="&#xc7;" d="M392-9Q288-9 214 35Q140 79 100.50 160Q61 241 61 353Q61 464 100.50 545Q140 626 214 670Q288 714 392 714Q454 714 510 696Q566 678 607 645Q624 633 626.50 617Q629 601 621 588.50Q613 576 598.50 572.50Q584 569 566 582Q495 639 394 639Q275 639 212 564Q149 489 149 353Q149 216 212 141Q275 66 394 66Q495 66 568 124Q586 136 600.50 133Q615 130 622.50 118Q630 106 628 91Q626 76 611 64Q568 28 512 9.50Q456-9 392-9M388-192Q370-192 350.50-189.50Q331-187 315-180Q300-174 298.50-161Q297-148 305.50-139Q314-130 330-136Q352-145 386-145Q412-145 428-135.50Q444-126 444-108Q444-80 406-80Q398-80 390.50-81Q383-82 373-84Q357-89 349-84Q342-78 345-59L357 20L408 20L397-43Q407-42 416-42Q453-42 476.50-60Q500-78 500-110Q500-147 469-169.50Q438-192 388-192Z"  horiz-adv-x="673" vert-adv-y="1000"  />

      
      <glyph glyph-name="uni1E08" unicode="&#x1E08;" d="M392-9Q288-9 214 35Q140 79 100.50 160Q61 241 61 353Q61 464 100.50 545Q140 626 214 670Q288 714 392 714Q454 714 510 696Q566 678 607 645Q624 633 626.50 617Q629 601 621 588.50Q613 576 598.50 572.50Q584 569 566 582Q495 639 394 639Q275 639 212 564Q149 489 149 353Q149 216 212 141Q275 66 394 66Q495 66 568 124Q586 136 600.50 133Q615 130 622.50 118Q630 106 628 91Q626 76 611 64Q568 28 512 9.50Q456-9 392-9M388-192Q370-192 350.50-189.50Q331-187 315-180Q300-174 298.50-161Q297-148 305.50-139Q314-130 330-136Q352-145 386-145Q412-145 428-135.50Q444-126 444-108Q444-80 406-80Q398-80 390.50-81Q383-82 373-84Q357-89 349-84Q342-78 345-59L357 20L408 20L397-43Q407-42 416-42Q453-42 476.50-60Q500-78 500-110Q500-147 469-169.50Q438-192 388-192M422 769Q411 757 397.50 759.50Q384 762 377 773.50Q370 785 379 799L468 928Q479 944 493.50 945.50Q508 947 519.50 939Q531 931 534.50 918Q538 905 526 892L422 769Z"  horiz-adv-x="673" vert-adv-y="1000"  />

      
      <glyph glyph-name="uni0108" unicode="&#x0108;" d="M392-9Q288-9 214 35Q140 79 100.50 160Q61 241 61 353Q61 464 100.50 545Q140 626 214 670Q288 714 392 714Q454 714 510 696Q566 678 607 645Q624 633 626.50 617Q629 601 621 588.50Q613 576 598.50 572.50Q584 569 566 582Q495 639 394 639Q275 639 212 564Q149 489 149 353Q149 216 212 141Q275 66 394 66Q495 66 568 124Q586 136 600.50 133Q615 130 622.50 118Q630 106 628 91Q626 76 611 64Q568 28 512 9.50Q456-9 392-9M291 768Q279 755 265 757Q251 759 244.50 770Q238 781 248 795L336 918Q355 946 387 946Q419 946 439 918L526 795Q536 781 529.50 770Q523 759 509 757Q495 755 484 768L387 884L291 768Z"  horiz-adv-x="673" vert-adv-y="1000"  />

      
      <glyph glyph-name="uni010A" unicode="&#x010A;" d="M392-9Q288-9 214 35Q140 79 100.50 160Q61 241 61 353Q61 464 100.50 545Q140 626 214 670Q288 714 392 714Q454 714 510 696Q566 678 607 645Q624 633 626.50 617Q629 601 621 588.50Q613 576 598.50 572.50Q584 569 566 582Q495 639 394 639Q275 639 212 564Q149 489 149 353Q149 216 212 141Q275 66 394 66Q495 66 568 124Q586 136 600.50 133Q615 130 622.50 118Q630 106 628 91Q626 76 611 64Q568 28 512 9.50Q456-9 392-9M387 803Q338 803 338 851Q338 898 387 898Q436 898 436 851Q436 803 387 803Z"  horiz-adv-x="673" vert-adv-y="1000"  />

      
      <glyph glyph-name="uni44" unicode="&#x44;" d="M132 0Q87 0 87 45L87 660Q87 705 132 705L325 705Q496 705 589 614.50Q682 524 682 353Q682 182 589 91Q496 0 325 0L132 0M169 70L319 70Q595 70 595 353Q595 635 319 635L169 635L169 70Z"  horiz-adv-x="742" vert-adv-y="1000"  />

      
      <glyph glyph-name="uni01C4" unicode="&#x01C4;" d="M132 0Q87 0 87 45L87 660Q87 705 132 705L325 705Q496 705 589 614.50Q682 524 682 353Q682 182 589 91Q496 0 325 0L132 0M169 70L319 70Q595 70 595 353Q595 635 319 635L169 635L169 70Z"  horiz-adv-x="1316" vert-adv-y="1000"  />

      
      <glyph glyph-name="unid0" unicode="&#xd0;" d="M132 0Q87 0 87 45L87 660Q87 705 132 705L325 705Q496 705 589 614.50Q682 524 682 353Q682 182 589 91Q496 0 325 0L132 0M169 70L319 70Q595 70 595 353Q595 635 319 635L169 635L169 70M25 326Q-8 326-8 358Q-8 390 25 390L340 390Q373 390 373 358Q373 326 340 326L25 326Z"  horiz-adv-x="742" vert-adv-y="1000"  />

      
      <glyph glyph-name="uni010E" unicode="&#x010E;" d="M132 0Q87 0 87 45L87 660Q87 705 132 705L325 705Q496 705 589 614.50Q682 524 682 353Q682 182 589 91Q496 0 325 0L132 0M169 70L319 70Q595 70 595 353Q595 635 319 635L169 635L169 70M370 756Q338 756 319 783L231 907Q221 921 227.50 932Q234 943 248 944.50Q262 946 274 933L370 818L467 933Q478 946 492 944.50Q506 943 512.50 932Q519 921 509 907L422 783Q403 756 370 756Z"  horiz-adv-x="742" vert-adv-y="1000"  />

      
      <glyph glyph-name="uni0110" unicode="&#x0110;" d="M132 0Q87 0 87 45L87 660Q87 705 132 705L325 705Q496 705 589 614.50Q682 524 682 353Q682 182 589 91Q496 0 325 0L132 0M169 70L319 70Q595 70 595 353Q595 635 319 635L169 635L169 70M25 326Q-8 326-8 358Q-8 390 25 390L340 390Q373 390 373 358Q373 326 340 326L25 326Z"  horiz-adv-x="742" vert-adv-y="1000"  />

      
      <glyph glyph-name="uni1E0C" unicode="&#x1E0C;" d="M132 0Q87 0 87 45L87 660Q87 705 132 705L325 705Q496 705 589 614.50Q682 524 682 353Q682 182 589 91Q496 0 325 0L132 0M169 70L319 70Q595 70 595 353Q595 635 319 635L169 635L169 70M371-191Q322-191 322-143Q322-96 371-96Q421-96 421-143Q421-191 371-191Z"  horiz-adv-x="742" vert-adv-y="1000"  />

      
      <glyph glyph-name="uni018A" unicode="&#x018A;" d="M256 0Q211 0 211 45L211 642L179 642Q70 642 70 536L70 516Q70 502 61.50 491.50Q53 481 36 481Q18 481 9 492Q0 503 0 517L0 540Q0 705 180 705L449 705Q620 705 713 614.50Q806 524 806 353Q806 182 713 91Q620 0 449 0L256 0M294 70L443 70Q719 70 719 353Q719 635 443 635L294 635L294 70Z"  horiz-adv-x="867" vert-adv-y="1000"  />

      
      <glyph glyph-name="uni1E0E" unicode="&#x1E0E;" d="M132 0Q87 0 87 45L87 660Q87 705 132 705L325 705Q496 705 589 614.50Q682 524 682 353Q682 182 589 91Q496 0 325 0L132 0M169 70L319 70Q595 70 595 353Q595 635 319 635L169 635L169 70M250-156Q221-156 221-129Q221-101 250-101L492-101Q522-101 522-129Q522-156 492-156L250-156Z"  horiz-adv-x="742" vert-adv-y="1000"  />

      
      <glyph glyph-name="uni01C5" unicode="&#x01C5;" d="M132 0Q87 0 87 45L87 660Q87 705 132 705L325 705Q496 705 589 614.50Q682 524 682 353Q682 182 589 91Q496 0 325 0L132 0M169 70L319 70Q595 70 595 353Q595 635 319 635L169 635L169 70Z"  horiz-adv-x="1206" vert-adv-y="1000"  />

      
      <glyph glyph-name="uni45" unicode="&#x45;" d="M132 0Q87 0 87 45L87 660Q87 705 132 705L504 705Q539 705 539 671Q539 636 504 636L167 636L167 392L483 392Q518 392 518 358Q518 323 483 323L167 323L167 69L504 69Q539 69 539 35Q539 0 504 0L132 0Z"  horiz-adv-x="583" vert-adv-y="1000"  />

      
      <glyph glyph-name="unic9" unicode="&#xc9;" d="M132 0Q87 0 87 45L87 660Q87 705 132 705L504 705Q539 705 539 671Q539 636 504 636L167 636L167 392L483 392Q518 392 518 358Q518 323 483 323L167 323L167 69L504 69Q539 69 539 35Q539 0 504 0L132 0M359 769Q348 757 334.50 759.50Q321 762 314 773.50Q307 785 316 799L405 928Q416 944 430.50 945.50Q445 947 456.50 939Q468 931 471.50 918Q475 905 463 892L359 769Z"  horiz-adv-x="583" vert-adv-y="1000"  />

      
      <glyph glyph-name="uni0114" unicode="&#x0114;" d="M132 0Q87 0 87 45L87 660Q87 705 132 705L504 705Q539 705 539 671Q539 636 504 636L167 636L167 392L483 392Q518 392 518 358Q518 323 483 323L167 323L167 69L504 69Q539 69 539 35Q539 0 504 0L132 0M324 760Q265 760 219 795Q173 830 158 904Q155 918 162 927Q169 936 180 936Q192 937 199.50 930.50Q207 924 209 914Q220 859 253 836.50Q286 814 324 814Q362 814 395 836.50Q428 859 439 914Q441 924 448.50 930.50Q456 937 468 936Q479 936 486 927Q493 918 490 904Q475 830 429 795Q383 760 324 760Z"  horiz-adv-x="583" vert-adv-y="1000"  />

      
      <glyph glyph-name="uni011A" unicode="&#x011A;" d="M132 0Q87 0 87 45L87 660Q87 705 132 705L504 705Q539 705 539 671Q539 636 504 636L167 636L167 392L483 392Q518 392 518 358Q518 323 483 323L167 323L167 69L504 69Q539 69 539 35Q539 0 504 0L132 0M324 756Q292 756 273 783L185 907Q175 921 181.50 932Q188 943 202 944.50Q216 946 228 933L324 818L421 933Q432 946 446 944.50Q460 943 466.50 932Q473 921 463 907L376 783Q357 756 324 756Z"  horiz-adv-x="583" vert-adv-y="1000"  />

      
      <glyph glyph-name="uni0228" unicode="&#x0228;" d="M132 0Q87 0 87 45L87 660Q87 705 132 705L504 705Q539 705 539 671Q539 636 504 636L167 636L167 392L483 392Q518 392 518 358Q518 323 483 323L167 323L167 69L504 69Q539 69 539 35Q539 0 504 0L132 0M327-192Q309-192 289.50-189.50Q270-187 254-180Q239-174 237.50-161Q236-148 244.50-139Q253-130 269-136Q291-145 325-145Q351-145 367-135.50Q383-126 383-108Q383-80 345-80Q337-80 329.50-81Q322-82 312-84Q296-89 288-84Q281-78 284-59L296 20L347 20L336-43Q346-42 355-42Q392-42 415.50-60Q439-78 439-110Q439-147 408-169.50Q377-192 327-192Z"  horiz-adv-x="583" vert-adv-y="1000"  />

      
      <glyph glyph-name="uni1E1C" unicode="&#x1E1C;" d="M132 0Q87 0 87 45L87 660Q87 705 132 705L504 705Q539 705 539 671Q539 636 504 636L167 636L167 392L483 392Q518 392 518 358Q518 323 483 323L167 323L167 69L504 69Q539 69 539 35Q539 0 504 0L132 0M327-192Q309-192 289.50-189.50Q270-187 254-180Q239-174 237.50-161Q236-148 244.50-139Q253-130 269-136Q291-145 325-145Q351-145 367-135.50Q383-126 383-108Q383-80 345-80Q337-80 329.50-81Q322-82 312-84Q296-89 288-84Q281-78 284-59L296 20L347 20L336-43Q346-42 355-42Q392-42 415.50-60Q439-78 439-110Q439-147 408-169.50Q377-192 327-192M324 760Q265 760 219 795Q173 830 158 904Q155 918 162 927Q169 936 180 936Q192 937 199.50 930.50Q207 924 209 914Q220 859 253 836.50Q286 814 324 814Q362 814 395 836.50Q428 859 439 914Q441 924 448.50 930.50Q456 937 468 936Q479 936 486 927Q493 918 490 904Q475 830 429 795Q383 760 324 760Z"  horiz-adv-x="583" vert-adv-y="1000"  />

      
      <glyph glyph-name="unica" unicode="&#xca;" d="M132 0Q87 0 87 45L87 660Q87 705 132 705L504 705Q539 705 539 671Q539 636 504 636L167 636L167 392L483 392Q518 392 518 358Q518 323 483 323L167 323L167 69L504 69Q539 69 539 35Q539 0 504 0L132 0M228 768Q216 755 202 757Q188 759 181.50 770Q175 781 185 795L273 918Q292 946 324 946Q356 946 376 918L463 795Q473 781 466.50 770Q460 759 446 757Q432 755 421 768L324 884L228 768Z"  horiz-adv-x="583" vert-adv-y="1000"  />

      
      <glyph glyph-name="uni1EBE" unicode="&#x1EBE;" d="M132 0Q87 0 87 45L87 660Q87 705 132 705L504 705Q539 705 539 671Q539 636 504 636L167 636L167 392L483 392Q518 392 518 358Q518 323 483 323L167 323L167 69L504 69Q539 69 539 35Q539 0 504 0L132 0M467 864Q458 853 446.50 854.50Q435 856 429 866Q423 876 431 891L500 1010Q509 1026 522 1028.50Q535 1031 545.50 1024Q556 1017 559.50 1005Q563 993 552 980L467 864M235 768Q224 755 211 756.50Q198 758 192 769Q186 780 196 794L274 909Q284 925 296.50 931Q309 937 324 937Q339 937 351.50 931Q364 925 374 909L452 794Q462 780 456 769Q450 758 437.50 756.50Q425 755 413 768L324 875L235 768Z"  horiz-adv-x="583" vert-adv-y="1000"  />

      
      <glyph glyph-name="uni1EC6" unicode="&#x1EC6;" d="M132 0Q87 0 87 45L87 660Q87 705 132 705L504 705Q539 705 539 671Q539 636 504 636L167 636L167 392L483 392Q518 392 518 358Q518 323 483 323L167 323L167 69L504 69Q539 69 539 35Q539 0 504 0L132 0M324-191Q275-191 275-143Q275-96 324-96Q374-96 374-143Q374-191 324-191M228 768Q216 755 202 757Q188 759 181.50 770Q175 781 185 795L273 918Q292 946 324 946Q356 946 376 918L463 795Q473 781 466.50 770Q460 759 446 757Q432 755 421 768L324 884L228 768Z"  horiz-adv-x="583" vert-adv-y="1000"  />

      
      <glyph glyph-name="uni1EC0" unicode="&#x1EC0;" d="M132 0Q87 0 87 45L87 660Q87 705 132 705L504 705Q539 705 539 671Q539 636 504 636L167 636L167 392L483 392Q518 392 518 358Q518 323 483 323L167 323L167 69L504 69Q539 69 539 35Q539 0 504 0L132 0M462 864L376 980Q366 993 369.50 1005Q373 1017 383.50 1024Q394 1031 407 1028.50Q420 1026 429 1010L498 891Q506 876 500 866Q494 856 482 854.50Q470 853 462 864M235 768Q224 755 211 756.50Q198 758 192 769Q186 780 196 794L274 909Q284 925 296.50 931Q309 937 324 937Q339 937 351.50 931Q364 925 374 909L452 794Q462 780 456 769Q450 758 437.50 756.50Q425 755 413 768L324 875L235 768Z"  horiz-adv-x="583" vert-adv-y="1000"  />

      
      <glyph glyph-name="uni1EC2" unicode="&#x1EC2;" d="M132 0Q87 0 87 45L87 660Q87 705 132 705L504 705Q539 705 539 671Q539 636 504 636L167 636L167 392L483 392Q518 392 518 358Q518 323 483 323L167 323L167 69L504 69Q539 69 539 35Q539 0 504 0L132 0M463 865Q451 859 441 863Q431 867 429 875.50Q427 884 439 893Q461 907 473 921Q485 935 485 951Q485 979 440 979Q422 979 401 974Q376 968 370 986Q364 1006 388 1013Q403 1018 420 1020Q437 1022 455 1022Q497 1022 520.50 1008Q544 994 544 963Q544 931 518 906Q492 881 463 865M235 768Q224 755 211 756.50Q198 758 192 769Q186 780 196 794L274 909Q284 925 296.50 931Q309 937 324 937Q339 937 351.50 931Q364 925 374 909L452 794Q462 780 456 769Q450 758 437.50 756.50Q425 755 413 768L324 875L235 768Z"  horiz-adv-x="583" vert-adv-y="1000"  />

      
      <glyph glyph-name="uni1EC4" unicode="&#x1EC4;" d="M132 0Q87 0 87 45L87 660Q87 705 132 705L504 705Q539 705 539 671Q539 636 504 636L167 636L167 392L483 392Q518 392 518 358Q518 323 483 323L167 323L167 69L504 69Q539 69 539 35Q539 0 504 0L132 0M189 920Q179 921 173 929Q167 937 171 951Q179 987 202.50 1005.50Q226 1024 260 1024Q287 1024 308 1011Q329 998 348 985Q367 972 387 972Q423 972 432 1005Q439 1027 460 1026Q470 1025 475.50 1017.50Q481 1010 478 996Q469 959 445.50 940.50Q422 922 389 922Q362 922 340.50 935Q319 948 300 961Q281 974 261 974Q226 974 216 941Q210 919 189 920M230 765Q218 755 207 757.50Q196 760 192 770Q188 780 198 791L271 879Q283 893 296 898.50Q309 904 324 904Q339 904 352 898.50Q365 893 377 879L450 791Q460 780 456 770Q452 760 441 757Q430 754 418 765L324 850L230 765Z"  horiz-adv-x="583" vert-adv-y="1000"  />

      
      <glyph glyph-name="uni0204" unicode="&#x0204;" d="M132 0Q87 0 87 45L87 660Q87 705 132 705L504 705Q539 705 539 671Q539 636 504 636L167 636L167 392L483 392Q518 392 518 358Q518 323 483 323L167 323L167 69L504 69Q539 69 539 35Q539 0 504 0L132 0M235 768L146 895Q135 910 139 922.50Q143 935 154.50 941.50Q166 948 179.50 945Q193 942 201 925L271 790Q278 777 272 767.50Q266 758 255 757Q244 756 235 768M360 769L275 895Q264 910 268 922.50Q272 935 284 941.50Q296 948 309.50 944.50Q323 941 331 925L400 789Q406 776 399.50 767Q393 758 381 757.50Q369 757 360 769Z"  horiz-adv-x="583" vert-adv-y="1000"  />

      
      <glyph glyph-name="unicb" unicode="&#xcb;" d="M132 0Q87 0 87 45L87 660Q87 705 132 705L504 705Q539 705 539 671Q539 636 504 636L167 636L167 392L483 392Q518 392 518 358Q518 323 483 323L167 323L167 69L504 69Q539 69 539 35Q539 0 504 0L132 0M412 802Q364 802 364 849Q364 895 412 895Q458 895 458 849Q458 802 412 802M237 802Q190 802 190 849Q190 895 237 895Q284 895 284 849Q284 802 237 802Z"  horiz-adv-x="583" vert-adv-y="1000"  />

      
      <glyph glyph-name="uni0116" unicode="&#x0116;" d="M132 0Q87 0 87 45L87 660Q87 705 132 705L504 705Q539 705 539 671Q539 636 504 636L167 636L167 392L483 392Q518 392 518 358Q518 323 483 323L167 323L167 69L504 69Q539 69 539 35Q539 0 504 0L132 0M324 803Q275 803 275 851Q275 898 324 898Q373 898 373 851Q373 803 324 803Z"  horiz-adv-x="583" vert-adv-y="1000"  />

      
      <glyph glyph-name="uni1EB8" unicode="&#x1EB8;" d="M132 0Q87 0 87 45L87 660Q87 705 132 705L504 705Q539 705 539 671Q539 636 504 636L167 636L167 392L483 392Q518 392 518 358Q518 323 483 323L167 323L167 69L504 69Q539 69 539 35Q539 0 504 0L132 0M324-191Q275-191 275-143Q275-96 324-96Q374-96 374-143Q374-191 324-191Z"  horiz-adv-x="583" vert-adv-y="1000"  />

      
      <glyph glyph-name="unic8" unicode="&#xc8;" d="M132 0Q87 0 87 45L87 660Q87 705 132 705L504 705Q539 705 539 671Q539 636 504 636L167 636L167 392L483 392Q518 392 518 358Q518 323 483 323L167 323L167 69L504 69Q539 69 539 35Q539 0 504 0L132 0M289 769L185 892Q174 905 177 918Q180 931 191.50 939Q203 947 217.50 945.50Q232 944 243 928L332 799Q342 785 335 773.50Q328 762 314.50 759.50Q301 757 289 769Z"  horiz-adv-x="583" vert-adv-y="1000"  />

      
      <glyph glyph-name="uni1EBA" unicode="&#x1EBA;" d="M132 0Q87 0 87 45L87 660Q87 705 132 705L504 705Q539 705 539 671Q539 636 504 636L167 636L167 392L483 392Q518 392 518 358Q518 323 483 323L167 323L167 69L504 69Q539 69 539 35Q539 0 504 0L132 0M324 758Q296 758 296 781Q296 801 305.50 813.50Q315 826 327.50 835Q340 844 349.50 852Q359 860 359 872Q359 895 313 895Q304 895 293 893.50Q282 892 272 889Q243 881 237 900Q229 922 254 931Q286 943 329 943Q374 943 399.50 926Q425 909 425 881Q425 860 414 847.50Q403 835 388.50 826Q374 817 363 806Q352 795 352 776Q352 758 324 758Z"  horiz-adv-x="583" vert-adv-y="1000"  />

      
      <glyph glyph-name="uni0206" unicode="&#x0206;" d="M132 0Q87 0 87 45L87 660Q87 705 132 705L504 705Q539 705 539 671Q539 636 504 636L167 636L167 392L483 392Q518 392 518 358Q518 323 483 323L167 323L167 69L504 69Q539 69 539 35Q539 0 504 0L132 0M180 759Q169 760 162 768.50Q155 777 158 792Q173 865 219 900Q265 935 324 935Q383 935 429 900Q475 865 490 792Q493 777 486 768.50Q479 760 468 759Q456 758 448.50 765Q441 772 439 782Q427 836 394.50 858.50Q362 881 324 881Q286 881 253.50 858.50Q221 836 209 782Q207 772 199.50 765Q192 758 180 759Z"  horiz-adv-x="583" vert-adv-y="1000"  />

      
      <glyph glyph-name="uni0112" unicode="&#x0112;" d="M132 0Q87 0 87 45L87 660Q87 705 132 705L504 705Q539 705 539 671Q539 636 504 636L167 636L167 392L483 392Q518 392 518 358Q518 323 483 323L167 323L167 69L504 69Q539 69 539 35Q539 0 504 0L132 0M188 814Q159 814 159 842Q159 869 188 869L460 869Q490 869 490 842Q490 814 460 814L188 814Z"  horiz-adv-x="583" vert-adv-y="1000"  />

      
      <glyph glyph-name="uni1E16" unicode="&#x1E16;" d="M132 0Q87 0 87 45L87 660Q87 705 132 705L504 705Q539 705 539 671Q539 636 504 636L167 636L167 392L483 392Q518 392 518 358Q518 323 483 323L167 323L167 69L504 69Q539 69 539 35Q539 0 504 0L132 0M351 880Q341 868 328.50 870Q316 872 309.50 882.50Q303 893 311 908L378 1017Q388 1033 402 1036Q416 1039 428 1032Q440 1025 443.50 1012.50Q447 1000 436 986L351 880M203 790Q172 790 172 817Q172 845 203 845L445 845Q476 845 476 817Q476 790 445 790L203 790Z"  horiz-adv-x="583" vert-adv-y="1000"  />

      
      <glyph glyph-name="uni1E14" unicode="&#x1E14;" d="M132 0Q87 0 87 45L87 660Q87 705 132 705L504 705Q539 705 539 671Q539 636 504 636L167 636L167 392L483 392Q518 392 518 358Q518 323 483 323L167 323L167 69L504 69Q539 69 539 35Q539 0 504 0L132 0M297 880L212 986Q201 1000 204.50 1012.50Q208 1025 220 1032Q232 1039 246 1036Q260 1033 270 1017L337 908Q345 893 338.50 882.50Q332 872 319.50 870Q307 868 297 880M203 790Q172 790 172 817Q172 845 203 845L445 845Q476 845 476 817Q476 790 445 790L203 790Z"  horiz-adv-x="583" vert-adv-y="1000"  />

      
      <glyph glyph-name="uni0118" unicode="&#x0118;" d="M132 0Q87 0 87 45L87 660Q87 705 132 705L504 705Q539 705 539 671Q539 636 504 636L167 636L167 392L483 392Q518 392 518 358Q518 323 483 323L167 323L167 69L504 69Q539 69 539 35Q539 0 504 0L132 0M475-192Q427-192 398.50-166Q370-140 370-95Q370-55 395.50-20Q421 15 465 36L494 0Q470-10 449-32.50Q428-55 428-86Q428-115 444.50-128.50Q461-142 486-142Q502-142 521-136Q539-131 546.50-141Q554-151 551-164.50Q548-178 534-183Q519-189 504-190.50Q489-192 475-192Z"  horiz-adv-x="583" vert-adv-y="1000"  />

      
      <glyph glyph-name="uni1EBC" unicode="&#x1EBC;" d="M132 0Q87 0 87 45L87 660Q87 705 132 705L504 705Q539 705 539 671Q539 636 504 636L167 636L167 392L483 392Q518 392 518 358Q518 323 483 323L167 323L167 69L504 69Q539 69 539 35Q539 0 504 0L132 0M140 780Q129 780 122.50 787.50Q116 795 118 808Q128 861 159 890Q190 919 235 919Q262 919 286.50 907.50Q311 896 333 881Q355 866 375.50 854.50Q396 843 416 843Q442 843 459.50 860Q477 877 482 905Q487 926 508 925Q519 925 525.50 917.50Q532 910 530 897Q520 844 489 815Q458 786 414 786Q387 786 362.50 797.50Q338 809 315.50 824Q293 839 272.50 850.50Q252 862 232 862Q206 862 188.50 845Q171 828 166 800Q161 779 140 780Z"  horiz-adv-x="583" vert-adv-y="1000"  />

      
      <glyph glyph-name="uni46" unicode="&#x46;" d="M131-7Q87-7 87 38L87 660Q87 705 132 705L495 705Q530 705 530 671Q530 636 495 636L169 636L169 390L474 390Q510 390 510 356Q510 321 474 321L169 321L169 38Q169-7 131-7Z"  horiz-adv-x="548" vert-adv-y="1000"  />

      
      <glyph glyph-name="uni47" unicode="&#x47;" d="M409-9Q239-9 150 87Q61 183 61 352Q61 464 101 545Q141 626 216 670Q291 714 397 714Q460 714 519 696.50Q578 679 624 641Q638 631 640 616.50Q642 602 634.50 589.50Q627 577 613.50 573Q600 569 585 579Q544 611 498 625.50Q452 640 396 640Q276 640 212 564.50Q148 489 148 352Q148 212 214 138Q280 64 411 64Q496 64 574 93L574 302L431 302Q395 302 395 335Q395 367 431 367L610 367Q645 367 645 332L645 71Q645 40 623 31Q581 13 522.50 2Q464-9 409-9Z"  horiz-adv-x="726" vert-adv-y="1000"  />

      
      <glyph glyph-name="uni011E" unicode="&#x011E;" d="M409-9Q239-9 150 87Q61 183 61 352Q61 464 101 545Q141 626 216 670Q291 714 397 714Q460 714 519 696.50Q578 679 624 641Q638 631 640 616.50Q642 602 634.50 589.50Q627 577 613.50 573Q600 569 585 579Q544 611 498 625.50Q452 640 396 640Q276 640 212 564.50Q148 489 148 352Q148 212 214 138Q280 64 411 64Q496 64 574 93L574 302L431 302Q395 302 395 335Q395 367 431 367L610 367Q645 367 645 332L645 71Q645 40 623 31Q581 13 522.50 2Q464-9 409-9M391 760Q332 760 286 795Q240 830 225 904Q222 918 229 927Q236 936 247 936Q259 937 266.50 930.50Q274 924 276 914Q287 859 320 836.50Q353 814 391 814Q429 814 462 836.50Q495 859 506 914Q508 924 515.50 930.50Q523 937 535 936Q546 936 553 927Q560 918 557 904Q542 830 496 795Q450 760 391 760Z"  horiz-adv-x="726" vert-adv-y="1000"  />

      
      <glyph glyph-name="uni01E6" unicode="&#x01E6;" d="M409-9Q239-9 150 87Q61 183 61 352Q61 464 101 545Q141 626 216 670Q291 714 397 714Q460 714 519 696.50Q578 679 624 641Q638 631 640 616.50Q642 602 634.50 589.50Q627 577 613.50 573Q600 569 585 579Q544 611 498 625.50Q452 640 396 640Q276 640 212 564.50Q148 489 148 352Q148 212 214 138Q280 64 411 64Q496 64 574 93L574 302L431 302Q395 302 395 335Q395 367 431 367L610 367Q645 367 645 332L645 71Q645 40 623 31Q581 13 522.50 2Q464-9 409-9M391 756Q359 756 340 783L252 907Q242 921 248.50 932Q255 943 269 944.50Q283 946 295 933L391 818L488 933Q499 946 513 944.50Q527 943 533.50 932Q540 921 530 907L443 783Q424 756 391 756Z"  horiz-adv-x="726" vert-adv-y="1000"  />

      
      <glyph glyph-name="uni011C" unicode="&#x011C;" d="M409-9Q239-9 150 87Q61 183 61 352Q61 464 101 545Q141 626 216 670Q291 714 397 714Q460 714 519 696.50Q578 679 624 641Q638 631 640 616.50Q642 602 634.50 589.50Q627 577 613.50 573Q600 569 585 579Q544 611 498 625.50Q452 640 396 640Q276 640 212 564.50Q148 489 148 352Q148 212 214 138Q280 64 411 64Q496 64 574 93L574 302L431 302Q395 302 395 335Q395 367 431 367L610 367Q645 367 645 332L645 71Q645 40 623 31Q581 13 522.50 2Q464-9 409-9M295 768Q283 755 269 757Q255 759 248.50 770Q242 781 252 795L340 918Q359 946 391 946Q423 946 443 918L530 795Q540 781 533.50 770Q527 759 513 757Q499 755 488 768L391 884L295 768Z"  horiz-adv-x="726" vert-adv-y="1000"  />

      
      <glyph glyph-name="uni0122" unicode="&#x0122;" d="M409-9Q239-9 150 87Q61 183 61 352Q61 464 101 545Q141 626 216 670Q291 714 397 714Q460 714 519 696.50Q578 679 624 641Q638 631 640 616.50Q642 602 634.50 589.50Q627 577 613.50 573Q600 569 585 579Q544 611 498 625.50Q452 640 396 640Q276 640 212 564.50Q148 489 148 352Q148 212 214 138Q280 64 411 64Q496 64 574 93L574 302L431 302Q395 302 395 335Q395 367 431 367L610 367Q645 367 645 332L645 71Q645 40 623 31Q581 13 522.50 2Q464-9 409-9M412-250Q400-264 387.50-262.50Q375-261 370-250Q365-239 376-222Q384-210 389-196.50Q394-183 396-171Q373-170 359.50-157Q346-144 346-123Q346-101 359.50-88Q373-75 397-75Q449-75 449-133Q449-162 440-194Q431-226 412-250Z"  horiz-adv-x="726" vert-adv-y="1000"  />

      
      <glyph glyph-name="uni0120" unicode="&#x0120;" d="M409-9Q239-9 150 87Q61 183 61 352Q61 464 101 545Q141 626 216 670Q291 714 397 714Q460 714 519 696.50Q578 679 624 641Q638 631 640 616.50Q642 602 634.50 589.50Q627 577 613.50 573Q600 569 585 579Q544 611 498 625.50Q452 640 396 640Q276 640 212 564.50Q148 489 148 352Q148 212 214 138Q280 64 411 64Q496 64 574 93L574 302L431 302Q395 302 395 335Q395 367 431 367L610 367Q645 367 645 332L645 71Q645 40 623 31Q581 13 522.50 2Q464-9 409-9M391 803Q342 803 342 851Q342 898 391 898Q440 898 440 851Q440 803 391 803Z"  horiz-adv-x="726" vert-adv-y="1000"  />

      
      <glyph glyph-name="uni1E20" unicode="&#x1E20;" d="M409-9Q239-9 150 87Q61 183 61 352Q61 464 101 545Q141 626 216 670Q291 714 397 714Q460 714 519 696.50Q578 679 624 641Q638 631 640 616.50Q642 602 634.50 589.50Q627 577 613.50 573Q600 569 585 579Q544 611 498 625.50Q452 640 396 640Q276 640 212 564.50Q148 489 148 352Q148 212 214 138Q280 64 411 64Q496 64 574 93L574 302L431 302Q395 302 395 335Q395 367 431 367L610 367Q645 367 645 332L645 71Q645 40 623 31Q581 13 522.50 2Q464-9 409-9M255 814Q226 814 226 842Q226 869 255 869L527 869Q557 869 557 842Q557 814 527 814L255 814Z"  horiz-adv-x="726" vert-adv-y="1000"  />

      
      <glyph glyph-name="uni48" unicode="&#x48;" d="M128-7Q87-7 87 36L87 669Q87 712 128 712Q169 712 169 669L169 393L592 393L592 669Q592 712 633 712Q674 712 674 669L674 36Q674-7 633-7Q592-7 592 36L592 322L169 322L169 36Q169-7 128-7Z"  horiz-adv-x="761" vert-adv-y="1000"  />

      
      <glyph glyph-name="uni0126" unicode="&#x0126;" d="M147-7Q105-7 105 36L105 519L42 519Q8 519 8 552Q8 584 42 584L105 584L105 669Q105 712 147 712Q188 712 188 669L188 584L610 584L610 669Q610 712 652 712Q693 712 693 669L693 584L756 584Q791 584 791 552Q791 519 756 519L693 519L693 36Q693-7 652-7Q610-7 610 36L610 317L188 317L188 36Q188-7 147-7M188 388L610 388L610 519L188 519L188 388Z"  horiz-adv-x="798" vert-adv-y="1000"  />

      
      <glyph glyph-name="uni1E2A" unicode="&#x1E2A;" d="M128-7Q87-7 87 36L87 669Q87 712 128 712Q169 712 169 669L169 393L592 393L592 669Q592 712 633 712Q674 712 674 669L674 36Q674-7 633-7Q592-7 592 36L592 322L169 322L169 36Q169-7 128-7M381-215Q320-215 280.50-182Q241-149 230-90Q226-74 232.50-65.50Q239-57 251-56Q274-53 280-79Q288-118 314.50-139.50Q341-161 381-161Q421-161 447.50-139.50Q474-118 482-79Q488-53 511-56Q523-57 529.50-65.50Q536-74 532-90Q521-149 481.50-182Q442-215 381-215Z"  horiz-adv-x="761" vert-adv-y="1000"  />

      
      <glyph glyph-name="uni0124" unicode="&#x0124;" d="M128-7Q87-7 87 36L87 669Q87 712 128 712Q169 712 169 669L169 393L592 393L592 669Q592 712 633 712Q674 712 674 669L674 36Q674-7 633-7Q592-7 592 36L592 322L169 322L169 36Q169-7 128-7M284 768Q272 755 258 757Q244 759 237.50 770Q231 781 241 795L329 918Q348 946 380 946Q412 946 432 918L519 795Q529 781 522.50 770Q516 759 502 757Q488 755 477 768L380 884L284 768Z"  horiz-adv-x="761" vert-adv-y="1000"  />

      
      <glyph glyph-name="uni1E24" unicode="&#x1E24;" d="M128-7Q87-7 87 36L87 669Q87 712 128 712Q169 712 169 669L169 393L592 393L592 669Q592 712 633 712Q674 712 674 669L674 36Q674-7 633-7Q592-7 592 36L592 322L169 322L169 36Q169-7 128-7M381-191Q332-191 332-143Q332-96 381-96Q431-96 431-143Q431-191 381-191Z"  horiz-adv-x="761" vert-adv-y="1000"  />

      
      <glyph glyph-name="uni49" unicode="&#x49;" d="M128-7Q87-7 87 36L87 669Q87 712 128 712Q169 712 169 669L169 36Q169-7 128-7Z"  horiz-adv-x="257" vert-adv-y="1000"  />

      
      <glyph glyph-name="uni0132" unicode="&#x0132;" d="M128-7Q87-7 87 36L87 669Q87 712 128 712Q169 712 169 669L169 36Q169-7 128-7M285-6Q266-7 255.50 4Q245 15 245 31Q245 43 252.50 52.50Q260 62 276 64L307 66Q358 70 385 101.50Q412 133 412 188L412 670Q412 712 453 712Q494 712 494 670L494 187Q494 100 449 51.50Q404 3 318-3L285-6Z"  horiz-adv-x="580" vert-adv-y="1000"  />

      
      <glyph glyph-name="unicd" unicode="&#xcd;" d="M128-7Q87-7 87 36L87 669Q87 712 128 712Q169 712 169 669L169 36Q169-7 128-7M163 769Q152 757 138.50 759.50Q125 762 118 773.50Q111 785 120 799L209 928Q220 944 234.50 945.50Q249 947 260.50 939Q272 931 275.50 918Q279 905 267 892L163 769Z"  horiz-adv-x="257" vert-adv-y="1000"  />

      
      <glyph glyph-name="uni012C" unicode="&#x012C;" d="M128-7Q87-7 87 36L87 669Q87 712 128 712Q169 712 169 669L169 36Q169-7 128-7M128 760Q69 760 23 795Q-23 830-38 904Q-41 918-34 927Q-27 936-16 936Q-4 937 3.50 930.50Q11 924 13 914Q24 859 57 836.50Q90 814 128 814Q166 814 199 836.50Q232 859 243 914Q245 924 252.50 930.50Q260 937 272 936Q283 936 290 927Q297 918 294 904Q279 830 233 795Q187 760 128 760Z"  horiz-adv-x="257" vert-adv-y="1000"  />

      
      <glyph glyph-name="unice" unicode="&#xce;" d="M128-7Q87-7 87 36L87 669Q87 712 128 712Q169 712 169 669L169 36Q169-7 128-7M32 768Q20 755 6 757Q-8 759-14.50 770Q-21 781-11 795L77 918Q96 946 128 946Q160 946 180 918L267 795Q277 781 270.50 770Q264 759 250 757Q236 755 225 768L128 884L32 768Z"  horiz-adv-x="257" vert-adv-y="1000"  />

      
      <glyph glyph-name="uni0208" unicode="&#x0208;" d="M128-7Q87-7 87 36L87 669Q87 712 128 712Q169 712 169 669L169 36Q169-7 128-7M39 768L-50 895Q-61 910-57 922.50Q-53 935-41.50 941.50Q-30 948-16.50 945Q-3 942 5 925L75 790Q82 777 76 767.50Q70 758 59 757Q48 756 39 768M164 769L79 895Q68 910 72 922.50Q76 935 88 941.50Q100 948 113.50 944.50Q127 941 135 925L204 789Q210 776 203.50 767Q197 758 185 757.50Q173 757 164 769Z"  horiz-adv-x="257" vert-adv-y="1000"  />

      
      <glyph glyph-name="unicf" unicode="&#xcf;" d="M128-7Q87-7 87 36L87 669Q87 712 128 712Q169 712 169 669L169 36Q169-7 128-7M216 802Q168 802 168 849Q168 895 216 895Q262 895 262 849Q262 802 216 802M41 802Q-6 802-6 849Q-6 895 41 895Q88 895 88 849Q88 802 41 802Z"  horiz-adv-x="257" vert-adv-y="1000"  />

      
      <glyph glyph-name="uni1E2E" unicode="&#x1E2E;" d="M128-7Q87-7 87 36L87 669Q87 712 128 712Q169 712 169 669L169 36Q169-7 128-7M154 880Q145 868 132.50 870Q120 872 113.50 882.50Q107 893 115 908L182 1017Q192 1033 206.50 1035.50Q221 1038 232.50 1031Q244 1024 247.50 1011.50Q251 999 240 985L154 880M41 767Q-6 767-6 807Q-6 847 41 847Q88 847 88 807Q88 767 41 767M216 767Q168 767 168 807Q168 847 216 847Q262 847 262 807Q262 767 216 767Z"  horiz-adv-x="257" vert-adv-y="1000"  />

      
      <glyph glyph-name="uni0130" unicode="&#x0130;" d="M128-7Q87-7 87 36L87 669Q87 712 128 712Q169 712 169 669L169 36Q169-7 128-7M128 803Q79 803 79 851Q79 898 128 898Q177 898 177 851Q177 803 128 803Z"  horiz-adv-x="257" vert-adv-y="1000"  />

      
      <glyph glyph-name="uni1ECA" unicode="&#x1ECA;" d="M128-7Q87-7 87 36L87 669Q87 712 128 712Q169 712 169 669L169 36Q169-7 128-7M128-191Q79-191 79-143Q79-96 128-96Q178-96 178-143Q178-191 128-191Z"  horiz-adv-x="257" vert-adv-y="1000"  />

      
      <glyph glyph-name="unicc" unicode="&#xcc;" d="M128-7Q87-7 87 36L87 669Q87 712 128 712Q169 712 169 669L169 36Q169-7 128-7M93 769L-11 892Q-22 905-19 918Q-16 931-4.50 939Q7 947 21.50 945.50Q36 944 47 928L136 799Q146 785 139 773.50Q132 762 118.50 759.50Q105 757 93 769Z"  horiz-adv-x="257" vert-adv-y="1000"  />

      
      <glyph glyph-name="uni1EC8" unicode="&#x1EC8;" d="M128-7Q87-7 87 36L87 669Q87 712 128 712Q169 712 169 669L169 36Q169-7 128-7M128 758Q100 758 100 781Q100 801 109.50 813.50Q119 826 131.50 835Q144 844 153.50 852Q163 860 163 872Q163 895 117 895Q108 895 97 893.50Q86 892 76 889Q47 881 41 900Q33 922 58 931Q90 943 133 943Q178 943 203.50 926Q229 909 229 881Q229 860 218 847.50Q207 835 192.50 826Q178 817 167 806Q156 795 156 776Q156 758 128 758Z"  horiz-adv-x="257" vert-adv-y="1000"  />

      
      <glyph glyph-name="uni020A" unicode="&#x020A;" d="M128-7Q87-7 87 36L87 669Q87 712 128 712Q169 712 169 669L169 36Q169-7 128-7M-16 759Q-27 760-34 768.50Q-41 777-38 792Q-23 865 23 900Q69 935 128 935Q187 935 233 900Q279 865 294 792Q297 777 290 768.50Q283 760 272 759Q260 758 252.50 765Q245 772 243 782Q231 836 198.50 858.50Q166 881 128 881Q90 881 57.50 858.50Q25 836 13 782Q11 772 3.50 765Q-4 758-16 759Z"  horiz-adv-x="257" vert-adv-y="1000"  />

      
      <glyph glyph-name="uni012A" unicode="&#x012A;" d="M128-7Q87-7 87 36L87 669Q87 712 128 712Q169 712 169 669L169 36Q169-7 128-7M-8 814Q-37 814-37 842Q-37 869-8 869L264 869Q294 869 294 842Q294 814 264 814L-8 814Z"  horiz-adv-x="257" vert-adv-y="1000"  />

      
      <glyph glyph-name="uni012E" unicode="&#x012E;" d="M138-192Q90-192 61.50-166Q33-140 33-95Q33-31 92 14Q87 23 87 36L87 669Q87 712 128 712Q169 712 169 669L169 36Q169 7 150-3Q127-15 108.50-36.50Q90-58 90-86Q90-115 107-128.50Q124-142 149-142Q165-142 183-136Q202-131 209.50-141Q217-151 214-164.50Q211-178 197-183Q182-189 167-190.50Q152-192 138-192Z"  horiz-adv-x="257" vert-adv-y="1000"  />

      
      <glyph glyph-name="uni0128" unicode="&#x0128;" d="M128-7Q87-7 87 36L87 669Q87 712 128 712Q169 712 169 669L169 36Q169-7 128-7M-56 780Q-67 780-73.50 787.50Q-80 795-78 808Q-68 861-37 890Q-6 919 39 919Q66 919 90.50 907.50Q115 896 137 881Q159 866 179.50 854.50Q200 843 220 843Q246 843 263.50 860Q281 877 286 905Q291 926 312 925Q323 925 329.50 917.50Q336 910 334 897Q324 844 293 815Q262 786 218 786Q191 786 166.50 797.50Q142 809 119.50 824Q97 839 76.50 850.50Q56 862 36 862Q10 862-7.50 845Q-25 828-30 800Q-35 779-56 780Z"  horiz-adv-x="257" vert-adv-y="1000"  />

      
      <glyph glyph-name="uni4a" unicode="&#x4a;" d="M28-6Q9-7-1.50 4Q-12 15-12 31Q-12 43-4.50 52.50Q3 62 19 64L50 66Q101 70 128 101.50Q155 133 155 188L155 670Q155 712 196 712Q237 712 237 670L237 187Q237 100 192 51.50Q147 3 61-3L28-6Z"  horiz-adv-x="324" vert-adv-y="1000"  />

      
      <glyph glyph-name="uni0134" unicode="&#x0134;" d="M28-6Q9-7-1.50 4Q-12 15-12 31Q-12 43-4.50 52.50Q3 62 19 64L50 66Q101 70 128 101.50Q155 133 155 188L155 670Q155 712 196 712Q237 712 237 670L237 187Q237 100 192 51.50Q147 3 61-3L28-6M100 768Q88 755 74 757Q60 759 53.50 770Q47 781 57 795L145 918Q164 946 196 946Q228 946 248 918L335 795Q345 781 338.50 770Q332 759 318 757Q304 755 293 768L196 884L100 768Z"  horiz-adv-x="324" vert-adv-y="1000"  />

      
      <glyph glyph-name="uni4b" unicode="&#x4b;" d="M128-7Q87-7 87 36L87 670Q87 712 128 712Q169 712 169 670L169 385L171 385L497 689Q521 712 547 712Q574 712 579.50 692.50Q585 673 567 656L250 363L583 55Q605 34 597 13.50Q589-7 562-7Q547-7 536.50-0.50Q526 6 513 19L171 332L169 332L169 36Q169-7 128-7Z"  horiz-adv-x="625" vert-adv-y="1000"  />

      
      <glyph glyph-name="uni0136" unicode="&#x0136;" d="M128-7Q87-7 87 36L87 670Q87 712 128 712Q169 712 169 670L169 385L171 385L497 689Q521 712 547 712Q574 712 579.50 692.50Q585 673 567 656L250 363L583 55Q605 34 597 13.50Q589-7 562-7Q547-7 536.50-0.50Q526 6 513 19L171 332L169 332L169 36Q169-7 128-7M330-250Q318-264 305.50-262.50Q293-261 288-250Q283-239 294-222Q302-210 307-196.50Q312-183 314-171Q291-170 277.50-157Q264-144 264-123Q264-101 277.50-88Q291-75 315-75Q367-75 367-133Q367-162 358-194Q349-226 330-250Z"  horiz-adv-x="625" vert-adv-y="1000"  />

      
      <glyph glyph-name="uni4c" unicode="&#x4c;" d="M129 0Q87 0 87 43L87 667Q87 710 128 710Q169 710 169 667L169 72L497 72Q535 72 535 36Q535 0 497 0L129 0Z"  horiz-adv-x="543" vert-adv-y="1000"  />

      
      <glyph glyph-name="uni01C7" unicode="&#x01C7;" d="M129 0Q87 0 87 43L87 667Q87 710 128 710Q169 710 169 667L169 72L497 72Q535 72 535 36Q535 0 497 0L129 0M611-6Q592-7 581.50 4Q571 15 571 31Q571 43 578.50 52.50Q586 62 602 64L633 66Q684 70 711 101.50Q738 133 738 188L738 670Q738 712 779 712Q820 712 820 670L820 187Q820 100 775 51.50Q730 3 644-3L611-6Z"  horiz-adv-x="907" vert-adv-y="1000"  />

      
      <glyph glyph-name="uni0139" unicode="&#x0139;" d="M129 0Q87 0 87 43L87 667Q87 710 128 710Q169 710 169 667L169 72L497 72Q535 72 535 36Q535 0 497 0L129 0M163 769Q152 757 138.50 759.50Q125 762 118 773.50Q111 785 120 799L209 928Q220 944 234.50 945.50Q249 947 260.50 939Q272 931 275.50 918Q279 905 267 892L163 769Z"  horiz-adv-x="543" vert-adv-y="1000"  />

      
      <glyph glyph-name="uni013D" unicode="&#x013D;" d="M129 0Q87 0 87 43L87 667Q87 710 128 710Q169 710 169 667L169 72L497 72Q535 72 535 36Q535 0 497 0L129 0M309 475Q284 475 284 502L284 676Q284 712 320 712Q356 712 353 674L337 500Q334 475 309 475Z"  horiz-adv-x="543" vert-adv-y="1000"  />

      
      <glyph glyph-name="uni013B" unicode="&#x013B;" d="M129 0Q87 0 87 43L87 667Q87 710 128 710Q169 710 169 667L169 72L497 72Q535 72 535 36Q535 0 497 0L129 0M321-250Q309-264 296.50-262.50Q284-261 279-250Q274-239 285-222Q293-210 298-196.50Q303-183 305-171Q282-170 268.50-157Q255-144 255-123Q255-101 268.50-88Q282-75 306-75Q358-75 358-133Q358-162 349-194Q340-226 321-250Z"  horiz-adv-x="543" vert-adv-y="1000"  />

      
      <glyph glyph-name="uni013F" unicode="&#x013F;" d="M129 0Q87 0 87 43L87 667Q87 710 128 710Q169 710 169 667L169 72L497 72Q535 72 535 36Q535 0 497 0L129 0M403 335Q378 335 363 350.50Q348 366 348 390Q348 414 363 429Q378 444 403 444Q428 444 443 429Q458 414 458 390Q458 366 443 350.50Q428 335 403 335Z"  horiz-adv-x="543" vert-adv-y="1000"  />

      
      <glyph glyph-name="uni1E36" unicode="&#x1E36;" d="M129 0Q87 0 87 43L87 667Q87 710 128 710Q169 710 169 667L169 72L497 72Q535 72 535 36Q535 0 497 0L129 0M307-191Q258-191 258-143Q258-96 307-96Q357-96 357-143Q357-191 307-191Z"  horiz-adv-x="543" vert-adv-y="1000"  />

      
      <glyph glyph-name="uni01C8" unicode="&#x01C8;" d="M129 0Q87 0 87 43L87 667Q87 710 128 710Q169 710 169 667L169 72L497 72Q535 72 535 36Q535 0 497 0L129 0M662 603Q609 603 609 653Q609 702 662 702Q716 702 716 653Q716 603 662 603M526-191Q501-192 491.50-177Q482-162 488-145.50Q494-129 514-128Q569-125 595.50-98.50Q622-72 622-15L622 452Q622 493 663 493Q703 493 703 452L703-9Q703-101 657.50-144Q612-187 526-191Z"  horiz-adv-x="779" vert-adv-y="1000"  />

      
      <glyph glyph-name="uni1E3A" unicode="&#x1E3A;" d="M129 0Q87 0 87 43L87 667Q87 710 128 710Q169 710 169 667L169 72L497 72Q535 72 535 36Q535 0 497 0L129 0M186-156Q157-156 157-129Q157-101 186-101L428-101Q458-101 458-129Q458-156 428-156L186-156Z"  horiz-adv-x="543" vert-adv-y="1000"  />

      
      <glyph glyph-name="uni0141" unicode="&#x0141;" d="M129 0Q87 0 87 43L87 667Q87 710 128 710Q169 710 169 667L169 72L497 72Q535 72 535 36Q535 0 497 0L129 0M32 268Q16 259 3 263Q-10 267-16.50 278Q-23 289-19.50 302.50Q-16 316 0 326L314 506Q330 516 343 511.50Q356 507 362.50 495.50Q369 484 366 471Q363 458 346 448L32 268Z"  horiz-adv-x="543" vert-adv-y="1000"  />

      
      <glyph glyph-name="uni4d" unicode="&#x4d;" d="M127-7Q89-7 89 33L89 672Q89 712 127 712Q143 712 152.50 705.50Q162 699 170 684L429 196L687 684Q695 699 704 705.50Q713 712 730 712Q767 712 767 672L767 33Q767-7 729-7Q691-7 691 33L691 551L465 126Q458 113 450.50 107.50Q443 102 429 102Q415 102 407 108Q399 114 393 126L164 550L164 33Q164-7 127-7Z"  horiz-adv-x="855" vert-adv-y="1000"  />

      
      <glyph glyph-name="uni1E42" unicode="&#x1E42;" d="M127-7Q89-7 89 33L89 672Q89 712 127 712Q143 712 152.50 705.50Q162 699 170 684L429 196L687 684Q695 699 704 705.50Q713 712 730 712Q767 712 767 672L767 33Q767-7 729-7Q691-7 691 33L691 551L465 126Q458 113 450.50 107.50Q443 102 429 102Q415 102 407 108Q399 114 393 126L164 550L164 33Q164-7 127-7M428-191Q379-191 379-143Q379-96 428-96Q478-96 478-143Q478-191 428-191Z"  horiz-adv-x="855" vert-adv-y="1000"  />

      
      <glyph glyph-name="uni4e" unicode="&#x4e;" d="M126-7Q87-7 87 34L87 670Q87 712 123 712Q138 712 146 706.50Q154 701 164 687L576 138L576 672Q576 712 615 712Q652 712 652 672L652 33Q652-7 619-7Q604-7 595-1Q586 5 576 18L164 569L164 34Q164-7 126-7Z"  horiz-adv-x="740" vert-adv-y="1000"  />

      
      <glyph glyph-name="uni01CA" unicode="&#x01CA;" d="M126-7Q87-7 87 34L87 670Q87 712 123 712Q138 712 146 706.50Q154 701 164 687L576 138L576 672Q576 712 615 712Q652 712 652 672L652 33Q652-7 619-7Q604-7 595-1Q586 5 576 18L164 569L164 34Q164-7 126-7M768-6Q749-7 738.50 4Q728 15 728 31Q728 43 735.50 52.50Q743 62 759 64L790 66Q841 70 868 101.50Q895 133 895 188L895 670Q895 712 936 712Q977 712 977 670L977 187Q977 100 932 51.50Q887 3 801-3L768-6Z"  horiz-adv-x="1063" vert-adv-y="1000"  />

      
      <glyph glyph-name="uni0143" unicode="&#x0143;" d="M126-7Q87-7 87 34L87 670Q87 712 123 712Q138 712 146 706.50Q154 701 164 687L576 138L576 672Q576 712 615 712Q652 712 652 672L652 33Q652-7 619-7Q604-7 595-1Q586 5 576 18L164 569L164 34Q164-7 126-7M405 769Q394 757 380.50 759.50Q367 762 360 773.50Q353 785 362 799L451 928Q462 944 476.50 945.50Q491 947 502.50 939Q514 931 517.50 918Q521 905 509 892L405 769Z"  horiz-adv-x="740" vert-adv-y="1000"  />

      
      <glyph glyph-name="uni0147" unicode="&#x0147;" d="M126-7Q87-7 87 34L87 670Q87 712 123 712Q138 712 146 706.50Q154 701 164 687L576 138L576 672Q576 712 615 712Q652 712 652 672L652 33Q652-7 619-7Q604-7 595-1Q586 5 576 18L164 569L164 34Q164-7 126-7M370 756Q338 756 319 783L231 907Q221 921 227.50 932Q234 943 248 944.50Q262 946 274 933L370 818L467 933Q478 946 492 944.50Q506 943 512.50 932Q519 921 509 907L422 783Q403 756 370 756Z"  horiz-adv-x="740" vert-adv-y="1000"  />

      
      <glyph glyph-name="uni0145" unicode="&#x0145;" d="M126-7Q87-7 87 34L87 670Q87 712 123 712Q138 712 146 706.50Q154 701 164 687L576 138L576 672Q576 712 615 712Q652 712 652 672L652 33Q652-7 619-7Q604-7 595-1Q586 5 576 18L164 569L164 34Q164-7 126-7M384-250Q372-264 359.50-262.50Q347-261 342-250Q337-239 348-222Q356-210 361-196.50Q366-183 368-171Q345-170 331.50-157Q318-144 318-123Q318-101 331.50-88Q345-75 369-75Q421-75 421-133Q421-162 412-194Q403-226 384-250Z"  horiz-adv-x="740" vert-adv-y="1000"  />

      
      <glyph glyph-name="uni1E44" unicode="&#x1E44;" d="M126-7Q87-7 87 34L87 670Q87 712 123 712Q138 712 146 706.50Q154 701 164 687L576 138L576 672Q576 712 615 712Q652 712 652 672L652 33Q652-7 619-7Q604-7 595-1Q586 5 576 18L164 569L164 34Q164-7 126-7M370 803Q321 803 321 851Q321 898 370 898Q419 898 419 851Q419 803 370 803Z"  horiz-adv-x="740" vert-adv-y="1000"  />

      
      <glyph glyph-name="uni1E46" unicode="&#x1E46;" d="M126-7Q87-7 87 34L87 670Q87 712 123 712Q138 712 146 706.50Q154 701 164 687L576 138L576 672Q576 712 615 712Q652 712 652 672L652 33Q652-7 619-7Q604-7 595-1Q586 5 576 18L164 569L164 34Q164-7 126-7M370-191Q321-191 321-143Q321-96 370-96Q420-96 420-143Q420-191 370-191Z"  horiz-adv-x="740" vert-adv-y="1000"  />

      
      <glyph glyph-name="uni014A" unicode="&#x014A;" d="M475-191Q449-192 440-176.50Q431-161 437.50-145Q444-129 464-128Q519-124 547.50-98.50Q576-73 576-15L576 19L164 569L164 34Q164-7 126-7Q87-7 87 34L87 670Q87 712 123 712Q138 712 146 706.50Q154 701 164 687L576 138L576 672Q576 712 615 712Q652 712 652 672L652-7Q652-102 606-144.50Q560-187 475-191Z"  horiz-adv-x="740" vert-adv-y="1000"  />

      
      <glyph glyph-name="uni01CB" unicode="&#x01CB;" d="M126-7Q87-7 87 34L87 670Q87 712 123 712Q138 712 146 706.50Q154 701 164 687L576 138L576 672Q576 712 615 712Q652 712 652 672L652 33Q652-7 619-7Q604-7 595-1Q586 5 576 18L164 569L164 34Q164-7 126-7M859 603Q806 603 806 653Q806 702 859 702Q913 702 913 653Q913 603 859 603M723-191Q698-192 688.50-177Q679-162 685-145.50Q691-129 711-128Q766-125 792.50-98.50Q819-72 819-15L819 452Q819 493 860 493Q900 493 900 452L900-9Q900-101 854.50-144Q809-187 723-191Z"  horiz-adv-x="975" vert-adv-y="1000"  />

      
      <glyph glyph-name="uni1E48" unicode="&#x1E48;" d="M126-7Q87-7 87 34L87 670Q87 712 123 712Q138 712 146 706.50Q154 701 164 687L576 138L576 672Q576 712 615 712Q652 712 652 672L652 33Q652-7 619-7Q604-7 595-1Q586 5 576 18L164 569L164 34Q164-7 126-7M249-156Q220-156 220-129Q220-101 249-101L491-101Q521-101 521-129Q521-156 491-156L249-156Z"  horiz-adv-x="740" vert-adv-y="1000"  />

      
      <glyph glyph-name="unid1" unicode="&#xd1;" d="M126-7Q87-7 87 34L87 670Q87 712 123 712Q138 712 146 706.50Q154 701 164 687L576 138L576 672Q576 712 615 712Q652 712 652 672L652 33Q652-7 619-7Q604-7 595-1Q586 5 576 18L164 569L164 34Q164-7 126-7M186 780Q175 780 168.50 787.50Q162 795 164 808Q174 861 205 890Q236 919 281 919Q308 919 332.50 907.50Q357 896 379 881Q401 866 421.50 854.50Q442 843 462 843Q488 843 505.50 860Q523 877 528 905Q533 926 554 925Q565 925 571.50 917.50Q578 910 576 897Q566 844 535 815Q504 786 460 786Q433 786 408.50 797.50Q384 809 361.50 824Q339 839 318.50 850.50Q298 862 278 862Q252 862 234.50 845Q217 828 212 800Q207 779 186 780Z"  horiz-adv-x="740" vert-adv-y="1000"  />

      
      <glyph glyph-name="uni4f" unicode="&#x4f;" d="M383-9Q285-9 212.50 35.50Q140 80 100.50 161Q61 242 61 353Q61 464 100 545Q139 626 211.50 670Q284 714 383 714Q483 714 555.50 670Q628 626 667.50 545.50Q707 465 707 354Q707 243 667 161.50Q627 80 554.50 35.50Q482-9 383-9M383 64Q496 64 558 140Q620 216 620 353Q620 490 558 565.50Q496 641 383 641Q272 641 210 565.50Q148 490 148 353Q148 217 210 140.50Q272 64 383 64Z"  horiz-adv-x="767" vert-adv-y="1000"  />

      
      <glyph glyph-name="unid3" unicode="&#xd3;" d="M383-9Q285-9 212.50 35.50Q140 80 100.50 161Q61 242 61 353Q61 464 100 545Q139 626 211.50 670Q284 714 383 714Q483 714 555.50 670Q628 626 667.50 545.50Q707 465 707 354Q707 243 667 161.50Q627 80 554.50 35.50Q482-9 383-9M383 64Q496 64 558 140Q620 216 620 353Q620 490 558 565.50Q496 641 383 641Q272 641 210 565.50Q148 490 148 353Q148 217 210 140.50Q272 64 383 64M418 769Q407 757 393.50 759.50Q380 762 373 773.50Q366 785 375 799L464 928Q475 944 489.50 945.50Q504 947 515.50 939Q527 931 530.50 918Q534 905 522 892L418 769Z"  horiz-adv-x="767" vert-adv-y="1000"  />

      
      <glyph glyph-name="uni014E" unicode="&#x014E;" d="M383-9Q285-9 212.50 35.50Q140 80 100.50 161Q61 242 61 353Q61 464 100 545Q139 626 211.50 670Q284 714 383 714Q483 714 555.50 670Q628 626 667.50 545.50Q707 465 707 354Q707 243 667 161.50Q627 80 554.50 35.50Q482-9 383-9M383 64Q496 64 558 140Q620 216 620 353Q620 490 558 565.50Q496 641 383 641Q272 641 210 565.50Q148 490 148 353Q148 217 210 140.50Q272 64 383 64M383 760Q324 760 278 795Q232 830 217 904Q214 918 221 927Q228 936 239 936Q251 937 258.50 930.50Q266 924 268 914Q279 859 312 836.50Q345 814 383 814Q421 814 454 836.50Q487 859 498 914Q500 924 507.50 930.50Q515 937 527 936Q538 936 545 927Q552 918 549 904Q534 830 488 795Q442 760 383 760Z"  horiz-adv-x="767" vert-adv-y="1000"  />

      
      <glyph glyph-name="unid4" unicode="&#xd4;" d="M383-9Q285-9 212.50 35.50Q140 80 100.50 161Q61 242 61 353Q61 464 100 545Q139 626 211.50 670Q284 714 383 714Q483 714 555.50 670Q628 626 667.50 545.50Q707 465 707 354Q707 243 667 161.50Q627 80 554.50 35.50Q482-9 383-9M383 64Q496 64 558 140Q620 216 620 353Q620 490 558 565.50Q496 641 383 641Q272 641 210 565.50Q148 490 148 353Q148 217 210 140.50Q272 64 383 64M287 768Q275 755 261 757Q247 759 240.50 770Q234 781 244 795L332 918Q351 946 383 946Q415 946 435 918L522 795Q532 781 525.50 770Q519 759 505 757Q491 755 480 768L383 884L287 768Z"  horiz-adv-x="767" vert-adv-y="1000"  />

      
      <glyph glyph-name="uni1ED0" unicode="&#x1ED0;" d="M383-9Q285-9 212.50 35.50Q140 80 100.50 161Q61 242 61 353Q61 464 100 545Q139 626 211.50 670Q284 714 383 714Q483 714 555.50 670Q628 626 667.50 545.50Q707 465 707 354Q707 243 667 161.50Q627 80 554.50 35.50Q482-9 383-9M383 64Q496 64 558 140Q620 216 620 353Q620 490 558 565.50Q496 641 383 641Q272 641 210 565.50Q148 490 148 353Q148 217 210 140.50Q272 64 383 64M526 864Q517 853 505.50 854.50Q494 856 488 866Q482 876 490 891L559 1010Q568 1026 581 1028.50Q594 1031 604.50 1024Q615 1017 618.50 1005Q622 993 611 980L526 864M294 768Q283 755 270 756.50Q257 758 251 769Q245 780 255 794L333 909Q343 925 355.50 931Q368 937 383 937Q398 937 410.50 931Q423 925 433 909L511 794Q521 780 515 769Q509 758 496.50 756.50Q484 755 472 768L383 875L294 768Z"  horiz-adv-x="767" vert-adv-y="1000"  />

      
      <glyph glyph-name="uni1ED8" unicode="&#x1ED8;" d="M383-9Q285-9 212.50 35.50Q140 80 100.50 161Q61 242 61 353Q61 464 100 545Q139 626 211.50 670Q284 714 383 714Q483 714 555.50 670Q628 626 667.50 545.50Q707 465 707 354Q707 243 667 161.50Q627 80 554.50 35.50Q482-9 383-9M383 64Q496 64 558 140Q620 216 620 353Q620 490 558 565.50Q496 641 383 641Q272 641 210 565.50Q148 490 148 353Q148 217 210 140.50Q272 64 383 64M383-191Q334-191 334-143Q334-96 383-96Q433-96 433-143Q433-191 383-191M287 768Q275 755 261 757Q247 759 240.50 770Q234 781 244 795L332 918Q351 946 383 946Q415 946 435 918L522 795Q532 781 525.50 770Q519 759 505 757Q491 755 480 768L383 884L287 768Z"  horiz-adv-x="767" vert-adv-y="1000"  />

      
      <glyph glyph-name="uni1ED2" unicode="&#x1ED2;" d="M383-9Q285-9 212.50 35.50Q140 80 100.50 161Q61 242 61 353Q61 464 100 545Q139 626 211.50 670Q284 714 383 714Q483 714 555.50 670Q628 626 667.50 545.50Q707 465 707 354Q707 243 667 161.50Q627 80 554.50 35.50Q482-9 383-9M383 64Q496 64 558 140Q620 216 620 353Q620 490 558 565.50Q496 641 383 641Q272 641 210 565.50Q148 490 148 353Q148 217 210 140.50Q272 64 383 64M521 864L435 980Q425 993 428.50 1005Q432 1017 442.50 1024Q453 1031 466 1028.50Q479 1026 488 1010L557 891Q565 876 559 866Q553 856 541 854.50Q529 853 521 864M294 768Q283 755 270 756.50Q257 758 251 769Q245 780 255 794L333 909Q343 925 355.50 931Q368 937 383 937Q398 937 410.50 931Q423 925 433 909L511 794Q521 780 515 769Q509 758 496.50 756.50Q484 755 472 768L383 875L294 768Z"  horiz-adv-x="767" vert-adv-y="1000"  />

      
      <glyph glyph-name="uni1ED4" unicode="&#x1ED4;" d="M383-9Q285-9 212.50 35.50Q140 80 100.50 161Q61 242 61 353Q61 464 100 545Q139 626 211.50 670Q284 714 383 714Q483 714 555.50 670Q628 626 667.50 545.50Q707 465 707 354Q707 243 667 161.50Q627 80 554.50 35.50Q482-9 383-9M383 64Q496 64 558 140Q620 216 620 353Q620 490 558 565.50Q496 641 383 641Q272 641 210 565.50Q148 490 148 353Q148 217 210 140.50Q272 64 383 64M522 865Q510 859 500 863Q490 867 488 875.50Q486 884 498 893Q520 907 532 921Q544 935 544 951Q544 979 499 979Q481 979 460 974Q435 968 429 986Q423 1006 447 1013Q462 1018 479 1020Q496 1022 514 1022Q556 1022 579.50 1008Q603 994 603 963Q603 931 577 906Q551 881 522 865M294 768Q283 755 270 756.50Q257 758 251 769Q245 780 255 794L333 909Q343 925 355.50 931Q368 937 383 937Q398 937 410.50 931Q423 925 433 909L511 794Q521 780 515 769Q509 758 496.50 756.50Q484 755 472 768L383 875L294 768Z"  horiz-adv-x="767" vert-adv-y="1000"  />

      
      <glyph glyph-name="uni1ED6" unicode="&#x1ED6;" d="M383-9Q285-9 212.50 35.50Q140 80 100.50 161Q61 242 61 353Q61 464 100 545Q139 626 211.50 670Q284 714 383 714Q483 714 555.50 670Q628 626 667.50 545.50Q707 465 707 354Q707 243 667 161.50Q627 80 554.50 35.50Q482-9 383-9M383 64Q496 64 558 140Q620 216 620 353Q620 490 558 565.50Q496 641 383 641Q272 641 210 565.50Q148 490 148 353Q148 217 210 140.50Q272 64 383 64M248 920Q238 921 232 929Q226 937 230 951Q238 987 261.50 1005.50Q285 1024 319 1024Q346 1024 367 1011Q388 998 407 985Q426 972 446 972Q482 972 491 1005Q498 1027 519 1026Q529 1025 534.50 1017.50Q540 1010 537 996Q528 959 504.50 940.50Q481 922 448 922Q421 922 399.50 935Q378 948 359 961Q340 974 320 974Q285 974 275 941Q269 919 248 920M289 765Q277 755 266 757.50Q255 760 251 770Q247 780 257 791L330 879Q342 893 355 898.50Q368 904 383 904Q398 904 411 898.50Q424 893 436 879L509 791Q519 780 515 770Q511 760 500 757Q489 754 477 765L383 850L289 765Z"  horiz-adv-x="767" vert-adv-y="1000"  />

      
      <glyph glyph-name="uni020C" unicode="&#x020C;" d="M383-9Q285-9 212.50 35.50Q140 80 100.50 161Q61 242 61 353Q61 464 100 545Q139 626 211.50 670Q284 714 383 714Q483 714 555.50 670Q628 626 667.50 545.50Q707 465 707 354Q707 243 667 161.50Q627 80 554.50 35.50Q482-9 383-9M383 64Q496 64 558 140Q620 216 620 353Q620 490 558 565.50Q496 641 383 641Q272 641 210 565.50Q148 490 148 353Q148 217 210 140.50Q272 64 383 64M294 768L205 895Q194 910 198 922.50Q202 935 213.50 941.50Q225 948 238.50 945Q252 942 260 925L330 790Q337 777 331 767.50Q325 758 314 757Q303 756 294 768M419 769L334 895Q323 910 327 922.50Q331 935 343 941.50Q355 948 368.50 944.50Q382 941 390 925L459 789Q465 776 458.50 767Q452 758 440 757.50Q428 757 419 769Z"  horiz-adv-x="767" vert-adv-y="1000"  />

      
      <glyph glyph-name="unid6" unicode="&#xd6;" d="M383-9Q285-9 212.50 35.50Q140 80 100.50 161Q61 242 61 353Q61 464 100 545Q139 626 211.50 670Q284 714 383 714Q483 714 555.50 670Q628 626 667.50 545.50Q707 465 707 354Q707 243 667 161.50Q627 80 554.50 35.50Q482-9 383-9M383 64Q496 64 558 140Q620 216 620 353Q620 490 558 565.50Q496 641 383 641Q272 641 210 565.50Q148 490 148 353Q148 217 210 140.50Q272 64 383 64M471 802Q423 802 423 849Q423 895 471 895Q517 895 517 849Q517 802 471 802M296 802Q249 802 249 849Q249 895 296 895Q343 895 343 849Q343 802 296 802Z"  horiz-adv-x="767" vert-adv-y="1000"  />

      
      <glyph glyph-name="uni022A" unicode="&#x022A;" d="M383-9Q285-9 212.50 35.50Q140 80 100.50 161Q61 242 61 353Q61 464 100 545Q139 626 211.50 670Q284 714 383 714Q483 714 555.50 670Q628 626 667.50 545.50Q707 465 707 354Q707 243 667 161.50Q627 80 554.50 35.50Q482-9 383-9M383 64Q496 64 558 140Q620 216 620 353Q620 490 558 565.50Q496 641 383 641Q272 641 210 565.50Q148 490 148 353Q148 217 210 140.50Q272 64 383 64M262 926Q231 926 231 953Q231 981 262 981L504 981Q535 981 535 953Q535 926 504 926L262 926M296 794Q249 794 249 834Q249 874 296 874Q343 874 343 834Q343 794 296 794M471 794Q423 794 423 834Q423 874 471 874Q517 874 517 834Q517 794 471 794Z"  horiz-adv-x="767" vert-adv-y="1000"  />

      
      <glyph glyph-name="uni0230" unicode="&#x0230;" d="M383-9Q285-9 212.50 35.50Q140 80 100.50 161Q61 242 61 353Q61 464 100 545Q139 626 211.50 670Q284 714 383 714Q483 714 555.50 670Q628 626 667.50 545.50Q707 465 707 354Q707 243 667 161.50Q627 80 554.50 35.50Q482-9 383-9M383 64Q496 64 558 140Q620 216 620 353Q620 490 558 565.50Q496 641 383 641Q272 641 210 565.50Q148 490 148 353Q148 217 210 140.50Q272 64 383 64M262 926Q231 926 231 953Q231 981 262 981L504 981Q535 981 535 953Q535 926 504 926L262 926M384 794Q337 794 337 834Q337 874 384 874Q431 874 431 834Q431 794 384 794Z"  horiz-adv-x="767" vert-adv-y="1000"  />

      
      <glyph glyph-name="uni1ECC" unicode="&#x1ECC;" d="M383-9Q285-9 212.50 35.50Q140 80 100.50 161Q61 242 61 353Q61 464 100 545Q139 626 211.50 670Q284 714 383 714Q483 714 555.50 670Q628 626 667.50 545.50Q707 465 707 354Q707 243 667 161.50Q627 80 554.50 35.50Q482-9 383-9M383 64Q496 64 558 140Q620 216 620 353Q620 490 558 565.50Q496 641 383 641Q272 641 210 565.50Q148 490 148 353Q148 217 210 140.50Q272 64 383 64M383-191Q334-191 334-143Q334-96 383-96Q433-96 433-143Q433-191 383-191Z"  horiz-adv-x="767" vert-adv-y="1000"  />

      
      <glyph glyph-name="unid2" unicode="&#xd2;" d="M383-9Q285-9 212.50 35.50Q140 80 100.50 161Q61 242 61 353Q61 464 100 545Q139 626 211.50 670Q284 714 383 714Q483 714 555.50 670Q628 626 667.50 545.50Q707 465 707 354Q707 243 667 161.50Q627 80 554.50 35.50Q482-9 383-9M383 64Q496 64 558 140Q620 216 620 353Q620 490 558 565.50Q496 641 383 641Q272 641 210 565.50Q148 490 148 353Q148 217 210 140.50Q272 64 383 64M348 769L244 892Q233 905 236 918Q239 931 250.50 939Q262 947 276.50 945.50Q291 944 302 928L391 799Q401 785 394 773.50Q387 762 373.50 759.50Q360 757 348 769Z"  horiz-adv-x="767" vert-adv-y="1000"  />

      
      <glyph glyph-name="uni1ECE" unicode="&#x1ECE;" d="M383-9Q285-9 212.50 35.50Q140 80 100.50 161Q61 242 61 353Q61 464 100 545Q139 626 211.50 670Q284 714 383 714Q483 714 555.50 670Q628 626 667.50 545.50Q707 465 707 354Q707 243 667 161.50Q627 80 554.50 35.50Q482-9 383-9M383 64Q496 64 558 140Q620 216 620 353Q620 490 558 565.50Q496 641 383 641Q272 641 210 565.50Q148 490 148 353Q148 217 210 140.50Q272 64 383 64M383 758Q355 758 355 781Q355 801 364.50 813.50Q374 826 386.50 835Q399 844 408.50 852Q418 860 418 872Q418 895 372 895Q363 895 352 893.50Q341 892 331 889Q302 881 296 900Q288 922 313 931Q345 943 388 943Q433 943 458.50 926Q484 909 484 881Q484 860 473 847.50Q462 835 447.50 826Q433 817 422 806Q411 795 411 776Q411 758 383 758Z"  horiz-adv-x="767" vert-adv-y="1000"  />

      
      <glyph glyph-name="uni01A0" unicode="&#x01A0;" d="M383-9Q285-9 212.50 35.50Q140 80 100.50 161Q61 242 61 353Q61 464 100 545Q139 626 211.50 670Q284 714 383 714Q483 714 555.50 670Q628 626 667.50 545.50Q707 465 707 354Q707 243 667 161.50Q627 80 554.50 35.50Q482-9 383-9M383 64Q496 64 558 140Q620 216 620 353Q620 490 558 565.50Q496 641 383 641Q272 641 210 565.50Q148 490 148 353Q148 217 210 140.50Q272 64 383 64M488 655L439 709Q465 707 484.50 706Q504 705 523 705Q586 705 609 731.50Q632 758 632 807Q632 842 668 842Q704 842 704 805Q704 739 665.50 697Q627 655 561 655L488 655Z"  horiz-adv-x="767" vert-adv-y="1000"  />

      
      <glyph glyph-name="uni1EDA" unicode="&#x1EDA;" d="M383-9Q285-9 212.50 35.50Q140 80 100.50 161Q61 242 61 353Q61 464 100 545Q139 626 211.50 670Q284 714 383 714Q483 714 555.50 670Q628 626 667.50 545.50Q707 465 707 354Q707 243 667 161.50Q627 80 554.50 35.50Q482-9 383-9M383 64Q496 64 558 140Q620 216 620 353Q620 490 558 565.50Q496 641 383 641Q272 641 210 565.50Q148 490 148 353Q148 217 210 140.50Q272 64 383 64M488 655L439 709Q465 707 484.50 706Q504 705 523 705Q586 705 609 731.50Q632 758 632 807Q632 842 668 842Q704 842 704 805Q704 739 665.50 697Q627 655 561 655L488 655M417 769Q406 757 392.50 759.50Q379 762 372 773.50Q365 785 374 799L463 928Q474 944 488.50 945.50Q503 947 514.50 939Q526 931 529.50 918Q533 905 521 892L417 769Z"  horiz-adv-x="767" vert-adv-y="1000"  />

      
      <glyph glyph-name="uni1EE2" unicode="&#x1EE2;" d="M383-9Q285-9 212.50 35.50Q140 80 100.50 161Q61 242 61 353Q61 464 100 545Q139 626 211.50 670Q284 714 383 714Q483 714 555.50 670Q628 626 667.50 545.50Q707 465 707 354Q707 243 667 161.50Q627 80 554.50 35.50Q482-9 383-9M383 64Q496 64 558 140Q620 216 620 353Q620 490 558 565.50Q496 641 383 641Q272 641 210 565.50Q148 490 148 353Q148 217 210 140.50Q272 64 383 64M488 655L439 709Q465 707 484.50 706Q504 705 523 705Q586 705 609 731.50Q632 758 632 807Q632 842 668 842Q704 842 704 805Q704 739 665.50 697Q627 655 561 655L488 655M383-191Q334-191 334-143Q334-96 383-96Q433-96 433-143Q433-191 383-191Z"  horiz-adv-x="767" vert-adv-y="1000"  />

      
      <glyph glyph-name="uni1EDC" unicode="&#x1EDC;" d="M383-9Q285-9 212.50 35.50Q140 80 100.50 161Q61 242 61 353Q61 464 100 545Q139 626 211.50 670Q284 714 383 714Q483 714 555.50 670Q628 626 667.50 545.50Q707 465 707 354Q707 243 667 161.50Q627 80 554.50 35.50Q482-9 383-9M383 64Q496 64 558 140Q620 216 620 353Q620 490 558 565.50Q496 641 383 641Q272 641 210 565.50Q148 490 148 353Q148 217 210 140.50Q272 64 383 64M488 655L439 709Q465 707 484.50 706Q504 705 523 705Q586 705 609 731.50Q632 758 632 807Q632 842 668 842Q704 842 704 805Q704 739 665.50 697Q627 655 561 655L488 655M347 769L243 892Q232 905 235 918Q238 931 249.50 939Q261 947 275.50 945.50Q290 944 301 928L390 799Q400 785 393 773.50Q386 762 372.50 759.50Q359 757 347 769Z"  horiz-adv-x="767" vert-adv-y="1000"  />

      
      <glyph glyph-name="uni1EDE" unicode="&#x1EDE;" d="M383-9Q285-9 212.50 35.50Q140 80 100.50 161Q61 242 61 353Q61 464 100 545Q139 626 211.50 670Q284 714 383 714Q483 714 555.50 670Q628 626 667.50 545.50Q707 465 707 354Q707 243 667 161.50Q627 80 554.50 35.50Q482-9 383-9M383 64Q496 64 558 140Q620 216 620 353Q620 490 558 565.50Q496 641 383 641Q272 641 210 565.50Q148 490 148 353Q148 217 210 140.50Q272 64 383 64M488 655L439 709Q465 707 484.50 706Q504 705 523 705Q586 705 609 731.50Q632 758 632 807Q632 842 668 842Q704 842 704 805Q704 739 665.50 697Q627 655 561 655L488 655M382 758Q354 758 354 781Q354 801 363.50 813.50Q373 826 385.50 835Q398 844 407.50 852Q417 860 417 872Q417 895 371 895Q362 895 351 893.50Q340 892 330 889Q301 881 295 900Q287 922 312 931Q344 943 387 943Q432 943 457.50 926Q483 909 483 881Q483 860 472 847.50Q461 835 446.50 826Q432 817 421 806Q410 795 410 776Q410 758 382 758Z"  horiz-adv-x="767" vert-adv-y="1000"  />

      
      <glyph glyph-name="uni1EE0" unicode="&#x1EE0;" d="M383-9Q285-9 212.50 35.50Q140 80 100.50 161Q61 242 61 353Q61 464 100 545Q139 626 211.50 670Q284 714 383 714Q483 714 555.50 670Q628 626 667.50 545.50Q707 465 707 354Q707 243 667 161.50Q627 80 554.50 35.50Q482-9 383-9M383 64Q496 64 558 140Q620 216 620 353Q620 490 558 565.50Q496 641 383 641Q272 641 210 565.50Q148 490 148 353Q148 217 210 140.50Q272 64 383 64M488 655L439 709Q465 707 484.50 706Q504 705 523 705Q586 705 609 731.50Q632 758 632 807Q632 842 668 842Q704 842 704 805Q704 739 665.50 697Q627 655 561 655L488 655M207 780Q197 780 190.50 787Q184 794 186 808Q195 860 225.50 889.50Q256 919 299 919Q325 919 345.50 907.50Q366 896 384.50 881Q403 866 420.50 854.50Q438 843 457 843Q482 843 499 860Q516 877 522 905Q528 926 548 925Q558 925 564.50 917.50Q571 910 569 897Q560 845 529.50 815.50Q499 786 456 786Q431 786 410 797.50Q389 809 370.50 824Q352 839 334.50 850.50Q317 862 298 862Q273 862 256 845Q239 828 233 800Q227 779 207 780Z"  horiz-adv-x="767" vert-adv-y="1000"  />

      
      <glyph glyph-name="uni0150" unicode="&#x0150;" d="M383-9Q285-9 212.50 35.50Q140 80 100.50 161Q61 242 61 353Q61 464 100 545Q139 626 211.50 670Q284 714 383 714Q483 714 555.50 670Q628 626 667.50 545.50Q707 465 707 354Q707 243 667 161.50Q627 80 554.50 35.50Q482-9 383-9M383 64Q496 64 558 140Q620 216 620 353Q620 490 558 565.50Q496 641 383 641Q272 641 210 565.50Q148 490 148 353Q148 217 210 140.50Q272 64 383 64M472 768Q463 756 451.50 757Q440 758 434 767.50Q428 777 436 790L506 925Q515 942 528.50 944.50Q542 947 553.50 941Q565 935 568.50 922.50Q572 910 561 895L472 768M347 769Q338 757 326 757.50Q314 758 307.50 767Q301 776 308 789L376 925Q384 941 397.50 944.50Q411 948 423 941.50Q435 935 439 922.50Q443 910 432 895L347 769Z"  horiz-adv-x="767" vert-adv-y="1000"  />

      
      <glyph glyph-name="uni020E" unicode="&#x020E;" d="M383-9Q285-9 212.50 35.50Q140 80 100.50 161Q61 242 61 353Q61 464 100 545Q139 626 211.50 670Q284 714 383 714Q483 714 555.50 670Q628 626 667.50 545.50Q707 465 707 354Q707 243 667 161.50Q627 80 554.50 35.50Q482-9 383-9M383 64Q496 64 558 140Q620 216 620 353Q620 490 558 565.50Q496 641 383 641Q272 641 210 565.50Q148 490 148 353Q148 217 210 140.50Q272 64 383 64M239 759Q228 760 221 768.50Q214 777 217 792Q232 865 278 900Q324 935 383 935Q442 935 488 900Q534 865 549 792Q552 777 545 768.50Q538 760 527 759Q515 758 507.50 765Q500 772 498 782Q486 836 453.50 858.50Q421 881 383 881Q345 881 312.50 858.50Q280 836 268 782Q266 772 258.50 765Q251 758 239 759Z"  horiz-adv-x="767" vert-adv-y="1000"  />

      
      <glyph glyph-name="uni014C" unicode="&#x014C;" d="M383-9Q285-9 212.50 35.50Q140 80 100.50 161Q61 242 61 353Q61 464 100 545Q139 626 211.50 670Q284 714 383 714Q483 714 555.50 670Q628 626 667.50 545.50Q707 465 707 354Q707 243 667 161.50Q627 80 554.50 35.50Q482-9 383-9M383 64Q496 64 558 140Q620 216 620 353Q620 490 558 565.50Q496 641 383 641Q272 641 210 565.50Q148 490 148 353Q148 217 210 140.50Q272 64 383 64M247 814Q218 814 218 842Q218 869 247 869L519 869Q549 869 549 842Q549 814 519 814L247 814Z"  horiz-adv-x="767" vert-adv-y="1000"  />

      
      <glyph glyph-name="uni1E52" unicode="&#x1E52;" d="M383-9Q285-9 212.50 35.50Q140 80 100.50 161Q61 242 61 353Q61 464 100 545Q139 626 211.50 670Q284 714 383 714Q483 714 555.50 670Q628 626 667.50 545.50Q707 465 707 354Q707 243 667 161.50Q627 80 554.50 35.50Q482-9 383-9M383 64Q496 64 558 140Q620 216 620 353Q620 490 558 565.50Q496 641 383 641Q272 641 210 565.50Q148 490 148 353Q148 217 210 140.50Q272 64 383 64M410 880Q400 868 387.50 870Q375 872 368.50 882.50Q362 893 370 908L437 1017Q447 1033 461 1036Q475 1039 487 1032Q499 1025 502.50 1012.50Q506 1000 495 986L410 880M262 790Q231 790 231 817Q231 845 262 845L504 845Q535 845 535 817Q535 790 504 790L262 790Z"  horiz-adv-x="767" vert-adv-y="1000"  />

      
      <glyph glyph-name="uni1E50" unicode="&#x1E50;" d="M383-9Q285-9 212.50 35.50Q140 80 100.50 161Q61 242 61 353Q61 464 100 545Q139 626 211.50 670Q284 714 383 714Q483 714 555.50 670Q628 626 667.50 545.50Q707 465 707 354Q707 243 667 161.50Q627 80 554.50 35.50Q482-9 383-9M383 64Q496 64 558 140Q620 216 620 353Q620 490 558 565.50Q496 641 383 641Q272 641 210 565.50Q148 490 148 353Q148 217 210 140.50Q272 64 383 64M356 880L271 986Q260 1000 263.50 1012.50Q267 1025 279 1032Q291 1039 305 1036Q319 1033 329 1017L396 908Q404 893 397.50 882.50Q391 872 378.50 870Q366 868 356 880M262 790Q231 790 231 817Q231 845 262 845L504 845Q535 845 535 817Q535 790 504 790L262 790Z"  horiz-adv-x="767" vert-adv-y="1000"  />

      
      <glyph glyph-name="uni01EA" unicode="&#x01EA;" d="M383-9Q285-9 212.50 35.50Q140 80 100.50 161Q61 242 61 353Q61 464 100 545Q139 626 211.50 670Q284 714 383 714Q483 714 555.50 670Q628 626 667.50 545.50Q707 465 707 354Q707 243 667 161.50Q627 80 554.50 35.50Q482-9 383-9M383 64Q496 64 558 140Q620 216 620 353Q620 490 558 565.50Q496 641 383 641Q272 641 210 565.50Q148 490 148 353Q148 217 210 140.50Q272 64 383 64M421-192Q373-192 344.50-166Q316-140 316-95Q316-55 341.50-20Q367 15 411 36L440 0Q416-10 395-32.50Q374-55 374-86Q374-115 390.50-128.50Q407-142 432-142Q448-142 467-136Q485-131 492.50-141Q500-151 497-164.50Q494-178 480-183Q465-189 450-190.50Q435-192 421-192Z"  horiz-adv-x="767" vert-adv-y="1000"  />

      
      <glyph glyph-name="unid8" unicode="&#xd8;" d="M383-9Q285-9 212.50 35.50Q140 80 100.50 161Q61 242 61 353Q61 464 100 545Q139 626 211.50 670Q284 714 383 714Q483 714 555.50 670Q628 626 667.50 545.50Q707 465 707 354Q707 243 667 161.50Q627 80 554.50 35.50Q482-9 383-9M383 64Q496 64 558 140Q620 216 620 353Q620 490 558 565.50Q496 641 383 641Q272 641 210 565.50Q148 490 148 353Q148 217 210 140.50Q272 64 383 64M201-26Q193-40 180-42.50Q167-45 155.50-38.50Q144-32 140-19Q136-6 145 9L186 79L210 119L506 625L525 660L566 731Q575 745 587.50 747Q600 749 611.50 742.50Q623 736 627 724Q631 712 622 696L581 626L557 586L262 80L243 46L201-26Z"  horiz-adv-x="767" vert-adv-y="1000"  />

      
      <glyph glyph-name="uni01FE" unicode="&#x01FE;" d="M383-9Q285-9 212.50 35.50Q140 80 100.50 161Q61 242 61 353Q61 464 100 545Q139 626 211.50 670Q284 714 383 714Q483 714 555.50 670Q628 626 667.50 545.50Q707 465 707 354Q707 243 667 161.50Q627 80 554.50 35.50Q482-9 383-9M383 64Q496 64 558 140Q620 216 620 353Q620 490 558 565.50Q496 641 383 641Q272 641 210 565.50Q148 490 148 353Q148 217 210 140.50Q272 64 383 64M201-26Q193-40 180-42.50Q167-45 155.50-38.50Q144-32 140-19Q136-6 145 9L186 79L210 119L506 625L525 660L566 731Q575 745 587.50 747Q600 749 611.50 742.50Q623 736 627 724Q631 712 622 696L581 626L557 586L262 80L243 46L201-26M418 769Q407 757 393.50 759.50Q380 762 373 773.50Q366 785 375 799L464 928Q475 944 489.50 945.50Q504 947 515.50 939Q527 931 530.50 918Q534 905 522 892L418 769Z"  horiz-adv-x="767" vert-adv-y="1000"  />

      
      <glyph glyph-name="unid5" unicode="&#xd5;" d="M383-9Q285-9 212.50 35.50Q140 80 100.50 161Q61 242 61 353Q61 464 100 545Q139 626 211.50 670Q284 714 383 714Q483 714 555.50 670Q628 626 667.50 545.50Q707 465 707 354Q707 243 667 161.50Q627 80 554.50 35.50Q482-9 383-9M383 64Q496 64 558 140Q620 216 620 353Q620 490 558 565.50Q496 641 383 641Q272 641 210 565.50Q148 490 148 353Q148 217 210 140.50Q272 64 383 64M199 780Q188 780 181.50 787.50Q175 795 177 808Q187 861 218 890Q249 919 294 919Q321 919 345.50 907.50Q370 896 392 881Q414 866 434.50 854.50Q455 843 475 843Q501 843 518.50 860Q536 877 541 905Q546 926 567 925Q578 925 584.50 917.50Q591 910 589 897Q579 844 548 815Q517 786 473 786Q446 786 421.50 797.50Q397 809 374.50 824Q352 839 331.50 850.50Q311 862 291 862Q265 862 247.50 845Q230 828 225 800Q220 779 199 780Z"  horiz-adv-x="767" vert-adv-y="1000"  />

      
      <glyph glyph-name="uni1E4C" unicode="&#x1E4C;" d="M383-9Q285-9 212.50 35.50Q140 80 100.50 161Q61 242 61 353Q61 464 100 545Q139 626 211.50 670Q284 714 383 714Q483 714 555.50 670Q628 626 667.50 545.50Q707 465 707 354Q707 243 667 161.50Q627 80 554.50 35.50Q482-9 383-9M383 64Q496 64 558 140Q620 216 620 353Q620 490 558 565.50Q496 641 383 641Q272 641 210 565.50Q148 490 148 353Q148 217 210 140.50Q272 64 383 64M410 880Q400 869 387.50 870.50Q375 872 368.50 882.50Q362 893 370 908L437 1017Q447 1033 461 1035.50Q475 1038 487 1031Q499 1024 502 1011Q505 998 494 984L410 880M248 766Q238 767 232 774.50Q226 782 230 796Q238 833 261.50 851.50Q285 870 319 870Q346 870 367 857Q388 844 407 831Q426 818 446 818Q482 818 491 851Q498 873 519 872Q529 871 534.50 863Q540 855 537 841Q528 805 504.50 786.50Q481 768 448 768Q421 768 399.50 781Q378 794 359 807Q340 820 320 820Q285 820 275 787Q269 765 248 766Z"  horiz-adv-x="767" vert-adv-y="1000"  />

      
      <glyph glyph-name="uni1E4E" unicode="&#x1E4E;" d="M383-9Q285-9 212.50 35.50Q140 80 100.50 161Q61 242 61 353Q61 464 100 545Q139 626 211.50 670Q284 714 383 714Q483 714 555.50 670Q628 626 667.50 545.50Q707 465 707 354Q707 243 667 161.50Q627 80 554.50 35.50Q482-9 383-9M383 64Q496 64 558 140Q620 216 620 353Q620 490 558 565.50Q496 641 383 641Q272 641 210 565.50Q148 490 148 353Q148 217 210 140.50Q272 64 383 64M296 908Q249 908 249 948Q249 988 296 988Q343 988 343 948Q343 908 296 908M471 908Q423 908 423 948Q423 988 471 988Q517 988 517 948Q517 908 471 908M248 766Q238 767 232 774.50Q226 782 230 796Q238 833 261.50 851.50Q285 870 319 870Q346 870 367 857Q388 844 407 831Q426 818 446 818Q482 818 491 851Q498 873 519 872Q529 871 534.50 863Q540 855 537 841Q528 805 504.50 786.50Q481 768 448 768Q421 768 399.50 781Q378 794 359 807Q340 820 320 820Q285 820 275 787Q269 765 248 766Z"  horiz-adv-x="767" vert-adv-y="1000"  />

      
      <glyph glyph-name="uni022C" unicode="&#x022C;" d="M383-9Q285-9 212.50 35.50Q140 80 100.50 161Q61 242 61 353Q61 464 100 545Q139 626 211.50 670Q284 714 383 714Q483 714 555.50 670Q628 626 667.50 545.50Q707 465 707 354Q707 243 667 161.50Q627 80 554.50 35.50Q482-9 383-9M383 64Q496 64 558 140Q620 216 620 353Q620 490 558 565.50Q496 641 383 641Q272 641 210 565.50Q148 490 148 353Q148 217 210 140.50Q272 64 383 64M262 926Q231 926 231 953Q231 981 262 981L504 981Q535 981 535 953Q535 926 504 926L262 926M248 766Q238 767 232 774.50Q226 782 230 796Q238 833 261.50 851.50Q285 870 319 870Q346 870 367 857Q388 844 407 831Q426 818 446 818Q482 818 491 851Q498 873 519 872Q529 871 534.50 863Q540 855 537 841Q528 805 504.50 786.50Q481 768 448 768Q421 768 399.50 781Q378 794 359 807Q340 820 320 820Q285 820 275 787Q269 765 248 766Z"  horiz-adv-x="767" vert-adv-y="1000"  />

      
      <glyph glyph-name="uni0152" unicode="&#x0152;" d="M418 0Q247 0 154 91Q61 182 61 353Q61 524 154 614.50Q247 705 418 705L967 705Q1003 705 1003 671Q1003 636 967 636L631 636L631 392L946 392Q982 392 982 358Q982 323 946 323L631 323L631 69L967 69Q1003 69 1003 35Q1003 0 967 0L418 0M424 70L551 70L551 635L424 635Q148 635 148 353Q148 70 424 70Z"  horiz-adv-x="1046" vert-adv-y="1000"  />

      
      <glyph glyph-name="uni50" unicode="&#x50;" d="M128-7Q87-7 87 36L87 663Q87 705 129 705L366 705Q480 705 540.50 650Q601 595 601 493Q601 392 540.50 336.50Q480 281 366 281L169 281L169 36Q169-7 128-7M169 350L356 350Q520 350 520 493Q520 637 356 637L169 637L169 350Z"  horiz-adv-x="633" vert-adv-y="1000"  />

      
      <glyph glyph-name="unide" unicode="&#xde;" d="M128-5Q87-5 87 38L87 667Q87 710 129 710Q169 710 169 671L169 577L367 577Q480 577 541 522Q602 467 602 366Q602 265 541 209.50Q480 154 367 154L169 154L169 38Q169-5 128-5M169 222L357 222Q520 222 520 366Q520 509 357 509L169 509L169 222Z"  horiz-adv-x="634" vert-adv-y="1000"  />

      
      <glyph glyph-name="uni51" unicode="&#x51;" d="M627-133Q639-151 634.50-166Q630-181 616.50-188Q603-195 586.50-191.50Q570-188 559-169L494-66Q460-9 383-9L383-9Q285-9 212.50 35.50Q140 80 100.50 161Q61 242 61 353Q61 464 100 545Q139 626 211.50 670Q284 714 383 714Q483 714 555.50 670Q628 626 667.50 545.50Q707 465 707 354Q707 225 653.50 136.50Q600 48 507 12Q528 5 545-11.50Q562-28 580-57L627-133M383 64Q496 64 558 140Q620 216 620 353Q620 490 558 565.50Q496 641 383 641Q272 641 210 565.50Q148 490 148 353Q148 217 210 140.50Q272 64 383 64Z"  horiz-adv-x="767" vert-adv-y="1000"  />

      
      <glyph glyph-name="uni52" unicode="&#x52;" d="M128-7Q87-7 87 36L87 663Q87 705 129 705L366 705Q480 705 540.50 652Q601 599 601 501Q601 423 558.50 373Q516 323 438 308Q484 292 517 230L613 51Q624 30 617 11.50Q610-7 585-7Q568-7 557 0.50Q546 8 538 24L429 226Q406 269 376 283.50Q346 298 297 298L169 298L169 36Q169-7 128-7M169 363L354 363Q520 363 520 501Q520 637 354 637L169 637L169 363Z"  horiz-adv-x="669" vert-adv-y="1000"  />

      
      <glyph glyph-name="uni0154" unicode="&#x0154;" d="M128-7Q87-7 87 36L87 663Q87 705 129 705L366 705Q480 705 540.50 652Q601 599 601 501Q601 423 558.50 373Q516 323 438 308Q484 292 517 230L613 51Q624 30 617 11.50Q610-7 585-7Q568-7 557 0.50Q546 8 538 24L429 226Q406 269 376 283.50Q346 298 297 298L169 298L169 36Q169-7 128-7M169 363L354 363Q520 363 520 501Q520 637 354 637L169 637L169 363M376 769Q365 757 351.50 759.50Q338 762 331 773.50Q324 785 333 799L422 928Q433 944 447.50 945.50Q462 947 473.50 939Q485 931 488.50 918Q492 905 480 892L376 769Z"  horiz-adv-x="669" vert-adv-y="1000"  />

      
      <glyph glyph-name="uni0158" unicode="&#x0158;" d="M128-7Q87-7 87 36L87 663Q87 705 129 705L366 705Q480 705 540.50 652Q601 599 601 501Q601 423 558.50 373Q516 323 438 308Q484 292 517 230L613 51Q624 30 617 11.50Q610-7 585-7Q568-7 557 0.50Q546 8 538 24L429 226Q406 269 376 283.50Q346 298 297 298L169 298L169 36Q169-7 128-7M169 363L354 363Q520 363 520 501Q520 637 354 637L169 637L169 363M341 756Q309 756 290 783L202 907Q192 921 198.50 932Q205 943 219 944.50Q233 946 245 933L341 818L438 933Q449 946 463 944.50Q477 943 483.50 932Q490 921 480 907L393 783Q374 756 341 756Z"  horiz-adv-x="669" vert-adv-y="1000"  />

      
      <glyph glyph-name="uni0156" unicode="&#x0156;" d="M128-7Q87-7 87 36L87 663Q87 705 129 705L366 705Q480 705 540.50 652Q601 599 601 501Q601 423 558.50 373Q516 323 438 308Q484 292 517 230L613 51Q624 30 617 11.50Q610-7 585-7Q568-7 557 0.50Q546 8 538 24L429 226Q406 269 376 283.50Q346 298 297 298L169 298L169 36Q169-7 128-7M169 363L354 363Q520 363 520 501Q520 637 354 637L169 637L169 363M355-250Q343-264 330.50-262.50Q318-261 313-250Q308-239 319-222Q327-210 332-196.50Q337-183 339-171Q316-170 302.50-157Q289-144 289-123Q289-101 302.50-88Q316-75 340-75Q392-75 392-133Q392-162 383-194Q374-226 355-250Z"  horiz-adv-x="669" vert-adv-y="1000"  />

      
      <glyph glyph-name="uni0210" unicode="&#x0210;" d="M128-7Q87-7 87 36L87 663Q87 705 129 705L366 705Q480 705 540.50 652Q601 599 601 501Q601 423 558.50 373Q516 323 438 308Q484 292 517 230L613 51Q624 30 617 11.50Q610-7 585-7Q568-7 557 0.50Q546 8 538 24L429 226Q406 269 376 283.50Q346 298 297 298L169 298L169 36Q169-7 128-7M169 363L354 363Q520 363 520 501Q520 637 354 637L169 637L169 363M252 768L163 895Q152 910 156 922.50Q160 935 171.50 941.50Q183 948 196.50 945Q210 942 218 925L288 790Q295 777 289 767.50Q283 758 272 757Q261 756 252 768M377 769L292 895Q281 910 285 922.50Q289 935 301 941.50Q313 948 326.50 944.50Q340 941 348 925L417 789Q423 776 416.50 767Q410 758 398 757.50Q386 757 377 769Z"  horiz-adv-x="669" vert-adv-y="1000"  />

      
      <glyph glyph-name="uni1E5A" unicode="&#x1E5A;" d="M128-7Q87-7 87 36L87 663Q87 705 129 705L366 705Q480 705 540.50 652Q601 599 601 501Q601 423 558.50 373Q516 323 438 308Q484 292 517 230L613 51Q624 30 617 11.50Q610-7 585-7Q568-7 557 0.50Q546 8 538 24L429 226Q406 269 376 283.50Q346 298 297 298L169 298L169 36Q169-7 128-7M169 363L354 363Q520 363 520 501Q520 637 354 637L169 637L169 363M341-191Q292-191 292-143Q292-96 341-96Q391-96 391-143Q391-191 341-191Z"  horiz-adv-x="669" vert-adv-y="1000"  />

      
      <glyph glyph-name="uni0212" unicode="&#x0212;" d="M128-7Q87-7 87 36L87 663Q87 705 129 705L366 705Q480 705 540.50 652Q601 599 601 501Q601 423 558.50 373Q516 323 438 308Q484 292 517 230L613 51Q624 30 617 11.50Q610-7 585-7Q568-7 557 0.50Q546 8 538 24L429 226Q406 269 376 283.50Q346 298 297 298L169 298L169 36Q169-7 128-7M169 363L354 363Q520 363 520 501Q520 637 354 637L169 637L169 363M197 759Q186 760 179 768.50Q172 777 175 792Q190 865 236 900Q282 935 341 935Q400 935 446 900Q492 865 507 792Q510 777 503 768.50Q496 760 485 759Q473 758 465.50 765Q458 772 456 782Q444 836 411.50 858.50Q379 881 341 881Q303 881 270.50 858.50Q238 836 226 782Q224 772 216.50 765Q209 758 197 759Z"  horiz-adv-x="669" vert-adv-y="1000"  />

      
      <glyph glyph-name="uni1E5E" unicode="&#x1E5E;" d="M128-7Q87-7 87 36L87 663Q87 705 129 705L366 705Q480 705 540.50 652Q601 599 601 501Q601 423 558.50 373Q516 323 438 308Q484 292 517 230L613 51Q624 30 617 11.50Q610-7 585-7Q568-7 557 0.50Q546 8 538 24L429 226Q406 269 376 283.50Q346 298 297 298L169 298L169 36Q169-7 128-7M169 363L354 363Q520 363 520 501Q520 637 354 637L169 637L169 363M220-156Q191-156 191-129Q191-101 220-101L462-101Q492-101 492-129Q492-156 462-156L220-156Z"  horiz-adv-x="669" vert-adv-y="1000"  />

      
      <glyph glyph-name="uni53" unicode="&#x53;" d="M315-9Q243-9 179.50 8.50Q116 26 70 60Q54 71 51 86Q48 101 54.50 114Q61 127 74 131.50Q87 136 104 125Q149 92 200 78Q251 64 315 64Q405 64 448.50 97.50Q492 131 492 186Q492 230 460.50 256Q429 282 355 297L251 318Q157 338 110.50 383.50Q64 429 64 505Q64 568 96.50 615Q129 662 187 688Q245 714 321 714Q384 714 438.50 696.50Q493 679 537 644Q551 633 553.50 618.50Q556 604 549 592Q542 580 529 576.50Q516 573 498 584Q458 615 414.50 628Q371 641 320 641Q241 641 194 604.50Q147 568 147 508Q147 460 176.50 432Q206 404 273 391L377 369Q478 348 526.50 305.50Q575 263 575 190Q575 131 543.50 86Q512 41 453.50 16Q395-9 315-9Z"  horiz-adv-x="615" vert-adv-y="1000"  />

      
      <glyph glyph-name="uni015A" unicode="&#x015A;" d="M315-9Q243-9 179.50 8.50Q116 26 70 60Q54 71 51 86Q48 101 54.50 114Q61 127 74 131.50Q87 136 104 125Q149 92 200 78Q251 64 315 64Q405 64 448.50 97.50Q492 131 492 186Q492 230 460.50 256Q429 282 355 297L251 318Q157 338 110.50 383.50Q64 429 64 505Q64 568 96.50 615Q129 662 187 688Q245 714 321 714Q384 714 438.50 696.50Q493 679 537 644Q551 633 553.50 618.50Q556 604 549 592Q542 580 529 576.50Q516 573 498 584Q458 615 414.50 628Q371 641 320 641Q241 641 194 604.50Q147 568 147 508Q147 460 176.50 432Q206 404 273 391L377 369Q478 348 526.50 305.50Q575 263 575 190Q575 131 543.50 86Q512 41 453.50 16Q395-9 315-9M349 769Q338 757 324.50 759.50Q311 762 304 773.50Q297 785 306 799L395 928Q406 944 420.50 945.50Q435 947 446.50 939Q458 931 461.50 918Q465 905 453 892L349 769Z"  horiz-adv-x="615" vert-adv-y="1000"  />

      
      <glyph glyph-name="uni1E64" unicode="&#x1E64;" d="M315-9Q243-9 179.50 8.50Q116 26 70 60Q54 71 51 86Q48 101 54.50 114Q61 127 74 131.50Q87 136 104 125Q149 92 200 78Q251 64 315 64Q405 64 448.50 97.50Q492 131 492 186Q492 230 460.50 256Q429 282 355 297L251 318Q157 338 110.50 383.50Q64 429 64 505Q64 568 96.50 615Q129 662 187 688Q245 714 321 714Q384 714 438.50 696.50Q493 679 537 644Q551 633 553.50 618.50Q556 604 549 592Q542 580 529 576.50Q516 573 498 584Q458 615 414.50 628Q371 641 320 641Q241 641 194 604.50Q147 568 147 508Q147 460 176.50 432Q206 404 273 391L377 369Q478 348 526.50 305.50Q575 263 575 190Q575 131 543.50 86Q512 41 453.50 16Q395-9 315-9M272 936Q224 936 224 977Q224 1017 272 1017Q318 1017 318 977Q318 936 272 936M348 768Q337 755 323 757.50Q309 760 302.50 772Q296 784 306 799L396 929Q408 947 422.50 949Q437 951 448.50 943Q460 935 463 921Q466 907 453 893L348 768Z"  horiz-adv-x="615" vert-adv-y="1000"  />

      
      </font>
</defs>
</svg>
