<svg width="67" height="75" fill="none" xmlns="http://www.w3.org/2000/svg"><path d="M14.958 74.583h37.084a3.708 3.708 0 003.67-3.181l6.961-48.735h4.202V15.25H61.75L55.357 2.467a3.7 3.7 0 00-3.315-2.05H14.958a3.712 3.712 0 00-3.319 2.05L5.25 15.25H.126v7.417h4.202l6.96 48.735a3.709 3.709 0 003.671 3.181zm38.634-40.791H13.408l-1.59-11.125h43.36l-1.586 11.125zM18.174 67.167l-1.591-11.125h33.83l-1.59 11.125h-30.65zM17.25 7.833h32.5l3.708 7.417H13.542l3.708-7.417z" fill="#E5E9F0"/></svg>11.4138 72.2849 11.8548 73.0929 12.5291 73.6774C13.2035 74.2618 14.066 74.5835 14.9583 74.5833ZM53.5917 33.7917H13.4082L11.8174 22.6667H55.1789L53.5917 33.7917ZM18.1735 67.1667L16.5826 56.0417H50.4137L48.8228 67.1667H18.1735ZM17.2501 7.83333H49.7499L53.4582 15.25H13.5417L17.2501 7.83333Z" fill="#E5E9F0"/>
</svg>
