<svg width="65" height="72" fill="none" xmlns="http://www.w3.org/2000/svg"><path d="M60.836.831v9.601H16.033v54.404h44.803v6.401H.031V7.232c0-3.553 2.849-6.4 6.4-6.4h54.405zm3.2 38.403v6.4a6.378 6.378 0 01-6.4 6.401h-6.4c0 9.601-9.601 9.601-12.801 9.601-3.2 0-12.802 0-12.802-9.6V32.833h32.003a6.4 6.4 0 016.4 6.4zm-6.4 0h-6.4v6.4h6.4v-6.4zm-9.6-12.8l6.4-12.802H22.433l6.4 12.801h19.202z" fill="#E5E9F0"/></svg>354V32.8338H57.6362C59.3337 32.8338 60.9617 33.5082 62.162 34.7085C63.3623 35.9089 64.0367 37.5368 64.0367 39.2344ZM57.6362 39.2344H51.2356V45.6349H57.6362V39.2344ZM48.0354 26.4333L54.4359 13.6323H22.4332L28.8338 26.4333H48.0354Z" fill="#E5E9F0"/>
</svg>
