<svg width="23" height="31" viewBox="0 0 23 31" fill="none" xmlns="http://www.w3.org/2000/svg">
<path fill-rule="evenodd" clip-rule="evenodd" d="M6.57059 0C3.20597 0 0.499965 2.65179 0.499965 5.90033C0.499965 7.87529 1.50097 9.62938 3.03959 10.7002C2.2466 11.2583 1.60383 11.9832 1.1628 12.8167C0.721779 13.6502 0.494766 14.5692 0.499965 15.5C0.499965 17.4762 1.50097 19.229 3.03959 20.2998C2.2466 20.8579 1.60383 21.5828 1.1628 22.4163C0.721779 23.2499 0.494766 24.1689 0.499965 25.0997C0.499965 28.3482 3.20597 31 6.57059 31C9.93384 31 12.6412 28.3482 12.6412 25.0997V20.1112C13.7045 20.9441 15.0449 21.4007 16.4293 21.4016C19.794 21.4003 22.5 18.7485 22.5 15.5C22.5 13.5237 21.5003 11.771 19.9603 10.7002C20.7533 10.1421 21.3961 9.41718 21.8371 8.58366C22.2782 7.75013 22.5052 6.83113 22.5 5.90033C22.5 2.65179 19.794 0 16.4293 0H6.57059ZM2.78109 5.90033C2.78109 3.84529 4.48884 2.19971 6.57059 2.19971H10.3587V9.60096H6.57059C4.48884 9.60096 2.78109 7.95408 2.78109 5.90033ZM16.4293 9.59967H12.6412V2.19842H16.4293C18.5125 2.19842 20.2188 3.84529 20.2188 5.90033C20.2188 7.95408 18.5125 9.59967 16.4293 9.59967ZM2.78247 15.5C2.78247 13.4462 4.49022 11.7994 6.57197 11.7994H10.3601V19.2006H6.57059C4.48747 19.2006 2.78109 17.5537 2.78109 15.5H2.78247ZM12.6412 15.5C12.6412 13.4462 14.349 11.7994 16.4307 11.7994C18.5138 11.7994 20.2202 13.445 20.2202 15.5C20.2202 17.5537 18.5138 19.2006 16.4307 19.2006C14.349 19.2006 12.6426 17.555 12.6426 15.5H12.6412ZM2.78247 25.0997C2.78247 23.0459 4.49022 21.4003 6.57197 21.4003H10.3601V25.0997C10.3601 27.1547 8.65509 28.8003 6.57197 28.8003C4.49022 28.8003 2.78247 27.1547 2.78247 25.0997Z" fill="#5E81AC"/>
</svg>
