<svg width="43" height="24" viewBox="0 0 43 24" fill="none" xmlns="http://www.w3.org/2000/svg">
<path d="M21.5 0.625C9.72425 0.625 0.5 5.62125 0.5 12C0.5 18.3787 9.72425 23.375 21.5 23.375C33.2757 23.375 42.5 18.3787 42.5 12C42.5 5.62125 33.2757 0.625 21.5 0.625ZM19.3195 4.125H21.612L20.884 7.625H22.9315C24.23 7.625 25.1015 7.807 25.5985 8.26025C26.0833 8.70825 26.2302 9.44325 26.036 10.4442L25.126 14.625H22.795L23.6332 10.7592C23.7347 10.229 23.6945 9.85975 23.516 9.6655C23.3393 9.47125 22.949 9.375 22.3645 9.375H20.5287L19.421 14.625H17.125L19.3195 4.125ZM9.25 7.625H13.9155C16.1397 7.625 17.4872 9.116 16.9605 11.3402C16.348 13.925 14.71 14.625 11.693 14.625H10.251L9.79425 17.25H7.4755L9.25 7.625ZM27.625 7.625H32.2905C34.5148 7.625 35.8623 9.116 35.3355 11.3402C34.723 13.925 33.0832 14.625 30.068 14.625H28.626L28.1693 17.25H25.8505L27.625 7.625ZM11.2362 9.375L10.5765 12.875H12.0728C13.3678 12.875 14.5718 12.728 14.773 10.796C14.8483 10.0487 14.5367 9.375 13.0405 9.375H11.2362ZM29.6112 9.375L28.9515 12.875H30.4478C31.7428 12.875 32.9468 12.728 33.148 10.796C33.2233 10.0487 32.9135 9.375 31.4155 9.375H29.6112Z" fill="#5E81AC"/>
</svg>
