<svg width="35" height="25" viewBox="0 0 35 25" fill="none" xmlns="http://www.w3.org/2000/svg">
<path d="M2.45833 0H14.75C15.402 0 16.0273 0.259003 16.4883 0.72003C16.9493 1.18106 17.2083 1.80634 17.2083 2.45833C17.2083 3.11032 16.9493 3.73561 16.4883 4.19664C16.0273 4.65766 15.402 4.91667 14.75 4.91667H2.45833C1.80634 4.91667 1.18106 4.65766 0.72003 4.19664C0.259003 3.73561 0 3.11032 0 2.45833C0 1.80634 0.259003 1.18106 0.72003 0.72003C1.18106 0.259003 1.80634 0 2.45833 0V0ZM19.6667 19.6667H31.9583C32.6103 19.6667 33.2356 19.9257 33.6966 20.3867C34.1577 20.8477 34.4167 21.473 34.4167 22.125C34.4167 22.777 34.1577 23.4023 33.6966 23.8633C33.2356 24.3243 32.6103 24.5833 31.9583 24.5833H19.6667C19.0147 24.5833 18.3894 24.3243 17.9284 23.8633C17.4673 23.4023 17.2083 22.777 17.2083 22.125C17.2083 21.473 17.4673 20.8477 17.9284 20.3867C18.3894 19.9257 19.0147 19.6667 19.6667 19.6667V19.6667ZM2.45833 9.83333H31.9583C32.6103 9.83333 33.2356 10.0923 33.6966 10.5534C34.1577 11.0144 34.4167 11.6397 34.4167 12.2917C34.4167 12.9437 34.1577 13.5689 33.6966 14.03C33.2356 14.491 32.6103 14.75 31.9583 14.75H2.45833C1.80634 14.75 1.18106 14.491 0.72003 14.03C0.259003 13.5689 0 12.9437 0 12.2917C0 11.6397 0.259003 11.0144 0.72003 10.5534C1.18106 10.0923 1.80634 9.83333 2.45833 9.83333Z" fill="#ECEFF4"/>
</svg>
