<svg width="35" height="25" viewBox="0 0 35 25" fill="none" xmlns="http://www.w3.org/2000/svg">
<path d="M2.74996 0.208328H15.0416C15.6936 0.208328 16.3189 0.467331 16.7799 0.928358C17.241 1.38938 17.5 2.01467 17.5 2.66666C17.5 3.31865 17.241 3.94394 16.7799 4.40497C16.3189 4.86599 15.6936 5.125 15.0416 5.125H2.74996C2.09797 5.125 1.47268 4.86599 1.01166 4.40497C0.550629 3.94394 0.291626 3.31865 0.291626 2.66666C0.291626 2.01467 0.550629 1.38938 1.01166 0.928358C1.47268 0.467331 2.09797 0.208328 2.74996 0.208328V0.208328ZM19.9583 19.875H32.25C32.902 19.875 33.5272 20.134 33.9883 20.595C34.4493 21.0561 34.7083 21.6813 34.7083 22.3333C34.7083 22.9853 34.4493 23.6106 33.9883 24.0716C33.5272 24.5327 32.902 24.7917 32.25 24.7917H19.9583C19.3063 24.7917 18.681 24.5327 18.22 24.0716C17.759 23.6106 17.5 22.9853 17.5 22.3333C17.5 21.6813 17.759 21.0561 18.22 20.595C18.681 20.134 19.3063 19.875 19.9583 19.875V19.875ZM2.74996 10.0417H32.25C32.902 10.0417 33.5272 10.3007 33.9883 10.7617C34.4493 11.2227 34.7083 11.848 34.7083 12.5C34.7083 13.152 34.4493 13.7773 33.9883 14.2383C33.5272 14.6993 32.902 14.9583 32.25 14.9583H2.74996C2.09797 14.9583 1.47268 14.6993 1.01166 14.2383C0.550629 13.7773 0.291626 13.152 0.291626 12.5C0.291626 11.848 0.550629 11.2227 1.01166 10.7617C1.47268 10.3007 2.09797 10.0417 2.74996 10.0417Z" fill="#3B4252"/>
</svg>
