<svg width="2971" height="533" fill="none" xmlns="http://www.w3.org/2000/svg"><path d="M0 136.839L55.0873 108.37C110.484 80.2102 220.659 23.2725 330.524 22.963C440.389 22.3441 549.944 78.0441 659.81 95.0635C769.675 112.083 879.849 90.4219 990.333 61.0247C1100.82 31.6274 1210.99 -5.5059 1320.86 0.682987C1430.72 6.87188 1540.28 56.383 1650.14 67.8325C1760.01 78.9725 1870.18 52.3602 1980.67 52.6696C2091.15 53.2885 2201.33 81.1385 2311.19 85.7802C2421.06 90.4219 2530.61 71.8552 2640.48 69.3797C2750.34 66.5947 2860.52 80.2102 2915.91 86.7085L2971 93.5163V532.927H0V136.839Z" fill="#777E8D"/><path d="M0 192.539L55.0873 194.705C110.484 196.562 220.659 200.894 330.524 181.089C440.389 161.594 549.944 118.272 659.81 109.917C769.675 101.871 879.849 128.484 990.333 153.239C1100.82 177.995 1210.99 200.894 1320.86 200.275C1430.72 199.656 1540.28 176.138 1650.14 149.217C1760.01 122.295 1870.18 92.5882 1980.67 101.872C2091.15 111.155 2201.33 159.428 2311.19 185.422C2421.06 211.105 2530.61 214.2 2640.48 190.373C2750.34 166.855 2860.52 116.106 2915.91 91.041L2971 65.6665V532.928H0V192.539Z" fill="#676E7E"/><path d="M0 201.822L55.0873 212.034C110.484 222.555 220.659 242.978 330.524 252.261C440.389 261.545 549.944 259.688 659.81 261.235C769.675 262.783 879.849 267.734 990.333 256.903C1100.82 246.073 1210.99 219.46 1320.86 207.392C1430.72 195.633 1540.28 198.728 1650.14 213.581C1760.01 228.744 1870.18 255.356 1980.67 253.499C2091.15 251.333 2201.33 220.389 2311.19 224.411C2421.06 228.744 2530.61 267.734 2640.48 269.281C2750.34 270.828 2860.52 234.933 2915.91 216.675L2971 198.728V532.928H0V201.822Z" fill="#585F6F"/><path d="M0 359.639L55.0873 361.805C110.484 363.661 220.659 367.994 330.524 369.541C440.389 371.088 549.944 369.85 659.81 357.472C769.675 345.095 879.849 321.577 990.333 323.124C1100.82 324.671 1210.99 351.284 1320.86 345.714C1430.72 340.144 1540.28 301.772 1650.14 290.014C1760.01 278.255 1870.18 292.489 1980.67 306.105C2091.15 319.411 2201.33 331.789 2311.19 340.453C2421.06 349.427 2530.61 354.378 2640.48 352.521C2750.34 350.355 2860.52 341.072 2915.91 336.43L2971 331.789V532.927H0V359.639Z" fill="#495060"/><path d="M0 378.205L55.0873 388.417C110.484 398.938 220.659 419.361 330.524 419.052C440.389 418.433 549.944 396.772 659.81 391.511C769.675 386.56 879.849 397.7 990.333 405.436C1100.82 413.172 1210.99 417.505 1320.86 419.361C1430.72 421.527 1540.28 421.528 1650.14 419.98C1760.01 418.433 1870.18 415.339 1980.67 417.814C2091.15 420.599 2201.33 428.645 2311.19 426.169C2421.06 423.694 2530.61 410.078 2640.48 399.866C2750.34 389.655 2860.52 382.228 2915.91 378.824L2971 375.111V532.928H0V378.205Z" fill="#3B4252"/></svg>