<svg width="244" height="170" viewBox="0 0 244 170" fill="none" xmlns="http://www.w3.org/2000/svg">
<g clip-path="url(#clip0)">
<path d="M141.455 166.228C139.653 167.519 137.701 168.585 135.64 169.4C135.1 169.616 134.557 169.817 134.006 170H105.838C105.724 169.802 105.613 169.601 105.499 169.4C103.214 165.311 101.142 161.062 100.554 156.442C99.8494 150.895 101.826 144.614 106.711 141.889C107.351 141.532 108.029 141.248 108.732 141.043C109.023 140.953 109.32 140.881 109.62 140.818C111.451 140.412 113.357 140.5 115.142 141.075C116.928 141.649 118.528 142.689 119.779 144.087C121.029 145.484 121.885 147.19 122.258 149.028C122.63 150.866 122.507 152.77 121.9 154.544C126.041 150.299 125.267 143.415 123.84 137.661C122.409 131.907 120.676 125.503 123.588 120.334C125.204 117.459 128.05 115.675 131.241 114.955C131.34 114.934 131.439 114.913 131.535 114.895C135.339 114.125 139.294 114.818 142.609 116.835C148.715 120.679 151.848 127.974 152.865 135.116C154.505 146.611 150.877 159.437 141.455 166.228Z" fill="#F2F2F2"/>
<path d="M111.83 144.482C114.085 149.059 114.804 154.242 113.881 159.26C113.184 162.94 111.649 166.41 109.395 169.4C109.242 169.604 109.086 169.805 108.927 170H107.814C107.985 169.805 108.153 169.604 108.312 169.4C110.36 166.85 111.844 163.895 112.668 160.73C113.492 157.565 113.637 154.261 113.092 151.036C112.446 147.408 110.952 143.984 108.732 141.043C109.023 140.953 109.32 140.881 109.619 140.818C110.464 141.971 111.204 143.197 111.83 144.482Z" fill="white"/>
<path d="M138.777 147.801C138.536 150.336 137.927 152.823 136.968 155.183C136.085 157.271 134.894 159.215 133.436 160.951C130.458 164.534 126.518 167.23 122.238 169.022C121.926 169.154 121.612 169.28 121.294 169.4C120.742 169.616 120.184 169.814 119.623 170H116.586C117.302 169.82 118.016 169.619 118.721 169.4C120.396 168.879 122.031 168.235 123.612 167.472C127.63 165.568 131.118 162.707 133.772 159.14C136.617 155.213 137.874 150.49 138.09 145.69C138.318 140.554 137.649 135.325 136.477 130.327C135.28 125.204 133.46 120.247 131.058 115.567C131.004 115.461 130.993 115.338 131.027 115.225C131.061 115.111 131.138 115.014 131.241 114.955C131.327 114.898 131.433 114.877 131.535 114.895C131.585 114.908 131.631 114.932 131.67 114.965C131.71 114.998 131.741 115.04 131.762 115.087C132.059 115.666 132.35 116.245 132.629 116.829C134.958 121.704 136.673 126.848 137.736 132.144C138.765 137.253 139.316 142.599 138.777 147.801Z" fill="white"/>
<path d="M13.5142 84.85C11.0231 84.85 8.58804 84.1114 6.51682 82.7277C4.4456 81.3441 2.83127 79.3774 1.87799 77.0764C0.924713 74.7754 0.675295 72.2434 1.16127 69.8007C1.64725 67.358 2.8468 65.1142 4.60823 63.3531C6.36966 61.592 8.61386 60.3927 11.057 59.9068C13.5002 59.4209 16.0326 59.6703 18.3341 60.6234C20.6355 61.5765 22.6025 63.1905 23.9865 65.2613C25.3704 67.3322 26.1091 69.7668 26.1091 72.2574C26.1053 75.596 24.7771 78.7968 22.416 81.1575C20.0548 83.5183 16.8534 84.8462 13.5142 84.85ZM13.5142 60.2645C11.1418 60.2645 8.82262 60.9678 6.85003 62.2856C4.87743 63.6034 3.33998 65.4765 2.4321 67.6679C1.52421 69.8593 1.28667 72.2707 1.7495 74.5971C2.21234 76.9235 3.35477 79.0604 5.03232 80.7377C6.70988 82.4149 8.84721 83.5571 11.174 84.0199C13.5009 84.4826 15.9127 84.2451 18.1045 83.3374C20.2964 82.4297 22.1698 80.8925 23.4878 78.9203C24.8058 76.9481 25.5093 74.6294 25.5093 72.2574C25.5058 69.0778 24.2408 66.0294 21.9921 63.7811C19.7433 61.5327 16.6944 60.268 13.5142 60.2645Z" fill="#3F3D56"/>
<path d="M64.4936 44.3739C62.0026 44.3739 59.5675 43.6354 57.4962 42.2517C55.425 40.868 53.8107 38.9013 52.8574 36.6003C51.9041 34.2993 51.6547 31.7673 52.1407 29.3246C52.6267 26.8819 53.8262 24.6381 55.5877 22.877C57.3491 21.1159 59.5933 19.9166 62.0365 19.4307C64.4796 18.9448 67.0121 19.1942 69.3135 20.1473C71.6149 21.1004 73.582 22.7144 74.9659 24.7852C76.3499 26.8561 77.0885 29.2907 77.0885 31.7813C77.0848 35.1199 75.7566 38.3207 73.3954 40.6814C71.0342 43.0422 67.8328 44.3701 64.4936 44.3739ZM64.4936 19.7884C62.1212 19.7884 59.8021 20.4917 57.8295 21.8095C55.8569 23.1273 54.3194 25.0004 53.4115 27.1918C52.5036 29.3832 52.2661 31.7946 52.7289 34.121C53.1918 36.4474 54.3342 38.5844 56.0118 40.2616C57.6893 41.9389 59.8266 43.0811 62.1535 43.5438C64.4803 44.0066 66.8921 43.7691 69.084 42.8613C71.2758 41.9536 73.1492 40.4165 74.4672 38.4442C75.7853 36.472 76.4888 34.1533 76.4888 31.7813C76.4852 28.6017 75.2203 25.5533 72.9715 23.305C70.7228 21.0567 67.6738 19.792 64.4936 19.7884Z" fill="#3F3D56"/>
<path d="M119.072 25.1852C116.581 25.1852 114.146 24.4466 112.074 23.063C110.003 21.6793 108.389 19.7126 107.435 17.4116C106.482 15.1106 106.233 12.5786 106.719 10.1359C107.205 7.69318 108.404 5.44939 110.166 3.68829C111.927 1.92718 114.171 0.727857 116.614 0.241969C119.058 -0.243919 121.59 0.00545698 123.892 0.958561C126.193 1.91166 128.16 3.52568 129.544 5.59653C130.928 7.66737 131.667 10.102 131.667 12.5926C131.663 15.9312 130.335 19.132 127.973 21.4927C125.612 23.8535 122.411 25.1814 119.072 25.1852ZM119.072 0.599652C116.699 0.599652 114.38 1.30302 112.407 2.62083C110.435 3.93863 108.897 5.81167 107.99 8.00309C107.082 10.1945 106.844 12.6059 107.307 14.9323C107.77 17.2587 108.912 19.3956 110.59 21.0729C112.267 22.7501 114.405 23.8924 116.732 24.3551C119.058 24.8179 121.47 24.5804 123.662 23.6726C125.854 22.7649 127.727 21.2278 129.045 19.2555C130.363 17.2833 131.067 14.9646 131.067 12.5926C131.063 9.41297 129.798 6.3646 127.55 4.11627C125.301 1.86793 122.252 0.603239 119.072 0.599652Z" fill="#3F3D56"/>
<path d="M177.248 44.9735C174.757 44.9735 172.322 44.235 170.251 42.8513C168.18 41.4676 166.565 39.5009 165.612 37.1999C164.659 34.8989 164.409 32.367 164.895 29.9242C165.381 27.4815 166.581 25.2377 168.342 23.4766C170.104 21.7155 172.348 20.5162 174.791 20.0303C177.234 19.5444 179.767 19.7938 182.068 20.7469C184.369 21.7 186.337 23.314 187.72 25.3849C189.104 27.4557 189.843 29.8903 189.843 32.3809C189.839 35.7195 188.511 38.9203 186.15 41.2811C183.789 43.6418 180.587 44.9697 177.248 44.9735ZM177.248 20.388C174.876 20.388 172.557 21.0914 170.584 22.4092C168.611 23.727 167.074 25.6 166.166 27.7914C165.258 29.9828 165.021 32.3942 165.484 34.7206C165.946 37.047 167.089 39.184 168.766 40.8612C170.444 42.5385 172.581 43.6807 174.908 44.1434C177.235 44.6062 179.647 44.3687 181.839 43.461C184.03 42.5532 185.904 41.0161 187.222 39.0439C188.54 37.0716 189.243 34.7529 189.243 32.3809C189.24 29.2013 187.975 26.1529 185.726 23.9046C183.477 21.6563 180.428 20.3916 177.248 20.388Z" fill="#3F3D56"/>
<path d="M230.627 75.2558C228.136 75.2558 225.701 74.5172 223.629 73.1335C221.558 71.7498 219.944 69.7831 218.99 67.4821C218.037 65.1811 217.788 62.6492 218.274 60.2065C218.76 57.7637 219.959 55.52 221.721 53.7589C223.482 51.9977 225.726 50.7984 228.17 50.3125C230.613 49.8266 233.145 50.076 235.447 51.0291C237.748 51.9822 239.715 53.5962 241.099 55.6671C242.483 57.7379 243.222 60.1726 243.222 62.6632C243.218 66.0018 241.89 69.2025 239.528 71.5633C237.167 73.924 233.966 75.252 230.627 75.2558ZM230.627 50.6702C228.254 50.6702 225.935 51.3736 223.963 52.6914C221.99 54.0092 220.452 55.8822 219.545 58.0737C218.637 60.2651 218.399 62.6765 218.862 65.0029C219.325 67.3293 220.467 69.4662 222.145 71.1435C223.822 72.8207 225.96 73.9629 228.287 74.4257C230.613 74.8884 233.025 74.6509 235.217 73.7432C237.409 72.8355 239.282 71.2983 240.6 69.3261C241.918 67.3539 242.622 65.0351 242.622 62.6632C242.618 59.4835 241.353 56.4352 239.105 54.1868C236.856 51.9385 233.807 50.6738 230.627 50.6702Z" fill="#3F3D56"/>
<path d="M71.6907 28.3327L73.1901 28.0328C73.1901 28.0328 71.9306 29.442 71.6907 29.5319C71.6684 29.8314 71.6684 30.132 71.6907 30.4314C68.8119 42.7841 58.1962 37.3274 58.1962 37.3274C62.0646 37.4173 62.3945 35.8282 62.3945 35.8282C60.1454 35.4984 59.6956 34.0293 59.6956 34.0293C59.8974 34.1357 60.1313 34.164 60.3527 34.1087C60.574 34.0533 60.7671 33.9183 60.8951 33.7295C58.4661 33.0998 58.7959 30.7312 58.7959 30.7312C59.2289 31.0438 59.7348 31.2399 60.2653 31.3009C59.9955 30.9711 57.7164 28.2427 59.0958 26.8335C59.0958 26.8335 60.7751 29.8318 65.1834 30.1016L65.4832 30.0416C65.4323 29.8257 65.4121 29.6036 65.4233 29.382C65.4233 28.5471 65.755 27.7463 66.3455 27.156C66.936 26.5656 67.7369 26.2339 68.572 26.2339C70.6712 26.2339 71.121 27.4332 71.121 27.4332L72.6204 26.5337C72.5904 26.5337 72.4404 28.0328 71.6907 28.3327Z" fill="#3F3D56"/>
<path d="M167.451 161.795L170.752 163.413L178.565 151.452L173.693 149.064L167.451 161.795Z" fill="#FFB8B8"/>
<path d="M167.137 160.304L173.638 163.491L173.639 163.491C174.183 163.757 174.669 164.129 175.07 164.583C175.47 165.038 175.777 165.567 175.973 166.14C176.17 166.713 176.251 167.319 176.213 167.924C176.174 168.529 176.017 169.12 175.751 169.664L175.685 169.798L165.04 164.581L167.137 160.304Z" fill="#2F2E41"/>
<path d="M200.166 167.434L203.842 167.434L205.591 153.256H200.165L200.166 167.434Z" fill="#FFB8B8"/>
<path d="M199.228 165.035L206.468 165.035H206.469C207.075 165.035 207.675 165.154 208.234 165.386C208.794 165.618 209.303 165.957 209.731 166.386C210.16 166.814 210.5 167.323 210.731 167.882C210.963 168.442 211.083 169.042 211.083 169.648V169.798L199.228 169.798L199.228 165.035Z" fill="#2F2E41"/>
<path d="M192.269 69.5859C196.337 69.5859 199.634 66.2889 199.634 62.2219C199.634 58.1549 196.337 54.8579 192.269 54.8579C188.201 54.8579 184.903 58.1549 184.903 62.2219C184.903 66.2889 188.201 69.5859 192.269 69.5859Z" fill="#FFB8B8"/>
<path d="M199.603 162.758C199.256 162.757 198.922 162.623 198.671 162.383C198.42 162.142 198.272 161.815 198.257 161.468L195.41 123.581C195.406 123.482 195.37 123.387 195.307 123.31C195.244 123.233 195.157 123.18 195.06 123.158C194.964 123.136 194.862 123.146 194.772 123.188C194.682 123.229 194.608 123.299 194.562 123.387L176.349 158.15C176.184 158.462 175.904 158.697 175.568 158.805C175.232 158.914 174.867 158.887 174.551 158.73L169.474 156.192C169.155 156.032 168.913 155.753 168.799 155.415C168.686 155.077 168.71 154.708 168.867 154.389L179.734 132.372L186.932 115.88C189.71 110.409 192.661 107.589 195.951 107.26C199.328 106.923 202.933 109.244 206.976 114.356L207.008 114.398L207.008 114.451L206.408 160.731C206.409 161.067 206.284 161.391 206.057 161.64C205.831 161.888 205.519 162.042 205.185 162.072L199.735 162.752C199.691 162.756 199.647 162.758 199.603 162.758Z" fill="#2F2E41"/>
<path d="M184.495 118.544C184.896 118.296 185.238 117.964 185.496 117.571C185.755 117.177 185.924 116.732 185.992 116.266C186.059 115.8 186.024 115.324 185.888 114.874C185.752 114.423 185.519 114.007 185.205 113.656L186.316 84.3167L180.918 84.9892L180.463 113.532C179.908 114.098 179.58 114.849 179.541 115.64C179.503 116.432 179.756 117.211 180.253 117.828C180.75 118.446 181.456 118.86 182.238 118.992C183.02 119.124 183.823 118.964 184.495 118.544Z" fill="#FFB8B8"/>
<path d="M187.91 89.5038L180.661 88.6802C180.455 88.6568 180.256 88.5892 180.078 88.482C179.9 88.3749 179.748 88.2307 179.631 88.0592C179.514 87.8878 179.435 87.6932 179.4 87.4886C179.365 87.284 179.375 87.0743 179.428 86.8738L181.3 79.8466C181.426 78.7923 181.965 77.831 182.798 77.1734C183.632 76.5158 184.693 76.2156 185.747 76.3385C186.802 76.4615 187.765 76.9977 188.425 77.8294C189.086 78.6612 189.389 79.7207 189.269 80.7757L189.516 88.0199C189.523 88.2274 189.486 88.4339 189.406 88.6254C189.326 88.8169 189.205 88.9889 189.053 89.1297C188.9 89.2705 188.719 89.3768 188.522 89.4414C188.325 89.5059 188.116 89.5272 187.91 89.5038V89.5038Z" fill="#B48EAD"/>
<path d="M219.135 71.0348C219.098 71.1966 219.074 71.361 219.063 71.5265L206.181 78.9568L203.05 77.1545L199.712 81.5236L204.945 85.2527C205.368 85.554 205.877 85.71 206.396 85.6974C206.915 85.6847 207.416 85.5041 207.823 85.1826L221.107 74.705C221.706 74.9269 222.359 74.961 222.979 74.8029C223.598 74.6447 224.155 74.3018 224.574 73.8197C224.994 73.3376 225.257 72.7392 225.328 72.1041C225.399 71.4689 225.275 70.8272 224.973 70.2641C224.67 69.7011 224.204 69.2435 223.635 68.9522C223.066 68.6608 222.421 68.5496 221.788 68.6333C221.154 68.7169 220.561 68.9915 220.087 69.4205C219.613 69.8495 219.281 70.4126 219.135 71.0348Z" fill="#FFB8B8"/>
<path d="M205.751 79.3086L201.587 84.7036C201.469 84.8571 201.319 84.9833 201.147 85.0735C200.975 85.1638 200.786 85.216 200.593 85.2266C200.399 85.2372 200.205 85.206 200.025 85.135C199.844 85.064 199.681 84.955 199.547 84.8154L194.834 79.9219C194.051 79.3117 193.542 78.4159 193.419 77.4312C193.296 76.4465 193.569 75.4532 194.178 74.6693C194.786 73.8855 195.681 73.375 196.666 73.2499C197.65 73.1248 198.644 73.3953 199.43 74.0021L205.341 77.307C205.51 77.4017 205.657 77.5317 205.772 77.6882C205.886 77.8448 205.965 78.0241 206.004 78.2141C206.043 78.404 206.041 78.6001 205.997 78.789C205.953 78.9779 205.869 79.1551 205.751 79.3086H205.751Z" fill="#B48EAD"/>
<path d="M209.147 116.651L201.154 77.7247C200.774 75.8746 199.692 74.2437 198.134 73.1748C196.577 72.1059 194.666 71.6822 192.802 71.9926L190.137 72.4369C189.211 72.5911 188.324 72.9263 187.528 73.4232C186.731 73.92 186.04 74.5689 185.495 75.3327C184.628 76.5462 184.044 77.9386 183.786 79.4074C183.528 80.8763 183.602 82.3843 184.003 83.8206L188.415 99.6079L185.141 116.522C185.105 116.709 185.113 116.903 185.167 117.086C185.22 117.27 185.317 117.438 185.449 117.576C185.58 117.715 185.743 117.82 185.924 117.882C186.104 117.945 186.297 117.964 186.487 117.937C188.126 117.702 190.828 117.368 193.931 117.185L195.612 110.701L196.296 117.082C200.108 116.976 204.247 117.162 207.661 118.049C207.858 118.102 208.066 118.103 208.264 118.053C208.462 118.003 208.644 117.904 208.793 117.764C208.942 117.624 209.053 117.448 209.115 117.253C209.177 117.058 209.188 116.851 209.147 116.651Z" fill="#B48EAD"/>
<path d="M195.103 60.5835C196.996 61.8789 199.482 63.2105 201.415 61.831C202.685 60.9252 203.085 59.2479 202.57 57.7759C201.644 55.1289 199.1 53.9636 196.668 53.0703C193.506 51.9091 190.063 50.9853 186.799 51.8169C183.534 52.6485 180.649 55.8084 181.239 59.1245C181.713 61.7912 184.229 64.0101 183.871 66.6949C183.512 69.397 180.473 70.8192 177.789 71.3022C175.106 71.7851 172.104 71.9403 170.175 73.8672C167.715 76.3254 168.33 80.7192 170.644 83.3145C172.959 85.9099 176.452 87.0863 179.837 87.8861C184.321 88.9458 189.172 89.5026 193.431 87.7441C197.69 85.9855 201.005 81.2516 199.771 76.8126C199.25 74.9375 198.022 73.3529 196.835 71.8102C195.649 70.2674 194.447 68.6542 193.995 66.7615C193.618 65.1842 193.897 63.3529 194.943 62.1697C195.133 61.9626 195.253 61.7006 195.285 61.4212C195.317 61.1418 195.26 60.8595 195.121 60.6147L195.103 60.5835Z" fill="#2F2E41"/>
<path d="M122.502 6.36299C123.341 6.3655 124.145 6.69983 124.738 7.29297C125.331 7.88611 125.666 8.68986 125.668 9.52868V15.8594C125.666 16.6982 125.331 17.502 124.738 18.0951C124.145 18.6882 123.341 19.0226 122.502 19.0251H116.17C115.331 19.0226 114.527 18.6882 113.934 18.0951C113.341 17.502 113.006 16.6982 113.004 15.8594V9.52868C113.006 8.68986 113.341 7.88611 113.934 7.29297C114.527 6.69983 115.331 6.3655 116.17 6.36299H122.502ZM122.502 5.09692H116.17C114.996 5.10034 113.87 5.56836 113.04 6.39873C112.209 7.22911 111.741 8.35436 111.738 9.52868V15.8594C111.741 17.0337 112.209 18.159 113.04 18.9893C113.87 19.8197 114.996 20.2877 116.17 20.2912H122.502C123.677 20.2877 124.802 19.8197 125.632 18.9893C126.463 18.159 126.931 17.0337 126.935 15.8594V9.52868C126.931 8.35436 126.463 7.22911 125.632 6.39873C124.802 5.56836 123.677 5.10034 122.502 5.09692Z" fill="#3F3D56"/>
<path d="M123.452 9.52874C123.201 9.5282 122.96 9.42799 122.783 9.25012C122.605 9.07225 122.506 8.83127 122.506 8.58012C122.506 8.32898 122.606 8.08822 122.784 7.91073C122.962 7.73324 123.203 7.63354 123.454 7.63354C123.705 7.63354 123.946 7.73324 124.124 7.91073C124.301 8.08822 124.401 8.32898 124.402 8.58012C124.402 8.83127 124.302 9.07225 124.125 9.25012C123.948 9.42799 123.707 9.5282 123.456 9.52874C123.455 9.52874 123.453 9.52874 123.452 9.52874Z" fill="#3F3D56"/>
<path d="M119.336 10.1616C119.837 10.1616 120.327 10.3101 120.743 10.5884C121.16 10.8667 121.485 11.2622 121.676 11.7249C121.868 12.1877 121.918 12.6969 121.82 13.1881C121.723 13.6794 121.481 14.1306 121.127 14.4848C120.773 14.839 120.322 15.0802 119.83 15.1779C119.339 15.2756 118.83 15.2254 118.367 15.0338C117.904 14.8421 117.508 14.5175 117.23 14.101C116.952 13.6846 116.803 13.1949 116.803 12.6941C116.803 12.0224 117.07 11.3783 117.545 10.9033C118.02 10.4284 118.664 10.1616 119.336 10.1616ZM119.336 8.89551C118.585 8.89551 117.85 9.11828 117.225 9.53567C116.601 9.95306 116.114 10.5463 115.826 11.2404C115.539 11.9345 115.463 12.6983 115.61 13.4351C115.756 14.172 116.118 14.8488 116.65 15.38C117.181 15.9113 117.858 16.2731 118.595 16.4196C119.332 16.5662 120.096 16.491 120.79 16.2035C121.484 15.916 122.078 15.4291 122.495 14.8044C122.913 14.1798 123.135 13.4453 123.135 12.6941C123.135 11.6866 122.735 10.7204 122.023 10.0081C121.31 9.29572 120.344 8.89552 119.336 8.89551V8.89551Z" fill="#3F3D56"/>
<path d="M49.709 166.022L46.1306 165.179L47.6794 150.978L52.9609 152.222L49.709 166.022Z" fill="#FFB8B8"/>
<path d="M49.8045 169.705L38.266 166.987L38.3004 166.841C38.4393 166.251 38.693 165.695 39.0471 165.203C39.4011 164.712 39.8486 164.295 40.3639 163.976C40.8791 163.657 41.4522 163.443 42.0502 163.346C42.6483 163.248 43.2597 163.27 43.8494 163.409L43.8497 163.409L50.897 165.069L49.8045 169.705Z" fill="#2F2E41"/>
<path d="M63.654 166.141H59.9775L58.2286 151.963L63.6546 151.964L63.654 166.141Z" fill="#FFB8B8"/>
<path d="M64.5916 169.705L52.7373 169.704V169.554C52.7373 168.948 52.8566 168.349 53.0885 167.789C53.3204 167.229 53.6602 166.721 54.0887 166.292C54.5171 165.864 55.0258 165.524 55.5856 165.292C56.1454 165.06 56.7454 164.941 57.3513 164.941H57.3516L64.5919 164.941L64.5916 169.705Z" fill="#2F2E41"/>
<path d="M83.5102 110.07C83.7565 109.669 83.9118 109.218 83.9651 108.75C84.0184 108.282 83.9685 107.809 83.8188 107.362C83.6692 106.916 83.4234 106.507 83.0989 106.166C82.7743 105.825 82.3789 105.559 81.9405 105.387L71.1766 78.0962L65.1878 81.7309L77.6515 107.414C77.4115 108.17 77.457 108.987 77.7794 109.711C78.1019 110.436 78.6788 111.016 79.401 111.344C80.1232 111.671 80.9403 111.722 81.6977 111.488C82.4551 111.253 83.1 110.748 83.5102 110.07Z" fill="#FFB8B8"/>
<path d="M73.4641 82.6095L66.6224 85.1416C66.4278 85.2136 66.2199 85.2429 66.0129 85.2274C65.8059 85.2118 65.6047 85.1519 65.4229 85.0516C65.2412 84.9513 65.0832 84.813 64.9598 84.6462C64.8363 84.4793 64.7503 84.2878 64.7075 84.0848L63.2095 76.9687C62.8465 75.9709 62.8941 74.8698 63.3419 73.907C63.7896 72.9442 64.6009 72.1982 65.5979 71.8325C66.5949 71.4668 67.6963 71.5114 68.6606 71.9563C69.6248 72.4012 70.3732 73.2103 70.7418 74.2061L74.2293 80.5608C74.3291 80.7427 74.3885 80.9441 74.4034 81.1511C74.4184 81.3581 74.3885 81.5659 74.3159 81.7603C74.2433 81.9547 74.1296 82.1312 73.9826 82.2777C73.8356 82.4243 73.6588 82.5374 73.4641 82.6095V82.6095Z" fill="#B48EAD"/>
<path d="M63.4099 161.052C63.3919 161.052 63.3739 161.052 63.3558 161.051L58.1447 160.843C57.7925 160.831 57.4592 160.68 57.2169 160.425C56.9745 160.169 56.8425 159.828 56.8493 159.476L57.2492 130.693C57.2508 130.577 57.2078 130.465 57.129 130.38C57.0501 130.295 56.9417 130.244 56.8261 130.237C56.7105 130.23 56.5967 130.268 56.5084 130.343C56.4201 130.418 56.3641 130.524 56.352 130.639L53.329 159.454C53.2975 159.748 53.1711 160.023 52.9688 160.237C52.7666 160.452 52.4997 160.595 52.2088 160.644L52.1907 160.647L47.2985 160.263C47.1057 160.292 46.9088 160.28 46.7214 160.225C46.534 160.171 46.3605 160.077 46.2129 159.95C46.0653 159.822 45.9472 159.664 45.8665 159.487C45.7859 159.309 45.7448 159.116 45.7459 158.921L46.0384 110.116L70.044 111.635L64.7512 159.85C64.714 160.18 64.5567 160.485 64.3094 160.706C64.0621 160.928 63.742 161.051 63.4099 161.052Z" fill="#2F2E41"/>
<path d="M59.022 67.5114C63.0897 67.5114 66.3873 64.2144 66.3873 60.1474C66.3873 56.0804 63.0897 52.7834 59.022 52.7834C54.9542 52.7834 51.6566 56.0804 51.6566 60.1474C51.6566 64.2144 54.9542 67.5114 59.022 67.5114Z" fill="#FFB8B8"/>
<path d="M68.8504 113.784C68.8166 113.784 68.7826 113.783 68.7485 113.781L46.5624 112.158C46.2175 112.132 45.8954 111.976 45.6627 111.72C45.4299 111.464 45.3042 111.129 45.3116 110.783L45.8966 82.9286C45.8574 81.2195 46.1674 79.5203 46.8077 77.9351C47.448 76.35 48.4051 74.9121 49.6205 73.7095C50.8358 72.507 52.2838 71.565 53.8758 70.9413C55.4678 70.3176 57.1704 70.0252 58.8794 70.0822C60.5883 70.1391 62.2676 70.5441 63.8146 71.2723C65.3616 72.0006 66.7437 73.0368 67.8763 74.3175C69.0089 75.5983 69.8681 77.0967 70.4015 78.7209C70.9349 80.3452 71.1311 82.0612 70.9783 83.7639C70.5903 88.0569 70.2817 106.811 70.1964 112.457C70.1909 112.811 70.0468 113.148 69.795 113.396C69.5432 113.644 69.204 113.784 68.8504 113.784Z" fill="#B48EAD"/>
<path d="M29.3127 68.4174C29.3495 68.5791 29.3735 68.7436 29.3845 68.9091L42.2665 76.3393L45.3977 74.5371L48.7357 78.9062L43.5027 82.6353C43.0799 82.9366 42.5708 83.0926 42.0518 83.0799C41.5328 83.0673 41.032 82.8867 40.6244 82.5652L27.3408 72.0876C26.7413 72.3095 26.0885 72.3436 25.4691 72.1855C24.8497 72.0273 24.2932 71.6844 23.8735 71.2023C23.4539 70.7202 23.1909 70.1218 23.1197 69.4866C23.0485 68.8515 23.1724 68.2097 23.4749 67.6467C23.7774 67.0837 24.2442 66.6261 24.8132 66.3347C25.3821 66.0434 26.0263 65.9322 26.6601 66.0159C27.2938 66.0995 27.8871 66.3741 28.3609 66.8031C28.8347 67.2321 29.1667 67.7951 29.3127 68.4174Z" fill="#FFB8B8"/>
<path d="M42.4435 75.5966C42.4823 75.4066 42.5616 75.2272 42.6761 75.0707C42.7905 74.9142 42.9374 74.7842 43.1067 74.6896L49.0182 71.3847C49.8036 70.779 50.7972 70.5094 51.7812 70.6349C52.7651 70.7603 53.6592 71.2707 54.2674 72.0541C54.8757 72.8375 55.1485 73.8301 55.026 74.8142C54.9036 75.7984 54.3959 76.6939 53.6143 77.3045L48.901 82.198C48.7665 82.3376 48.6034 82.4466 48.423 82.5176C48.2425 82.5886 48.0489 82.6198 47.8552 82.6092C47.6616 82.5986 47.4725 82.5464 47.3009 82.4562C47.1293 82.3659 46.9791 82.2397 46.8606 82.0862L42.6972 76.6912C42.5786 76.5377 42.4946 76.3605 42.4508 76.1716C42.4071 75.9827 42.4046 75.7865 42.4435 75.5966Z" fill="#B48EAD"/>
<path d="M62.8282 65.9773C61.6946 65.9689 60.5817 65.6734 59.5933 65.1185C58.6049 64.5635 57.7732 63.7672 57.176 62.8039C57.1111 62.7023 56.7566 62.1818 56.3461 61.5792C55.1926 59.8856 54.9221 59.4827 54.8992 59.4236C54.587 58.6184 53.5962 58.3075 52.82 58.1883C52.6752 58.166 52.5284 58.1464 52.381 58.1265C51.2878 57.9801 50.1574 57.8287 49.5376 56.6274C49.083 55.7458 48.3395 52.1558 48.9105 51.2786C49.6263 50.1783 51.0009 50.5355 52.3302 50.8813C53.1808 51.102 54.0601 51.3307 54.7609 51.1849C57.7984 50.553 61.2413 49.8369 64.2817 51.6882C66.7016 53.1613 68.1571 55.9434 68.0803 58.949C67.9978 62.1765 66.5899 64.7241 64.3141 65.7641L63.8404 65.902L63.5739 65.9348C63.3263 65.963 63.0773 65.9772 62.8282 65.9773Z" fill="#2F2E41"/>
<path d="M231.068 54.5076C229.171 54.5077 227.332 55.1604 225.86 56.3559C224.388 57.5514 223.373 59.217 222.984 61.0728C222.595 62.9287 222.857 64.8618 223.725 66.5475C224.594 68.2331 226.016 69.5687 227.753 70.3298C227.718 69.6946 227.767 69.0576 227.897 68.4349C228.055 67.764 228.959 63.9338 228.959 63.9338C228.778 63.5226 228.688 63.0777 228.693 62.6288C228.693 61.4049 229.401 60.4907 230.286 60.4907C231.038 60.4907 231.399 61.0547 231.399 61.7293C231.399 62.485 230.916 63.6131 230.669 64.66C230.62 64.854 230.617 65.0568 230.661 65.2521C230.704 65.4473 230.793 65.6297 230.92 65.7843C231.047 65.9389 231.209 66.0615 231.392 66.1422C231.575 66.2229 231.775 66.2595 231.975 66.2489C233.538 66.2489 234.592 64.2397 234.592 61.8583C234.592 60.0483 233.372 58.6954 231.156 58.6954C228.653 58.6954 227.089 60.5644 227.089 62.6509C227.065 63.2393 227.259 63.8159 227.635 64.2692C227.701 64.3237 227.748 64.3976 227.769 64.4804C227.79 64.5632 227.785 64.6507 227.753 64.7301C227.712 64.8812 227.624 65.2462 227.583 65.3936C227.576 65.4382 227.559 65.4805 227.532 65.5169C227.505 65.5533 227.47 65.5828 227.43 65.603C227.39 65.6232 227.345 65.6335 227.3 65.633C227.255 65.6324 227.21 65.6212 227.17 65.6001C226.016 65.1282 225.478 63.8674 225.478 62.4445C225.478 60.0999 227.458 57.2871 231.381 57.2871C234.534 57.2871 236.609 59.569 236.609 62.0168C236.609 65.2572 234.806 67.6755 232.152 67.6755C231.259 67.6755 230.422 67.1926 230.135 66.647C230.135 66.647 229.655 68.5492 229.552 68.9178C229.362 69.5442 229.082 70.1401 228.723 70.6873C229.859 71.0228 231.053 71.1101 232.226 70.9433C233.399 70.7765 234.522 70.3595 235.519 69.7205C236.516 69.0816 237.365 68.2358 238.006 67.2403C238.648 66.2448 239.068 65.123 239.238 63.951C239.408 62.779 239.323 61.5842 238.991 60.4475C238.658 59.3109 238.085 58.2591 237.31 57.3635C236.535 56.4678 235.577 55.7492 234.5 55.2565C233.423 54.7637 232.252 54.5083 231.068 54.5076Z" fill="#3F3D56"/>
<path d="M184.558 27.4239L173.935 24.1563C173.801 24.1076 173.658 24.086 173.515 24.0927C173.372 24.0994 173.232 24.1343 173.102 24.1953C172.973 24.2563 172.857 24.3423 172.761 24.4482C172.665 24.5542 172.591 24.6781 172.543 24.8129L169.267 35.4575C169.186 35.7462 169.219 36.0548 169.359 36.3199C169.499 36.5849 169.735 36.7863 170.019 36.8826L180.639 40.1493C180.922 40.2243 181.223 40.1849 181.477 40.0395C181.731 39.8942 181.917 39.6547 181.996 39.3729L185.271 28.7282C185.314 28.5958 185.33 28.456 185.317 28.3174C185.304 28.1788 185.263 28.0443 185.196 27.9221C185.13 27.7999 185.039 27.6927 184.929 27.607C184.819 27.5214 184.693 27.4591 184.558 27.4239ZM173.529 35.6434L171.705 35.0825L173.45 29.4139L175.273 29.9748L173.529 35.6434ZM174.69 28.8519L174.677 28.8479C174.415 28.7654 174.196 28.5826 174.069 28.3394C173.942 28.0962 173.916 27.8125 173.998 27.5505C174.079 27.2884 174.262 27.0694 174.504 26.9413C174.747 26.8133 175.031 26.7867 175.293 26.8674C175.556 26.9481 175.775 27.1295 175.904 27.3719C176.033 27.6142 176.061 27.8978 175.981 28.1603C175.901 28.4229 175.72 28.6432 175.478 28.7728C175.236 28.9024 174.953 28.9309 174.69 28.8519ZM180.193 37.6934L178.37 37.1325L179.324 34.033C179.552 33.2904 179.443 32.7015 178.783 32.4985C178.576 32.4367 178.355 32.4405 178.151 32.5096C177.946 32.5786 177.768 32.7094 177.641 32.8839C177.548 33.013 177.48 33.1582 177.44 33.3122L176.447 36.5409L174.623 35.98L176.367 30.3114L178.191 30.8723L177.948 31.6611C178.203 31.4251 178.516 31.2619 178.855 31.1888C179.194 31.1156 179.547 31.1352 179.876 31.2455C181.073 31.6137 181.736 32.6811 181.213 34.3818L180.193 37.6934Z" fill="#3F3D56"/>
<path fill-rule="evenodd" clip-rule="evenodd" d="M21.7478 72.3069C21.7475 70.7338 21.2964 69.1937 20.4479 67.869C19.5993 66.5442 18.3889 65.4903 16.9599 64.832C15.5309 64.1736 13.9432 63.9384 12.3847 64.1543C10.8261 64.3701 9.36208 65.0279 8.16584 66.0497C6.9696 67.0716 6.09126 68.4148 5.63481 69.9203C5.17835 71.4257 5.16289 73.0304 5.59026 74.5444C6.01763 76.0584 6.86992 77.4182 8.04625 78.463C9.22258 79.5077 10.6737 80.1935 12.2278 80.4393V74.6872H10.1367V72.3069H12.2278V70.4929C12.2278 68.4302 13.4573 67.2898 15.3378 67.2898C15.9553 67.2984 16.5714 67.3522 17.1811 67.4508V69.4768H16.1424C15.1202 69.4768 14.8004 70.1111 14.8004 70.763V72.3073H17.0837L16.7191 74.6876H14.8004V80.4401C16.7372 80.1334 18.5011 79.1457 19.7746 77.6548C21.0482 76.1639 21.7479 74.2676 21.7478 72.3069L21.7478 72.3069Z" fill="#3F3D56"/>
<path d="M243.081 169.7C243.08 169.78 243.049 169.856 242.993 169.912C242.936 169.968 242.86 170 242.781 170H1.07829C0.998758 170 0.922482 169.968 0.866244 169.912C0.810006 169.856 0.778412 169.78 0.778412 169.7C0.778412 169.621 0.810006 169.544 0.866244 169.488C0.922482 169.432 0.998758 169.4 1.07829 169.4H242.781C242.86 169.401 242.936 169.432 242.993 169.488C243.049 169.545 243.08 169.621 243.081 169.7Z" fill="#3F3D56"/>
</g>
<defs>
<clipPath id="clip0">
<rect width="242.443" height="170" fill="white" transform="translate(0.778412)"/>
</clipPath>
</defs>
</svg>
