<svg width="25" height="33" viewBox="0 0 25 33" fill="none" xmlns="http://www.w3.org/2000/svg">
<path d="M6.69006 0.5H10.02V1.93733H8.08248V3.37467H10.02V4.812H6.69006V0.5Z" fill="#5E81AC"/>
<path d="M10.6852 0.5H14.0164V1.75067H12.0789V2H14.0164V4.87467H10.6852V3.56267H12.6227V3.312H10.6852V0.5Z" fill="#5E81AC"/>
<path d="M14.6829 0.5H18.0115V1.75067H16.074V2H18.0115V4.87467H14.6829V3.56267H16.6204V3.312H14.6829V0.5Z" fill="#5E81AC"/>
<path fill-rule="evenodd" clip-rule="evenodd" d="M12.4884 32.5L3.51904 29.9293L0.875 6.78931H24.125L21.4823 29.9266L12.4884 32.5ZM6.10237 17.264L6.34908 20.1013H15.8777L15.5587 23.7813L12.4923 24.6373H12.4897L9.42842 23.784L9.23208 21.5213H6.47179L6.85671 25.9773L12.4884 27.5906L18.1291 25.9773L18.8162 18.0253L18.8834 17.264L19.3794 11.5186H5.60767L5.85825 14.3573H16.3673L16.1167 17.264H6.10237Z" fill="#5E81AC"/>
</svg>
