<svg width="42" height="40" viewBox="0 0 42 40" fill="none" xmlns="http://www.w3.org/2000/svg">
<path d="M23.0417 27.4166H31.2083V21.1666L41.4167 30.5416L31.2083 39.9166V33.6666H23.0417V27.4166ZM37.3333 0.333252H4.66668C3.58371 0.333252 2.5451 0.772238 1.77932 1.55364C1.01355 2.33504 0.583344 3.39485 0.583344 4.49992V29.4999C0.583344 30.605 1.01355 31.6648 1.77932 32.4462C2.5451 33.2276 3.58371 33.6666 4.66668 33.6666H19.6729C19.1965 32.3314 18.9546 30.9209 18.9583 29.4999C18.9612 26.8158 19.8108 24.2039 21.3812 22.0507C22.9517 19.8975 25.1597 18.3173 27.6785 17.5439C30.1974 16.7705 32.8933 16.8449 35.3675 17.7562C37.8417 18.6676 39.9627 20.3673 41.4167 22.6041V4.49992C41.4167 3.39485 40.9865 2.33504 40.2207 1.55364C39.4549 0.772238 38.4163 0.333252 37.3333 0.333252ZM37.3333 8.66658L21 19.0832L4.66668 8.66658V4.49992L21 14.9166L37.3333 4.49992V8.66658Z" fill="#2E3440"/>
</svg>
