<svg width="218" height="170" viewBox="0 0 218 170" fill="none" xmlns="http://www.w3.org/2000/svg">
<g clip-path="url(#clip0)">
<path d="M70.9875 41.9941L45.1862 63.2888C46.2501 64.4514 47.0661 65.8166 47.5847 67.302C48.1034 68.7874 48.3139 70.362 48.2036 71.9307C48.0933 73.4994 47.6645 75.0295 46.9431 76.4285C46.2216 77.8275 45.2226 79.0664 44.0063 80.0702C42.7901 81.074 41.3819 81.8219 39.8669 82.2687C38.3519 82.7154 36.7616 82.8517 35.1922 82.6694C33.6228 82.487 32.1068 81.9898 30.736 81.2077C29.3652 80.4257 28.168 79.3751 27.2168 78.1194L4.08484 97.2109L41.165 141.709L108.068 86.4919L70.9875 41.9941Z" fill="#F2F2F2"/>
<path d="M217.86 106.467C217.86 132.767 202.149 141.951 182.769 141.951C163.389 141.951 147.678 132.767 147.678 106.467C147.678 80.1661 182.769 46.7075 182.769 46.7075C182.769 46.7075 217.86 80.1661 217.86 106.467Z" fill="#F2F2F2"/>
<path d="M181.491 137.927L181.85 115.916L196.806 88.6849L181.906 112.463L182.068 102.566L192.376 82.8644L182.111 99.9466V99.9468L182.401 82.1463L193.439 66.4615L182.447 79.3471L182.629 46.7073L181.487 89.9166L181.581 88.134L170.359 71.0387L181.401 91.5558L180.356 111.436L180.325 110.908L167.387 92.9177L180.285 112.772L180.155 115.259L180.131 115.296L180.142 115.5L177.489 165.937H181.033L181.459 139.885L194.325 120.08L181.491 137.927Z" fill="#3F3D56"/>
<path d="M152.243 170C179.333 170 201.294 168.37 201.294 166.36C201.294 164.35 179.333 162.72 152.243 162.72C125.152 162.72 103.191 164.35 103.191 166.36C103.191 168.37 125.152 170 152.243 170Z" fill="#3F3D56"/>
<path d="M156.761 0H149.016V167.431H156.761V0Z" fill="#3F3D56"/>
<path d="M196.878 160.389C196.878 165.2 194.004 166.879 190.46 166.879C190.377 166.879 190.295 166.878 190.214 166.877C190.049 166.873 189.887 166.865 189.726 166.854C186.527 166.629 184.041 164.863 184.041 160.389C184.041 155.759 189.986 149.917 190.433 149.484L190.434 149.483C190.451 149.467 190.46 149.458 190.46 149.458C190.46 149.458 196.878 155.578 196.878 160.389Z" fill="#B48EAD"/>
<path d="M190.226 166.143L192.573 162.879L190.22 166.502L190.214 166.877C190.049 166.873 189.887 166.865 189.726 166.854L189.979 162.041L189.977 162.004L189.981 161.997L190.005 161.543L187.646 157.911L190.013 161.202L190.018 161.298L190.209 157.662L188.19 153.909L190.234 157.023L190.433 149.484L190.434 149.458V149.483L190.401 155.429L192.411 153.072L190.392 155.941L190.339 159.197L192.217 156.072L190.331 159.676L190.302 161.486L193.027 157.137L190.291 162.117L190.226 166.143Z" fill="#3F3D56"/>
<path d="M139.814 156.788L138.441 155.772C138.441 155.772 137.532 160.825 138.546 161.582C139.56 162.339 143.363 163.6 143.363 165.114C143.363 166.628 151.983 168.646 152.237 166.376C152.49 164.105 151.476 162.843 151.476 162.843C151.476 162.843 147.42 158.806 146.912 158.049C146.405 157.292 145.138 155.778 145.138 155.778L139.814 156.788Z" fill="#2F2E41"/>
<path d="M160.096 93.9613C160.096 93.9613 160.058 94.1833 159.992 94.5895C159.931 94.9503 159.847 95.46 159.746 96.0883C158.681 102.555 155.575 121.592 155.786 122.221C156.039 122.978 157.814 125.753 155.786 126.51C155.591 126.583 155.38 126.82 155.155 127.194C154.719 127.998 154.36 128.841 154.082 129.712C152.873 133.204 151.58 138.793 150.832 142.663C150.505 144.364 150.282 145.731 150.216 146.448C150.193 146.613 150.19 146.781 150.208 146.947C150.462 147.957 148.687 151.489 147.926 152.498C147.166 153.508 145.898 154.517 146.152 155.526C146.405 156.535 139.813 159.311 139.053 157.545C138.292 155.778 138.292 154.769 138.039 154.265C137.785 153.76 137.532 150.228 138.799 149.723C140.067 149.218 139.306 140.387 140.574 138.621C140.997 138.033 141.644 136.042 142.321 133.648C142.587 132.709 142.856 131.71 143.12 130.708C144.189 126.603 145.138 122.473 145.138 122.473L144.884 92.952L158.828 91.1858L159.186 91.9705L159.898 93.5273L160.096 93.9613Z" fill="#2F2E41"/>
<path d="M160.857 142.406C160.857 142.406 162.885 140.387 163.899 142.406C164.913 144.424 165.927 152.246 167.702 154.012C169.477 155.778 171.758 164.609 169.223 165.114C166.688 165.619 163.899 164.357 163.645 162.843C163.392 161.329 158.068 153.508 158.068 152.751C158.068 151.994 161.617 149.218 161.617 149.218L160.857 142.406Z" fill="#2F2E41"/>
<path d="M129.672 80.0836C129.672 80.0836 132.968 109.605 133.729 112.38C134.489 115.155 138.546 125.753 139.813 127.519C141.081 129.285 149.194 143.667 150.208 144.424C151.222 145.181 153.251 147.2 153.251 147.2C153.251 147.2 157.054 150.984 157.561 151.741C158.068 152.498 162.378 150.227 162.631 148.713C162.885 147.2 162.378 144.676 162.124 143.667C161.871 142.658 162.631 141.144 161.871 140.387C161.11 139.63 157.307 135.845 157.307 134.079C157.307 132.313 150.715 121.968 148.18 119.697C145.645 117.426 146.152 113.642 146.152 113.642V98.2503L160.096 93.961C160.096 93.961 159.335 81.8498 157.561 81.8498C155.786 81.8498 132.461 77.8128 129.672 80.0836Z" fill="#2F2E41"/>
<path d="M150.208 37.947C154.829 37.947 158.575 34.2191 158.575 29.6206C158.575 25.022 154.829 21.2942 150.208 21.2942C145.588 21.2942 141.842 25.022 141.842 29.6206C141.842 34.2191 145.588 37.947 150.208 37.947Z" fill="#9F616A"/>
<path d="M147.419 36.1809C147.419 36.1809 146.405 39.9656 145.138 40.9749C143.87 41.9841 148.434 46.2735 148.434 46.2735L157.054 46.7781L158.575 41.9841C158.575 41.9841 155.786 36.4332 156.547 32.9008C157.307 29.3684 147.419 36.1809 147.419 36.1809Z" fill="#9F616A"/>
<path d="M143.87 40.4702C143.87 40.4702 146.152 40.7225 146.659 41.4795C147.166 42.2364 150.715 44.5073 153.504 44.0026C156.293 43.498 158.068 42.7411 158.575 42.9934C159.082 43.2457 160.096 48.5443 160.096 48.5443L157.307 56.6184L157.814 78.8221L158.575 84.8777C158.575 84.8777 160.096 82.8592 154.011 84.1208C147.926 85.3823 140.067 83.1115 137.532 82.8592C134.996 82.6069 130.686 81.8499 130.433 80.336C130.179 78.8221 131.193 73.2712 131.193 73.2712L135.25 56.3661L137.785 47.2827L143.87 40.4702Z" fill="#3F3D56"/>
<path d="M146.268 39.3314C146.268 39.3314 144.124 38.1993 143.363 39.2086C142.602 40.2179 132.968 41.7318 132.968 42.4887C132.968 43.2456 130.94 63.6832 131.447 65.4494C131.954 67.2156 130.433 69.2341 130.433 69.2341L128.658 76.8036C128.658 76.8036 123.841 91.1855 125.869 91.6902C127.898 92.1948 129.672 91.6902 130.433 91.6902C131.193 91.6902 130.94 82.1022 132.968 79.579C134.996 77.0559 137.785 70.748 138.292 69.4864C138.799 68.2249 145.138 50.8151 144.884 48.7966C144.631 46.7781 146.268 39.3314 146.268 39.3314Z" fill="#D0CDE1"/>
<path d="M156.8 40.4702C156.8 40.4702 158.828 40.4702 159.082 40.9748C159.335 41.4795 161.871 44.7596 162.885 45.5165C163.899 46.2735 167.448 49.5536 167.448 50.3105C167.448 51.0675 160.096 56.6184 160.096 56.6184C160.096 56.6184 157.054 71.505 158.575 76.5513C160.096 81.5976 162.378 93.7088 161.364 94.4657C160.349 95.2227 158.068 95.475 158.068 94.4657C158.068 93.4564 156.546 82.6069 155.279 80.336C154.011 78.0652 150.208 63.6832 151.729 59.6462C153.251 55.6091 156.8 40.4702 156.8 40.4702Z" fill="#D0CDE1"/>
<path d="M123.334 65.4495C123.334 65.4495 123.08 73.2712 125.869 77.3083C128.658 81.3453 130.433 85.887 130.433 85.887C130.433 85.887 134.996 84.6254 135.757 83.1115C136.518 81.5976 141.335 82.8592 141.335 82.3546C141.335 81.85 135.503 79.3268 134.996 78.8222C134.489 78.3176 132.715 78.3176 131.7 77.3083C130.686 76.299 130.433 74.0282 130.433 74.0282L129.419 67.468L123.334 65.4495Z" fill="#9F616A"/>
<path d="M144.446 24.4867C143.802 24.4285 143.138 24.3645 142.569 24.0592C141.295 23.3751 140.957 21.427 141.927 20.3571C142.195 20.0849 142.494 19.8455 142.819 19.6439L144.746 18.3384C145.598 17.761 146.471 17.1742 147.465 16.902C148.364 16.6559 149.313 16.6812 150.244 16.7387C152.051 16.8505 153.869 17.0814 155.569 17.7022C157.268 18.3231 158.853 19.3617 159.883 20.8439C161.514 23.1935 161.537 26.3624 160.638 29.0749C159.739 31.7875 158.032 34.1495 156.35 36.4637L155.477 32.2255C155.4 31.8481 155.299 31.4343 154.984 31.2109C154.2 30.6556 153.24 31.7957 152.278 31.7883C151.66 31.7836 151.141 31.2775 150.906 30.708C150.672 30.1385 150.657 29.5079 150.602 28.8949C150.488 27.5965 150.032 25.7899 148.796 25.0738C147.645 24.4066 145.74 24.6037 144.446 24.4867Z" fill="#2F2E41"/>
<path opacity="0.1" d="M144.915 94.1646C144.915 94.1646 145.771 118.814 146.279 119.571C146.786 120.328 146.279 94.0872 146.279 94.0872L144.915 94.1646Z" fill="black"/>
<path d="M134.997 42.4888H132.968C132.968 42.4888 124.348 54.0953 125.362 54.8522C126.376 55.6092 125.362 57.6277 125.362 57.6277L123.334 61.4124C123.334 61.4124 120.799 63.6833 121.559 64.1879C122.32 64.6925 123.334 66.711 123.334 66.711C123.334 66.711 128.405 65.9541 129.926 68.9819L133.214 64.8506L134.997 42.4888Z" fill="#D0CDE1"/>
<path d="M158.068 64.188C158.068 64.188 152.49 64.4403 146.152 60.4032L139.814 57.6278C139.814 57.6278 134.236 49.049 133.729 50.5629C133.222 52.0768 134.489 55.1046 134.489 55.1046C134.489 55.1046 126.84 58.6277 126.641 59.0933C126.443 59.559 130.94 58.3847 130.94 58.3847C130.94 58.3847 130.179 63.1787 134.489 63.431C138.799 63.6833 140.067 62.6741 140.067 62.6741C140.067 62.6741 158.321 77.813 161.364 73.019C164.406 68.225 158.068 64.188 158.068 64.188Z" fill="#9F616A"/>
<path d="M164.66 49.3013L167.448 50.3105V57.88L168.463 59.3939C168.463 59.3939 168.209 62.4217 167.448 63.1786C166.688 63.9356 165.167 63.6832 165.674 65.4495C165.978 66.601 166.064 67.799 165.927 68.9819C165.927 68.9819 161.364 74.7851 161.11 74.0282C160.857 73.2712 157.307 63.9356 156.8 63.9356C156.293 63.9356 161.871 49.3013 161.871 49.3013H164.66Z" fill="#D0CDE1"/>
<path d="M131.32 87.527C131.32 87.527 128.699 85.0038 130.009 84.8777C131.32 84.7515 135.884 82.2284 136.644 83.4899C137.405 84.7515 131.32 87.527 131.32 87.527Z" fill="#2F2E41"/>
<path d="M91.2978 161.65C95.8554 154.082 98.2564 145.422 98.2431 136.6C98.2431 109.639 76.2821 87.7834 49.1918 87.7834C22.1014 87.7834 0.140375 109.639 0.140375 136.6C0.127081 145.422 2.52809 154.082 7.08573 161.65H91.2978Z" fill="#3F3D56"/>
<path d="M49.1917 138.098C51.8057 138.098 53.9247 135.989 53.9247 133.388C53.9247 130.786 51.8057 128.677 49.1917 128.677C46.5777 128.677 44.4587 130.786 44.4587 133.388C44.4587 135.989 46.5777 138.098 49.1917 138.098Z" fill="#B48EAD"/>
<path d="M11.5427 143.451C12.8497 143.451 13.9092 142.396 13.9092 141.096C13.9092 139.795 12.8497 138.74 11.5427 138.74C10.2357 138.74 9.17615 139.795 9.17615 141.096C9.17615 142.396 10.2357 143.451 11.5427 143.451Z" fill="#B48EAD"/>
<path d="M12.9312 123.052C14.2382 123.052 15.2977 121.998 15.2977 120.697C15.2977 119.396 14.2382 118.342 12.9312 118.342C11.6242 118.342 10.5647 119.396 10.5647 120.697C10.5647 121.998 11.6242 123.052 12.9312 123.052Z" fill="#B48EAD"/>
<path d="M24.6782 106.279C25.9851 106.279 27.0447 105.224 27.0447 103.924C27.0447 102.623 25.9851 101.569 24.6782 101.569C23.3712 101.569 22.3116 102.623 22.3116 103.924C22.3116 105.224 23.3712 106.279 24.6782 106.279Z" fill="#B48EAD"/>
<path d="M43.4279 97.9225C44.7349 97.9225 45.7944 96.8681 45.7944 95.5673C45.7944 94.2666 44.7349 93.2122 43.4279 93.2122C42.1209 93.2122 41.0614 94.2666 41.0614 95.5673C41.0614 96.8681 42.1209 97.9225 43.4279 97.9225Z" fill="#B48EAD"/>
<path d="M63.824 100.37C65.131 100.37 66.1905 99.3155 66.1905 98.0148C66.1905 96.7141 65.131 95.6597 63.824 95.6597C62.517 95.6597 61.4575 96.7141 61.4575 98.0148C61.4575 99.3155 62.517 100.37 63.824 100.37Z" fill="#B48EAD"/>
<path d="M80.0402 112.922C81.3472 112.922 82.4067 111.868 82.4067 110.567C82.4067 109.267 81.3472 108.212 80.0402 108.212C78.7332 108.212 77.6737 109.267 77.6737 110.567C77.6737 111.868 78.7332 112.922 80.0402 112.922Z" fill="#B48EAD"/>
<path d="M87.4441 131.994C88.7511 131.994 89.8107 130.94 89.8107 129.639C89.8107 128.338 88.7511 127.284 87.4441 127.284C86.1372 127.284 85.0776 128.338 85.0776 129.639C85.0776 130.94 86.1372 131.994 87.4441 131.994Z" fill="#B48EAD"/>
<path d="M83.9207 152.136C85.2277 152.136 86.2872 151.082 86.2872 149.781C86.2872 148.48 85.2277 147.426 83.9207 147.426C82.6137 147.426 81.5542 148.48 81.5542 149.781C81.5542 151.082 82.6137 152.136 83.9207 152.136Z" fill="#B48EAD"/>
<path d="M49.1918 133.388L73.5023 114.975" stroke="#B48EAD" stroke-width="4" stroke-miterlimit="10"/>
<path d="M71.6827 45.6276C73.4359 45.6276 74.8571 44.2131 74.8571 42.4683C74.8571 40.7235 73.4359 39.3091 71.6827 39.3091C69.9294 39.3091 68.5082 40.7235 68.5082 42.4683C68.5082 44.2131 69.9294 45.6276 71.6827 45.6276Z" stroke="#3F3D56" stroke-width="2" stroke-miterlimit="10"/>
<path d="M89.7542 82.4538C91.5074 82.4538 92.9287 81.0393 92.9287 79.2945C92.9287 77.5497 91.5074 76.1353 89.7542 76.1353C88.001 76.1353 86.5797 77.5497 86.5797 79.2945C86.5797 81.0393 88.001 82.4538 89.7542 82.4538Z" fill="#3F3D56"/>
<path d="M36.3314 80.0632C41.4141 80.0632 45.5344 75.9627 45.5344 70.9044C45.5344 65.8462 41.4141 61.7456 36.3314 61.7456C31.2488 61.7456 27.1285 65.8462 27.1285 70.9044C27.1285 75.9627 31.2488 80.0632 36.3314 80.0632Z" fill="#F2F2F2"/>
</g>
<defs>
<clipPath id="clip0">
<rect width="217.719" height="170" fill="white" transform="translate(0.140381)"/>
</clipPath>
</defs>
</svg>
