<svg width="92" height="64" viewBox="0 0 92 64" fill="none" xmlns="http://www.w3.org/2000/svg">
<path d="M28.1375 49.9615H55.27C62.7597 49.9615 68.8362 43.8934 68.8362 36.4142H73.3583C83.3352 36.4142 91.4466 28.3141 91.4466 18.3512C91.4466 8.38826 83.3352 0.288116 73.3583 0.288116H17.9629C16.0834 0.288116 14.5713 1.79807 14.5713 3.67494V36.4142C14.5713 43.8934 20.6479 49.9615 28.1375 49.9615ZM73.3583 9.31964C78.3467 9.31964 82.4025 13.3697 82.4025 18.3512C82.4025 23.3326 78.3467 27.3827 73.3583 27.3827H68.8362V9.31964H73.3583ZM80.099 63.5088H7.83059C1.104 63.5088 -0.789621 54.4773 2.74325 54.4773H85.1722C88.7051 54.4773 86.8398 63.5088 80.099 63.5088Z" fill="#E5E9F0"/>
</svg>
