<svg width="27" height="29" viewBox="0 0 27 29" fill="none" xmlns="http://www.w3.org/2000/svg">
<path d="M26.4913 13.2508L14.7024 1.02526C14.541 0.857792 14.3494 0.724942 14.1384 0.634302C13.9275 0.543662 13.7014 0.497009 13.4731 0.497009C13.2447 0.497009 13.0187 0.543662 12.8077 0.634302C12.5968 0.724942 12.4051 0.857792 12.2437 1.02526L9.50492 3.86551L11.5654 6.00226C12.0379 5.76735 12.5692 5.69034 13.0857 5.78187C13.6023 5.87339 14.0788 6.12893 14.4493 6.51322C14.8199 6.89751 15.0663 7.39161 15.1546 7.92732C15.2428 8.46303 15.1686 9.01394 14.942 9.50401L18.317 13.004C18.8559 12.7371 19.4683 12.6763 20.0461 12.8324C20.624 12.9886 21.13 13.3515 21.4748 13.8571C21.8195 14.3627 21.9808 14.9784 21.9302 15.5954C21.8795 16.2124 21.6201 16.791 21.1979 17.2288C20.7757 17.6667 20.2178 17.9357 19.6228 17.9882C19.0278 18.0407 18.4341 17.8735 17.9466 17.5159C17.459 17.1584 17.1091 16.6336 16.9585 16.0344C16.808 15.4352 16.8666 14.8 17.124 14.2413L13.749 10.7413C13.6681 10.7812 13.5853 10.8168 13.5009 10.848V18.1473C14.0639 18.3537 14.5384 18.7598 14.8405 19.2939C15.1426 19.828 15.2529 20.4557 15.152 21.066C15.051 21.6763 14.7452 22.23 14.2887 22.6291C13.8322 23.0282 13.2543 23.2471 12.6572 23.2471C12.0601 23.2471 11.4822 23.0282 11.0256 22.6291C10.5691 22.23 10.2633 21.6763 10.1624 21.066C10.0614 20.4557 10.1717 19.828 10.4739 19.2939C10.776 18.7598 11.2505 18.3537 11.8134 18.1473V10.848C11.4786 10.7254 11.1725 10.5311 10.9148 10.2778C10.6571 10.0245 10.4538 9.71782 10.3178 9.37767C10.1819 9.03752 10.1165 8.67153 10.1259 8.30346C10.1353 7.9354 10.2192 7.57349 10.3723 7.24126L8.31186 5.10451L0.510545 13.1948C0.184707 13.5334 0.00170898 13.9922 0.00170898 14.4705C0.00170898 14.9489 0.184707 15.4077 0.510545 15.7463L12.2994 27.9718C12.4608 28.1392 12.6525 28.2721 12.8634 28.3627C13.0743 28.4534 13.3004 28.5 13.5288 28.5C13.7571 28.5 13.9832 28.4534 14.1941 28.3627C14.405 28.2721 14.5967 28.1392 14.7581 27.9718L26.4913 15.804C26.8171 15.4654 27.0001 15.0066 27.0001 14.5283C27.0001 14.0499 26.8171 13.5911 26.4913 13.2525V13.2508Z" fill="#5E81AC"/>
</svg>
