<svg width="31" height="33" viewBox="0 0 31 33" fill="none" xmlns="http://www.w3.org/2000/svg">
<path fill-rule="evenodd" clip-rule="evenodd" d="M0 0.5H31V32.5H0V0.5ZM23.6982 27.3267C22.2606 27.3267 21.4481 26.5533 20.8242 25.5L18.4566 26.92C19.3117 28.664 21.0593 29.9947 23.7654 29.9947C26.5321 29.9947 28.5923 28.512 28.5923 25.804C28.5923 23.2933 27.1947 22.1773 24.7199 21.08L23.9914 20.7587C22.7411 20.1987 22.1999 19.8347 22.1999 18.932C22.1999 18.2027 22.7424 17.644 23.5949 17.644C24.4306 17.644 24.9692 18.008 25.4691 18.932L27.7373 17.4293C26.7775 15.6867 25.4471 15.0213 23.5949 15.0213C20.9935 15.0213 19.3285 16.7387 19.3285 18.9947C19.3285 21.4413 20.7235 22.6 22.8263 23.524L23.5548 23.8467C24.884 24.4467 25.6757 24.812 25.6757 25.8427C25.6757 26.704 24.9046 27.3267 23.6982 27.3267ZM12.409 27.3067C11.408 27.3067 10.9908 26.6 10.5335 25.76L8.16204 27.2427C8.84921 28.744 10.2003 29.9893 12.5317 29.9893C15.1138 29.9893 16.8821 28.572 16.8821 25.4587V15.192H13.9694V25.4187C13.9694 26.9213 13.3649 27.3067 12.4077 27.3067H12.409Z" fill="#5E81AC"/>
</svg>
