<svg width="42" height="38" viewBox="0 0 42 38" fill="none" xmlns="http://www.w3.org/2000/svg">
<path d="M14.2496 0.435031C13.0085 0.351312 11.788 0.574563 10.7188 1.19144C9.29259 2.01394 8.34231 3.41953 7.83266 5.03956C7.323 6.65519 7.2055 8.5205 7.39203 10.5577C7.40966 10.7633 7.44637 10.9792 7.47134 11.1892C7.27747 11.2715 7.07184 11.3478 6.88384 11.436C5.02734 12.2923 3.47194 13.3263 2.32484 14.5762C1.17922 15.8275 0.4375 17.3521 0.4375 19C0.4375 20.6465 1.17922 22.1725 2.32484 23.4239C3.47047 24.6738 5.02734 25.7078 6.88384 26.5641C7.07184 26.6522 7.27747 26.7286 7.47134 26.8108C7.44637 27.0209 7.40966 27.2368 7.39056 27.4424C7.2055 29.4796 7.323 31.3434 7.83266 32.962C8.34231 34.5805 9.29259 35.9847 10.7188 36.8086C12.1449 37.6311 13.8354 37.753 15.4922 37.3858C17.1489 37.0187 18.8218 36.1859 20.4918 35.0065C20.6607 34.889 20.8296 34.7494 21 34.6231C21.1689 34.7494 21.3378 34.8875 21.5082 35.0065C23.1782 36.1859 24.8511 37.0187 26.5078 37.3858C28.1646 37.753 29.8551 37.6326 31.2812 36.8086C32.7074 35.9861 33.6577 34.5805 34.1673 32.9605C34.677 31.3449 34.7945 29.4796 34.608 27.4424C34.5903 27.2368 34.5536 27.0209 34.5287 26.8108C34.7225 26.7286 34.9282 26.6522 35.1162 26.5641C36.9727 25.7078 38.5281 24.6738 39.6752 23.4239C40.8208 22.1725 41.5625 20.648 41.5625 19C41.5625 17.3536 40.8208 15.8275 39.6752 14.5762C38.5295 13.3263 36.9727 12.2923 35.1162 11.436C34.9282 11.3478 34.7225 11.2715 34.5287 11.1892C34.5536 10.9792 34.5903 10.7633 34.6094 10.5577C34.7945 8.5205 34.677 6.65666 34.1673 5.03809C33.6577 3.41953 32.7074 2.01541 31.2812 1.19144C29.8551 0.368937 28.1646 0.247031 26.5078 0.614219C24.8511 0.981406 23.1782 1.81419 21.5082 2.99359C21.3393 3.11109 21.1704 3.25062 21 3.37694C20.8311 3.25062 20.6622 3.11256 20.4918 2.99359C18.8218 1.81419 17.1489 0.981406 15.4922 0.614219C15.0832 0.522562 14.6678 0.462168 14.2496 0.433562V0.435031ZM14.0587 3.36078C14.3084 3.37841 14.5742 3.41953 14.8577 3.48416C15.9681 3.72944 17.2973 4.35219 18.6999 5.32744C17.4684 6.49965 16.3269 7.76292 15.2851 9.10653C13.6031 9.33593 11.9407 9.69139 10.3119 10.1699C10.168 8.46909 10.2913 7.00622 10.6321 5.92228C10.9831 4.81191 11.506 4.13041 12.1875 3.73531C12.6986 3.44156 13.3067 3.3035 14.0572 3.36078H14.0587ZM27.9428 3.36078C28.6918 3.3035 29.3014 3.44156 29.8125 3.73531C30.494 4.12894 31.0169 4.81191 31.3679 5.92228C31.7087 7.00622 31.832 8.46909 31.6881 10.1699C30.0593 9.69139 28.3969 9.33593 26.7149 9.10653C25.6731 7.76292 24.5316 6.49965 23.3001 5.32744C24.7027 4.35219 26.0319 3.72944 27.1423 3.48416C27.4258 3.421 27.6916 3.37841 27.9428 3.36078ZM21 7.18981C21.5155 7.66716 22.0311 8.19737 22.5466 8.75256C22.0313 8.73214 21.5157 8.72087 21 8.71878C20.4786 8.71878 19.966 8.73494 19.4534 8.75256C19.9675 8.19737 20.4845 7.66716 21 7.18981ZM21 11.6563C22.4173 11.6563 23.7906 11.74 25.111 11.8795C25.921 12.9885 26.6716 14.1397 27.3597 15.3282C28.0676 16.5546 28.6816 17.7854 29.2221 19C28.6666 20.256 28.0449 21.4817 27.3597 22.6719C26.6716 23.8604 25.921 25.0115 25.111 26.1205C23.7892 26.2601 22.4173 26.3438 21 26.3438C19.5827 26.3438 18.2094 26.2601 16.889 26.1205C16.079 25.0115 15.3284 23.8604 14.6403 22.6719C13.9324 21.4455 13.3184 20.2147 12.7779 19C13.317 17.7854 13.9324 16.5546 14.6403 15.3282C15.3483 14.1018 16.1076 12.9532 16.889 11.8795C18.2544 11.7325 19.6267 11.658 21 11.6563ZM12.8984 12.5375C12.6267 12.9708 12.3564 13.407 12.0964 13.8594C11.8407 14.3073 11.5929 14.7598 11.3533 15.2165C11.1329 14.5172 10.9394 13.8097 10.7731 13.0957C11.4443 12.8886 12.1611 12.705 12.8984 12.5375ZM29.1016 12.5375C29.8389 12.705 30.5557 12.8886 31.2269 13.0957C31.0712 13.7816 30.87 14.4939 30.6468 15.2165C30.4071 14.7598 30.1593 14.3073 29.9036 13.8594C29.6441 13.4141 29.3767 12.9734 29.1016 12.5375ZM8.00744 14.1576C8.38344 15.7218 8.90191 17.3448 9.57459 19C8.93148 20.5726 8.40761 22.1913 8.00744 23.8425C6.46378 23.1155 5.25794 22.2753 4.49125 21.4382C3.70547 20.5804 3.375 19.7873 3.375 19C3.375 18.2128 3.70547 17.4197 4.49125 16.5619C5.25794 15.7247 6.46378 14.8846 8.00744 14.1576ZM33.9926 14.1576C35.5362 14.8846 36.7421 15.7247 37.5088 16.5619C38.2945 17.4197 38.625 18.2128 38.625 19C38.625 19.7873 38.2945 20.5804 37.5088 21.4382C36.7421 22.2753 35.5362 23.1155 33.9926 23.8425C33.5924 22.1913 33.0685 20.5726 32.4254 19C33.0981 17.3448 33.6166 15.7218 33.9926 14.1576ZM21 14.5938C18.5839 14.5938 16.5938 16.5839 16.5938 19C16.5938 21.4161 18.5839 23.4063 21 23.4063C23.4161 23.4063 25.4062 21.4161 25.4062 19C25.4062 16.5839 23.4161 14.5938 21 14.5938ZM21 17.5313C21.8284 17.5313 22.4688 18.1717 22.4688 19C22.4688 19.8284 21.8284 20.4688 21 20.4688C20.1716 20.4688 19.5312 19.8284 19.5312 19C19.5312 18.1717 20.1716 17.5313 21 17.5313ZM11.3533 22.7835C11.5927 23.2359 11.835 23.6883 12.095 24.1407C12.3564 24.593 12.6267 25.0292 12.8984 25.4625C12.1611 25.2951 11.4443 25.1115 10.7731 24.9044C10.9288 24.2185 11.13 23.5062 11.3533 22.7835ZM30.6468 22.7835C30.87 23.5062 31.0727 24.2185 31.2269 24.9044C30.5557 25.1115 29.8389 25.2951 29.1016 25.4625C29.3733 25.0292 29.6436 24.593 29.905 24.1407C30.165 23.6883 30.4073 23.2359 30.6468 22.7835ZM10.3119 27.8302C11.8541 28.2855 13.5182 28.6497 15.2851 28.8935C16.3822 30.3035 17.5323 31.5637 18.6999 32.6726C17.2973 33.6479 15.9681 34.2706 14.8577 34.5159C13.7223 34.7685 12.869 34.6569 12.1875 34.2647C11.506 33.8711 10.9831 33.1882 10.6321 32.0778C10.2913 30.9938 10.168 29.531 10.3119 27.8302ZM31.6881 27.8302C31.832 29.531 31.7087 30.9938 31.3679 32.0778C31.0169 33.1882 30.494 33.8697 29.8125 34.2647C29.131 34.6569 28.2777 34.7685 27.1423 34.5159C26.0319 34.2706 24.7027 33.6479 23.3001 32.6726C24.5316 31.5004 25.6731 30.2371 26.7149 28.8935C28.3969 28.6641 30.0593 28.3087 31.6881 27.8302ZM19.4534 29.2475C19.966 29.2651 20.4786 29.2813 21 29.2813C21.5214 29.2813 22.034 29.2651 22.5466 29.2475C22.0325 29.8027 21.5155 30.3329 21 30.8102C20.4647 30.3092 19.9488 29.7879 19.4534 29.2475Z" fill="#5E81AC"/>
</svg>
