<svg width="31" height="33" viewBox="0 0 31 33" fill="none" xmlns="http://www.w3.org/2000/svg">
<path d="M15.5 0.5C24.025 0.5 31 7.7 31 16.5C31 25.3 24.025 32.5 15.5 32.5C6.975 32.5 0 25.3 0 16.5C0 7.7 6.975 0.5 15.5 0.5ZM12.4 21.8C12.5938 22.7 12.5938 23.5 12.4 24.2L12.3031 24.5C12.3031 24.6 12.2062 24.7 12.2062 24.7C12.0125 25.1 11.8187 25.4 11.5281 25.8C10.6562 26.8 9.39687 27.2 8.81562 26.9C8.23437 26.6 8.525 25.1 9.59062 24C10.7531 22.8 12.3031 22 12.3031 22L12.4 21.8ZM25.1875 7.3C24.5094 4.5 19.9562 3.5 15.5969 5.1C13.0781 6.1 10.2688 7.6 8.23438 9.5C5.8125 11.8 5.52187 13.8 5.61875 14.6C6.2 17.5 10.075 19.5 11.7219 20.9C11.2375 21.1 7.75 22.9 6.975 24.8C6.10313 26.8 7.07187 28.2 7.75 28.3C9.78438 28.9 11.9156 27.8 12.9812 26.1C14.0469 24.4 13.95 22.3 13.4656 21.2C14.2192 20.9598 15.0203 20.9253 15.7906 21.1C18.5031 21.4 19.0844 23.2 18.8906 23.9C18.6969 24.6 18.2125 25 18.0187 25.2C17.825 25.3 17.7281 25.4 17.825 25.4C17.825 25.5 17.9219 25.5 18.1156 25.5C18.3094 25.5 19.5687 24.9 19.5687 23.5C19.6656 21.8 18.0187 19.9 15.2094 19.9C14.0469 19.9 13.2719 20 12.7875 20.2C12.7875 20.1 12.6906 20.1 12.6906 20.1C10.9469 18.2 7.75 16.8 7.84687 14.2C7.84687 13.3 8.23438 10.8 14.0469 7.8C18.7937 5.3 22.6688 6 23.3469 7.5C24.3156 9.6 21.3125 13.6 16.3719 14.2C14.4344 14.4 13.4656 13.7 13.2719 13.4C12.9812 13.1 12.9812 13.1 12.8844 13.1C12.6906 13.2 12.7875 13.4 12.8844 13.6C13.0781 14 13.6594 14.7 14.725 15.1C15.5969 15.4 17.825 15.6 20.5375 14.5C23.5406 13.3 25.8656 10 25.1875 7.2V7.3Z" fill="#5E81AC"/>
</svg>
