<svg width="34" height="36" viewBox="0 0 34 36" fill="none" xmlns="http://www.w3.org/2000/svg">
<path d="M13.5 0.624653C13.7196 0.891532 13.8542 1.21814 13.8863 1.56228C13.9184 1.90642 13.8465 2.25227 13.68 2.55515C12.3792 4.94347 11.6999 7.62057 11.7045 10.3402C11.7045 19.3874 19.08 26.7134 28.17 26.7134C29.3558 26.7134 30.51 26.5897 31.6193 26.3534C31.9593 26.2798 32.3135 26.3079 32.6376 26.4344C32.9617 26.5608 33.2414 26.78 33.4418 27.0644C33.6532 27.3602 33.761 27.7175 33.7484 28.0809C33.7358 28.4443 33.6035 28.7933 33.372 29.0737C31.6073 31.2414 29.3811 32.988 26.8556 34.1861C24.3302 35.3842 21.5692 36.0036 18.774 35.9992C8.4015 35.9992 0 27.6427 0 17.3467C0 9.59765 4.7565 2.95115 11.529 0.134153C11.8664 -0.00842496 12.2409 -0.0376885 12.5963 0.0507586C12.9517 0.139206 13.2688 0.340588 13.5 0.624653Z" fill="#ECEFF4"/>
</svg>
