<svg width="244" height="170" viewBox="0 0 244 170" fill="none" xmlns="http://www.w3.org/2000/svg">
<g clip-path="url(#clip0)">
<path d="M232.623 33.0692H11.3773C8.3669 33.0658 5.48076 31.8671 3.35207 29.736C1.22338 27.6049 0.0259832 24.7155 0.022583 21.7017V11.3675C0.0259832 8.35372 1.22338 5.46433 3.35207 3.33324C5.48076 1.20215 8.3669 0.003405 11.3773 0H232.623C235.633 0.00340399 238.519 1.20214 240.648 3.33323C242.777 5.46432 243.974 8.35372 243.977 11.3675V21.7017C243.974 24.7155 242.777 27.6049 240.648 29.736C238.519 31.8671 235.633 33.0658 232.623 33.0692ZM11.3773 0.688938C8.54935 0.692148 5.83813 1.81825 3.83845 3.82018C1.83878 5.82211 0.71395 8.53638 0.710745 11.3675V21.7017C0.71395 24.5328 1.83878 27.2471 3.83845 29.249C5.83813 31.2509 8.54935 32.377 11.3773 32.3802H232.623C235.451 32.377 238.162 31.2509 240.162 29.249C242.161 27.2471 243.286 24.5328 243.289 21.7017V11.3675C243.286 8.53638 242.161 5.82211 240.162 3.82018C238.162 1.81825 235.451 0.692148 232.623 0.688938H11.3773Z" fill="#3F3D56"/>
<path d="M175.161 9.98975H28.2373C24.6267 9.98975 21.6997 12.92 21.6997 16.5347V16.5347C21.6997 20.1494 24.6267 23.0796 28.2373 23.0796H175.161C178.771 23.0796 181.698 20.1494 181.698 16.5347C181.698 12.92 178.771 9.98975 175.161 9.98975Z" fill="#E6E6E6"/>
<path d="M194.43 67.3931H47.5061C43.8955 67.3931 40.9685 70.3233 40.9685 73.938V73.938C40.9685 77.5527 43.8955 80.483 47.5061 80.483H194.43C198.04 80.483 200.967 77.5527 200.967 73.938C200.967 70.3233 198.04 67.3931 194.43 67.3931Z" fill="#B48EAD"/>
<path d="M194.43 109.012H47.5061C43.8955 109.012 40.9685 111.943 40.9685 115.557V115.557C40.9685 119.172 43.8955 122.102 47.5061 122.102H194.43C198.04 122.102 200.967 119.172 200.967 115.557C200.967 111.943 198.04 109.012 194.43 109.012Z" fill="#E6E6E6"/>
<path d="M194.43 150.632H47.5061C43.8955 150.632 40.9685 153.562 40.9685 157.177V157.177C40.9685 160.791 43.8955 163.722 47.5061 163.722H194.43C198.04 163.722 200.967 160.791 200.967 157.177C200.967 153.562 198.04 150.632 194.43 150.632Z" fill="#E6E6E6"/>
<path d="M222.47 23.6052C222.313 23.8292 222.074 23.9817 221.805 24.0292C221.536 24.0767 221.26 24.0152 221.036 23.8584L215.418 19.9451C215.195 19.7883 215.042 19.549 214.995 19.2797C214.947 19.0105 215.009 18.7334 215.165 18.5094C215.322 18.2855 215.561 18.133 215.83 18.0855C216.099 18.038 216.376 18.0994 216.6 18.2563L222.217 22.1695C222.441 22.3264 222.593 22.5657 222.641 22.835C222.688 23.1042 222.627 23.3813 222.47 23.6052Z" fill="#B48EAD"/>
<path d="M216.092 19.1592C215.263 20.3449 214.101 21.2577 212.754 21.7823C211.406 22.3069 209.934 22.4197 208.522 22.1065C207.111 21.7932 205.824 21.068 204.824 20.0224C203.824 18.9769 203.157 17.6581 202.906 16.2327C202.655 14.8073 202.831 13.3394 203.414 12.0146C203.996 10.6898 204.958 9.5676 206.177 8.78992C207.396 8.01223 208.818 7.61398 210.264 7.64554C211.709 7.6771 213.113 8.13704 214.297 8.96721C215.883 10.0818 216.963 11.7809 217.3 13.6916C217.636 15.6023 217.202 17.5687 216.092 19.1592ZM205.614 11.8138C204.992 12.703 204.647 13.7569 204.623 14.8422C204.6 15.9274 204.898 16.9954 205.481 17.9109C206.063 18.8264 206.904 19.5484 207.897 19.9856C208.889 20.4227 209.989 20.5555 211.057 20.367C212.124 20.1784 213.112 19.6772 213.896 18.9265C214.679 18.1758 215.222 17.2095 215.457 16.1497C215.692 15.0899 215.607 13.9842 215.214 12.9725C214.821 11.9608 214.137 11.0885 213.249 10.4659C212.057 9.63259 210.584 9.30653 209.153 9.55923C207.721 9.81193 206.449 10.6228 205.614 11.8138Z" fill="#B48EAD"/>
<path d="M226.257 86.727H17.7428C17.6516 86.727 17.564 86.6908 17.4995 86.6262C17.435 86.5615 17.3987 86.4739 17.3987 86.3826C17.3987 86.2912 17.435 86.2036 17.4995 86.139C17.564 86.0744 17.6516 86.0381 17.7428 86.0381H226.257C226.348 86.0381 226.436 86.0744 226.5 86.139C226.565 86.2036 226.601 86.2912 226.601 86.3826C226.601 86.4739 226.565 86.5615 226.5 86.6262C226.436 86.6908 226.348 86.727 226.257 86.727Z" fill="#3F3D56"/>
<path d="M226.257 128.364H17.7428C17.6516 128.364 17.564 128.327 17.4995 128.263C17.435 128.198 17.3987 128.111 17.3987 128.019C17.3987 127.928 17.435 127.84 17.4995 127.776C17.564 127.711 17.6516 127.675 17.7428 127.675H226.257C226.348 127.675 226.436 127.711 226.5 127.776C226.565 127.84 226.601 127.928 226.601 128.019C226.601 128.111 226.565 128.198 226.5 128.263C226.436 128.327 226.348 128.364 226.257 128.364Z" fill="#3F3D56"/>
<path d="M226.257 170H17.7428C17.6516 170 17.564 169.964 17.4995 169.899C17.435 169.835 17.3987 169.747 17.3987 169.656C17.3987 169.564 17.435 169.477 17.4995 169.412C17.564 169.347 17.6516 169.311 17.7428 169.311H226.257C226.348 169.311 226.436 169.347 226.5 169.412C226.565 169.477 226.601 169.564 226.601 169.656C226.601 169.747 226.565 169.835 226.5 169.899C226.436 169.964 226.348 170 226.257 170Z" fill="#3F3D56"/>
</g>
<defs>
<clipPath id="clip0">
<rect width="243.955" height="170" fill="white" transform="translate(0.022583)"/>
</clipPath>
</defs>
</svg>
