<svg id="visual" viewBox="0 0 900 600" width="900" height="600" xmlns="http://www.w3.org/2000/svg" xmlns:xlink="http://www.w3.org/1999/xlink" version="1.1"><path d="M0 438L16.7 435C33.3 432 66.7 426 100 429C133.3 432 166.7 444 200 450.3C233.3 456.7 266.7 457.3 300 452.5C333.3 447.7 366.7 437.3 400 433.2C433.3 429 466.7 431 500 428C533.3 425 566.7 417 600 415.3C633.3 413.7 666.7 418.3 700 416.7C733.3 415 766.7 407 800 404.5C833.3 402 866.7 405 883.3 406.5L900 408L900 601L883.3 601C866.7 601 833.3 601 800 601C766.7 601 733.3 601 700 601C666.7 601 633.3 601 600 601C566.7 601 533.3 601 500 601C466.7 601 433.3 601 400 601C366.7 601 333.3 601 300 601C266.7 601 233.3 601 200 601C166.7 601 133.3 601 100 601C66.7 601 33.3 601 16.7 601L0 601Z" fill="#c1c1c1"></path><path d="M0 434L16.7 442.2C33.3 450.3 66.7 466.7 100 475.3C133.3 484 166.7 485 200 481C233.3 477 266.7 468 300 464C333.3 460 366.7 461 400 458.5C433.3 456 466.7 450 500 452.3C533.3 454.7 566.7 465.3 600 471.3C633.3 477.3 666.7 478.7 700 471.8C733.3 465 766.7 450 800 445.8C833.3 441.7 866.7 448.3 883.3 451.7L900 455L900 601L883.3 601C866.7 601 833.3 601 800 601C766.7 601 733.3 601 700 601C666.7 601 633.3 601 600 601C566.7 601 533.3 601 500 601C466.7 601 433.3 601 400 601C366.7 601 333.3 601 300 601C266.7 601 233.3 601 200 601C166.7 601 133.3 601 100 601C66.7 601 33.3 601 16.7 601L0 601Z" fill="#cacbcc"></path><path d="M0 515L16.7 511C33.3 507 66.7 499 100 501.3C133.3 503.7 166.7 516.3 200 521.3C233.3 526.3 266.7 523.7 300 517.8C333.3 512 366.7 503 400 498.3C433.3 493.7 466.7 493.3 500 491C533.3 488.7 566.7 484.3 600 484C633.3 483.7 666.7 487.3 700 485.7C733.3 484 766.7 477 800 481.5C833.3 486 866.7 502 883.3 510L900 518L900 601L883.3 601C866.7 601 833.3 601 800 601C766.7 601 733.3 601 700 601C666.7 601 633.3 601 600 601C566.7 601 533.3 601 500 601C466.7 601 433.3 601 400 601C366.7 601 333.3 601 300 601C266.7 601 233.3 601 200 601C166.7 601 133.3 601 100 601C66.7 601 33.3 601 16.7 601L0 601Z" fill="#d3d5d8"></path><path d="M0 518L16.7 520.8C33.3 523.7 66.7 529.3 100 531C133.3 532.7 166.7 530.3 200 530.8C233.3 531.3 266.7 534.7 300 530.8C333.3 527 366.7 516 400 511C433.3 506 466.7 507 500 514.5C533.3 522 566.7 536 600 541.5C633.3 547 666.7 544 700 539.5C733.3 535 766.7 529 800 527.5C833.3 526 866.7 529 883.3 530.5L900 532L900 601L883.3 601C866.7 601 833.3 601 800 601C766.7 601 733.3 601 700 601C666.7 601 633.3 601 600 601C566.7 601 533.3 601 500 601C466.7 601 433.3 601 400 601C366.7 601 333.3 601 300 601C266.7 601 233.3 601 200 601C166.7 601 133.3 601 100 601C66.7 601 33.3 601 16.7 601L0 601Z" fill="#dcdfe4"></path><path d="M0 551L16.7 552.2C33.3 553.3 66.7 555.7 100 559.5C133.3 563.3 166.7 568.7 200 569.5C233.3 570.3 266.7 566.7 300 565C333.3 563.3 366.7 563.7 400 561C433.3 558.3 466.7 552.7 500 554.2C533.3 555.7 566.7 564.3 600 565.8C633.3 567.3 666.7 561.7 700 557.2C733.3 552.7 766.7 549.3 800 552.8C833.3 556.3 866.7 566.7 883.3 571.8L900 577L900 601L883.3 601C866.7 601 833.3 601 800 601C766.7 601 733.3 601 700 601C666.7 601 633.3 601 600 601C566.7 601 533.3 601 500 601C466.7 601 433.3 601 400 601C366.7 601 333.3 601 300 601C266.7 601 233.3 601 200 601C166.7 601 133.3 601 100 601C66.7 601 33.3 601 16.7 601L0 601Z" fill="#e5e9f0"></path></svg>