<svg width="65" height="72" viewBox="0 0 65 72" fill="none" xmlns="http://www.w3.org/2000/svg">
<path d="M60.8364 0.831192V10.432H16.0327V64.8365H60.8364V71.237H0.0313721V7.23172C0.0313721 3.67943 2.87961 0.831192 6.4319 0.831192H60.8364ZM64.0367 39.2344V45.6349C64.0367 49.1872 61.1884 52.0354 57.6362 52.0354H51.2356C51.2356 61.6362 41.6348 61.6362 38.4346 61.6362C35.2343 61.6362 25.6335 61.6362 25.6335 52.0354V32.8338H57.6362C59.3337 32.8338 60.9617 33.5082 62.162 34.7085C63.3623 35.9089 64.0367 37.5368 64.0367 39.2344ZM57.6362 39.2344H51.2356V45.6349H57.6362V39.2344ZM48.0354 26.4333L54.4359 13.6323H22.4332L28.8338 26.4333H48.0354Z" fill="#E5E9F0"/>
</svg>
