<svg width="67" height="75" viewBox="0 0 67 75" fill="none" xmlns="http://www.w3.org/2000/svg">
<path d="M14.9583 74.5833H52.0417C52.934 74.5835 53.7965 74.2618 54.4709 73.6774C55.1452 73.0929 55.5862 72.2849 55.7129 71.4016L62.6735 22.6667H66.875V15.25H61.7501L55.3569 2.46737C55.0498 1.85094 54.5769 1.33242 53.9912 0.970138C53.4055 0.607853 52.7303 0.416172 52.0417 0.416657H14.9583C13.5529 0.416657 12.2698 1.21024 11.6394 2.46737L5.24992 15.25H0.125V22.6667H4.32654L11.2871 71.4016C11.4138 72.2849 11.8548 73.0929 12.5291 73.6774C13.2035 74.2618 14.066 74.5835 14.9583 74.5833ZM53.5917 33.7917H13.4082L11.8174 22.6667H55.1789L53.5917 33.7917ZM18.1735 67.1667L16.5826 56.0417H50.4137L48.8228 67.1667H18.1735ZM17.2501 7.83333H49.7499L53.4582 15.25H13.5417L17.2501 7.83333Z" fill="#E5E9F0"/>
</svg>
