<svg width="19" height="41" viewBox="0 0 19 41" fill="none" xmlns="http://www.w3.org/2000/svg">
<path d="M14.8915 32.89L15.9793 31.08C15.9793 31.08 13.5103 32.0638 9.38728 32.0638C5.25653 32.0638 2.82728 31.1188 2.82728 31.1188L4.0419 33.0925L4.46856 39.3025C4.46856 39.9813 6.70947 40.5013 9.48594 40.5013C12.2547 40.5013 14.5046 39.9813 14.5046 39.3025L14.8902 32.9163L14.8915 32.89ZM15.9409 21.145C14.6327 21.2238 13.9716 22.6488 13.3105 24.1513C13.0709 24.7 12.2381 27.05 11.6961 26.7563C11.149 26.47 12.3969 24.5425 12.7506 23.3963C12.3444 23.6825 10.8633 24.81 10.4815 23.755C9.86775 24.2763 8.55319 24.5563 8.69925 23.2013C8.37253 23.7813 7.63837 24.575 6.75815 24.23C5.60375 23.8 7.43081 20.2063 7.88565 20.3838C8.33794 20.585 7.79212 21.385 7.65119 21.705C7.32959 22.4088 6.97084 23.3063 7.21044 23.475C7.62428 23.8 8.75819 22.31 8.78509 22.2763C8.99137 22.0025 9.59997 20.2325 10.0868 20.435C10.5737 20.6563 8.87222 23.0063 9.50644 23.475C9.63328 23.58 10.1612 23.43 10.4802 23.0788C10.6801 22.8838 10.6134 22.3825 11.2951 20.7875C11.9882 19.1863 12.6019 17.1938 13.0696 17.3425C13.5424 17.4925 13.1567 18.5163 12.9825 18.9125C12.1881 20.7088 10.8197 23.6525 11.4603 23.4313C12.101 23.2025 12.4354 23.2025 13.076 22.4813C13.7166 21.7575 13.6641 20.56 14.0959 20.5863C14.511 20.6113 14.4559 21.01 14.3572 21.2825C14.7634 20.8325 16.3188 19.8375 16.6789 20.8075C17.1196 21.9525 14.4559 23.6325 15.117 23.5275C15.7577 23.4563 16.8044 22.8063 17.2734 22.2063L18.5021 11.3725C18.5021 11.3725 17.2465 12.3763 9.33859 12.3763C1.43712 12.3763 0.309623 11.4 0.309623 11.4L1.35641 21.2838C1.924 19.74 3.25266 16.595 5.32828 16.7188C6.27512 16.7725 7.54869 18.5688 6.44937 18.6138C5.98812 18.64 5.93559 17.715 5.40259 17.5925C4.99387 17.5213 4.45447 17.8213 4.10084 18.1725C3.40769 18.8425 1.87147 21.5113 2.07775 22.8388C2.33272 24.5325 4.48009 22.26 4.84012 21.5888C5.09509 21.1138 5.27447 19.6888 5.80875 19.8388C6.37634 19.9875 5.76134 21.465 5.3475 22.735C4.88753 24.1863 4.65434 25.7038 4.10084 25.5288C3.53325 25.3525 4.45447 23.4838 4.40194 23.1588C3.86765 23.66 2.8939 24.8575 1.61906 24.2588L2.25328 30.4238C2.25328 30.4238 3.9945 31.745 9.21303 31.745C14.4316 31.745 16.2458 30.4238 16.2458 30.4238L17.0671 23.2825C16.3996 23.9338 14.3034 25.0525 14.1766 23.7838C14.0779 22.76 16.4521 21.29 15.8384 21.2575L15.9409 21.145ZM18.6366 1.61379L14.092 6.28254L13.2567 9.45254C16.4739 9.64754 18.7097 10.0975 18.7097 10.6038C18.7097 11.3075 14.5853 11.8675 9.50003 11.8675C4.41475 11.8675 0.290405 11.2963 0.290405 10.5988C0.290405 9.90254 4.41475 9.32254 9.50003 9.32254C10.2214 9.32254 10.9414 9.32254 11.6628 9.34879L12.616 5.55879L17.4399 0.565038C17.5617 0.415038 17.9217 0.538788 18.2548 0.813788C18.5815 1.06754 18.7622 1.38504 18.661 1.53504V1.58629L18.6366 1.61379ZM12.083 11.275C12.083 11.275 11.1874 11.275 11.0414 11.1388C11.0028 11.0979 10.9813 11.0444 10.9812 10.9888C10.9812 10.89 11.0478 10.8388 11.1349 10.8075L11.2079 10.9313C11.1733 10.945 11.1618 10.9563 11.1554 10.97C11.1554 11.0413 11.6884 11.0888 12.1022 11.0813C12.511 11.075 13.0107 11.0413 13.0107 10.9763C13.0107 10.9563 12.9697 10.9375 12.903 10.9175L12.9837 10.8013C13.0914 10.8325 13.1836 10.8975 13.1836 11.0025C13.1836 11.1838 12.944 11.2175 12.7903 11.2363C12.6096 11.2625 12.0894 11.2763 12.0894 11.2763L12.083 11.275Z" fill="#5E81AC"/>
</svg>
