<svg width="1440" height="163" viewBox="0 0 1440 163" fill="none" xmlns="http://www.w3.org/2000/svg">
<path fill-rule="evenodd" clip-rule="evenodd" d="M0 73.3492L30 62.4668C60 51.0661 120 28.783 180 32.4104C240 36.0379 300 66.0943 360 69.7217C420 73.3492 480 51.0661 540 39.6654C600 28.783 660 28.783 720 36.0379C780 43.8111 840 58.3211 900 73.3492C960 88.3774 1020 103.406 1080 84.7499C1140 66.0943 1200 13.7548 1260 2.35411C1320 -8.52835 1380 21.0098 1410 36.0379L1440 51.0661V163H1410C1380 163 1320 163 1260 163C1200 163 1140 163 1080 163C1020 163 960 163 900 163C840 163 780 163 720 163C660 163 600 163 540 163C480 163 420 163 360 163C300 163 240 163 180 163C120 163 60 163 30 163H0V73.3492Z" fill="#3B4252"/>
</svg>
